<svg id="Capa_1" enable-background="new 0 0 511.985 511.985" height="512" viewBox="0 0 511.985 511.985" width="512" xmlns="http://www.w3.org/2000/svg"><g><g><g><path d="m495.785 340.107c-5.45-5.883-14.345-6.843-21.017-2.393-39.221 26.159-86.333 41.416-137.015 41.416-136.591 0-247.32-110.729-247.32-247.321 0-9.863.602-19.583 1.73-29.143h-54.609c-19.022 36.491-29.865 77.922-30.052 121.879-.628 147.588 119.135 267.883 266.725 267.882 96.553-.001 181.102-51.315 227.911-128.151 3.78-6.204 2.96-14.188-2.002-19.494-1.454-1.555-2.904-3.114-4.351-4.675z" fill="#f7eaad"/></g></g><g><g><path d="m500.135 344.781c-1.453-1.555-2.903-3.113-4.35-4.674-5.45-5.884-14.344-6.843-21.017-2.393-39.222 26.159-86.333 41.416-137.016 41.416-136.591 0-247.32-110.729-247.32-247.321 0-9.863.602-19.583 1.729-29.143h-54.607c-1.345 2.579-2.644 5.186-3.906 7.814h28.268c-1.198 10.158-1.838 20.486-1.838 30.965 0 145.133 117.653 262.786 262.786 262.786 53.852 0 103.909-16.211 145.583-44.006 7.089-4.728 16.54-3.709 22.331 2.543 1.537 1.659 3.078 3.315 4.622 4.966.963 1.03 1.776 2.157 2.443 3.349 1.463-2.247 2.896-4.515 4.293-6.808 3.781-6.204 2.961-14.187-2.001-19.494z" fill="#f7e07b"/></g></g><g><g><path d="m73.414 24.444-35.86 78.223h54.608l15.465-72.996c1.104-5.209-2.87-10.113-8.195-10.113h-18.403c-3.275 0-6.25 1.909-7.615 4.886z" fill="#c39f8e"/></g></g><g><circle cx="120.577" cy="344.028" r="7.5"/><circle cx="175.129" cy="436.618" r="7.5"/><circle cx="273.55" cy="462.105" r="7.5"/><path d="m505.615 339.66c-1.445-1.546-2.888-3.096-4.327-4.649-7.963-8.596-20.867-10.081-30.681-3.536-39.388 26.27-85.327 40.155-132.854 40.155-53.481 0-104.077-17.218-146.317-49.792-3.279-2.529-7.988-1.922-10.52 1.359-2.529 3.28-1.921 7.99 1.359 10.519 44.888 34.616 98.651 52.914 155.477 52.914 50.498 0 99.316-14.757 141.176-42.676 2.591-1.728 5.744-1.958 8.404-.822-30.309 29.403-69.425 52.242-113.541 66.22-83.857 26.569-152.402 5.004-195.136-17.767-3.658-1.949-8.199-.563-10.146 3.092-1.947 3.656-.564 8.198 3.092 10.146 39.688 21.147 81.817 31.8 124.64 31.8 27.232 0 54.749-4.311 82.082-12.971 45.911-14.547 86.743-38.304 118.594-68.919.247 1.917-.132 3.913-1.186 5.642-21.065 34.579-50.367 64.167-84.738 85.566-3.517 2.189-4.592 6.814-2.403 10.331 1.422 2.283 3.869 3.537 6.374 3.537 1.354 0 2.724-.366 3.957-1.134 36.352-22.632 67.342-53.925 89.621-90.496 5.513-9.053 4.309-20.78-2.927-28.519z"/><path d="m385.238 460.014c-34.814 16.531-72.164 24.913-111.011 24.913-69.365.001-134.575-27.124-183.619-76.376-49.051-49.259-75.901-114.596-75.606-183.974.17-40.245 9.328-78.706 27.174-114.41h13.179c-8.237 34.006-9.756 68.772-4.463 103.495 5.587 36.648 18.444 71.574 38.214 103.808 1.416 2.308 3.878 3.58 6.4 3.58 1.337 0 2.691-.357 3.914-1.108 3.531-2.166 4.638-6.784 2.473-10.315-18.719-30.518-30.889-63.566-36.172-98.225-5.181-33.981-3.46-68.009 5.084-101.235h13.068c-.618 7.249-.942 14.499-.942 21.643 0 68.842 27.027 133.35 76.104 181.642 1.461 1.437 3.361 2.154 5.261 2.154 1.939 0 3.878-.748 5.346-2.24 2.905-2.953 2.867-7.701-.085-10.606-46.188-45.449-71.625-106.16-71.625-170.95 0-9.217.557-18.626 1.648-27.971l15.383-72.614c.997-4.706-.168-9.549-3.196-13.286s-7.524-5.881-12.335-5.881h-18.403c-6.188 0-11.854 3.634-14.433 9.259v.001l-35.792 78.076c-20.25 38.92-30.614 81.015-30.801 125.119-.313 73.396 28.09 142.514 79.976 194.621 51.88 52.101 120.865 80.793 194.249 80.793 41.09-.001 80.604-8.87 117.444-26.363 3.742-1.777 5.335-6.25 3.559-9.992-1.779-3.742-6.253-5.334-9.993-3.558zm-305.007-432.444c.143-.311.456-.512.798-.512h18.403c.277 0 .506.109.681.325.175.215.234.462.177.734l-14.204 67.05h-36.843z"/></g></g></svg>