<svg id="Capa_1" enable-background="new 0 0 512.027 512.027" height="512" viewBox="0 0 512.027 512.027" width="512" xmlns="http://www.w3.org/2000/svg"><g><g><g><path d="m193.037 503.543c69.456 8.692 149.479-41.423 165.283-167.707 15.805-126.284-15.949-231.264-113.819-243.513-97.87-12.248-154.515 81.669-170.32 207.952-15.804 126.285 49.4 194.576 118.856 203.268z" fill="#f0c267"/></g></g><g><g><path d="m244.502 92.323c-11.135-1.394-21.731-1.398-31.799-.152.466.054.927.093 1.395.152 97.87 12.249 129.623 117.229 113.819 243.513-13.518 108.016-74.02 160.298-134.705 167.727 69.416 8.587 149.318-41.548 165.109-167.727 15.804-126.284-15.949-231.264-113.819-243.513z" fill="#eaa85c"/></g></g><g><g><path d="m266.046 41.458s11.906 165.259 160.235 247.016c7.141 3.936 15.572-2.421 13.682-10.353-14.422-60.538-66.468-240.88-173.917-236.663z" fill="#afd171"/></g></g><g><g><path d="m439.963 278.122c-14.422-60.539-66.469-240.881-173.917-236.664 0 0 .102 1.414.404 4.037 86.745 26.872 130.14 178.187 143.109 232.626.039.165.068.329.098.493 5.342 3.402 10.88 6.694 16.624 9.86 7.142 3.937 15.572-2.42 13.682-10.352z" fill="#a4c46a"/></g></g><path d="m447.259 276.384c-5.067-21.269-13.928-53.929-27.367-88.735-1.492-3.865-5.836-5.786-9.698-4.295-3.864 1.492-5.787 5.834-4.295 9.698 13.139 34.027 21.809 65.988 26.769 86.808.185.779-.041 1.419-.674 1.901-.452.344-1.181.648-2.091.146-32.889-18.128-61.557-42.015-85.208-70.997-18.972-23.249-34.793-49.828-47.026-78.998-11.326-27.009-17.452-51.314-20.696-68 21.438 23.565 58.156 67.316 72.303 104.7 1.135 3 3.988 4.847 7.016 4.847.882 0 1.779-.157 2.653-.487 3.874-1.466 5.826-5.795 4.36-9.669-15.913-42.048-56.889-89.764-78.408-113.01 19.789 3.674 38.691 14.569 56.389 32.555 19.285 19.599 37.209 47.543 53.272 83.057 1.707 3.774 6.149 5.45 9.924 3.743 3.774-1.707 5.45-6.15 3.743-9.924-16.794-37.129-35.719-66.533-56.248-87.396-23.661-24.046-49.575-36.903-77.14-38.306 8.071-13.849 14.66-21.385 14.788-21.529 2.753-3.088 2.484-7.823-.601-10.581-3.088-2.76-7.829-2.495-10.59.594-1.103 1.234-26.806 30.436-40.393 81.66-45.652-3.37-85.455 15.765-115.467 55.681-28.153 37.445-47.46 92.599-55.833 159.502-.103.819-.202 1.635-.297 2.449-.483 4.114 2.461 7.84 6.575 8.323.297.035.592.052.883.052 3.751 0 6.992-2.81 7.439-6.627.091-.776.186-1.554.284-2.335 8.048-64.311 26.354-116.993 52.938-152.35 28.607-38.047 65.279-54.564 109.009-49.092 10.274 1.286 20.005 3.705 28.941 7.18 3.02 9.478 6.679 19.643 11.109 30.252 12.771 30.587 29.335 58.487 49.232 82.925 6.373 7.827 13.097 15.296 20.15 22.405 2.802 28.301 2.111 58.535-2.123 92.377-7.043 56.275-27.811 101.157-60.06 129.793-27.704 24.6-62.098 35.752-96.85 31.403-31.033-3.884-59.364-20.105-79.774-45.675-23.381-29.293-35.444-69.508-34.882-116.297.05-4.142-3.267-7.54-7.41-7.589-4.118-.053-7.54 3.267-7.589 7.41-1.332 111.08 63.224 168.955 127.793 177.036 5.568.697 11.122 1.042 16.648 1.042 33.284-.001 65.456-12.521 92.024-36.113 35.011-31.089 57.482-79.205 64.984-139.147 3.561-28.457 4.689-54.504 3.418-79.079 16.358 14.247 34.229 26.743 53.481 37.355 2.603 1.435 5.417 2.144 8.211 2.144 3.597 0 7.162-1.175 10.203-3.489 5.38-4.1 7.749-10.734 6.181-17.318zm-194.201-190.334c2.425-8.812 5.239-16.917 8.21-24.274 1.331 7.517 3.286 16.89 6.125 27.617-4.642-1.352-9.428-2.466-14.335-3.343z"/></g></svg>