<svg id="Capa_1" enable-background="new 0 0 509.992 509.992" height="512" viewBox="0 0 509.992 509.992" width="512" xmlns="http://www.w3.org/2000/svg"><g><g><g><path d="m258.926 48.274s-43.943 62.988-107.741 71.882-123.291-39.676-123.291-39.676 43.942-62.988 107.74-71.882 123.292 39.676 123.292 39.676z" fill="#a6d4a1"/></g></g><g><g><path d="m227.692 28.368c.806.622 1.234.971 1.234.971s-43.943 62.988-107.741 71.882c-35.03 4.883-68.759-7.558-92.058-19.77 8.793 6.785 63.615 46.852 122.058 38.705 63.798-8.894 107.741-71.882 107.741-71.882s-12.1-9.876-31.234-19.906z" fill="#9cc997"/></g></g><g><g><path d="m426.324 130.839c-59.384-59.384-132.969 0-157.013 0s-97.629-59.384-157.013 0c-59.385 59.384-112.314 304.667 69.712 367.924 0 0 33.746 11.888 67.579-6.942 12.264-6.826 27.179-6.826 39.443 0 33.833 18.83 67.579 6.942 67.579 6.942 182.026-63.257 129.097-308.54 69.713-367.924z" fill="#dc8995"/></g></g><g><g><path d="m426.323 130.839c-24.82-24.82-52.118-28.886-77.246-25.219 15.967 2.636 32.07 10.043 47.246 25.219 59.384 59.384 112.314 304.668-69.712 367.925 0 0-3.967 1.396-10.541 2.474 22.72 3.791 40.541-2.474 40.541-2.474 182.026-63.258 129.097-308.541 69.712-367.925z" fill="#d5717f"/></g></g><g><path d="m70.204 362.72c-20.654-90.36 13.686-192.867 47.396-226.578 17.858-17.858 38.478-25.697 63.043-23.96 21.521 1.521 42.104 10.043 58.643 16.892 12.478 5.167 22.337 9.248 29.981 9.263.012 0 .024.003.037.003.018 0 .036-.003.053-.003 7.643-.017 17.501-4.097 29.976-9.263 16.539-6.848 37.122-15.372 58.643-16.892 24.557-1.735 45.184 6.101 63.044 23.961.799.799 1.612 1.651 2.415 2.533 2.791 3.062 7.534 3.28 10.596.49 3.061-2.79 3.28-7.534.49-10.595-.959-1.053-1.934-2.075-2.896-3.036-47.717-47.717-104.252-24.307-138.031-10.32-6.935 2.872-13.605 5.633-18.613 7.08-16.85-73.523.34-103.373.683-103.949 2.183-3.48 1.158-8.077-2.309-10.298-3.486-2.235-8.127-1.219-10.361 2.269-.43.671-5.311 8.594-8.241 25.561-19.454-13.447-67.932-41.988-120.154-34.708-66.279 9.239-110.986 72.337-112.856 75.018-2.258 3.237-1.622 7.67 1.457 10.141 1.638 1.314 37.579 29.817 83.298 39.719-19.442 19.765-37.221 56.756-47.635 99.186-11.844 48.254-13.009 98.269-3.281 140.829.794 3.476 3.884 5.831 7.305 5.83.553 0 1.116-.061 1.678-.19 4.037-.923 6.562-4.945 5.639-8.983zm142.344-259.535c17.346-11.709 31.025-25.16 40.07-35.263.314 14.533 2.18 32.078 6.679 52.955-4.249-1.512-9.188-3.557-14.272-5.662-9.315-3.857-20.363-8.429-32.477-12.03zm-75.878-87.159c48.61-6.776 95.58 22.397 111.67 33.728-8.454 10.469-28.479 32.899-55.757 48.148-.281.157-.543.334-.795.52-22.52-3.491-47.128-1.355-70.453 15.007-.126-.023-.25-.052-.379-.069-36.703-4.813-69.458-25.319-82.445-34.388 12.411-15.331 49.59-56.175 98.159-62.946z"/><path d="m452.394 153.847c-2.048-3.601-6.628-4.859-10.228-2.811-3.601 2.048-4.858 6.627-2.81 10.228 15.937 28.014 27.875 66.247 32.752 104.896 3.976 31.506 5.167 78.502-11.738 123.475-18.685 49.711-54.423 84.043-106.23 102.047-.308.106-31.158 10.451-61.46-6.414-14.633-8.145-32.105-8.145-46.738 0-30.303 16.865-61.153 6.521-61.47 6.411-51.42-17.87-87.024-51.85-105.823-100.996-1.48-3.869-5.813-5.805-9.685-4.325-3.869 1.479-5.805 5.815-4.325 9.685 9.611 25.126 23.568 46.951 41.483 64.868 19.747 19.749 44.452 34.868 73.396 44.927 1.508.532 37.351 12.777 73.719-7.463 10.066-5.602 22.083-5.602 32.148 0 16.301 9.073 32.497 11.618 45.54 11.618 16.055 0 27.333-3.857 28.149-4.145 29.194-10.146 54.049-25.416 73.874-45.386 17.968-18.101 31.919-40.155 41.464-65.548 30.069-79.998 11.684-181.826-22.018-241.067z"/></g></g></svg>