<svg id="Capa_1" enable-background="new 0 0 510.722 510.722" height="512" viewBox="0 0 510.722 510.722" width="512" xmlns="http://www.w3.org/2000/svg"><g><g><g><path d="m129.746 47.041s24.938 9.91 45.253.224c20.316-9.686 28.316-35.3 28.316-35.3s-24.938-9.91-45.253-.224c-20.316 9.686-28.316 35.3-28.316 35.3z" fill="#9cc997"/></g></g><g><g><path d="m129.746 47.041s-23.168 13.54-44.707 7.013-33.294-30.651-33.294-30.651 23.168-13.541 44.707-7.013c21.54 6.528 33.294 30.651 33.294 30.651z" fill="#9cc997"/></g></g><g><g><path d="m386.334 138.858s25.214 9.184 45.241-1.086 27.283-36.105 27.283-36.105-25.214-9.184-45.241 1.086-27.283 36.105-27.283 36.105z" fill="#9cc997"/></g></g><g><g><path d="m100.723 285.747s-4.92 30.623 11.108 51.112 46.936 23.085 46.936 23.085 4.92-30.623-11.109-51.112c-16.028-20.489-46.935-23.085-46.935-23.085z" fill="#9cc997"/></g></g><g><g><path d="m210.366 285.91s-30.921 2.424-47.063 22.823-11.393 51.049-11.393 51.049 30.921-2.424 47.063-22.823 11.393-51.049 11.393-51.049z" fill="#9cc997"/></g></g><g><g><ellipse cx="70.092" cy="117.32" fill="#d5717f" rx="35.053" ry="35.053" transform="matrix(.707 -.707 .707 .707 -62.429 83.925)"/></g></g><g><g><ellipse cx="206.496" cy="161.375" fill="#d5717f" rx="32.655" ry="32.655" transform="matrix(.52 -.854 .854 .52 -38.767 253.725)"/></g></g><g><g><ellipse cx="126.655" cy="112.906" fill="#dc8995" rx="36.802" ry="36.802" transform="matrix(.707 -.707 .707 .707 -42.74 122.628)"/></g></g><g><g><ellipse cx="48.735" cy="162.162" fill="#dc8995" rx="36.802" ry="36.802" transform="matrix(.673 -.74 .74 .673 -104 89.061)"/></g></g><g><g><ellipse cx="178.354" cy="212.296" fill="#dc8995" rx="32.655" ry="32.655" transform="matrix(.864 -.504 .504 .864 -82.72 118.915)"/></g></g><g><g><ellipse cx="184.354" cy="109.786" fill="#dc8995" rx="36.802" ry="36.802" transform="matrix(.971 -.238 .238 .971 -20.834 47.039)"/></g></g><g><g><path d="m115.327 208.788c-.956-20.303-18.189-35.986-38.492-35.03-4.539.214-8.847 1.241-12.789 2.934-13.694 5.881-22.983 19.794-22.24 35.558.956 20.303 18.19 35.986 38.492 35.03 7.614-.359 14.577-3.006 20.258-7.246 9.466-7.067 15.369-18.557 14.771-31.246z" fill="#dc8995"/></g></g><g><g><ellipse cx="127.663" cy="211.147" fill="#dc8995" rx="36.802" ry="36.802" transform="matrix(.118 -.993 .993 .118 -97.056 313.039)"/></g></g><g><g><path d="m161.642 197.012c-7.806-18.766-29.348-27.651-48.114-19.844-.293.122-.575.257-.863.385 8.278 3.695 15.22 10.428 18.977 19.459 7.685 18.474-.812 39.627-18.981 47.729 8.924 3.983 19.402 4.435 29.137.385 18.766-7.807 27.65-29.348 19.844-48.114z" fill="#d5717f"/></g></g><g><g><ellipse cx="156.355" cy="159.411" fill="#dc8995" rx="36.802" ry="36.802" transform="matrix(.707 -.707 .707 .707 -66.926 157.25)"/></g></g><g><g><ellipse cx="101.584" cy="159.673" fill="#d5717f" rx="36.802" ry="36.802" transform="matrix(.673 -.74 .74 .673 -84.881 127.333)"/></g></g><g><g><path d="m221.115 108.055c-.956-20.302-18.19-35.986-38.492-35.03-4.726.222-9.197 1.337-13.27 3.157 12.275 5.491 21.087 17.523 21.762 31.873.734 15.576-8.333 29.337-21.759 35.335 5.092 2.278 10.777 3.437 16.73 3.157 20.302-.956 35.985-18.189 35.029-38.492z" fill="#d5717f"/></g></g><g><g><ellipse cx="329.708" cy="202.315" fill="#d5717f" rx="35.053" ry="35.053" transform="matrix(.707 -.707 .707 .707 -46.489 292.396)"/></g></g><g><g><ellipse cx="466.112" cy="246.37" fill="#d5717f" rx="32.655" ry="32.655" transform="matrix(.52 -.854 .854 .52 13.165 516.179)"/></g></g><g><g><ellipse cx="386.271" cy="197.9" fill="#dc8995" rx="36.802" ry="36.802" transform="matrix(.707 -.707 .707 .707 -26.8 331.099)"/></g></g><g><g><ellipse cx="308.352" cy="247.157" fill="#dc8995" rx="36.802" ry="36.802" transform="matrix(.673 -.74 .74 .673 -81.982 308.858)"/></g></g><g><g><ellipse cx="437.97" cy="297.29" fill="#dc8995" rx="32.655" ry="32.655" transform="matrix(.864 -.504 .504 .864 -90.153 261.438)"/></g></g><g><g><ellipse cx="443.971" cy="194.781" fill="#dc8995" rx="36.802" ry="36.802" transform="matrix(.971 -.238 .238 .971 -33.604 111.279)"/></g></g><g><g><path d="m374.944 293.783c-.956-20.303-18.189-35.986-38.492-35.03-4.539.214-8.847 1.241-12.789 2.934-13.694 5.881-22.983 19.794-22.24 35.558.956 20.303 18.19 35.986 38.492 35.03 7.613-.358 14.577-3.006 20.258-7.246 9.466-7.067 15.368-18.557 14.771-31.246z" fill="#dc8995"/></g></g><g><g><ellipse cx="387.279" cy="296.141" fill="#dc8995" rx="36.802" ry="36.802" transform="matrix(.118 -.993 .993 .118 47.565 645.825)"/></g></g><g><g><path d="m421.258 282.006c-7.806-18.766-29.348-27.651-48.114-19.844-.293.122-.575.257-.863.385 8.278 3.695 15.22 10.428 18.977 19.459 7.685 18.474-.812 39.627-18.981 47.729 8.924 3.983 19.402 4.435 29.137.385 18.766-7.806 27.651-29.348 19.844-48.114z" fill="#d5717f"/></g></g><g><g><ellipse cx="415.971" cy="244.406" fill="#dc8995" rx="36.802" ry="36.802" transform="matrix(.707 -.707 .707 .707 -50.986 365.721)"/></g></g><g><g><ellipse cx="361.2" cy="244.668" fill="#d5717f" rx="36.802" ry="36.802" transform="matrix(.673 -.74 .74 .673 -62.863 347.13)"/></g></g><g><g><path d="m480.732 193.05c-.956-20.303-18.19-35.986-38.492-35.03-4.726.223-9.197 1.337-13.27 3.157 12.275 5.49 21.087 17.523 21.763 31.873.734 15.576-8.333 29.337-21.759 35.335 5.092 2.278 10.777 3.437 16.73 3.157 20.3-.956 35.984-18.19 35.028-38.492z" fill="#d5717f"/></g></g><g><g><ellipse cx="100.025" cy="372.593" fill="#d5717f" rx="35.053" ry="35.053" transform="matrix(.707 -.707 .707 .707 -234.167 179.858)"/></g></g><g><g><ellipse cx="236.429" cy="416.648" fill="#d5717f" rx="32.655" ry="32.655" transform="matrix(.52 -.854 .854 .52 -242.394 401.712)"/></g></g><g><g><ellipse cx="156.588" cy="368.179" fill="#dc8995" rx="36.802" ry="36.802" transform="matrix(.707 -.707 .707 .707 -214.478 218.561)"/></g></g><g><g><ellipse cx="78.668" cy="417.435" fill="#dc8995" rx="36.802" ry="36.802" transform="matrix(.673 -.74 .74 .673 -283.01 194.658)"/></g></g><g><g><ellipse cx="208.287" cy="467.569" fill="#dc8995" rx="32.655" ry="32.655" transform="matrix(.864 -.504 .504 .864 -207.369 168.847)"/></g></g><g><g><ellipse cx="214.287" cy="365.059" fill="#dc8995" rx="36.802" ry="36.802" transform="matrix(.971 -.238 .238 .971 -80.738 61.501)"/></g></g><g><g><path d="m145.26 464.061c-.956-20.302-18.189-35.986-38.492-35.03-4.539.214-8.847 1.241-12.789 2.934-13.694 5.881-22.983 19.794-22.24 35.558.956 20.303 18.19 35.986 38.492 35.03 7.613-.358 14.577-3.006 20.258-7.246 9.466-7.067 15.369-18.557 14.771-31.246z" fill="#dc8995"/></g></g><g><g><ellipse cx="157.596" cy="466.42" fill="#dc8995" rx="36.802" ry="36.802" transform="matrix(.118 -.993 .993 .118 -324.145 567.956)"/></g></g><g><g><path d="m191.575 452.285c-7.806-18.766-29.348-27.651-48.114-19.844-.293.122-.575.257-.863.385 8.278 3.695 15.22 10.428 18.977 19.459 7.685 18.474-.812 39.627-18.981 47.729 8.924 3.983 19.402 4.435 29.137.385 18.766-7.807 27.65-29.348 19.844-48.114z" fill="#d5717f"/></g></g><g><g><ellipse cx="186.288" cy="414.685" fill="#dc8995" rx="36.802" ry="36.802" transform="matrix(.707 -.707 .707 .707 -238.664 253.184)"/></g></g><g><g><ellipse cx="131.516" cy="414.946" fill="#d5717f" rx="36.802" ry="36.802" transform="matrix(.673 -.74 .74 .673 -263.891 232.93)"/></g></g><g><g><path d="m251.048 363.328c-.956-20.302-18.19-35.986-38.492-35.03-4.726.223-9.197 1.337-13.27 3.157 12.275 5.491 21.087 17.523 21.762 31.873.734 15.576-8.333 29.337-21.759 35.335 5.092 2.278 10.777 3.437 16.73 3.157 20.302-.956 35.985-18.189 35.029-38.492z" fill="#d5717f"/></g></g><g><path d="m78.542 254.822c.699 0 1.403-.017 2.108-.05 7.848-.37 15.418-2.824 21.974-7.072 2.529 1.725 5.251 3.207 8.147 4.401 5.449 2.248 11.17 3.371 16.893 3.371 5.765 0 11.531-1.141 17.015-3.422 4.078-1.697 7.771-3.932 11.031-6.588 6.755 4.613 14.651 6.998 22.633 6.997 5.207-.001 10.451-1.015 15.435-3.088 19.335-8.043 29.061-29.545 22.865-49.148 1.79-.469 3.553-1.056 5.277-1.773 20.443-8.504 30.156-32.055 21.652-52.499-3.543-8.516-9.961-15.54-18-19.894 2.277-5.759 3.335-11.984 3.035-18.355-.088-1.88-.297-3.767-.62-5.609-.715-4.079-4.6-6.805-8.682-6.092-4.08.715-6.808 4.603-6.092 8.683.214 1.22.352 2.473.411 3.724.368 7.818-2.33 15.312-7.598 21.1-5.268 5.789-12.475 9.179-20.292 9.547-.468.022-.931.033-1.395.033-15.528-.001-28.515-12.253-29.253-27.924-.76-16.139 11.752-29.888 27.891-30.648 6.826-.317 13.568 1.761 19.006 5.861 3.307 2.493 8.009 1.834 10.504-1.472 2.494-3.307 1.835-8.01-1.473-10.504-8.226-6.204-18.433-9.355-28.743-8.868-11.122.524-21.097 5.137-28.559 12.303-5.734-4.439-12.374-7.356-19.427-8.575 1.093-4.145 1.824-8.301 2.265-12.395 4.833 1.119 11.119 2.139 17.987 2.139 7.584 0 15.876-1.244 23.692-4.971 23.007-10.969 31.881-38.661 32.248-39.834 1.17-3.744-.744-7.757-4.389-9.206-1.142-.454-28.245-10.992-51.25-.024-8.662 4.13-15.319 10.63-20.275 17.193-1.808-8.805-3.95-14.651-4.171-15.243-1.454-3.878-5.775-5.844-9.655-4.391-3.878 1.454-5.844 5.776-4.391 9.655.038.102 1.263 3.444 2.575 8.813-5.507-4.91-12.275-9.356-20.289-11.785-24.391-7.39-49.606 7.095-50.668 7.716-3.386 1.979-4.676 6.234-2.958 9.76.539 1.105 13.469 27.151 37.861 34.543 4.937 1.496 9.907 2.096 14.704 2.096 8.894 0 17.191-2.062 23.573-4.298-.554 3.453-1.375 6.912-2.524 10.312-9.214 1.681-17.602 6.218-24.128 13.12-7.677-5.397-16.861-8.096-26.398-7.647-23.438 1.104-41.607 21.07-40.503 44.507.058 1.238.177 2.475.341 3.703-4.434 2.361-8.476 5.494-11.957 9.319-7.965 8.752-12.044 20.082-11.488 31.901.867 18.426 12.907 34.182 30.231 39.944-.39 2.747-.535 5.56-.4 8.414 1.111 23.696 20.745 42.22 44.224 42.22zm1.403-15.033c-16.111.76-29.887-11.751-30.647-27.891-.543-11.534 5.637-22.075 15.645-27.311 1.939 2.84 4.216 5.478 6.824 7.851 3.85 3.503 8.202 6.244 12.871 8.18-2.244 9.139-1.533 18.76 2.122 27.544 1.284 3.087 2.897 5.973 4.782 8.637-3.597 1.775-7.542 2.799-11.597 2.99zm20.26-109.385c.472-.022.942-.033 1.411-.033 7.305 0 14.25 2.681 19.689 7.631 5.789 5.268 9.179 12.475 9.547 20.293s-2.33 15.311-7.598 21.1c-5.268 5.788-12.475 9.179-20.293 9.547-7.823.368-15.312-2.331-21.101-7.598-5.789-5.268-9.179-12.475-9.547-20.292-.759-16.14 11.753-29.888 27.892-30.648zm38.712 107.797c-7.226 3.006-15.191 3.018-22.426.034-7.236-2.984-12.876-8.608-15.882-15.835-2.453-5.896-2.906-12.363-1.341-18.486.753.038 1.508.061 2.266.061.709 0 1.421-.017 2.133-.05 9.417-.443 18.241-3.796 25.47-9.562 7.702 6.022 17.049 9.28 26.867 9.344 3.715 14.023-3.428 28.812-17.087 34.494zm49.099-2.679c-7.362 3.062-15.623 2.428-22.376-1.528 5.772-9.591 7.847-21.266 5.209-32.706 6.836-2.356 13.019-6.376 18.054-11.833 5.704 2.615 10.207 7.244 12.676 13.179 5.329 12.807-.756 27.56-13.563 32.888zm29.103-95.918c.217-.239.42-.486.632-.729 5.413 2.689 9.613 7.169 11.971 12.838 5.327 12.807-.757 27.561-13.563 32.888-2.285.95-4.672 1.54-7.1 1.79-3.311-3.944-7.345-7.206-11.931-9.612 2.587-6.061 3.799-12.674 3.48-19.451-.096-2.035-.337-4.054-.706-6.046 6.512-2.433 12.403-6.387 17.217-11.678zm-32.79 14.485c.277 0 .558-.015.837-.02.24 1.305.395 2.629.458 3.964.307 6.509-1.52 12.79-5.178 18.053-.038.049-.072.103-.109.153-.706 1.003-1.473 1.972-2.311 2.894-5.268 5.789-12.475 9.179-20.293 9.547-6.732.321-13.206-1.64-18.571-5.546 4.757-7.583 7.104-16.415 6.674-25.546-.37-7.852-2.767-15.289-6.893-21.737 2.174-1.608 4.563-2.914 7.084-3.865 7.715 13.269 22.09 22.103 38.302 22.103zm-23.039-135.579c10.953-5.223 23.971-3.585 31.922-1.729-3.566 7.349-10.489 18.492-21.441 23.714-10.951 5.222-23.967 3.585-31.922 1.729 3.566-7.349 10.49-18.492 21.441-23.714zm-74.076 28.367c-11.604-3.516-20.117-13.482-24.745-20.208 7.61-3.019 20.276-6.595 31.808-3.1 11.611 3.519 20.128 13.496 24.757 20.227-7.586 3.028-20.209 6.6-31.82 3.081zm38.062 36.759c7.123-.337 13.973 1.882 19.513 6.262-3.326 6.589-5.059 14.089-4.688 21.972.097 2.061.343 4.08.71 6.054-4.32 1.622-8.379 3.935-12.003 6.813-8.341-6.522-18.614-9.82-29.31-9.317-.671.032-1.336.084-1.998.145-.039-.427-.096-.853-.116-1.282-.368-7.818 2.33-15.312 7.598-21.1 5.269-5.788 12.476-9.179 20.294-9.547zm-56.48 6.162c6.271-.296 12.329 1.519 17.355 5.138-2.769 6.225-4.079 13.05-3.749 20.053.071 1.521.231 3.039.457 4.543-3.377 1.581-6.521 3.567-9.362 5.904-7.874-5.31-17.302-7.979-26.846-7.526-1.377.065-2.74.198-4.089.385-.534-15.036 11.166-27.788 26.234-28.497zm-49.33 73.742c-.368-7.818 2.33-15.311 7.598-21.1s12.475-9.179 20.293-9.547c5.704-.272 11.358 1.148 16.24 4.021-4.353 7.239-6.693 15.791-6.266 24.843.147 3.126.623 6.185 1.392 9.145-8.458 4.219-15.167 10.919-19.403 19.001-11.38-3.85-19.283-14.225-19.854-26.363z"/><path d="m503.188 230.946c-3.543-8.516-9.96-15.54-17.999-19.895 2.276-5.759 3.335-11.984 3.035-18.357-.089-1.878-.297-3.764-.619-5.604-.714-4.08-4.603-6.81-8.68-6.095-4.081.714-6.81 4.6-6.096 8.68.214 1.223.353 2.478.412 3.728.367 7.818-2.331 15.311-7.599 21.1-5.268 5.788-12.475 9.179-20.293 9.547-7.838.372-15.313-2.331-21.101-7.598-5.788-5.268-9.18-12.475-9.548-20.293-.367-7.818 2.331-15.312 7.599-21.101 5.268-5.788 12.475-9.179 20.293-9.547 6.82-.317 13.567 1.761 19.006 5.861 3.308 2.493 8.01 1.835 10.504-1.473 2.494-3.307 1.835-8.01-1.473-10.504-8.227-6.204-18.44-9.355-28.742-8.868-10.814.509-20.848 4.854-28.578 12.29-5.785-4.474-12.49-7.399-19.612-8.596.131-1.89.204-3.771.236-5.637 4.293.837 9.644 1.546 15.478 1.546 8.125 0 17.181-1.374 25.585-5.684 22.68-11.63 30.75-39.567 31.082-40.751 1.06-3.776-.968-7.732-4.654-9.075-1.155-.421-28.548-10.172-51.229 1.46-8.742 4.483-15.305 11.387-20.099 18.25-1.53-6.692-2.967-11.007-3.118-11.452-1.328-3.921-5.584-6.022-9.501-4.699-3.923 1.324-6.029 5.578-4.71 9.501.082.243 7.766 23.456 5.877 46.587-9.375 1.62-17.917 6.186-24.539 13.19-7.68-5.398-16.873-8.098-26.397-7.647-11.355.535-21.82 5.458-29.471 13.865-7.65 8.407-11.568 19.289-11.033 30.643.058 1.238.176 2.475.341 3.703-4.434 2.361-8.476 5.494-11.957 9.32-7.965 8.751-12.044 20.081-11.488 31.901.867 18.426 12.907 34.183 30.232 39.944-.39 2.746-.534 5.559-.4 8.413.556 11.82 5.683 22.716 14.435 30.681 8.224 7.484 18.723 11.538 29.767 11.538.708 0 1.421-.017 2.134-.05 7.857-.37 15.435-2.829 21.996-7.085 7.339 5.008 16.091 7.763 25.074 7.762 5.661 0 11.414-1.092 16.958-3.398 4.078-1.697 7.771-3.932 11.031-6.588 6.755 4.612 14.651 6.997 22.632 6.997 5.207 0 10.452-1.016 15.436-3.088 19.335-8.043 29.061-29.544 22.866-49.148 1.79-.47 3.553-1.056 5.276-1.773 9.903-4.12 17.609-11.849 21.699-21.765 4.088-9.917 4.071-20.832-.048-30.736zm-59.267 8.138c.286 0 .574-.015.861-.02.24 1.305.396 2.629.459 3.964.307 6.509-1.52 12.789-5.178 18.052-.04.052-.076.108-.114.161-.705 1-1.47 1.967-2.307 2.887-5.268 5.789-12.475 9.179-20.293 9.547-6.745.32-13.224-1.645-18.59-5.56 4.624-7.383 7.133-16.189 6.693-25.531-.377-8.006-2.876-15.414-6.913-21.723 2.174-1.611 4.563-2.918 7.084-3.872 2.256 3.885 5.112 7.447 8.529 10.557 8.225 7.484 18.724 11.538 29.769 11.538zm-102.443 27.255c-5.788-5.268-9.18-12.475-9.548-20.293-.76-16.139 11.753-29.888 27.892-30.647.468-.022.932-.033 1.395-.033 15.528 0 28.516 12.252 29.254 27.923.367 7.818-2.331 15.312-7.599 21.101-5.269 5.789-12.475 9.179-20.293 9.547-7.839.373-15.313-2.331-21.101-7.598zm75.56-156.912c10.788-5.532 23.835-4.279 31.838-2.657-3.376 7.459-10.002 18.83-20.725 24.329-10.797 5.536-23.855 4.277-31.858 2.652 3.352-7.45 9.95-18.788 20.745-24.324zm-32.145 59.204c7.134-.338 13.958 1.877 19.492 6.245-3.397 6.731-5.031 14.252-4.667 21.988.096 2.051.34 4.072.706 6.057-4.324 1.624-8.387 3.94-12.013 6.822-8.056-6.284-18.301-9.843-29.295-9.328-.671.032-1.336.084-1.999.145-.039-.428-.096-.853-.116-1.282-.368-7.818 2.331-15.312 7.599-21.1s12.475-9.179 20.293-9.547zm-75.563 15.139c4.954-5.443 11.73-8.631 19.082-8.978 6.279-.299 12.331 1.517 17.355 5.137-2.769 6.225-4.079 13.052-3.749 20.056.072 1.521.231 3.038.456 4.541-3.377 1.581-6.521 3.567-9.362 5.904-7.877-5.31-17.314-7.977-26.845-7.527-1.377.065-2.74.198-4.089.385-.257-7.234 2.272-14.155 7.152-19.518zm-10.393 91.127c-11.379-3.85-19.283-14.224-19.854-26.362-.368-7.818 2.331-15.312 7.599-21.101s12.474-9.179 20.292-9.547c5.72-.268 11.363 1.149 16.241 4.021-4.353 7.239-6.693 15.791-6.267 24.844.147 3.126.623 6.185 1.392 9.145-8.459 4.218-15.168 10.918-19.403 19zm40.625 49.886c-7.821.371-15.312-2.33-21.101-7.598-5.788-5.268-9.179-12.475-9.547-20.293-.544-11.534 5.636-22.074 15.644-27.31 1.939 2.84 4.216 5.478 6.824 7.851 3.85 3.503 8.202 6.244 12.871 8.18-2.244 9.138-1.532 18.758 2.122 27.544 1.295 3.112 2.908 5.997 4.783 8.637-3.596 1.774-7.541 2.798-11.596 2.989zm58.971-1.588c-14.916 6.205-32.103-.882-38.309-15.8-2.453-5.897-2.905-12.363-1.341-18.486.753.038 1.508.061 2.267.061.709 0 1.42-.017 2.133-.05 9.641-.454 18.419-3.983 25.448-9.58 7.706 6.033 17.061 9.298 26.889 9.361 3.715 14.023-3.427 28.812-17.087 34.494zm49.099-2.679c-7.36 3.062-15.624 2.428-22.375-1.527 5.771-9.591 7.847-21.266 5.21-32.707 6.837-2.356 13.02-6.376 18.055-11.833 5.703 2.615 10.206 7.244 12.676 13.179 5.326 12.808-.759 27.561-13.566 32.888zm41.735-64.555c-2.561 6.211-7.39 11.054-13.594 13.635-2.283.95-4.669 1.539-7.099 1.789-3.311-3.944-7.345-7.206-11.931-9.612 2.587-6.061 3.799-12.675 3.48-19.453-.096-2.035-.337-4.053-.706-6.044 6.513-2.432 12.404-6.387 17.218-11.677.217-.239.42-.487.632-.729 5.413 2.689 9.613 7.169 11.971 12.838 2.581 6.204 2.591 13.041.029 19.253z"/><path d="m255.481 381.318c2.245-5.663 3.363-11.873 3.058-18.343-.088-1.876-.296-3.762-.619-5.606-.715-4.08-4.599-6.811-8.681-6.095-4.08.714-6.809 4.6-6.095 8.681.214 1.225.353 2.479.412 3.726.76 16.14-11.752 29.888-27.891 30.648-.468.022-.931.033-1.395.033-15.528-.001-28.515-12.253-29.253-27.924-.368-7.818 2.33-15.312 7.598-21.1 5.268-5.789 12.475-9.179 20.293-9.547 6.812-.323 13.566 1.76 19.005 5.861 3.306 2.494 8.009 1.835 10.504-1.473 2.494-3.307 1.835-8.01-1.473-10.504-7.411-5.588-16.431-8.69-25.678-8.896 5.183-18.003 2.644-35.154 2.51-36.017-.601-3.876-4.095-6.641-7.998-6.329-1.396.109-34.392 2.941-52.359 25.646-.69.873-1.348 1.779-1.989 2.704-.605-.877-1.218-1.744-1.866-2.572-17.84-22.806-50.82-25.82-52.215-25.938-3.903-.333-7.411 2.411-8.033 6.284-.187 1.163-3.763 24.536 5.744 45.506-.346.008-.692.007-1.039.023-23.438 1.104-41.607 21.07-40.504 44.508.059 1.248.179 2.496.346 3.736-14.627 7.811-24.28 23.553-23.45 41.189.868 18.425 12.907 34.181 30.231 39.943-.39 2.747-.535 5.56-.4 8.414.557 11.82 5.683 22.716 14.435 30.681 8.224 7.484 18.724 11.538 29.768 11.538.709 0 1.421-.017 2.133-.05 7.856-.37 15.435-2.829 21.997-7.086 7.339 5.008 16.091 7.763 25.074 7.762 5.66 0 11.413-1.092 16.957-3.398 4.079-1.697 7.772-3.932 11.032-6.588 6.755 4.613 14.651 6.998 22.633 6.997 5.207 0 10.451-1.015 15.434-3.088 9.903-4.12 17.61-11.849 21.699-21.765 3.634-8.81 4.018-18.407 1.171-27.384 1.788-.469 3.55-1.055 5.273-1.772 20.443-8.504 30.156-32.055 21.652-52.499-3.544-8.523-9.971-15.552-18.021-19.906zm-41.219 28.044c.277 0 .558-.015.837-.02.24 1.305.395 2.629.458 3.964.76 16.14-11.752 29.888-27.891 30.648-6.742.322-13.222-1.643-18.59-5.56 4.624-7.383 7.133-16.19 6.693-25.532-.37-7.852-2.767-15.29-6.893-21.738 2.174-1.608 4.564-2.914 7.084-3.865 7.715 13.269 22.09 22.103 38.302 22.103zm-112.015 6.963c-.368-7.818 2.33-15.311 7.598-21.1 5.268-5.788 12.475-9.179 20.293-9.547.472-.022.942-.033 1.412-.033 7.304 0 14.249 2.681 19.688 7.631 5.789 5.268 9.179 12.475 9.547 20.293.76 16.139-11.752 29.887-27.891 30.647-.468.022-.931.033-1.395.033-15.527-.002-28.514-12.253-29.252-27.924zm25.072-46.768c-.368-7.818 2.33-15.312 7.598-21.1 5.268-5.789 12.475-9.179 20.294-9.547 7.104-.339 13.953 1.876 19.491 6.246-3.397 6.731-5.031 14.252-4.667 21.989.097 2.061.343 4.08.711 6.054-4.32 1.621-8.379 3.935-12.003 6.813-8.341-6.522-18.617-9.822-29.31-9.317-.67.032-1.335.082-1.999.143-.039-.428-.095-.853-.115-1.281zm76.188-74.958c.168 7.305-.539 18.77-5.265 29.156-5.402 2.093-10.358 5.245-14.616 9.341-6.054-4.681-13.114-7.675-20.604-8.758 1.62-4.135 3.677-7.81 6.162-10.951 9.379-11.852 25.076-16.813 34.323-18.788zm-95.953-.119c9.244 2.03 24.893 7.08 34.197 18.974 2.244 2.868 4.152 6.191 5.673 9.877.012.029.028.055.04.085-.156.501-.312 1.003-.459 1.512-8.607 1.888-16.426 6.293-22.585 12.808-1.755-1.234-3.589-2.326-5.489-3.272-.264-.783-.655-1.537-1.193-2.225-9.305-11.896-10.438-28.303-10.184-37.759zm-27.907 59.568c4.954-5.443 11.73-8.631 19.082-8.978 6.276-.296 12.33 1.518 17.356 5.138-2.769 6.224-4.079 13.05-3.749 20.052.071 1.511.228 3.02.452 4.515-3.346 1.56-6.494 3.544-9.377 5.92-7.871-5.301-17.293-7.962-26.826-7.513-1.382.065-2.744.202-4.089.39-.26-7.236 2.268-14.159 7.151-19.524zm-10.394 91.128c-11.379-3.85-19.282-14.225-19.854-26.362-.76-16.14 11.752-29.888 27.891-30.648 5.694-.266 11.337 1.144 16.213 4.004-4.47 7.427-6.656 16.006-6.238 24.86.148 3.15.633 6.204 1.401 9.14-8.463 4.219-15.175 10.921-19.413 19.006zm40.625 49.886c-7.822.369-15.313-2.331-21.101-7.598-5.789-5.268-9.179-12.475-9.547-20.292-.543-11.545 5.649-22.094 15.672-27.325 4.846 7.101 11.685 12.704 19.673 16.026-2.249 9.145-1.54 18.773 2.117 27.563 1.295 3.112 2.909 5.997 4.783 8.637-3.597 1.774-7.542 2.798-11.597 2.989zm58.971-1.588c-14.918 6.207-32.102-.882-38.308-15.8-2.453-5.897-2.906-12.363-1.34-18.486.759.039 1.523.061 2.291.061.7 0 1.403-.017 2.109-.05 9.641-.454 18.418-3.983 25.447-9.58 7.706 6.033 17.062 9.298 26.889 9.362 3.715 14.022-3.428 28.811-17.088 34.493zm62.693-16.313c-2.562 6.211-7.39 11.054-13.594 13.634-7.362 3.063-15.623 2.428-22.375-1.527 5.772-9.591 7.847-21.267 5.209-32.707 6.836-2.356 13.019-6.376 18.054-11.833 5.704 2.614 10.207 7.244 12.676 13.18 2.582 6.203 2.592 13.041.03 19.253zm14.549-37.287c-2.284.95-4.671 1.54-7.099 1.79-3.311-3.944-7.345-7.206-11.931-9.612 2.587-6.061 3.799-12.674 3.48-19.451-.096-2.04-.338-4.064-.71-6.061 6.959-2.613 13.06-6.923 17.835-12.401 5.422 2.688 9.628 7.172 11.989 12.848 5.327 12.806-.758 27.559-13.564 32.887z"/></g></g></svg>