<svg id="Capa_1" enable-background="new 0 0 509.684 509.684" height="512" viewBox="0 0 509.684 509.684" width="512" xmlns="http://www.w3.org/2000/svg"><g><g><g><path d="m312.32 113.615c13.557 67.258-12.952 129.341-59.21 138.665s-94.748-37.64-108.305-104.899c-10.098-50.098 27.698-102.498 47.641-125.975 6.702-7.889 17.914-10.149 27.149-5.473 27.482 13.918 82.627 47.584 92.725 97.682z" fill="#a6d4a1"/></g></g><g><g><path d="m312.32 113.614c-10.098-50.098-65.243-83.763-92.724-97.681-8.113-4.109-17.75-2.86-24.517 2.853 28.743 15.355 77.777 47.874 87.241 94.828 13.26 65.785-11.813 126.61-56.203 137.968 8.9 2.185 17.988 2.512 26.993.697 46.258-9.324 72.768-71.406 59.21-138.665z" fill="#9cc997"/></g></g><g><g><path d="m443.002 284.171c-64.092 45.44-141.385 46.543-172.637 2.462-31.253-44.081-4.63-116.652 59.462-162.092 47.74-33.847 120.143-18.637 153.981-8.673 11.371 3.348 18.946 14.033 18.342 25.872-1.797 35.228-11.408 108.584-59.148 142.431z" fill="#a6d4a1"/></g></g><g><g><path d="m483.807 115.867c-21.005-6.185-56.87-14.388-92.471-11.627 24.743 1.73 47.422 7.195 62.471 11.627 11.371 3.348 18.946 14.033 18.342 25.872-1.797 35.229-11.408 108.585-59.148 142.432-27.52 19.511-57.471 30.84-85.169 33.935 34.858 4.269 77.315-7.097 115.169-33.935 47.74-33.847 57.351-107.203 59.148-142.432.605-11.838-6.971-22.523-18.342-25.872z" fill="#9cc997"/></g></g><g><path d="m228.69 131.127 25.859-38.915" fill="#5ea570"/></g><g><path d="m228.69 131.127-38.916-25.859" fill="#5ea570"/></g><g><path d="m324.98 247.911 8.981-52.744" fill="#68b76a"/></g><g><g><circle cx="173.442" cy="274.647" fill="#8face0" r="112.372"/></g></g><g><g><path d="m173.442 162.275c-5.087 0-10.092.344-15 .999 54.969 7.333 97.373 54.398 97.373 111.373s-42.404 104.04-97.373 111.374c4.908.655 9.913.999 15 .999 62.062 0 112.373-50.311 112.373-112.373 0-62.061-50.311-112.372-112.373-112.372z" fill="#688ed5"/></g></g><g><g><path d="m211.671 234.6c0 5.732-3.693 10.427-7.156 14.894-3.188 4.112-6.513 9.063-11.72 11.333-4.651 2.027-10.291 1.23-15.89 1.23s-11.24.797-15.891-1.23c-5.206-2.27-8.532-7.221-11.719-11.333-3.463-4.467-7.156-9.161-7.156-14.893s3.693-10.427 7.156-14.894c3.188-4.112 6.513-9.063 11.72-11.333 4.651-2.027 10.291-1.229 15.89-1.229s11.24-.798 15.891 1.23c5.207 2.27 8.532 7.221 11.719 11.333 3.463 4.466 7.156 9.16 7.156 14.892z" fill="#688ed5"/></g></g><g><g><ellipse cx="98.31" cy="398.128" fill="#8face0" rx="90.81" ry="90.81" transform="matrix(.707 -.707 .707 .707 -252.725 186.125)"/></g></g><g><g><path d="m98.31 307.318c-5.11 0-10.12.429-15 1.24 43.014 7.151 75.81 44.527 75.81 89.57s-32.796 82.419-75.81 89.57c4.88.811 9.89 1.24 15 1.24 50.153 0 90.81-40.657 90.81-90.81s-40.657-90.81-90.81-90.81z" fill="#688ed5"/></g></g><g><g><path d="m129.273 413.879c0 4.798-3.289 8.727-6.373 12.466-2.839 3.441-5.801 7.585-10.438 9.485-4.142 1.697-9.165 1.029-14.152 1.029s-10.011.667-14.153-1.03c-4.637-1.9-7.598-6.044-10.437-9.485-3.084-3.739-6.373-7.667-6.373-12.465s3.289-8.727 6.374-12.465c2.839-3.441 5.801-7.585 10.438-9.485 4.142-1.697 9.165-1.029 14.152-1.029s10.011-.667 14.153 1.03c4.637 1.9 7.598 6.044 10.437 9.485 3.084 3.738 6.372 7.667 6.372 12.464z" fill="#688ed5"/></g></g><g><path d="m385.814 204.781 52.744 8.982" fill="#68b76a"/></g><g><path d="m324.98 247.911 52.744 8.982" fill="#68b76a"/></g><g><path d="m385.814 204.781 8.982-52.744" fill="#68b76a"/></g><g><g><circle cx="278.428" cy="383.802" fill="#8face0" r="112.373"/></g></g><g><g><path d="m385.316 349.124c-17.031-52.493-69.035-83.869-121.855-76.71 41.446 5.624 78.084 34.264 91.855 76.71 19.152 59.033-13.177 122.414-72.21 141.566-6.539 2.122-13.131 3.608-19.711 4.5 16.195 2.198 33.125.881 49.711-4.5 59.033-19.152 91.362-82.533 72.21-141.566z" fill="#688ed5"/></g></g><g><g><path d="m345.529 390.125c3.42 4.255 3.304 10.085 3.234 15.6-.065 5.076.263 10.863-2.496 15.853-2.464 4.458-7.395 7.447-11.818 11.001-4.423 3.555-8.403 7.729-13.286 9.177-5.467 1.621-11.048.056-16.019-.972-5.401-1.117-11.118-2.257-14.538-6.512s-3.304-10.084-3.234-15.599c.065-5.076-.263-10.863 2.496-15.854 2.464-4.458 7.395-7.447 11.818-11.001 4.423-3.555 8.403-7.729 13.286-9.176 5.467-1.621 11.048-.056 16.019.972 5.4 1.117 11.118 2.256 14.538 6.511z" fill="#688ed5"/></g></g><g><path d="m485.926 108.673c-17.636-5.193-44.733-11.559-73.679-12.395-35.416-1.025-64.592 6.428-86.759 22.145-1.409.999-2.798 2.017-4.176 3.045-.469-3.121-1.016-6.24-1.639-9.334-4.732-23.469-18.935-45.854-42.216-66.534-18.981-16.861-40.1-29.078-54.473-36.357-12.369-6.263-27.277-3.26-36.254 7.308-10.431 12.279-25.167 31.723-36.135 54.621-13.451 28.084-17.873 54.223-13.144 77.693.719 3.562 1.551 7.12 2.472 10.635-14.019 4.065-27.219 10.708-39.107 19.774-20.337 15.508-35.438 37.507-42.521 61.944-1.153 3.978 1.137 8.138 5.115 9.291 3.977 1.154 8.138-1.137 9.291-5.116 6.195-21.372 19.41-40.618 37.211-54.192 18.381-14.017 40.349-21.425 63.529-21.425 27.485 0 53.465 10.557 73.152 29.727 17.8 17.33 28.706 39.974 31.18 64.427-12.047.057-24.282 1.941-36.339 5.852-32.266 10.468-57.071 33.409-70.82 61.76-18.501-20.025-44.812-31.723-72.304-31.723-8.915 0-17.554 1.2-25.771 3.434-2.622-9.264-3.971-18.852-3.971-28.604 0-4.142-3.357-7.5-7.5-7.5s-7.5 3.358-7.5 7.5c0 11.478 1.635 22.761 4.817 33.65-34.368 15.334-58.385 49.827-58.385 89.829 0 54.208 44.102 98.311 98.311 98.311 33.136 0 63.766-16.635 81.899-43.929 22.401 31.985 59.322 51.176 98.302 51.176 12.23 0 24.664-1.889 36.909-5.861 32.951-10.691 59.657-35.108 73.271-66.992 1.627-3.809-.143-8.216-3.952-9.842-3.813-1.627-8.217.144-9.843 3.953-11.911 27.897-35.276 49.261-64.105 58.614-55.002 17.845-114.272-12.386-132.118-67.391-17.845-55.004 12.387-114.272 67.391-132.118 55.006-17.846 114.272 12.387 132.118 67.391 4.786 14.751 6.25 29.97 4.353 45.234-.512 4.11 2.406 7.857 6.517 8.368 4.099.51 7.857-2.406 8.368-6.518 2.171-17.46.499-34.858-4.97-51.714-2.936-9.051-6.859-17.51-11.602-25.308 22.909-5.799 45.714-16.483 66.491-31.213 22.167-15.716 38.858-40.794 49.61-74.539 8.791-27.59 11.753-55.269 12.69-73.629.784-15.351-8.968-29.105-23.714-33.448zm-387.615 372.765c-45.938 0-83.311-37.373-83.311-83.31s37.373-83.31 83.311-83.31c25.745 0 50.271 12.106 65.994 32.469-7.433 23.122-7.949 48.694.102 73.509 1.944 5.991 4.331 11.715 7.089 17.169-14.631 26.818-42.658 43.473-73.185 43.473zm147.727-302.199-9.383-46.547 24.14-36.329c2.292-3.45 1.354-8.105-2.097-10.397-3.449-2.293-8.105-1.354-10.397 2.096l-15.838 23.835-6.662-33.05c-.818-4.061-4.773-6.688-8.835-5.87-4.06.818-6.688 4.773-5.87 8.834l6.662 33.051-23.835-15.838c-3.45-2.293-8.105-1.354-10.397 2.096s-1.354 8.105 2.097 10.397l36.327 24.139 6.544 32.464c-16.828-8.716-35.609-13.343-55.052-13.343-6.383 0-12.682.504-18.867 1.474-.907-3.416-1.72-6.881-2.419-10.35-9.628-47.766 28.966-99.578 46.005-119.637 4.469-5.259 11.887-6.756 18.045-3.637 23.48 11.891 79.133 44.706 88.761 92.472 1.157 5.74 2.031 11.567 2.597 17.318.006.059.019.116.026.175-20.195 17.808-36.065 38.681-46.093 60.724-1.436-1.552-2.913-3.074-4.438-4.559-3.506-3.417-7.186-6.591-11.021-9.518zm248.621-37.882c-4.633 90.829-40.702 125.853-55.995 136.696-21.002 14.89-44.155 25.29-67.156 30.22-16.004-19.675-37.834-33.668-61.998-40.199l17.273-12.247 49.681 8.461c.426.073.85.107 1.268.107 3.589 0 6.762-2.585 7.385-6.242.695-4.083-2.051-7.958-6.135-8.653l-34.894-5.942 43.529-30.862 49.682 8.461c.426.073.85.107 1.268.107 3.589 0 6.762-2.585 7.385-6.242.695-4.083-2.051-7.957-6.135-8.653l-34.894-5.942 33.639-23.849c3.379-2.396 4.176-7.077 1.78-10.456-2.393-3.378-7.076-4.177-10.456-1.78l-33.638 23.849 5.943-34.894c.695-4.084-2.051-7.958-6.135-8.653-4.079-.695-7.957 2.051-8.652 6.134l-8.461 49.682-43.529 30.861 5.943-34.894c.695-4.084-2.051-7.958-6.135-8.653-4.082-.696-7.957 2.051-8.652 6.134l-8.461 49.682-25.493 18.074c-2.138-19.906-9.162-38.742-20.445-55.055 10.993-28.441 32.933-55.346 61.995-75.951 15.293-10.843 60.285-33.288 147.524-7.597 8.064 2.376 13.398 9.899 12.969 18.296z"/><path d="m144.419 255.462c3.204 4.209 7.192 9.447 13.597 12.239 5.167 2.253 10.607 2.082 15.405 1.93 2.313-.072 4.655-.073 6.968.001 1.235.039 2.512.079 3.816.079 3.763 0 7.75-.336 11.586-2.008 6.405-2.793 10.394-8.031 13.599-12.24.354-.465.703-.924 1.051-1.373l.122-.157c3.835-4.946 8.608-11.101 8.608-19.333 0-8.23-4.77-14.383-8.604-19.327l-.125-.161c-.349-.449-.698-.909-1.052-1.374-3.205-4.209-7.193-9.447-13.598-12.239-5.166-2.253-10.604-2.081-15.405-1.93-2.313.072-4.656.072-6.967 0-4.799-.152-10.237-.323-15.403 1.929-6.404 2.792-10.392 8.028-13.597 12.236-.354.466-.705.926-1.055 1.377l-.124.16c-3.833 4.945-8.605 11.098-8.605 19.329 0 8.23 4.771 14.383 8.604 19.327l.125.161c.35.449.699.909 1.054 1.374zm10.678-31 .124-.16c.375-.483.752-.979 1.134-1.48 2.483-3.261 4.829-6.341 7.657-7.574 2.072-.904 5.409-.797 8.936-.687 2.627.083 5.288.083 7.913 0 3.533-.11 6.865-.217 8.938.688 2.828 1.233 5.174 4.314 7.658 7.576.381.5.757.994 1.131 1.477l.126.162c2.807 3.621 5.458 7.04 5.458 10.136 0 3.098-2.653 6.519-5.462 10.141l-.123.158c-.374.483-.75.977-1.131 1.477-2.483 3.262-4.83 6.343-7.658 7.576-2.07.903-5.404.799-8.935.687-1.314-.042-2.637-.082-3.958-.082-1.32 0-2.644.04-3.956.082-3.528.11-6.863.216-8.938-.688-2.827-1.233-5.173-4.314-7.656-7.575-.381-.5-.758-.995-1.132-1.477l-.126-.162c-2.807-3.621-5.458-7.04-5.458-10.136-.001-3.098 2.65-6.518 5.458-10.139z"/><path d="m128.686 396.642c-.308-.373-.616-.755-.93-1.141-2.924-3.609-6.563-8.1-12.449-10.512-4.697-1.925-9.589-1.779-13.905-1.652-2.054.061-4.132.061-6.182 0-4.315-.128-9.207-.273-13.904 1.651-5.888 2.412-9.526 6.903-12.45 10.512-.313.386-.622.768-.93 1.14l-.104.127c-3.557 4.31-7.983 9.674-7.983 17.112 0 7.435 4.424 12.798 7.979 17.106l.108.131c.308.373.616.755.93 1.141 2.924 3.609 6.563 8.1 12.449 10.512 4.698 1.925 9.591 1.78 13.906 1.652 2.051-.061 4.131-.061 6.182 0 1.104.033 2.247.067 3.414.067 3.393 0 6.995-.287 10.489-1.718 5.888-2.412 9.526-6.903 12.45-10.512.314-.386.622-.768.93-1.14l.106-.129c3.557-4.31 7.982-9.672 7.982-17.11 0-7.434-4.423-12.796-7.978-17.104zm-11.463 24.799-.108.131c-.336.406-.673.822-1.014 1.243-2.133 2.631-4.146 5.117-6.482 6.074-1.749.717-4.674.629-7.772.538-1.173-.035-2.356-.069-3.535-.069-1.18 0-2.362.034-3.535.069-3.098.091-6.024.179-7.774-.539-2.336-.957-4.35-3.443-6.482-6.075-.341-.421-.678-.837-1.013-1.243l-.109-.132c-2.236-2.71-4.549-5.514-4.549-7.56 0-2.048 2.314-4.852 4.553-7.564l.105-.129c.336-.406.673-.822 1.014-1.243 2.133-2.631 4.146-5.117 6.481-6.074 1.75-.717 4.677-.629 7.774-.539 2.346.069 4.723.069 7.07 0 3.096-.091 6.024-.179 7.773.539 2.336.957 4.35 3.443 6.482 6.075.341.421.678.837 1.013 1.243l.111.134c2.236 2.71 4.548 5.513 4.548 7.558-.001 2.048-2.314 4.851-4.551 7.563z"/><path d="m332.699 376.308-.188-.039c-.542-.112-1.091-.231-1.646-.351-5.051-1.091-11.334-2.45-18.025-.468-5.327 1.58-9.474 5.12-13.133 8.243-.896.765-1.798 1.537-2.722 2.279-.923.742-1.871 1.457-2.811 2.168-3.836 2.901-8.185 6.189-10.871 11.05-3.375 6.104-3.399 12.534-3.42 17.701-.002.569-.004 1.132-.011 1.686l-.003.194c-.079 6.191-.179 13.895 4.89 20.2 5.067 6.305 12.611 7.864 18.673 9.118l.191.04c.542.112 1.091.231 1.647.351 3.177.687 6.842 1.479 10.788 1.479 2.328 0 4.754-.276 7.235-1.011 5.327-1.58 9.474-5.12 13.133-8.243.896-.765 1.798-1.537 2.722-2.279.923-.742 1.871-1.457 2.811-2.168 3.836-2.901 8.185-6.188 10.871-11.05 3.375-6.105 3.4-12.536 3.421-17.704.002-.568.004-1.13.011-1.683l.003-.194c.079-6.19.179-13.894-4.891-20.2-5.068-6.306-12.612-7.865-18.675-9.119zm8.567 29.126-.002.196c-.008.596-.011 1.202-.013 1.815-.016 3.991-.03 7.759-1.549 10.505-1.147 2.075-3.888 4.148-6.79 6.343-1.058.8-2.123 1.607-3.161 2.441-1.039.835-2.056 1.701-3.064 2.562-2.769 2.363-5.383 4.595-7.657 5.269-3.009.893-6.691.095-10.591-.747-.6-.13-1.191-.258-1.776-.379l-.193-.039c-4.094-.847-8.327-1.722-10.018-3.826s-1.636-6.428-1.582-10.61l.002-.196c.008-.598.011-1.205.013-1.819.016-3.989.03-7.757 1.548-10.502 1.146-2.075 3.888-4.148 6.79-6.343 1.058-.8 2.123-1.606 3.161-2.441 1.039-.834 2.056-1.701 3.063-2.562 2.769-2.363 5.383-4.595 7.657-5.269.936-.278 1.938-.392 2.99-.392 2.331 0 4.915.559 7.602 1.139.6.129 1.191.257 1.775.378l.192.04c4.094.846 8.328 1.722 10.02 3.826 1.692 2.106 1.636 6.43 1.583 10.611z"/></g></g></svg>