<svg id="Capa_1" enable-background="new 0 0 512 512" height="512" viewBox="0 0 512 512" width="512" xmlns="http://www.w3.org/2000/svg"><g><g><g><path d="m322.77 112.1c-26.974 26.974-52.367 34.099-63.634 22.832s-4.142-36.66 22.832-63.634c20.723-20.723 50.474-26.39 63.149-27.904 3.213-.384 5.941 2.345 5.557 5.557-1.513 12.675-7.18 42.426-27.904 63.149z" fill="#afd171"/></g></g><g><g><path d="m345.117 43.394c-4.423.528-10.929 1.566-18.403 3.569.182.623.252 1.293.169 1.988-1.514 12.675-7.181 42.426-27.904 63.149-13.035 13.035-25.695 21.42-36.575 25.349 12.446 7.347 35.745-.728 60.366-25.349 20.724-20.723 26.39-50.474 27.904-63.149.384-3.212-2.344-5.941-5.557-5.557z" fill="#a4c46a"/></g></g><g><g><path d="m195.503 112.1c26.974 26.974 52.366 34.099 63.634 22.832 11.267-11.267 4.142-36.66-22.832-63.634-20.723-20.723-50.474-26.39-63.149-27.904-3.213-.384-5.941 2.345-5.557 5.557 1.513 12.675 7.18 42.426 27.904 63.149z" fill="#afd171"/></g></g><g><g><path d="m351.569 147.109c-26.994 26.954-52.392 34.061-63.651 22.785-11.259-11.275-4.115-36.663 22.878-63.617 20.739-20.708 50.493-26.353 63.169-27.858 3.213-.381 5.939 2.349 5.553 5.561-1.521 12.674-7.21 42.421-27.949 63.129z" fill="#bbdb81"/></g></g><g><g><path d="m373.966 78.419c-4.425.525-10.934 1.558-18.41 3.557.185.628.257 1.303.172 2.005-1.523 12.674-7.212 42.42-27.95 63.129-13.037 13.018-25.697 21.392-36.576 25.316 12.445 7.338 35.739-.724 60.367-25.316 20.739-20.708 26.427-50.455 27.95-63.129.387-3.213-2.339-5.943-5.553-5.562z" fill="#a4c46a"/></g></g><g><g><path d="m160.431 147.109c26.993 26.954 52.392 34.061 63.651 22.785 11.259-11.275 4.115-36.663-22.878-63.617-20.739-20.708-50.493-26.353-63.169-27.858-3.213-.381-5.939 2.349-5.553 5.561 1.521 12.674 7.21 42.421 27.949 63.129z" fill="#bbdb81"/></g></g><g><g><path d="m287.988 73.792c0 38.147-12.917 61.14-28.852 61.14s-28.852-22.994-28.852-61.14c0-29.307 17.03-54.352 24.922-64.384 2-2.543 5.858-2.543 7.859 0 7.893 10.032 24.923 35.076 24.923 64.384z" fill="#bbdb81"/></g></g><g><g><path d="m263.066 9.408c-2.001-2.543-5.858-2.543-7.859 0-2.152 2.736-4.985 6.595-7.966 11.346 7.949 12.67 16.956 31.723 16.956 53.038 0 27.989-6.958 47.806-16.956 56.382 3.628 3.113 7.653 4.758 11.896 4.758 15.934 0 28.852-22.994 28.852-61.14-.001-29.308-17.031-54.352-24.923-64.384z" fill="#a4c46a"/></g></g><g><g><path d="m256 110.659c-45.763 0-154.715 13.232-154.715 133.133s92.675 260.708 154.715 260.708c65.406 0 154.715-140.806 154.715-260.708s-108.952-133.133-154.715-133.133z" fill="#dc8995"/></g></g><g><g><path d="m256 110.659c-4.453 0-9.509.128-15 .465 50.939 3.123 139.715 24.433 139.715 132.669 0 110.76-76.209 239.348-139.387 258.314 5.032 1.565 9.942 2.394 14.672 2.394 65.406 0 154.715-140.806 154.715-260.707s-108.952-133.135-154.715-133.135z" fill="#d5717f"/></g></g><g><path d="m399.397 168.531c-7.597-12.583-17.509-23.499-29.56-32.624 11.827-19.151 15.806-40.021 17.129-51.032.46-3.83-.84-7.592-3.566-10.323-2.727-2.73-6.483-4.035-10.316-3.581-4.642.551-11.841 1.692-20.198 3.986 3.105-10.279 4.577-19.594 5.236-25.117.457-3.83-.845-7.591-3.573-10.32s-6.489-4.033-10.32-3.574c-11.552 1.379-32.256 5.423-51.234 17.203-5.329-22.525-17.852-40.522-24.033-48.38-2.387-3.031-5.968-4.769-9.827-4.769-3.858 0-7.439 1.74-9.822 4.77-6.18 7.856-18.705 25.853-24.033 48.38-18.977-11.779-39.678-15.823-51.234-17.203-3.832-.459-7.592.846-10.32 3.574-2.729 2.729-4.03 6.49-3.573 10.319.727 6.092 2.359 16.17 5.909 27.224-11.264-3.751-21.256-5.394-27.143-6.093-3.826-.452-7.589.85-10.316 3.581-2.727 2.73-4.026 6.493-3.566 10.323 1.334 11.096 5.32 31.92 17.127 51.033-12.05 9.125-21.961 20.04-29.557 32.623-12.487 20.682-18.818 46.003-18.818 75.262 0 56.136 20.638 123.146 55.207 179.251 34.317 55.701 74.32 88.956 107.004 88.956 33.942 0 74.426-33.269 108.294-88.995 33.764-55.554 53.921-122.55 53.921-179.212 0-29.259-6.331-54.581-18.818-75.262zm-42.032-40.983c-1.057-.624-2.123-1.241-3.206-1.842-12.089-6.711-24.879-11.467-37.336-14.823 17.561-17.023 42.221-22.728 54.819-24.588-1.501 10.154-5.209 26.364-14.277 41.253zm-14.563-76.276c-1.071 7.385-3.376 18.926-8.174 30.172-10.032 4.466-20.321 10.728-29.131 19.526-1.977 1.973-3.885 3.974-5.673 5.945-.038.042-.07.088-.107.13-2.621-.477-5.196-.893-7.727-1.264 2.312-9.453 3.498-20.191 3.498-31.99 0-1.394-.048-2.774-.116-4.149 16.631-12.305 36.834-16.79 47.43-18.37zm-83.665-34.653c7.689 10.37 21.352 32.302 21.352 57.173 0 11.342-1.175 21.487-3.492 30.155-.009.035-.014.07-.022.105-8.074-.679-15.236-.893-20.974-.893-4.227 0-9.231.117-14.798.448-2.233-8.519-3.417-18.746-3.417-29.816-.001-24.872 13.66-46.801 21.351-57.172zm-83.666 34.653c10.6 1.58 30.8 6.066 47.431 18.371-.069 1.374-.116 2.755-.116 4.148 0 11.491 1.121 21.935 3.303 31.176-4.458.538-9.107 1.221-13.895 2.094-.204-.299-.423-.591-.675-.866-1.59-1.731-3.277-3.489-5.016-5.226-6.45-6.441-13.693-11.522-21.047-15.537-6.031-12.587-8.773-25.81-9.985-34.16zm-35.114 35.023c12.597 1.86 37.259 7.564 54.82 24.588-12.457 3.356-25.247 8.112-37.337 14.823-1.082.601-2.148 1.217-3.204 1.841-9.056-14.864-12.771-31.051-14.279-41.252zm211.119 328.92c-30.661 50.447-67.244 81.785-95.476 81.785-26.62 0-63.61-32.118-94.237-81.825-33.173-53.84-52.978-117.908-52.978-171.383 0-48.903 18.954-84.221 56.336-104.973 32.384-17.977 70.839-20.661 90.879-20.661s58.495 2.684 90.879 20.661c37.382 20.751 56.336 56.069 56.336 104.973 0 54.033-19.342 118.116-51.739 171.423z"/><path d="m221.917 317.266c-4.143 0-7.5 3.358-7.5 7.5v6.321c0 4.142 3.357 7.5 7.5 7.5s7.5-3.358 7.5-7.5v-6.321c0-4.142-3.357-7.5-7.5-7.5z"/><path d="m288.206 317.266c-4.143 0-7.5 3.358-7.5 7.5v6.321c0 4.142 3.357 7.5 7.5 7.5 4.142 0 7.5-3.358 7.5-7.5v-6.321c0-4.142-3.357-7.5-7.5-7.5z"/><path d="m349.311 317.106c-4.143 0-7.5 3.358-7.5 7.5v6.321c0 4.142 3.357 7.5 7.5 7.5 4.142 0 7.5-3.358 7.5-7.5v-6.321c0-4.142-3.358-7.5-7.5-7.5z"/><path d="m157.477 317.106c-4.143 0-7.5 3.358-7.5 7.5v6.321c0 4.142 3.357 7.5 7.5 7.5s7.5-3.358 7.5-7.5v-6.321c0-4.142-3.358-7.5-7.5-7.5z"/><path d="m221.917 201.397c-4.143 0-7.5 3.358-7.5 7.5v6.321c0 4.142 3.357 7.5 7.5 7.5s7.5-3.358 7.5-7.5v-6.321c0-4.142-3.357-7.5-7.5-7.5z"/><path d="m288.206 201.397c-4.143 0-7.5 3.358-7.5 7.5v6.321c0 4.142 3.357 7.5 7.5 7.5 4.142 0 7.5-3.358 7.5-7.5v-6.321c0-4.142-3.357-7.5-7.5-7.5z"/><path d="m349.311 201.237c-4.143 0-7.5 3.358-7.5 7.5v6.321c0 4.142 3.357 7.5 7.5 7.5 4.142 0 7.5-3.358 7.5-7.5v-6.321c0-4.143-3.358-7.5-7.5-7.5z"/><path d="m157.477 201.237c-4.143 0-7.5 3.358-7.5 7.5v6.321c0 4.142 3.357 7.5 7.5 7.5s7.5-3.358 7.5-7.5v-6.321c0-4.143-3.358-7.5-7.5-7.5z"/><path d="m221.917 408.792c-4.143 0-7.5 3.358-7.5 7.5v6.321c0 4.142 3.357 7.5 7.5 7.5s7.5-3.358 7.5-7.5v-6.321c0-4.142-3.357-7.5-7.5-7.5z"/><path d="m288.206 408.792c-4.143 0-7.5 3.358-7.5 7.5v6.321c0 4.142 3.357 7.5 7.5 7.5 4.142 0 7.5-3.358 7.5-7.5v-6.321c0-4.142-3.357-7.5-7.5-7.5z"/><path d="m256 444.205c-4.143 0-7.5 3.358-7.5 7.5v6.321c0 4.142 3.357 7.5 7.5 7.5s7.5-3.358 7.5-7.5v-6.321c0-4.142-3.357-7.5-7.5-7.5z"/><path d="m256 365.767c-4.143 0-7.5 3.358-7.5 7.5v6.321c0 4.142 3.357 7.5 7.5 7.5s7.5-3.358 7.5-7.5v-6.321c0-4.142-3.357-7.5-7.5-7.5z"/><path d="m186.857 365.767c-4.143 0-7.5 3.358-7.5 7.5v6.321c0 4.142 3.357 7.5 7.5 7.5s7.5-3.358 7.5-7.5v-6.321c0-4.142-3.358-7.5-7.5-7.5z"/><path d="m319.908 365.767c-4.143 0-7.5 3.358-7.5 7.5v6.321c0 4.142 3.357 7.5 7.5 7.5s7.5-3.358 7.5-7.5v-6.321c0-4.142-3.357-7.5-7.5-7.5z"/><path d="m258.265 166.516v-6.321c0-4.142-3.357-7.5-7.5-7.5s-7.5 3.358-7.5 7.5v6.321c0 4.142 3.357 7.5 7.5 7.5 4.142 0 7.5-3.358 7.5-7.5z"/><path d="m319.908 152.696c-4.143 0-7.5 3.358-7.5 7.5v6.321c0 4.142 3.357 7.5 7.5 7.5s7.5-3.358 7.5-7.5v-6.321c0-4.143-3.357-7.5-7.5-7.5z"/><path d="m186.857 174.016c4.143 0 7.5-3.358 7.5-7.5v-6.321c0-4.142-3.357-7.5-7.5-7.5s-7.5 3.358-7.5 7.5v6.321c0 4.142 3.357 7.5 7.5 7.5z"/><path d="m256 257.246c-4.143 0-7.5 3.358-7.5 7.5v6.321c0 4.142 3.357 7.5 7.5 7.5s7.5-3.358 7.5-7.5v-6.321c0-4.142-3.357-7.5-7.5-7.5z"/><path d="m373.185 257.246c-4.143 0-7.5 3.358-7.5 7.5v6.321c0 4.142 3.357 7.5 7.5 7.5s7.5-3.358 7.5-7.5v-6.321c0-4.142-3.358-7.5-7.5-7.5z"/><path d="m193.857 257.246c-4.143 0-7.5 3.358-7.5 7.5v6.321c0 4.142 3.357 7.5 7.5 7.5s7.5-3.358 7.5-7.5v-6.321c0-4.142-3.358-7.5-7.5-7.5z"/><path d="m140.617 257.246c-4.143 0-7.5 3.358-7.5 7.5v6.321c0 4.142 3.357 7.5 7.5 7.5s7.5-3.358 7.5-7.5v-6.321c0-4.142-3.357-7.5-7.5-7.5z"/><path d="m319.908 257.246c-4.143 0-7.5 3.358-7.5 7.5v6.321c0 4.142 3.357 7.5 7.5 7.5s7.5-3.358 7.5-7.5v-6.321c0-4.142-3.357-7.5-7.5-7.5z"/></g></g></svg>