<svg id="Capa_1" enable-background="new 0 0 512.067 512.067" height="512" viewBox="0 0 512.067 512.067" width="512" xmlns="http://www.w3.org/2000/svg"><g><g><g><path d="m280.276 183.377h-47.596s-80.496 321.19 23.798 321.19 23.798-321.19 23.798-321.19z" fill="#f5deb2"/></g></g><g><g><path d="m280.276 183.377h-30s72.219 288.177-8.798 318.591c4.513 1.694 9.496 2.599 15 2.599 104.294 0 23.798-321.19 23.798-321.19z" fill="#f3d69e"/></g></g><g><g><path d="m440.928 58.298c-47.2 16.046-96.362 23.839-145.676 23.797-50.016-.043-99.472-6.852-148.73-15.964-24.166-4.47-48.256-9.467-72.497-13.422-8.388-1.369-16.795-2.603-25.22-3.657 12.433 83.394 100.037 148.018 206.272 148.018 105.393 0 192.449-63.603 205.964-146.038-6.669 2.541-13.37 4.974-20.113 7.266z" fill="#f3d69e"/></g></g><g><g><path d="m440.928 58.298c-4.052 1.378-8.123 2.672-12.203 3.928-18.246 73.071-94.832 128.987-188.655 134.409 4.957.287 9.961.434 15.008.434 105.393 0 192.449-63.603 205.964-146.038-6.67 2.542-13.371 4.975-20.114 7.267z" fill="#efcb83"/></g></g><g><g><path d="m161.765 112.772c18.835 50.389 54.067 84.298 94.426 84.298 55.275 0 100.933-63.603 108.021-146.038-3.497 2.541-7.012 4.974-10.549 7.267-24.755 16.046-50.539 23.839-76.403 23.797-26.232-.043-52.17-6.852-78.004-15.964-12.674-4.47-25.309-9.467-38.022-13.422-4.399-1.369-8.808-2.603-13.227-3.657 1.799 22.984 6.591 44.545 13.758 63.719" fill="#efcb83"/></g></g><g><g><path d="m353.665 58.298c-7.2 4.667-14.49 8.615-21.841 11.896-10.777 65.635-46.486 115.897-90.635 125.29 4.905 1.044 9.912 1.586 15.003 1.586 55.275 0 100.933-63.603 108.021-146.038-3.497 2.541-7.012 4.974-10.548 7.266z" fill="#edc472"/></g></g><g><g><path d="m39.861 50.177c2.098-25.741 23.604-54.722 186.575-37.326s261.612-4.873 243.767 43.181c-17.846 48.054-123.255 67.603-213.724 67.603s-219.753-35.004-216.618-73.458z" fill="#efcb83"/></g></g><g><g><path d="m226.436 12.85c-42.053-4.489-74.666-5.883-99.977-5.049 19.81.559 42.935 2.162 69.977 5.049 162.971 17.396 261.612-4.873 243.767 43.181-16.737 45.07-110.497 65.064-196.717 67.374 4.405.151 8.742.229 12.993.229 90.47 0 195.879-19.549 213.724-67.603s-80.796-25.785-243.767-43.181z" fill="#edc472"/></g></g><path d="m476.078 33.452c-9.617-14.318-34.42-17.486-86.382-19.169-4.114-.125-7.604 3.113-7.739 7.253-.134 4.14 3.113 7.604 7.253 7.739 26.864.87 67.461 2.185 74.415 12.54.614.915 2.483 3.697-.453 11.606-7.255 19.535-33.042 35.856-74.573 47.198-36.639 10.006-83.56 15.516-132.121 15.516-79.32 0-178.301-26.021-203.672-53.545-3.922-4.255-5.762-8.226-5.471-11.804.679-8.328 3.617-14.223 9.526-19.116 20.854-17.268 77.639-21.09 168.778-11.362 50.616 5.403 94.801 6.996 132.244 8.064 4.117.121 7.593-3.143 7.711-7.283s-3.143-7.593-7.283-7.711c-37.16-1.061-80.999-2.64-131.08-7.985-97.993-10.461-155.169-5.782-179.935 14.723-9.027 7.474-13.904 17.108-14.91 29.451-.646 7.925 2.514 15.727 9.392 23.189 2.055 2.229 4.463 4.42 7.173 6.569.078.373.176.746.314 1.114 13.292 35.358 40.681 67.068 77.121 89.289 28.064 17.112 60.141 28.167 94.195 32.616-7.627 34.495-20.143 98.094-23.938 158.874-.258 4.134 2.884 7.694 7.018 7.953.159.01.317.015.475.015 3.928 0 7.23-3.058 7.478-7.033 3.797-60.815 16.512-124.675 23.997-158.293 6.436.467 12.927.71 19.466.71.279 0 .557-.006.836-.007.093 0 .185.007.279.007.189 0 .377-.012.566-.013 6.903-.043 13.757-.345 20.544-.909.004.018.005.035.009.053 6.52 29.275 18.175 86.914 22.972 144.026 5.727 68.179-.189 115.369-17.108 136.471-6.943 8.66-15.676 12.87-26.696 12.87-15.972 0-27.48-9.079-35.182-27.755-7.15-17.34-10.771-42.496-10.761-74.768.002-4.142-3.355-7.501-7.497-7.503-.001 0-.001 0-.003 0-4.141 0-7.498 3.357-7.5 7.498-.01 34.247 3.992 61.328 11.894 80.492 6.968 16.896 21.133 37.037 49.049 37.037 15.645 0 28.564-6.22 38.399-18.487 43.737-54.549 13.076-220.894-2.588-291.615 32.554-4.607 63.264-15.272 90.29-31.517 36.692-22.056 63.454-52.356 77.39-87.623.009-.023.015-.047.024-.07 7.969-7.114 13.902-15.124 17.24-24.112 3.724-10.031 3.335-18.506-1.156-25.193zm-341.882 123.469c-27.22-16.598-48.911-38.811-62.61-63.791 22.565 11.057 52.917 20.36 84.995 26.996.019.05.032.101.052.15 10.962 27.239 26.187 48.794 43.996 63.296-23.816-5.388-46.25-14.344-66.433-26.651zm122.518 32.636c-.263.002-.526.005-.789.006-32.412-.134-62.416-24.616-81.565-66.062 28.239 4.887 56.938 7.634 82.119 7.634 25.859 0 53.561-1.592 80.36-5.144-19.152 39.781-48.588 63.308-80.125 63.566zm118.138-31.966c-19.024 11.435-40.028 19.916-62.274 25.263 16.783-13.941 31.234-34.189 41.904-59.517 30.243-5.113 58.479-12.937 80.51-24.051-13.971 22.8-34.7 43.014-60.14 58.305z"/></g></svg>