<svg id="Capa_1" enable-background="new 0 0 511.814 511.814" height="512" viewBox="0 0 511.814 511.814" width="512" xmlns="http://www.w3.org/2000/svg"><g><g><g><path d="m363.087 36.07c-53.743-10.035-135.681 96.278-150.54 175.353-10.998 58.529 20.47 84.176 60.574 99.283 23.681 8.921 48.798 13.64 74.102 13.924 42.852.481 81.484-11.994 92.482-70.522 14.859-79.075-22.898-207.879-76.618-218.038z" fill="#7fbd93"/></g></g><g><g><path d="m363.087 36.07c-7.274-1.358-15.068-.569-23.139 1.98 50.018 19.22 83.974 140.396 69.757 216.058-9.546 50.801-39.911 66.903-75.784 69.956 4.424.322 8.86.516 13.302.566 42.852.481 81.484-11.994 92.482-70.522 14.859-79.075-22.898-207.879-76.618-218.038z" fill="#68b181"/></g></g><g><g><path d="m292.701 492.552c17.607-67.907 38.763-158.361 41.287-169.182.168-.719.283-1.44.348-2.175l10.143-114.525c.713-8.055-4.803-15.337-12.751-16.83-7.987-1.501-15.801 3.336-18.019 11.154l-31.368 110.533c-.183.646-.324 1.298-.424 1.962-1.59 10.638-15.535 104.413-23.29 172.722-.929 8.187 4.613 15.702 12.711 17.223l3.25.611c8.123 1.525 16.039-3.494 18.113-11.493z" fill="#abd4b9"/></g></g><g><g><path d="m331.728 189.838c-7.861-1.477-15.542 3.192-17.898 10.794.59 1.902.835 3.941.649 6.036l-10.143 114.526c-.065.735-.18 1.456-.348 2.175-2.524 10.821-23.68 101.276-41.287 169.182-.37 1.425-.932 2.75-1.64 3.966 2.264 3.498 5.89 6.091 10.278 6.915l3.25.611c8.122 1.526 16.038-3.493 18.112-11.492 17.607-67.907 38.763-158.361 41.287-169.182.168-.719.283-1.44.348-2.175l10.143-114.526c.713-8.055-4.803-15.336-12.751-16.83z" fill="#95c9a6"/></g></g><g><g><path d="m148.723 36.07c53.743-10.035 135.681 96.278 150.54 175.353 10.998 58.529-20.47 84.176-60.574 99.283-23.68 8.921-48.798 13.64-74.102 13.924-42.852.481-81.484-11.994-92.482-70.522-14.859-79.075 22.898-207.879 76.618-218.038z" fill="#7fbd93"/></g></g><g><g><path d="m219.109 492.552c-17.608-67.907-38.763-158.361-41.287-169.182-.168-.719-.283-1.44-.348-2.175l-10.143-114.525c-.713-8.055 4.803-15.337 12.751-16.83 7.987-1.501 15.8 3.336 18.019 11.154l31.368 110.533c.183.646.324 1.298.424 1.962 1.59 10.638 15.536 104.413 23.29 172.722.929 8.187-4.614 15.702-12.711 17.223l-3.25.611c-8.123 1.525-16.039-3.494-18.113-11.493z" fill="#abd4b9"/></g></g><g><g><path d="m258.427 7.5c-56.927.066-120.333 124.615-120.333 208.393 0 62.009 37.134 82.203 81.079 89.951 25.948 4.575 52.56 4.575 78.508 0 43.944-7.748 81.079-27.942 81.079-89.951 0-83.778-63.406-208.327-120.333-208.393z" fill="#7fbd93"/></g></g><g><g><path d="m258.427 7.5c-4.966.006-9.982.978-15 2.769 52.508 18.737 105.333 129.154 105.333 205.624 0 62.009-37.134 82.203-81.079 89.951-8.034 1.417-16.132 2.392-24.254 2.931 18.11 1.203 36.34.227 54.254-2.931 43.944-7.748 81.079-27.942 81.079-89.951 0-83.778-63.406-208.327-120.333-208.393z" fill="#68b181"/></g></g><g><g><path d="m274.177 488.168c4.96-72.877 9.215-169.51 9.718-181.069.033-.768.012-1.528-.063-2.293l-11.642-119.149c-.819-8.38-7.864-14.771-16.284-14.771-8.462 0-15.528 6.452-16.295 14.879l-10.845 119.144c-.063.697-.082 1.391-.056 2.089.418 11.192 4.18 109.837 9.38 181.231.623 8.557 7.741 15.181 16.32 15.181h3.443c8.605.001 15.74-6.657 16.324-15.242z" fill="#abd4b9"/></g></g><g><path d="m438.01 129.216c-1.131-3.984-5.279-6.298-9.263-5.167-3.985 1.131-6.298 5.278-5.167 9.263 11.752 41.402 15.024 86.042 8.753 119.411-4.715 25.093-14.835 42.245-30.936 52.438-13.136 8.315-30.808 12.239-54.091 11.97-1.836-.021-3.475-.067-5.07-.134l1.652-18.658c.002-.026.001-.052.003-.079 5.965-3.383 11.269-7.223 15.921-11.557 17.549-16.352 26.447-40.176 26.447-70.811 0-41.438-15.232-94.781-39.752-139.212-5.298-9.601-10.802-18.381-16.444-26.315 11.811-6.206 22.641-8.604 31.629-6.926 18.965 3.586 38.185 26.494 52.731 62.851 1.173 2.932 3.989 4.716 6.966 4.716.927 0 1.87-.173 2.784-.539 3.846-1.539 5.716-5.904 4.177-9.749-16.731-41.816-39.415-67.393-63.888-72.021-13.158-2.456-27.812.785-43.63 9.605-20.403-24.695-42.132-38.279-62.414-38.302-20.807.024-43.151 14.331-64.021 40.286-17.116-10.314-32.923-14.226-47.068-11.585-27.566 5.213-52.991 37.359-69.755 88.196-15.278 46.331-20.198 99.438-12.84 138.596 5.449 29 18.118 49.975 37.655 62.342 15.197 9.62 34.831 14.308 59.965 14.308.767 0 1.54-.004 2.316-.013 2.73-.031 5.096-.114 7.443-.237 1.712 7.298 4.509 19.181 8.007 33.867.82 3.445 3.896 5.764 7.29 5.764.575 0 1.16-.066 1.744-.205 4.029-.96 6.518-5.004 5.558-9.034-5.028-21.112-8.609-36.427-9.586-40.615-.088-.378-.147-.749-.182-1.136l-1.515-17.106c9.918 4.241 21.347 7.495 34.443 9.804 1.196.21 2.394.403 3.592.595.997 25.627 4.499 111.168 9.145 174.948.202 2.775.884 5.415 1.957 7.842-2.935-.649-5.403-2.882-6.198-5.947-6.957-26.834-15.241-60.152-24.619-99.028-.972-4.027-5.027-6.504-9.05-5.532-4.027.972-6.503 5.023-5.532 9.05 9.398 38.958 17.703 72.359 24.682 99.275 2.686 10.36 12.115 17.38 22.488 17.38 1.41 0 8.371-.815 11.994-2.329 6.211 2.056 15.002 1.889 19.366.094 2.47 1.295 10.365 2.236 11.775 2.236 10.372 0 19.803-7.021 22.488-17.38 15.566-60.034 33.979-137.999 39.736-162.541 2.347.124 4.713.207 7.443.237.778.009 1.548.013 2.316.013 25.132 0 44.77-4.689 59.966-14.308 19.537-12.367 32.206-33.342 37.655-62.341 6.679-35.544 3.29-82.751-9.066-126.28zm-270.345 166.239 1.908 21.542c-1.595.067-3.234.113-5.07.134-23.259.263-40.954-3.654-54.091-11.97-16.102-10.193-26.221-27.345-30.936-52.438-6.918-36.815-2.188-87.061 12.343-131.129 14.783-44.83 36.577-74.047 58.28-78.151 9.945-1.856 22.038 1.233 35.276 8.932-5.147 7.4-10.174 15.509-15.028 24.306-24.52 44.431-39.752 97.774-39.752 139.212 0 30.635 8.898 54.459 26.447 70.811 3.221 3.001 6.762 5.758 10.606 8.3.004.15.004.299.017.451zm54.136 3.223c-.442-.075-.885-.142-1.326-.22-23.914-4.217-41.319-11.651-53.208-22.729-14.583-13.589-21.673-33.161-21.673-59.836 0-39.054 14.517-89.62 37.885-131.964 5.883-10.661 12.025-20.256 18.286-28.669.211-.239.414-.489.598-.76.039-.057.069-.118.107-.176 18.862-25.043 38.761-39.305 55.948-39.324 23.131.026 51.152 25.794 74.956 68.928 23.369 42.345 37.885 92.91 37.885 131.964 0 26.675-7.089 46.248-21.673 59.836-11.889 11.078-29.294 18.512-53.208 22.729-1.835.323-3.688.62-5.543.898l-11.182-114.429c-1.2-12.281-11.41-21.542-23.749-21.542-12.422 0-22.639 9.329-23.765 21.699zm32.608 197.233c-4.621 0-8.504-3.613-8.84-8.226-5.192-71.28-8.954-169.95-9.366-180.963-.014-.382-.004-.752.031-1.132l10.845-119.144c.418-4.594 4.212-8.059 8.826-8.059 4.583 0 8.374 3.439 8.82 8.001l11.643 119.148c.04.418.052.823.034 1.238-.471 10.838-4.746 107.996-9.707 180.885-.191 2.801-2.195 7.841-8.842 8.253zm72.276-174.246c-2.368 10.149-23.64 101.112-41.243 169.003-.748 2.884-2.975 5.035-5.68 5.819 1.049-2.42 1.711-5.049 1.899-7.811 4.4-64.644 8.259-148.264 9.417-174.208 2.645-.373 5.292-.777 7.906-1.238 10.856-1.914 20.555-4.484 29.212-7.719l-1.33 15.018c-.035.391-.095.764-.181 1.136z"/></g></g></svg>