<svg id="Capa_1" enable-background="new 0 0 511.999 511.999" height="512" viewBox="0 0 511.999 511.999" width="512" xmlns="http://www.w3.org/2000/svg"><g><g><g><g><path d="m256 78.629c-4.623 10.281-1.564 22.336-2.724 32.258-1.351 11.558-6.436 23.046-3.396 32.205 3.658 11.019 14.58 15.758 24.066 20.024 9.486 4.265 20.281 9.29 30.952 4.713 8.867-3.804 14.085-15.231 21.834-23.91 6.653-7.452 17.701-13.165 22.324-23.447 4.623-10.281 1.564-22.336 2.724-32.258 1.351-11.558 6.436-23.046 3.396-32.205-3.658-11.019-14.58-15.758-24.065-20.024-9.486-4.265-20.281-9.29-30.952-4.713-8.867 3.804-14.085 15.231-21.834 23.91-6.653 7.453-17.702 13.166-22.325 23.447z" fill="#afd171"/></g></g></g><g><g><g><path d="m256 78.629c4.623 10.281 1.564 22.336 2.724 32.258 1.351 11.558 6.436 23.046 3.396 32.205-3.658 11.019-14.58 15.758-24.065 20.024-9.486 4.265-20.281 9.29-30.952 4.713-8.867-3.804-14.086-15.231-21.834-23.91-6.653-7.452-17.701-13.165-22.324-23.447-4.623-10.281-1.564-22.336-2.724-32.258-1.351-11.558-6.436-23.046-3.396-32.205 3.658-11.019 14.58-15.758 24.066-20.024 9.486-4.265 20.281-9.29 30.952-4.713 8.867 3.804 14.085 15.231 21.834 23.91 6.652 7.453 17.7 13.166 22.323 23.447z" fill="#afd171"/></g></g></g><g><g><g><path d="m203.41 76.939c-.059 11.272 7.623 21.053 10.584 30.594 3.449 11.114 3.457 23.677 9.949 30.817 7.81 8.591 19.716 8.497 30.116 8.551 10.401.055 22.306.273 30.206-8.237 6.565-7.071 6.703-19.633 10.269-30.708 3.061-9.509 10.846-19.21 10.905-30.482s-7.623-21.053-10.584-30.594c-3.449-11.113-3.457-23.677-9.949-30.817-7.81-8.591-19.716-8.497-30.116-8.551-10.401-.055-22.306-.273-30.206 8.237-6.565 7.071-6.704 19.633-10.269 30.708-3.062 9.508-10.846 19.209-10.905 30.482z" fill="#c8e68f"/></g></g></g><g><g><g><path d="m258.814 504.499c-14.26 0-26.374-10.434-28.488-24.536l-42.501-283.577c-6.114-40.793 25.481-77.476 66.73-77.476 40.45 0 71.811 35.345 66.995 75.508l-34.136 284.705c-1.735 14.479-14.017 25.376-28.6 25.376z" fill="#f0c267"/></g></g></g><g><g><g><path d="m254.556 118.911c-5.177 0-10.201.579-15.018 1.67 32.88 7.436 56.214 38.8 52.013 73.838l-34.136 284.705c-1.085 9.047-6.287 16.696-13.596 21.162 4.39 2.68 9.534 4.215 14.995 4.215 14.583 0 26.865-10.898 28.601-25.376l34.136-284.705c4.815-40.164-26.545-75.509-66.995-75.509z" fill="#eaa85c"/></g></g></g><path d="m362.294 53.645c-4.632-13.952-17.37-19.675-27.606-24.274l-.998-.449c-10.207-4.594-22.904-10.305-36.379-4.587-1.401-4.883-3.392-9.507-6.855-13.317-9.889-10.878-23.855-10.947-35.077-11.003l-1.099-.006c-11.229-.058-25.191-.138-35.194 10.637-3.388 3.649-5.406 8.076-6.849 12.767-12.555-4.106-24.34 1.195-33.927 5.509l-.998.449c-10.236 4.599-22.975 10.323-27.606 24.275-2.691 8.107-.783 16.625 1.063 24.861.788 3.515 1.602 7.148 2.003 10.578.345 2.95.239 6.383.128 10.019-.232 7.599-.497 16.211 3.204 24.444 3.703 8.234 10.321 13.753 16.161 18.622 2.793 2.329 5.432 4.528 7.409 6.744 2.108 2.362 4.111 5.096 6.054 7.787-5.482 12.704-7.417 26.805-5.32 40.799l35.838 239.121c.614 4.097 4.444 6.924 8.528 6.305 4.097-.614 6.92-4.432 6.306-8.529l-3.915-26.122h32.936c4.143 0 7.5-3.358 7.5-7.5s-3.357-7.5-7.5-7.5h-35.184l-13.429-89.602h39.313c4.143 0 7.5-3.358 7.5-7.5s-3.357-7.5-7.5-7.5h-41.561l-11.598-77.386h45.3c4.143 0 7.5-3.358 7.5-7.5s-3.357-7.5-7.5-7.5h-47.548l-.151-1.011c-2.59-17.282 2.465-34.788 13.869-48.028 11.404-13.242 27.969-20.836 45.444-20.836 17.137 0 33.488 7.352 44.862 20.17 11.373 12.819 16.727 29.929 14.686 46.944l-4.853 40.477h-43.089c-4.143 0-7.5 3.358-7.5 7.5s3.357 7.5 7.5 7.5h41.291l-10.568 88.144h-34.951c-4.143 0-7.5 3.358-7.5 7.5s3.357 7.5 7.5 7.5h33.153l-15.118 126.083c-1.283 10.7-10.378 18.77-21.155 18.77-10.462 0-19.52-7.802-21.07-18.148l-2.107-14.058c-.614-4.097-4.433-6.918-8.529-6.305-4.096.614-6.919 4.433-6.305 8.529l2.107 14.058c2.642 17.63 18.077 30.925 35.904 30.925 18.364 0 33.861-13.75 36.048-31.983l34.136-284.705c1.48-12.338-.17-24.71-4.576-36.058.44-.605.881-1.211 1.323-1.826 2.105-2.92 4.282-5.94 6.581-8.515 1.978-2.215 4.616-4.415 7.409-6.744 5.84-4.869 12.458-10.388 16.16-18.622 2.819-6.269 3.253-12.588 3.315-17.394.055-4.142-3.259-7.543-7.401-7.598-4.185-.047-7.543 3.26-7.597 7.401-.065 4.984-.682 8.512-1.998 11.439-2.283 5.08-7.045 9.05-12.086 13.252-3.087 2.574-6.279 5.236-8.992 8.275-1.605 1.798-3.069 3.655-4.47 5.518-1.833-2.716-3.83-5.336-6.029-7.815-3.775-4.254-7.999-8.011-12.553-11.258.358-1.56.698-3.127 1.021-4.662.741-3.523 1.508-7.166 2.565-10.451.91-2.827 2.431-5.907 4.04-9.168 3.365-6.818 7.179-14.545 7.227-23.573.048-9.027-3.685-16.794-6.978-23.646-1.575-3.278-3.064-6.374-3.943-9.21-.501-1.614-.93-3.315-1.322-5.045.826-.629 1.623-1.107 2.419-1.448 7.456-3.198 16.079.683 24.421 4.436l1.006.453c8.339 3.747 16.963 7.622 19.518 15.318 1.272 3.829.256 9.145-1.204 15.695-.901 4.043 1.647 8.051 5.69 8.952.549.122 1.098.181 1.638.181 3.436 0 6.535-2.377 7.313-5.87 1.549-6.956 3.479-15.612.799-23.685zm-164.548 83.812c-1.395 1.619-2.69 3.303-3.931 5.019-.944-1.199-1.913-2.39-2.952-3.553-2.713-3.039-5.905-5.701-8.992-8.275-5.041-4.203-9.803-8.173-12.086-13.252-2.284-5.078-2.094-11.274-1.893-17.833.123-4.018.251-8.173-.223-12.22-.491-4.205-1.393-8.226-2.264-12.115-1.463-6.528-2.845-12.695-1.464-16.855 2.555-7.697 11.179-11.572 19.518-15.319l1.006-.453c8.301-3.736 16.882-7.592 24.313-4.476-.472 2.069-.985 4.113-1.603 6.033-.91 2.827-2.431 5.907-4.04 9.168-3.365 6.818-7.179 14.545-7.227 23.573s3.685 16.794 6.978 23.647c1.575 3.277 3.063 6.373 3.943 9.209 1.023 3.297 1.752 6.95 2.457 10.482.363 1.824.751 3.687 1.169 5.535-4.624 3.367-8.902 7.265-12.709 11.685zm63.812-25.699v-32.552c0-4.142-3.357-7.5-7.5-7.5s-7.5 3.358-7.5 7.5v32.634c-7.805.835-15.366 2.896-22.443 6.041-.039-.197-.078-.38-.117-.579-.779-3.909-1.586-7.95-2.841-11.993-1.208-3.891-3.008-7.638-4.749-11.261-2.843-5.914-5.527-11.501-5.498-17.07s2.772-11.128 5.678-17.014c1.778-3.604 3.618-7.332 4.866-11.209 1.298-4.03 2.146-8.064 2.968-11.964 1.377-6.545 2.678-12.727 5.659-15.939 5.518-5.944 14.963-5.896 24.118-5.842l1.105.006c9.143.045 18.597.093 24.052 6.093 2.949 3.244 4.185 9.441 5.494 16.002.779 3.909 1.586 7.95 2.841 11.994 1.208 3.891 3.008 7.638 4.749 11.261 2.843 5.915 5.527 11.502 5.498 17.07-.029 5.569-2.772 11.128-5.678 17.014-1.778 3.604-3.618 7.332-4.867 11.209-1.297 4.029-2.145 8.061-2.965 11.96-.002.008-.003.016-.005.024-7.219-3.137-14.93-5.139-22.865-5.885z"/></g></svg>