<svg id="Capa_1" enable-background="new 0 0 512 512" height="512" viewBox="0 0 512 512" width="512" xmlns="http://www.w3.org/2000/svg"><g><g><g><path d="m394.451 281.081c0 154.558-61.986 223.419-138.451 223.419s-138.451-68.861-138.451-223.419c0-127.295 93.915-234.74 127.047-268.684 6.373-6.529 16.435-6.529 22.808 0 33.132 33.944 127.047 141.389 127.047 268.684z" fill="#c39f8e"/></g></g><g><g><path d="m267.404 12.397c-6.373-6.529-16.435-6.529-22.808 0-1.48 1.516-3.086 3.185-4.795 4.99 36.545 38.599 122.253 142.085 122.253 263.694 0 143.48-53.422 213.095-122.253 222.339 5.314.714 10.718 1.08 16.198 1.08 76.465 0 138.451-68.861 138.451-223.419.001-127.295-93.914-234.74-127.046-268.684z" fill="#b78c7a"/></g></g><g><g><path d="m104.025 316.125c-5.176 0-9.178 4.522-8.584 9.664 15.757 136.393 81.657 178.711 160.559 178.711s144.802-42.318 160.559-178.711c.594-5.142-3.408-9.664-8.584-9.664z" fill="#f5deb2"/></g></g><g><g><path d="m412.873 316.125h-30c2.533 0 4.496 2.199 4.231 4.718-13.791 131.432-73.037 177.777-146.104 183.12 4.94.361 9.943.537 15 .537 79.849 0 146.38-43.339 161.104-183.658.264-2.519-1.699-4.717-4.231-4.717z" fill="#f3d69e"/></g></g><g><g><path d="m162.328 316.125c7.952 144.067 46.866 188.375 93.672 188.375s85.72-44.308 93.672-188.375z" fill="#f3d69e"/></g></g><path d="m420.018 314.025c-3.058-3.432-7.448-5.4-12.043-5.4h-6.721c.454-8.925.697-18.158.697-27.544 0-56.008-17.54-114.263-52.132-173.148-28.038-47.726-60.308-83.624-77.048-100.775-4.388-4.495-10.152-7.016-16.277-7.146-.177-.008-.343-.012-.494-.012s-.316.004-.494.012c-6.125.13-11.889 2.651-16.276 7.146-15.422 15.8-45.324 48.879-72.319 92.898-2.166 3.531-1.058 8.149 2.473 10.314 3.531 2.166 8.149 1.058 10.314-2.473 17.477-28.499 36.201-52.268 51.188-69.505-7.551 18.56-16.417 42.814-24.544 71.28-16.667 58.387-25.119 116.057-25.119 171.407 0 9.389.119 18.619.342 27.544h-55.76c-.511-9.177-.756-18.069-.756-27.544 0-47.186 13.297-96.5 39.523-146.574 1.922-3.669.505-8.202-3.165-10.123-3.669-1.923-8.202-.506-10.124 3.164-27.362 52.243-41.235 103.899-41.235 153.533 0 9.473.238 18.382.734 27.544h-6.757c-4.595 0-8.985 1.968-12.043 5.4-3.066 3.441-4.521 8.043-3.992 12.624 14.209 122.992 70.736 185.353 168.01 185.353 64.316 0 111.206-27.517 139.366-81.786 1.908-3.677.474-8.204-3.203-10.112-3.675-1.907-8.204-.473-10.111 3.203-17.278 33.298-41.557 55.088-73.526 65.823 5.279-5.551 10.143-12.095 14.57-19.646 18.132-30.924 29.45-79.998 33.644-145.858h51.236c.335 0 .62.128.844.379.16.18.34.485.29.923-3.083 26.683-8.26 50.585-15.388 71.042-1.363 3.912.703 8.187 4.615 9.55 3.914 1.363 8.187-.704 9.55-4.615 7.49-21.497 12.915-46.48 16.123-74.255.529-4.581-.926-9.182-3.992-12.623zm-33.067-32.944c0 9.4-.249 18.638-.716 27.544h-55.798c.222-8.919.341-18.156.341-27.544 0-55.351-8.451-113.021-25.119-171.407-8.129-28.476-16.998-52.736-24.551-71.298 16.377 18.83 37.051 45.278 55.778 77.156 33.221 56.549 50.065 112.249 50.065 165.549zm-190.728 0c0-123.516 44.199-229.398 59.777-262.843 15.579 33.445 59.777 139.326 59.777 262.843 0 9.395-.12 18.635-.345 27.544h-118.863c-.225-8.916-.346-18.148-.346-27.544zm52.277 215.466c-19.248-2.341-34.687-13.941-47.023-35.283-16.637-28.783-27.12-75.081-31.182-137.639h78.205zm-145.608-171.62c-.05-.438.13-.744.29-.923.224-.252.508-.379.844-.379h51.241c4.17 65.376 15.34 114.205 33.224 145.146 4.546 7.865 9.556 14.659 15.01 20.389-17.688-5.955-33.003-15.333-46.221-28.235-28.926-28.233-47.225-73.989-54.388-135.998zm207.263 136.969c-12.279 20.941-27.597 32.334-46.655 34.652v-172.923h78.205c-4.088 63.011-14.699 109.532-31.55 138.271z"/></g></svg>