<svg id="Capa_1" enable-background="new 0 0 508.551 508.551" height="512" viewBox="0 0 508.551 508.551" width="512" xmlns="http://www.w3.org/2000/svg"><g><g><g><path d="m230.76 41.367c4.115 7.466 2.548 16.74 4.031 24.147 1.727 8.629 6.264 16.977 4.534 24.066-2.081 8.53-10.024 12.772-16.912 16.568-6.889 3.797-14.717 8.246-23.041 5.45-6.917-2.324-11.551-10.617-17.923-16.684-5.471-5.209-14.149-8.838-18.264-16.304s-2.548-16.74-4.031-24.147c-1.727-8.629-6.264-16.977-4.534-24.066 2.081-8.53 10.024-12.772 16.912-16.568 6.889-3.797 14.717-8.246 23.041-5.45 6.917 2.323 11.551 10.617 17.923 16.684 5.471 5.209 14.149 8.838 18.264 16.304z" fill="#68b181"/></g></g><g><g><path d="m277.426 53.033c-4.763 7.07-4.029 16.447-6.165 23.693-2.488 8.441-7.75 16.351-6.658 23.567 1.314 8.681 8.847 13.613 15.37 18.008s13.925 9.523 22.465 7.479c7.096-1.699 12.45-9.546 19.337-15.022 5.913-4.702 14.88-7.543 19.643-14.614 4.763-7.07 4.029-16.447 6.165-23.693 2.488-8.441 7.75-16.351 6.658-23.567-1.314-8.681-8.847-13.613-15.37-18.008s-13.925-9.524-22.465-7.48c-7.096 1.698-12.45 9.546-19.337 15.022-5.913 4.703-14.879 7.544-19.643 14.615z" fill="#68b181"/></g></g><g><g><path d="m250.099 439.849s-53.792-15.195-53.792-92.348v-140.297c0-29.709 24.084-53.792 53.792-53.792 29.709 0 53.792 24.084 53.792 53.792v140.297c0 78.451-53.792 92.348-53.792 92.348z" fill="#f4e2c1"/></g></g><g><g><path d="m250.099 153.412c-5.208 0-10.237.755-15 2.136 22.406 6.496 38.792 27.156 38.792 51.657v140.297c0 50.915-22.655 74.634-38.561 85.015 8.376 5.526 14.768 7.332 14.768 7.332s53.792-13.897 53.792-92.348v-140.297c.001-29.708-24.083-53.792-53.791-53.792z" fill="#f3d69e"/></g></g><path d="m354.988 44.828c-4.123-.371-7.768 2.678-8.136 6.805-.238 2.684-1.658 6.13-3.161 9.779-1.166 2.831-2.371 5.757-3.304 8.919-.909 3.084-1.355 6.265-1.788 9.34-.66 4.7-1.284 9.139-3.401 12.282-2.118 3.144-5.998 5.39-10.106 7.768-2.689 1.556-5.468 3.165-7.985 5.166-2.58 2.052-4.84 4.268-7.024 6.412-3.425 3.36-6.66 6.533-9.391 7.187-3.854.923-7.649-.719-12.412-3.704 7.359-9.191 12.949-14.065 13.107-14.202 3.146-2.686 3.524-7.414.843-10.565-2.686-3.153-7.415-3.536-10.573-.851-.516.44-7.13 6.152-15.603 16.831-2.222-2.101-3.642-4.241-4.033-6.826-.421-2.777 1.306-6.968 3.133-11.406 1.166-2.83 2.371-5.756 3.304-8.919.908-3.084 1.355-6.264 1.788-9.339.66-4.7 1.284-9.14 3.403-12.284 2.117-3.143 5.997-5.389 10.104-7.767 2.689-1.556 5.468-3.166 7.985-5.167 2.58-2.052 4.839-4.268 7.024-6.411 3.425-3.36 6.66-6.534 9.391-7.187 4.828-1.154 9.54 1.695 16.183 6.173l.346.233c3.435 2.313 8.097 1.406 10.41-2.03 2.314-3.435 1.406-8.096-2.029-10.411l-.342-.23c-6.948-4.683-16.458-11.1-28.06-8.323-6.773 1.621-11.669 6.423-16.402 11.066-1.999 1.961-3.887 3.813-5.856 5.378-1.652 1.314-3.844 2.583-6.164 3.926-5.147 2.979-10.982 6.356-15.03 12.368-4.051 6.012-4.989 12.688-5.817 18.577-.373 2.655-.726 5.162-1.322 7.186-.711 2.413-1.718 4.858-2.784 7.447-2.526 6.132-5.138 12.474-4.096 19.362 1.125 7.428 5.321 12.717 10.01 16.786-5.142 7.755-10.424 17.029-15.127 27.761-.453-.014-.906-.03-1.362-.035-4.187-15.256-9.874-28.248-15.559-38.742 5.031-3.635 9.681-8.529 11.461-15.826 1.652-6.768-.385-13.316-2.354-19.649-.831-2.674-1.617-5.2-2.11-7.667-.414-2.07-.542-4.599-.678-7.275-.3-5.939-.641-12.671-4.14-19.02-3.498-6.349-9.008-10.232-13.87-13.658-2.191-1.545-4.262-3.003-5.79-4.459-1.822-1.735-3.538-3.748-5.354-5.879-4.301-5.046-8.749-10.264-15.353-12.483-11.3-3.796-21.352 1.746-28.689 5.793l-.725.402c-7.339 4.042-17.391 9.578-20.216 21.159-1.652 6.768.385 13.316 2.355 19.649.831 2.674 1.617 5.2 2.11 7.668.415 2.07.543 4.6.679 7.278.3 5.939.641 12.669 4.139 19.017 3.499 6.348 9.009 10.231 13.87 13.657 2.191 1.544 4.261 3.003 5.79 4.459 1.823 1.735 3.539 3.748 5.355 5.88 4.301 5.046 8.748 10.264 15.352 12.482 2.66.894 5.252 1.27 7.755 1.27 6.535 0 12.464-2.564 17.454-5.178 4.849 9.011 9.713 20.027 13.428 32.854-26.83 6.525-46.813 30.741-46.813 59.549v42.806c0 4.142 3.357 7.5 7.5 7.5s7.5-3.358 7.5-7.5v-18.038h39.492c4.143 0 7.5-3.358 7.5-7.5s-3.357-7.5-7.5-7.5h-39.493v-9.768c0-25.526 20.767-46.293 46.292-46.293s46.292 20.767 46.292 46.293v55.843h-39.493c-4.143 0-7.5 3.358-7.5 7.5s3.357 7.5 7.5 7.5h39.493v69.454c0 3.343-.107 6.551-.302 9.643h-39.191c-4.143 0-7.5 3.358-7.5 7.5s3.357 7.5 7.5 7.5h37.4c-7.948 43.788-36.233 56.949-44.096 59.799-9.013-3.536-46.396-21.985-46.396-84.442v-21.431h39.494c4.143 0 7.5-3.358 7.5-7.5s-3.357-7.5-7.5-7.5h-39.493v-30.848c0-4.142-3.357-7.5-7.5-7.5s-7.5 3.358-7.5 7.5v67.28c0 42.423 15.821 67.143 29.094 80.411 9.796 9.792 19.679 14.967 25.351 17.379l2.97 22.532c.118.899.082 1.804-.109 2.689l-6.237 28.958c-.872 4.049 1.703 8.039 5.753 8.911.532.114 1.063.169 1.587.169 3.457 0 6.566-2.405 7.324-5.922l6.236-28.956c.555-2.571.662-5.198.317-7.811l-2.776-21.059c5.843-2.533 14.935-7.472 23.948-16.372 24.073-23.773 29.126-57.131 29.126-80.929v-140.298c0-27.782-18.586-51.292-43.973-58.785 3.807-8.153 7.959-15.327 12.017-21.474 5.256 3.38 11.67 6.801 19.092 6.8 1.824 0 3.712-.207 5.656-.672 6.774-1.622 11.669-6.423 16.402-11.067 1.999-1.961 3.887-3.813 5.856-5.379 1.652-1.314 3.844-2.583 6.164-3.926 5.148-2.979 10.982-6.356 15.031-12.368 4.051-6.011 4.988-12.687 5.816-18.576.373-2.655.725-5.162 1.322-7.187.711-2.413 1.718-4.858 2.784-7.448 1.864-4.525 3.792-9.205 4.233-14.162.37-4.123-2.677-7.765-6.803-8.132zm-153.228 59.662c-2.661-.894-5.601-4.342-8.712-7.993-1.986-2.33-4.04-4.74-6.428-7.013-2.329-2.217-4.954-4.068-7.494-5.857-3.879-2.734-7.543-5.316-9.373-8.635-1.829-3.319-2.055-7.795-2.295-12.535-.157-3.103-.319-6.311-.95-9.464-.648-3.233-1.587-6.255-2.496-9.179-1.426-4.581-2.771-8.909-2.105-11.638 1.176-4.818 5.863-7.711 12.88-11.576l.729-.402c5.53-3.05 9.776-5.198 13.63-5.198 1.035 0 2.043.155 3.039.49 2.662.894 5.602 4.343 8.713 7.994 1.986 2.33 4.039 4.739 6.427 7.011 2.329 2.218 4.954 4.068 7.493 5.857 3.88 2.734 7.545 5.316 9.374 8.636v.001c1.83 3.319 2.056 7.796 2.296 12.536.156 3.102.318 6.309.949 9.462.647 3.233 1.587 6.255 2.496 9.178 1.426 4.582 2.771 8.91 2.105 11.639-.619 2.539-2.223 4.543-4.621 6.437-7.467-11.354-13.536-17.63-14.046-18.15-2.903-2.956-7.652-2.996-10.606-.094-2.955 2.903-2.997 7.651-.095 10.606.109.111 5.259 5.43 11.805 15.293-5.02 2.555-8.95 3.858-12.715 2.594z"/></g></svg>