<svg id="Capa_1" enable-background="new 0 0 512.002 512.002" height="512" viewBox="0 0 512.002 512.002" width="512" xmlns="http://www.w3.org/2000/svg"><g><g><g><path d="m355.482 153.672c18.345-37.412 15.244-76.553-6.926-87.424s-55.014 10.645-73.359 48.057c-9.641 19.662-13.352 39.794-11.487 56.053 1.672 14.576-1.145 29.317-7.479 42.551l-32.784 68.495 31.615 15.502 34.077-67.861c6.584-13.111 16.514-24.365 29.062-31.968 13.995-8.481 27.64-23.743 37.281-43.405z" fill="#afd171"/></g></g><g><g><path d="m156.52 153.672c-18.345-37.412-15.244-76.553 6.926-87.424s55.014 10.645 73.359 48.057c9.641 19.662 13.352 39.794 11.487 56.053-1.672 14.576 1.145 29.317 7.479 42.551l32.784 68.495-31.615 15.502-34.077-67.861c-6.584-13.111-16.514-24.365-29.061-31.968-13.996-8.481-27.641-23.743-37.282-43.405z" fill="#afd171"/></g></g><g><g><path d="m300.71 82.946c0-41.668-20.017-75.446-44.709-75.446s-44.709 33.778-44.709 75.446c0 21.899 5.532 41.608 14.364 55.385 7.918 12.351 11.88 26.827 12.019 41.498l.72 75.933h35.211l.72-75.933c.139-14.671 4.1-29.146 12.019-41.498 8.833-13.777 14.365-33.486 14.365-55.385z" fill="#bbdb81"/></g></g><g><g><path d="m256.001 7.5c-5.263 0-10.31 1.547-15 4.366 17.312 10.405 29.709 38.294 29.709 71.081 0 21.899-5.532 41.608-14.364 55.385-7.918 12.351-11.88 26.827-12.019 41.498l-.72 75.933h30l.72-75.933c.139-14.671 4.1-29.146 12.019-41.498 8.832-13.777 14.364-33.487 14.364-55.385 0-41.668-20.017-75.447-44.709-75.447z" fill="#afd171"/></g></g><g><g><path d="m374.452 335.309c0 65.419-118.451 106.975-118.451 106.975s-118.451-41.556-118.451-106.975 53.032-118.451 118.451-118.451 118.451 53.032 118.451 118.451z" fill="#d5717f"/></g></g><g><g><path d="m256.001 216.858c-5.081 0-10.087.321-15 .942 58.337 7.372 103.451 57.172 103.451 117.509 0 50.858-71.583 87.29-103.451 100.99 9.123 3.922 15 5.986 15 5.986s118.451-41.557 118.451-106.976-53.032-118.451-118.451-118.451z" fill="#cd5668"/></g></g><path d="m261.788 448.151c20.028-7.552 120.164-48.534 120.164-112.842 0-52.293-32.036-97.24-77.511-116.258 5.046-6.272 10.951-11.503 17.645-15.56 11.381-6.897 22.094-17.505 30.982-30.68 2.316-3.434 1.41-8.096-2.023-10.412-3.434-2.316-8.096-1.41-10.412 2.023-7.682 11.388-16.783 20.461-26.32 26.241-9.68 5.867-17.99 13.693-24.765 23.239-2.643-.731-5.317-1.383-8.026-1.943l.304-32.058c.13-13.695 3.876-26.67 10.833-37.521 9.995-15.59 15.511-36.611 15.546-59.212 11.54-9.566 23.311-13.728 32.605-11.702l-20.685 35.827c-2.071 3.587-.842 8.174 2.745 10.245 1.181.682 2.471 1.006 3.743 1.006 2.592 0 5.113-1.345 6.502-3.752l20.112-34.835c8.67 12.213 9.191 35.234.312 59.247-1.436 3.885.549 8.199 4.434 9.636.858.317 1.736.467 2.6.467 3.049 0 5.916-1.873 7.036-4.901 13.995-37.851 7.37-73.553-15.753-84.892-12.911-6.331-29.097-4.051-44.775 5.92-4.929-37.826-25.598-65.434-51.08-65.434-25.474 0-46.138 27.591-51.077 65.399-15.753-10.118-31.663-12.316-44.779-5.885-13.197 6.471-21.305 20.641-22.831 39.901-1.413 17.833 3.017 38.275 12.473 57.559 9.987 20.368 24.238 36.888 40.128 46.517 6.7 4.061 12.608 9.288 17.651 15.558-45.477 19.017-77.516 63.965-77.516 116.26 0 16.333 6.496 32.48 19.308 47.992 2.637 3.193 7.364 3.645 10.559 1.007 3.194-2.638 3.645-7.365 1.007-10.559-9.177-11.111-14.408-22.359-15.604-33.506h95.682c4.142 0 7.5-3.358 7.5-7.5s-3.358-7.5-7.5-7.5h-95.49c5.103-56.479 52.704-100.886 110.49-100.886 34.189 0 64.812 15.548 85.181 39.94h-57.224c-4.142 0-7.5 3.358-7.5 7.5s3.358 7.5 7.5 7.5h67.783c9.661 16.451 15.211 35.593 15.211 56.011 0 15.268-7.437 29.267-18.501 41.646h-86.431c-4.142 0-7.5 3.358-7.5 7.5s3.358 7.5 7.5 7.5h70.492c-28.74 23.299-66.554 38.546-76.514 42.332-9.945-3.774-47.665-18.959-76.437-42.363-3.215-2.614-7.938-2.127-10.551 1.086-2.614 3.213-2.128 7.938 1.085 10.551 27.505 22.373 61.557 37.252 76.215 43.07l-6.309 16.51c-.099.259-.184.523-.253.792-1.701 6.551-1.701 13.477 0 20.028.053.204.114.405.184.603l7.883 22.423c1.085 3.086 3.981 5.015 7.076 5.015.825 0 1.665-.137 2.487-.426 3.908-1.374 5.962-5.655 4.588-9.563l-7.772-22.106c-.957-3.875-.964-7.948-.022-11.826zm-64.099-257.488c-13.271-8.042-25.822-22.727-34.435-40.292-8.288-16.904-12.191-34.58-10.987-49.771.678-8.556 2.924-15.58 6.505-20.645l20.113 34.837c1.389 2.406 3.91 3.752 6.502 3.752 1.272 0 2.562-.324 3.743-1.006 3.587-2.071 4.816-6.658 2.745-10.245l-20.684-35.826c9.29-2.022 21.068 2.137 32.604 11.699.035 22.601 5.551 43.623 15.547 59.214 6.958 10.852 10.704 23.827 10.833 37.521l.304 32.058c-2.708.56-5.383 1.212-8.025 1.943-6.77-9.544-15.077-17.368-24.765-23.239zm47.771 19.14-.285-30.045c-.157-16.519-4.723-32.244-13.205-45.475-8.375-13.063-13.178-31.775-13.178-51.337 0-32.155 12.989-59.95 29.709-66.489v38.812c0 4.142 3.358 7.5 7.5 7.5s7.5-3.358 7.5-7.5v-38.812c16.719 6.539 29.708 34.334 29.708 66.489 0 19.563-4.803 38.274-13.178 51.337-8.482 13.229-13.048 28.955-13.205 45.475l-.285 30.045c-3.477-.29-6.991-.445-10.541-.445-3.549 0-7.064.155-10.54.445z"/></g></svg>