<svg id="Capa_1" enable-background="new 0 0 507.465 507.465" height="512" viewBox="0 0 507.465 507.465" width="512" xmlns="http://www.w3.org/2000/svg"><g><g><g><path d="m215.261 65.558h-75.046v-30.499c0-15.221 12.339-27.559 27.559-27.559h19.927c15.221 0 27.559 12.339 27.559 27.559v30.499z" fill="#ab7b64"/></g></g><g><g><path d="m177.041 482.088c-86.76 0-157.092-70.332-157.092-157.092v-123.939c0-86.759 70.332-157.092 157.092-157.092 86.759 0 157.092 70.332 157.092 157.092v123.939c0 86.759-70.333 157.092-157.092 157.092z" fill="#b78c7a"/></g></g><g><g><path d="m177.041 43.965c-38.663 0-74.057 13.976-101.425 37.14 21.428-10.958 45.704-17.14 71.425-17.14 86.759 0 157.092 70.332 157.092 157.092v123.939c0 48.096-21.622 91.136-55.667 119.952 50.854-26.005 85.667-78.913 85.667-139.952v-123.939c0-86.76-70.333-157.092-157.092-157.092z" fill="#ab7b64"/></g></g><g><g><ellipse cx="326.539" cy="338.988" fill="#b78c7a" rx="160.977" ry="160.977" transform="matrix(.707 -.707 .707 .707 -144.06 330.185)"/></g></g><g><g><path d="m326.539 178.011c-5.059 0-10.06.245-15 .701 81.871 7.567 145.977 76.429 145.977 160.275s-64.106 152.708-145.977 160.275c4.94.456 9.941.702 15 .702 88.905 0 160.977-72.072 160.977-160.977 0-88.904-72.072-160.976-160.977-160.976z" fill="#ab7b64"/></g></g><g><g><ellipse cx="326.539" cy="338.988" fill="#bbdb81" rx="119.988" ry="119.988" transform="matrix(.707 -.707 .707 .707 -144.06 330.185)"/></g></g><g><g><path d="m326.539 219c-5.08 0-10.086.319-15 .932 59.187 7.382 104.988 57.869 104.988 119.056s-45.801 111.674-104.988 119.056c4.914.613 9.92.932 15 .932 66.267 0 119.988-53.72 119.988-119.988s-53.72-119.988-119.988-119.988z" fill="#afd171"/></g></g><g><g><ellipse cx="326.539" cy="338.988" fill="#afd171" rx="60.144" ry="60.145" transform="matrix(.32 -.948 .948 .32 -99.057 540.007)"/></g></g><g><g><path d="m326.539 278.843c-5.179 0-10.205.655-15 1.887 25.959 6.664 45.145 30.22 45.145 58.258s-19.186 51.594-45.145 58.258c4.795 1.231 9.821 1.886 15 1.886 33.217 0 60.145-26.927 60.145-60.145 0-33.216-26.928-60.144-60.145-60.144z" fill="#a4c46a"/></g></g><g><path d="m420.741 199.289c-3.433-2.318-8.094-1.416-10.414 2.016-2.319 3.433-1.416 8.095 2.016 10.413 42.375 28.627 67.672 76.205 67.672 127.27 0 84.627-68.85 153.477-153.477 153.477s-153.477-68.85-153.477-153.477 68.85-153.477 153.477-153.477c20.495 0 40.39 3.971 59.132 11.803 3.82 1.597 8.214-.206 9.812-4.028 1.597-3.822-.206-8.214-4.028-9.811-16.799-7.021-34.436-11.214-52.58-12.519-6.854-37.048-26.462-70.879-55.359-95.416-17.819-15.13-38.575-26.173-60.755-32.586v-7.894c0-19.332-15.728-35.06-35.06-35.06h-19.927c-19.332 0-35.06 15.727-35.06 35.06v7.475c-69.293 19.4-120.265 83.117-120.265 158.522v53.535c0 4.142 3.358 7.5 7.5 7.5s7.5-3.358 7.5-7.5v-53.535c0-82.485 67.107-149.592 149.592-149.592 35.433 0 69.799 12.611 96.767 35.509 25.452 21.611 42.973 51.144 49.704 83.576-91.506 1.622-165.449 76.553-165.449 168.438 0 52.068 23.746 98.691 60.973 129.619-13.576 3.966-27.651 5.981-41.995 5.981-82.485 0-149.592-67.106-149.592-149.592v-40.404c0-4.142-3.358-7.5-7.5-7.5s-7.5 3.358-7.5 7.5v40.404c0 90.756 73.836 164.592 164.592 164.592 19.509 0 38.578-3.386 56.717-10.046 26.626 17.635 58.523 27.923 92.782 27.923 92.898 0 168.477-75.579 168.477-168.477 0-56.055-27.766-108.278-74.275-139.699zm-243.701-162.824c-10.007 0-19.806.9-29.325 2.619v-4.024c0-11.061 8.999-20.06 20.06-20.06h19.927c11.061 0 20.06 8.999 20.06 20.06v4.311c-10.072-1.915-20.354-2.906-30.722-2.906z"/><path d="m199.051 338.988c0 70.297 57.191 127.488 127.488 127.488s127.488-57.191 127.488-127.488-57.191-127.488-127.488-127.488-127.488 57.191-127.488 127.488zm239.976 0c0 62.026-50.462 112.488-112.488 112.488s-112.488-50.462-112.488-112.488 50.462-112.488 112.488-112.488 112.488 50.462 112.488 112.488z"/><path d="m307.919 388.25c-3.88-1.47-8.21.48-9.67 4.36-1.47 3.87.49 8.2 4.36 9.67.87.33 1.77.48 2.65.48 3.03 0 5.88-1.85 7.02-4.85 1.46-3.871-.49-8.2-4.36-9.66z"/><path d="m276.589 373.319c-3.1 2.75-3.38 7.49-.63 10.59 1.48 1.67 3.54 2.52 5.61 2.52 1.77 0 3.55-.63 4.98-1.9 3.1-2.75 3.38-7.49.62-10.58-2.75-3.1-7.49-3.38-10.58-.63z"/><path d="m266.329 331.979c.6.15 1.19.22 1.78.22 3.38 0 6.45-2.3 7.28-5.73.98-4.02-1.49-8.08-5.51-9.06s-8.08 1.49-9.06 5.51c-.98 4.03 1.48 8.081 5.51 9.06z"/><path d="m276.469 304.819c1.43 1.26 3.2 1.88 4.97 1.88 2.07 0 4.14-.86 5.62-2.54 2.74-3.1 2.45-7.84-.66-10.58-3.1-2.74-7.84-2.45-10.58.66 0-.01 0-.01 0-.01-2.75 3.11-2.45 7.85.65 10.59z"/><path d="m275.429 351.669c-.99-4.02-5.06-6.47-9.08-5.48-4.02 1-6.47 5.06-5.48 9.08.85 3.42 3.91 5.7 7.27 5.71.6 0 1.21-.08 1.81-.23 4.02-.99 6.48-5.06 5.48-9.08z"/><path d="m305.079 290.289c.89 0 1.79-.16 2.67-.5 3.87-1.48 5.81-5.81 4.33-9.68-1.47-3.87-5.81-5.81-9.68-4.33s-5.81 5.81-4.33 9.68c1.14 2.99 3.99 4.83 7.01 4.83z"/><path d="m332.939 391.25c-4.11.5-7.04 4.23-6.55 8.35.46 3.8 3.7 6.59 7.44 6.6.3 0 .6-.02.91-.06 4.11-.5 7.04-4.23 6.54-8.35-.49-4.111-4.23-7.04-8.34-6.54z"/><path d="m356.319 295.569c1.29.89 2.77 1.32 4.24 1.32 2.39 0 4.73-1.14 6.19-3.26 2.34-3.41 1.48-8.08-1.94-10.42-3.41-2.35-8.08-1.48-10.43 1.93-2.34 3.41-1.48 8.08 1.94 10.43z"/><path d="m332.759 286.71c.3.03.59.05.88.05 3.76 0 6.99-2.81 7.44-6.63.49-4.11-2.46-7.84-6.57-8.32-4.11-.49-7.84 2.46-8.32 6.57-.49 4.12 2.46 7.839 6.57 8.33z"/><path d="m356.459 382.309c-3.4 2.36-4.25 7.03-1.89 10.43 1.45 2.11 3.79 3.23 6.17 3.23 1.47 0 2.96-.43 4.26-1.33 3.41-2.36 4.26-7.03 1.9-10.43-2.36-3.41-7.03-4.26-10.44-1.9z"/><path d="m379.179 338.809c0 .02.01.05.01.07 0 .04-.01.07-.01.11 0 4.14 3.36 7.5 7.5 7.5 4.15 0 7.51-3.36 7.51-7.5 0-.04-.01-.07-.01-.11s.01-.08.01-.12c-.02-4.15-3.39-7.49-7.53-7.48-4.14.02-7.49 3.39-7.48 7.53z"/><path d="m383.299 360.289c-3.66-1.93-8.2-.52-10.13 3.15-1.92 3.67-.51 8.2 3.16 10.13 1.11.58 2.3.86 3.48.86 2.69 0 5.3-1.46 6.64-4.01 1.93-3.669.52-8.2-3.15-10.13z"/><path d="m379.729 318.369c1.18 0 2.38-.28 3.5-.88 3.66-1.94 5.06-6.47 3.12-10.14-1.94-3.65-6.48-5.05-10.14-3.11s-5.06 6.48-3.12 10.14c1.35 2.54 3.95 3.99 6.64 3.99z"/></g></g></svg>