<svg id="Capa_1" enable-background="new 0 0 512 512" height="512" viewBox="0 0 512 512" width="512" xmlns="http://www.w3.org/2000/svg"><g><g><g><circle cx="256" cy="256" fill="#7fbd93" r="248.5"/></g></g><g><g><path d="m256 7.5c-5.038 0-10.036.168-15 .464 130.256 7.757 233.5 115.831 233.5 248.036s-103.244 240.279-233.5 248.036c4.964.296 9.962.464 15 .464 137.243 0 248.5-111.257 248.5-248.5s-111.258-248.5-248.5-248.5z" fill="#68b181"/></g></g><g><g><path d="m258.2 7.528c-.734-.006-1.464-.028-2.2-.028-137.243 0-248.5 111.257-248.5 248.5s111.257 248.5 248.5 248.5c.736 0 1.466-.022 2.201-.028v-496.944z" fill="#95c9a6"/></g></g><g><g><path d="m258.2 7.528c-.531-.006-1.06-.028-1.592-.028-99.299 0-179.797 111.257-179.797 248.5s80.498 248.5 179.797 248.5c.532 0 1.061-.022 1.592-.028z" fill="#68b181"/></g></g><g><g><path d="m258.2 7.528c-.278-.006-.555-.028-.834-.028-52.023 0-94.195 111.257-94.195 248.5s42.173 248.5 94.195 248.5c.279 0 .556-.022.834-.028z" fill="#7fbd93"/></g></g><g><g><path d="m262.286 467.391c113.724-3.338 205.214-96.873 205.214-211.391 0-114.313-91.163-207.719-204.604-211.372" fill="#dc8995"/></g></g><g><g><path d="m262.896 44.627-.005 3.122c99.094 17.504 174.609 104.213 174.609 208.251 0 104.248-75.821 191.097-175.21 208.355l-.004 3.036c113.724-3.338 205.214-96.873 205.214-211.391 0-114.313-91.163-207.718-204.604-211.373z" fill="#d5717f"/></g></g><g><g><path d="m259.12 157.127c57.066 0 103.327 46.261 103.327 103.326 0 57.066-46.261 103.327-103.327 103.327" fill="#dc8995"/></g></g><g><path d="m461.135 102.823c-2.48-3.317-7.181-3.994-10.498-1.515-3.316 2.481-3.995 7.181-1.514 10.498 31.321 41.881 47.877 91.742 47.877 144.194 0 64.374-25.068 124.894-70.588 170.413-43.243 43.244-100.029 68.013-160.792 70.383v-22.036c55.174-2.386 106.749-25.197 145.912-64.734 40.928-41.316 63.468-96.018 63.468-154.026s-22.54-112.71-63.468-154.027c-39.163-39.536-90.738-62.348-145.912-64.734v-22.033c29.889 1.162 58.848 7.727 86.208 19.597 29.261 12.694 55.377 30.822 77.624 53.879 2.875 2.981 7.623 3.065 10.605.19 2.98-2.876 3.065-7.624.19-10.605-23.627-24.487-51.366-43.74-82.449-57.225-32.183-13.963-66.433-21.042-101.798-21.042-68.38 0-132.668 26.629-181.02 74.98-48.352 48.352-74.98 112.64-74.98 181.02s26.628 132.668 74.98 181.02c48.352 48.351 112.64 74.98 181.02 74.98s132.667-26.629 181.02-74.98c48.351-48.352 74.98-112.64 74.98-181.02 0-55.715-17.589-108.683-50.865-153.177zm-210.515-87.013v480.369c-19.243-4.575-38.191-28.458-52.847-67.122-17.477-46.106-27.102-107.566-27.102-173.057 0-63.324 9.084-123.321 25.578-168.941 14.774-40.862 34.444-66.538 54.371-71.249zm15.08 36.434c51.112 2.392 98.864 23.629 135.176 60.286 38.127 38.489 59.124 89.441 59.124 143.47s-20.997 104.98-59.124 143.47c-36.312 36.656-84.064 57.894-135.176 60.286zm-250.7 203.756c0-64.374 25.068-124.894 70.587-170.413 22.941-22.941 49.695-40.68 78.83-52.641-15.449 11.945-29.725 26.978-42.396 44.862-33.991 47.973-52.71 111.256-52.71 178.192 0 14.881.939 29.795 2.79 44.33.482 3.788 3.71 6.553 7.431 6.553.315 0 .635-.02.957-.061 4.109-.523 7.016-4.279 6.492-8.388-1.771-13.908-2.67-28.185-2.67-42.434 0-63.856 17.739-124.06 49.949-169.519 22.612-31.914 50.546-53.966 80.973-64.468-12.509 13.91-23.761 34.144-33.09 59.945-17.07 47.214-26.472 109.023-26.472 174.042 0 67.263 9.971 130.61 28.076 178.375 9.02 23.797 19.663 42.497 31.408 55.58-23.517-8.14-45.586-23.207-64.973-44.563-27.692-30.506-47.81-71.333-58.178-118.067-.897-4.043-4.9-6.597-8.946-5.697-4.044.897-6.595 4.902-5.697 8.946 10.932 49.276 32.272 92.466 61.715 124.9 8.066 8.885 16.58 16.768 25.462 23.629-29.181-11.961-55.979-29.716-78.951-52.689-45.519-45.52-70.587-106.04-70.587-170.414z"/><path d="m338.902 203.527c1.65 0 3.301-.54 4.681-1.64 3.24-2.59 3.76-7.31 1.18-10.54-2.58-3.24-7.3-3.77-10.54-1.18-3.24 2.58-3.77 7.3-1.18 10.54 1.479 1.85 3.66 2.82 5.859 2.82z"/><path d="m299.703 174.097c1.05.5 2.16.74 3.25.74 2.79 0 5.47-1.56 6.77-4.24 1.79-3.73.23-8.21-3.5-10.01-3.729-1.8-8.22-.24-10.02 3.49-1.801 3.73-.23 8.22 3.5 10.02z"/><path d="m299.753 346.787c-3.73 1.81-5.29 6.29-3.49 10.02 1.29 2.68 3.97 4.24 6.76 4.24 1.091 0 2.2-.24 3.25-.75 3.74-1.8 5.301-6.29 3.5-10.02-1.81-3.73-6.291-5.29-10.02-3.49z"/><path d="m360.543 276.107c-4.04-.92-8.05 1.61-8.97 5.65-.921 4.04 1.609 8.06 5.649 8.98.561.12 1.12.18 1.67.18 3.42 0 6.52-2.36 7.31-5.84.911-4.04-1.619-8.06-5.659-8.97z"/><path d="m343.613 318.977c-3.24-2.58-7.961-2.05-10.54 1.19-2.58 3.24-2.051 7.95 1.189 10.54 1.38 1.1 3.03 1.64 4.67 1.64 2.2 0 4.38-.97 5.87-2.83 2.581-3.23 2.051-7.96-1.189-10.54z"/><path d="m358.863 244.937c.559 0 1.109-.06 1.67-.19 4.04-.91 6.569-4.93 5.649-8.97s-4.93-6.57-8.97-5.65-6.57 4.93-5.65 8.97c.791 3.48 3.88 5.84 7.301 5.84z"/></g></g></svg>