<svg id="Capa_1" enable-background="new 0 0 510.06 510.06" height="512" viewBox="0 0 510.06 510.06" width="512" xmlns="http://www.w3.org/2000/svg"><g><g><g><path d="m259.92 85.634s49.249 19.57 89.369.442c40.121-19.129 55.92-69.713 55.92-69.713s-49.248-19.57-89.369-.442c-40.12 19.129-55.92 69.713-55.92 69.713z" fill="#7fcb8f"/></g></g><g><g><path d="m341.706 8.465c.193.023.386.046.578.069 18.304 2.223 28.043 22.794 18.238 38.409-8.996 14.326-22.449 30.177-41.233 39.133-8.401 4.005-17.201 6.309-25.866 7.456 16.707 1.961 37.266 1.412 55.866-7.456 40.121-19.129 55.92-69.713 55.92-69.713s-30.784-12.229-63.503-7.898z" fill="#6dc17d"/></g></g><g><g><path d="m259.92 85.634s-39.535 23.106-76.29 11.967c-36.756-11.138-56.814-52.303-56.814-52.303s39.535-23.106 76.29-11.968 56.814 52.304 56.814 52.304z" fill="#7fcb8f"/></g></g><g><g><path d="m173.106 43.331c36.756 11.139 56.814 52.304 56.814 52.304s-2.173 1.27-5.972 3.07c20.542-4.053 35.972-13.07 35.972-13.07s-20.058-41.165-56.814-52.304c-28.14-8.527-57.908 3.017-70.318 8.897 12.34-2.435 26.525-3.077 40.318 1.103z" fill="#6dc17d"/></g></g><g><g><ellipse cx="255.03" cy="311.559" fill="#f0c267" rx="191.001" ry="191.001" transform="matrix(.707 -.707 .707 .707 -145.609 271.587)"/></g></g><g><g><path d="m255.03 120.558c-5.049 0-10.05.2-15 .584 98.475 7.651 176.001 89.979 176.001 190.417 0 100.439-77.526 182.766-176.001 190.417 4.95.384 9.951.584 15 .584 105.487 0 191.001-85.514 191.001-191.001s-85.514-191.001-191.001-191.001z" fill="#eaa85c"/></g></g><g><circle cx="175.368" cy="226.567" r="7.5"/><circle cx="191.528" cy="433.317" r="7.5"/><circle cx="220.204" cy="448.317" r="7.5"/><circle cx="129.572" cy="278.911" r="7.5"/><circle cx="129.572" cy="241.567" r="7.5"/><path d="m410.307 187.887c-2.584-3.239-7.304-3.77-10.54-1.188-3.239 2.582-3.771 7.301-1.189 10.54 26.137 32.775 39.952 72.306 39.952 114.319 0 101.183-82.318 183.501-183.501 183.501-59.082 0-114.909-28.726-149.337-76.841-2.41-3.369-7.095-4.145-10.464-1.735-3.369 2.411-4.146 7.095-1.735 10.464 18.004 25.161 41.964 46.054 69.29 60.42 28.237 14.846 60.136 22.692 92.246 22.692 109.454 0 198.501-89.047 198.501-198.501.001-45.446-14.946-88.211-43.223-123.671z"/><path d="m71.529 311.559c0-99.305 79.293-180.429 177.889-183.407-1.3 6.2-3.013 12.296-5.256 18.167-1.479 3.869.46 8.205 4.329 9.683.881.337 1.785.496 2.675.496 3.02 0 5.866-1.837 7.008-4.825 2.777-7.268 4.946-15.069 6.525-23.352 42.228 2.211 82.3 18.848 113.734 47.426 3.063 2.786 7.807 2.562 10.594-.504 2.787-3.065 2.561-7.808-.504-10.595-33.667-30.61-76.493-48.553-121.673-51.228.556-5.588.861-11.374.935-17.333 9.475 2.678 24.353 5.91 41.015 5.91 14.039 0 29.339-2.296 43.718-9.151 42.587-20.304 59.167-72.054 59.853-74.247 1.169-3.744-.744-7.757-4.39-9.205-2.135-.849-52.78-20.546-95.366-.242-22.784 10.863-38.122 30.726-47.567 47.186-1.912-13.366-4.492-24.971-6.681-33.465-1.033-4.011-5.12-6.424-9.135-5.391-4.011 1.034-6.424 5.123-5.391 9.134 1.854 7.193 4.324 18.08 6.198 30.976-10.296-12.205-25.286-25.538-44.756-31.439-39.431-11.949-80.521 11.66-82.25 12.67-3.387 1.979-4.677 6.234-2.958 9.76.878 1.801 21.946 44.246 61.381 56.196 7.931 2.403 15.928 3.369 23.659 3.369 19.231 0 36.809-5.973 47.604-10.636-.102 5.164-.4 10.379-.95 15.588-107.954 1.75-195.238 90.096-195.238 198.459 0 30.2 6.609 59.202 19.646 86.201 1.294 2.679 3.971 4.241 6.759 4.241 1.094 0 2.205-.241 3.256-.748 3.73-1.801 5.294-6.285 3.493-10.015-12.049-24.949-18.156-51.757-18.156-79.679zm247.539-288.868c28.146-13.418 62.025-5.93 76.392-1.669-5.711 13.842-21.166 44.824-49.398 58.284-28.13 13.411-61.997 5.936-76.378 1.674 5.741-13.857 21.254-44.877 49.384-58.289zm-133.264 67.733c-24.726-7.493-41.568-30.607-48.58-41.971 12.147-5.563 38.982-15.437 63.708-7.944 24.724 7.493 41.564 30.603 48.58 41.972-12.147 5.561-38.985 15.434-63.708 7.943z"/></g></g></svg>