<svg id="Capa_1" enable-background="new 0 0 508.479 508.479" height="512" viewBox="0 0 508.479 508.479" width="512" xmlns="http://www.w3.org/2000/svg"><g><g><g><path d="m47.87 245.656c0-121.993 206.369-238.156 206.369-238.156s206.369 116.163 206.369 238.156-92.395 220.888-206.369 220.888-206.369-98.895-206.369-220.888z" fill="#f3d69e"/></g></g><g><g><path d="m254.239 7.5s-5.62 3.164-15 8.992c47.478 29.498 191.369 127.298 191.369 229.165 0 116.593-84.398 212.077-191.369 220.303 4.954.381 9.955.584 15 .584 113.974 0 206.369-98.895 206.369-220.887 0-121.994-206.369-238.157-206.369-238.157z" fill="#efcb83"/></g></g><g><g><path d="m118.011 245.657c0-121.993 136.229-238.156 136.229-238.156s136.229 116.163 136.229 238.156-60.992 220.887-136.229 220.887-136.229-98.895-136.229-220.887z" fill="#efcb83"/></g></g><g><g><path d="m254.24 7.501s-5.802 4.951-15 13.863c35.402 34.306 121.229 127.457 121.229 224.293 0 113.771-53.051 207.439-121.229 219.549 4.927.875 9.93 1.339 15 1.339 75.237 0 136.229-98.895 136.229-220.888s-136.229-238.156-136.229-238.156z" fill="#edc472"/></g></g><g><g><path d="m254.24 7.501s-61.636 116.163-61.636 238.156 27.596 220.888 61.636 220.888 61.636-98.895 61.636-220.888-61.636-238.156-61.636-238.156z" fill="#dbb56a"/></g></g><g><g><path d="m254.24 7.501s-6.365 12.003-15 32.322c18.244 42.93 46.636 123.032 46.636 205.834 0 103.45-19.845 190.278-46.636 214.287 4.802 4.303 9.826 6.601 15 6.601 34.04 0 61.636-98.895 61.636-220.888s-61.636-238.156-61.636-238.156z" fill="#d1aa5c"/></g></g><path d="m434.537 152.72c-17.483-25.344-41.784-51.445-72.228-77.58-51.557-44.26-103.868-73.881-104.391-74.175-2.283-1.286-5.074-1.286-7.357 0-4.381 2.465-107.978 61.297-168.292 140.299-2.514 3.293-1.883 7.999 1.41 10.513 3.292 2.514 7.999 1.881 10.512-1.41 29.937-39.212 71.918-73.883 105.878-98.45-6.449 7.453-13.156 15.587-19.889 24.344-20.122 26.167-36.173 52.279-47.709 77.611-14.571 31.999-21.96 62.88-21.96 91.786 0 60.372 14.566 117.241 41.017 160.128 9.741 15.794 20.688 29.028 32.521 39.52-75.121-30.51-128.679-108.489-128.679-199.65 0-22.35 7.549-46.32 22.437-71.246 2.124-3.556.964-8.161-2.593-10.285-3.556-2.123-8.159-.963-10.284 2.593-16.297 27.284-24.56 53.842-24.56 78.938 0 60.909 22.184 118.197 62.464 161.312 27.337 29.259 60.789 49.612 97.285 59.728l-23.934 29.562c-2.606 3.219-2.109 7.942 1.109 10.548 1.39 1.125 3.058 1.671 4.715 1.671 2.186 0 4.352-.951 5.834-2.781l28.508-35.211c5.498 1.043 11.05 1.869 16.65 2.455l-9.785 25.335c-1.492 3.864.43 8.206 4.294 9.698.889.343 1.802.506 2.7.506 3.01 0 5.849-1.824 6.998-4.8l11.476-29.713c1.848.05 3.7.078 5.555.078 3.618 0 7.222-.097 10.81-.286l11.557 29.921c1.149 2.976 3.988 4.8 6.998 4.8.898 0 1.813-.163 2.7-.506 3.864-1.492 5.786-5.835 4.294-9.698l-10.018-25.936c4.912-.64 9.784-1.468 14.612-2.462l29.001 35.82c1.482 1.831 3.648 2.781 5.834 2.781 1.657 0 3.326-.547 4.715-1.671 3.219-2.606 3.716-7.329 1.109-10.548l-24.595-30.377c35.369-10.377 67.775-30.429 94.388-58.913 40.28-43.114 62.464-100.402 62.464-161.312 0-29.377-11.294-60.645-33.571-92.937zm-180.274 306.323c-.008 0-.016 0-.023 0s-.014 0-.021 0c-12.231-.027-26.152-22.709-36.337-59.211-11.463-41.082-17.776-95.836-17.776-154.175 0-94.764 38.385-187.124 54.139-221.036 15.759 33.895 54.133 126.188 54.133 221.036 0 58.339-6.313 113.093-17.776 154.175-10.187 36.501-24.108 59.184-36.339 59.211zm-89.968-61.132c-25.011-40.553-38.784-94.625-38.784-152.254 0-60.82 36.096-120.587 66.377-160.015 13.68-17.813 27.445-33.198 38.924-45.151-4.475 10.719-9.46 23.47-14.473 37.877-14.249 40.956-31.234 103.225-31.234 167.29 0 59.664 6.509 115.849 18.328 158.207 5.855 20.983 12.707 37.432 20.368 49.119-22.189-8.99-42.676-27.785-59.506-55.073zm159.98 47.457c10.511-9.283 20.33-20.698 29.204-34.142 25.919-39.264 41.588-92.211 44.122-149.088.185-4.138-3.021-7.642-7.158-7.827-4.14-.183-7.643 3.02-7.826 7.159-4.166 93.492-44.973 169.89-97.908 191.466 7.65-11.684 14.491-28.116 20.338-49.072 11.819-42.358 18.328-98.543 18.328-158.207 0-64.065-16.985-126.334-31.234-167.29-5.012-14.406-9.998-27.158-14.473-37.876 10.373 10.799 22.606 24.395 34.954 40.052 29.086 36.88 64.798 93.076 69.754 151.351.351 4.127 3.955 7.182 8.108 6.837 4.127-.351 7.189-3.981 6.837-8.109-5.278-62.074-42.671-121.057-73.109-159.606-5.337-6.76-10.623-13.109-15.748-19.033 59.864 43.343 144.644 118.075 144.644 193.673 0 91.224-53.631 169.248-128.833 199.712z"/></g></svg>