<svg id="Capa_1" enable-background="new 0 0 512.005 512.005" height="512" viewBox="0 0 512.005 512.005" width="512" xmlns="http://www.w3.org/2000/svg"><g><g><g><path d="m174.074 224.983c-6.967-49.453-7.621-99.635-1.883-149.333l6.2-53.691c1.007-8.723-6.768-15.902-15.383-14.203l-7.081 1.396c-5.531 1.091-9.722 5.63-10.369 11.23l-7.151 61.929c-5.481 47.469-5.118 95.377.994 142.672z" fill="#68b181"/></g></g><g><g><path d="m147.531 342.266h34.435v-34.305c0-60.75 9.423-101.208 27.934-159.07l16.468-51.477c2.676-8.363-3.564-16.911-12.345-16.911h-7.217c-5.637 0-10.628 3.643-12.345 9.012l-18.995 59.376c-18.51 57.861-27.934 98.319-27.934 159.07v34.305z" fill="#95c9a6"/></g></g><g><g><path d="m154.505 342.266h-34.434v-34.305c0-60.75-9.423-101.208-27.934-159.07l-16.468-51.477c-2.676-8.363 3.564-16.911 12.345-16.911h7.217c5.637 0 10.628 3.643 12.345 9.012l18.995 59.376c18.511 57.861 27.934 98.319 27.934 159.07z" fill="#95c9a6"/></g></g><g><g><path d="m166.503 504.505h-30.997c-8.525 0-15.436-6.911-15.436-15.436v-146.702h61.869v146.702c0 8.525-6.911 15.436-15.436 15.436z" fill="#f7e5c1"/></g></g><g><g><path d="m151.939 342.366v146.703c0 8.525-6.911 15.436-15.436 15.436h30c8.525 0 15.436-6.911 15.436-15.436v-146.703z" fill="#f5deb2"/></g></g><g><g><path d="m166.503 504.505h-30.997c-8.525 0-15.436-6.911-15.436-15.436v-22.93h61.869v22.93c0 8.525-6.911 15.436-15.436 15.436z" fill="#f3d69e"/></g></g><g><g><path d="m151.939 466.139v22.93c0 8.525-6.911 15.436-15.436 15.436h30c8.525 0 15.436-6.911 15.436-15.436v-22.93z" fill="#efcb83"/></g></g><g><g><path d="m391.908 341.188v-19.822h-61.869v25.469c0 11.222-4.761 21.961-13.216 29.342-15.407 13.45-25.072 33.31-24.834 55.423.427 39.629 33.195 71.872 72.826 71.689 39.877-.184 72.147-32.567 72.147-72.488 0-23.8-11.474-44.912-29.19-58.124-9.954-7.424-15.864-19.071-15.864-31.489z" fill="#f7e5c1"/></g></g><g><g><path d="m407.772 372.677c-9.954-7.424-15.865-19.071-15.865-31.488v-19.822h-30v19.822c0 12.418 5.911 24.065 15.865 31.488 17.715 13.212 29.19 34.324 29.19 58.124 0 34.861-24.609 63.969-57.402 70.912 4.929 1.046 10.03 1.6 15.255 1.576 39.877-.184 72.147-32.567 72.147-72.488 0-23.8-11.474-44.912-29.19-58.124z" fill="#f5deb2"/></g></g><g><g><path d="m384.042 233.983c-6.967-49.453-7.621-99.635-1.883-149.333l6.2-53.691c1.007-8.723-6.768-15.902-15.383-14.203l-7.081 1.396c-5.53 1.091-9.722 5.63-10.369 11.23l-7.151 61.929c-5.481 47.469-5.118 95.377.994 142.672z" fill="#68b181"/></g></g><g><g><path d="m357.5 321.266h34.435v-14.305c0-60.75 9.423-91.208 27.934-149.07l16.468-51.477c2.675-8.363-3.564-16.911-12.345-16.911h-7.217c-5.637 0-10.628 3.643-12.345 9.012l-18.995 59.376c-18.51 57.861-27.934 88.319-27.934 149.07v14.305z" fill="#95c9a6"/></g></g><g><g><path d="m364.474 321.266h-34.435v-14.305c0-60.75-9.423-91.208-27.934-149.07l-16.468-51.477c-2.676-8.363 3.564-16.911 12.345-16.911h7.217c5.637 0 10.628 3.643 12.345 9.012l18.995 59.376c18.51 57.861 27.934 88.319 27.934 149.07v14.305z" fill="#95c9a6"/></g></g><g><path d="m412.256 366.664c-8.045-6-12.848-15.523-12.848-25.476l.027-34.227c0-45.524 5.513-73.468 15.036-106.351 1.152-3.979-1.139-8.138-5.118-9.291-3.978-1.151-8.138 1.139-9.291 5.118-9.897 34.178-15.627 63.219-15.627 110.524v6.905h-12.461v-6.905c0-21.361-1.161-39.086-3.405-55.418 4.122-28.394 11.838-53.324 24.008-91.366l18.995-59.376c.727-2.271 2.817-3.797 5.202-3.797h7.217c1.763 0 3.371.817 4.411 2.241 1.04 1.425 1.328 3.205.79 4.885l-16.468 51.477c-1.322 4.132-2.597 8.124-3.826 11.997-1.252 3.948.933 8.164 4.881 9.417 3.947 1.251 8.164-.933 9.417-4.881 1.225-3.862 2.498-7.843 3.815-11.963l16.468-51.477c2.013-6.293.933-12.963-2.963-18.299s-9.919-8.397-16.526-8.397h-7.217c-8.935 0-16.767 5.717-19.489 14.227l-11.107 34.717c.551-15.206 1.694-30.386 3.432-45.438l6.2-53.691c.757-6.564-1.592-12.899-6.447-17.38-4.855-4.483-11.357-6.319-17.838-5.042l-7.081 1.396c-8.766 1.729-15.343 8.853-16.368 17.728l-7.151 61.929c-1.746 15.121-2.903 30.374-3.48 45.657l-12.756-39.877c-2.722-8.51-10.554-14.227-19.489-14.227h-7.217c-6.607 0-12.631 3.061-16.527 8.397s-4.975 12.006-2.962 18.299l16.468 51.477c17.782 55.585 27.578 86.203 27.578 146.785v39.874c0 9.149-3.881 17.784-10.648 23.692-17.666 15.422-27.653 37.711-27.401 61.153.471 43.7 36.316 79.11 79.988 79.11.123 0 .249 0 .373-.001 43.898-.203 79.612-36.085 79.612-79.988-.001-25.495-11.739-48.872-32.207-64.137zm-56.43-274.493 7.151-61.929c.273-2.369 2.029-4.271 4.369-4.732l7.081-1.396c1.729-.343 3.465.149 4.762 1.346 1.296 1.196 1.923 2.887 1.721 4.639l-6.2 53.69c-3.578 30.992-4.706 62.514-3.365 93.717-3.896 12.491-7.378 24.257-10.332 35.888-2.434-9.561-5.257-19.288-8.452-29.684-1.324-30.493-.228-61.284 3.265-91.539zm-46.577 63.435-16.468-51.478c-.537-1.679-.249-3.459.791-4.884 1.04-1.424 2.647-2.241 4.411-2.241h7.217c2.385 0 4.475 1.526 5.202 3.797l18.995 59.376c3.05 9.534 5.859 18.323 8.43 26.665.064.261.145.516.236.765 12.268 39.906 18.912 69.482 18.912 119.355v6.805h-19.435v-6.805c-.001-62.922-10.05-94.333-28.291-151.355zm55.532 340.183c-.102.001-.2.001-.303.001-35.48-.003-64.607-28.77-64.989-64.271-.205-19.048 7.911-37.16 22.267-49.692 10.031-8.757 15.784-21.511 15.784-34.992v-17.969h46.869v12.322c0 14.664 7.058 28.684 18.881 37.5 16.633 12.405 26.173 31.4 26.173 52.112-.001 35.671-29.017 64.824-64.682 64.989z"/><path d="m214.023 73.003h-7.217c-8.935 0-16.767 5.717-19.489 14.228l-11.106 34.717c.551-15.207 1.693-30.387 3.431-45.438l6.2-53.69c.758-6.563-1.592-12.899-6.446-17.381-4.855-4.483-11.357-6.319-17.838-5.042l-7.081 1.396c-8.766 1.729-15.343 8.854-16.368 17.728l-7.151 61.929c-1.746 15.122-2.902 30.375-3.479 45.658l-12.76-39.878c-2.723-8.509-10.554-14.227-19.488-14.227h-7.217c-6.607 0-12.63 3.061-16.526 8.397s-4.976 12.006-2.963 18.299l16.468 51.477c18.29 57.174 27.577 97.12 27.577 156.785v79.439c0 4.142 3.358 7.5 7.5 7.5s7.5-3.358 7.5-7.5v-37.533h46.869v108.773h-46.869v-41.24c0-4.142-3.358-7.5-7.5-7.5s-7.5 3.358-7.5 7.5v71.669c0 12.647 10.289 22.936 22.936 22.936h30.997c12.647 0 22.937-10.289 22.937-22.936l.026-181.108c0-59.665 9.287-99.611 27.577-156.784l16.468-51.477c2.014-6.293.934-12.963-2.961-18.299-3.897-5.337-9.92-8.398-16.527-8.398zm-68.165 10.168 7.151-61.929c.273-2.369 2.029-4.271 4.369-4.732l7.081-1.396c1.731-.343 3.466.148 4.762 1.346 1.295 1.196 1.923 2.887 1.72 4.639l-6.2 53.69c-3.595 31.135-4.717 62.805-3.346 94.157-3.957 13.246-7.437 25.996-10.372 38.721-2.402-10.401-5.201-20.942-8.384-31.935-1.395-30.831-.314-61.968 3.219-92.561zm-46.578 63.435-16.468-51.477c-.538-1.68-.249-3.46.79-4.885 1.04-1.424 2.648-2.241 4.411-2.241h7.217c2.385 0 4.475 1.526 5.202 3.797l18.995 59.376c18.29 57.174 27.577 97.12 27.577 156.785v26.805h-19.434v-26.805c0-61.643-9.526-102.703-28.29-161.355zm67.223 350.399h-30.997c-4.376 0-7.936-3.56-7.936-7.936v-15.43h46.869v15.43c.001 4.376-3.559 7.936-7.936 7.936zm52.721-401.876-16.468 51.478c-18.763 58.652-28.29 99.71-28.29 161.354v26.905h-12.461v-26.905c0-21.593-1.174-40.656-3.499-58.838.162-.465.282-.953.351-1.46 4.418-32.27 12.69-61.91 23.752-96.486l18.994-59.375c.727-2.272 2.818-3.798 5.203-3.798h7.217c1.764 0 3.372.817 4.411 2.241 1.04 1.424 1.328 3.204.79 4.884z"/></g></g></svg>