<svg id="Capa_1" enable-background="new 0 0 512.035 512.035" height="512" viewBox="0 0 512.035 512.035" width="512" xmlns="http://www.w3.org/2000/svg"><g><g><g><path d="m195.656 63.685-2.771-.668c-7.12-1.717-14.396 2.153-16.974 9.008-44.798 119.127-133.112 113.151-162.569 206.092-30.674 96.78 70.186 122.401 70.186 122.401s97.204 37.155 127.878-59.625c29.313-92.484-36.54-137.774-5.096-259.549 2.019-7.818-2.807-15.766-10.654-17.659z" fill="#f7e5c1"/></g></g><g><g><path d="m316.416 63.685 2.771-.668c7.119-1.717 14.396 2.153 16.974 9.008 44.798 119.127 133.112 113.152 162.569 206.092 30.674 96.78-70.186 122.401-70.186 122.401s-97.204 37.155-127.879-59.625c-29.312-92.484 36.54-137.774 5.096-259.549-2.018-7.818 2.808-15.766 10.655-17.659z" fill="#f7e5c1"/></g></g><g><g><path d="m498.73 278.117c-29.457-92.94-117.771-86.965-162.569-206.092-2.578-6.855-9.855-10.725-16.974-9.008l-2.771.669c-5.52 1.332-9.532 5.663-10.732 10.833 45.088 116.531 132.353 111.317 161.601 203.599 30.674 96.78-70.186 122.401-70.186 122.401s-10.38 3.965-25.422 5.931c29.964 4.343 56.866-5.931 56.866-5.931s100.861-25.622 70.187-122.402z" fill="#f5deb2"/></g></g><g><g><path d="m224.72 53.639-8.263-.767c-7.322-.679-13.994 4.235-15.52 11.428-31.521 148.622-136.47 156.129-155.178 270.076-19.387 118.076 102.592 130.877 102.592 130.877s119.668 26.874 139.055-91.202c18.628-113.454-66.883-154.962-49.627-304.305.934-8.081-4.958-15.356-13.059-16.107z" fill="#f5deb2"/></g></g><g><g><path d="m283.245 53.639 8.263-.767c7.322-.679 13.995 4.235 15.52 11.428 31.52 148.622 136.469 156.129 155.177 270.076 19.387 118.076-102.592 130.877-102.592 130.877s-119.668 26.874-139.055-91.202c-18.628-113.454 66.883-154.962 49.627-304.305-.934-8.081 4.959-15.356 13.06-16.107z" fill="#f5deb2"/></g></g><g><g><path d="m462.205 334.376c-18.708-113.947-123.657-121.454-155.177-270.076-1.526-7.193-8.198-12.108-15.52-11.428l-8.263.767c-4.081.379-7.598 2.415-9.968 5.373 1.086 1.552 1.892 3.332 2.307 5.288 31.52 148.622 136.469 156.129 155.177 270.076 19.386 118.076-102.592 130.877-102.592 130.877s-4.755 1.064-12.507 1.839c24.492 2.525 43.951-1.839 43.951-1.839s121.979-12.801 102.592-130.877z" fill="#f3d69e"/></g></g><g><g><path d="m255.371 24.612c-7.745 0-14.132 6.091-14.481 13.828-7.611 168.778-121.361 195.796-121.361 324.021 0 132.753 135.842 124.842 135.842 124.842s135.842 7.911 135.842-124.842c0-128.225-113.75-155.242-121.361-324.021-.349-7.737-6.737-13.828-14.481-13.828z" fill="#f3d69e"/></g></g><g><g><path d="m269.851 38.44c-.349-7.737-6.736-13.828-14.481-13.828s-14.132 6.091-14.481 13.828c-.274 6.082-.702 11.959-1.241 17.685 14.436 153.152 120.12 182.731 120.12 306.336 0 104.628-84.366 121.876-120.12 124.49 9.611.702 15.722.352 15.722.352s135.842 7.911 135.842-124.842c.001-128.226-113.749-155.243-121.361-324.021z" fill="#efcb83"/></g></g><g><g><path d="m296.746 261.687c-10.757-.122-19.575 8.5-19.697 19.256l-1.615 142.768c-.134 11.848 11.591 20.124 22.749 16.138 25.095-8.965 53.845-28.287 54.315-69.856.492-43.478-20.009-68.703-39.581-99.349-3.528-5.524-9.617-8.883-16.171-8.957z" fill="#fafafa"/></g></g><g><g><path d="m219.104 261.825c10.757-.04 19.51 8.648 19.55 19.406l.529 142.776c.044 11.849-11.743 20.036-22.871 15.965-25.026-9.156-53.628-28.696-53.782-70.268-.161-43.481 20.531-68.549 40.335-99.045 3.57-5.498 9.685-8.81 16.239-8.834z" fill="#fafafa"/></g></g><g><path d="m505.88 275.851c-14.745-46.522-43.39-69.297-73.716-93.411-2.508-1.994-5.032-4-7.565-6.035-3.23-2.594-7.95-2.078-10.543 1.152-2.594 3.23-2.078 7.95 1.152 10.543 2.552 2.05 5.095 4.072 7.622 6.081 29.722 23.632 55.39 44.041 68.753 86.202 7.466 23.556 7.245 44.523-.658 62.32-4.292 9.667-10.838 18.432-19.507 26.186.86-11.198.261-23.118-1.809-35.728-9.253-56.356-38.67-87.628-69.815-120.735-32.709-34.771-66.476-70.699-83.389-140.756.55-.306 1.141-.541 1.772-.694l2.771-.668c3.425-.831 6.95 1.046 8.195 4.357 14.032 37.313 32.924 65.756 61.257 92.225 1.446 1.351 3.285 2.02 5.119 2.02 2.005 0 4.005-.799 5.482-2.38 2.828-3.027 2.667-7.773-.36-10.6-26.559-24.812-44.28-51.503-57.457-86.544-3.906-10.386-14.978-16.259-25.753-13.659l-2.771.668c-.79.191-1.565.433-2.326.709-4.047-7.729-12.454-12.541-21.516-11.699l-8.264.767c-1.615.15-3.18.484-4.686.964-.207-2.965-.384-5.972-.522-9.033-.53-11.77-10.182-20.99-21.973-20.99s-21.443 9.22-21.973 20.99c-.155 3.432-.359 6.797-.6 10.109-2.295-1.086-4.776-1.797-7.385-2.039l-8.264-.767c-8.667-.805-16.711 3.565-20.939 10.699l-1.566-.378c-10.774-2.596-21.847 3.273-25.753 13.659-22.695 60.352-56.393 87.145-88.981 113.055-30.327 24.113-58.972 46.889-73.717 93.411-18.16 57.297 7.051 91.416 31.399 109.947.538.41 1.12.712 1.718.956 3.306 13.899 9.217 26.469 17.726 37.621 30.766 40.323 84.365 47.617 90.109 48.29 2.053.428 10.982 2.155 23.556 2.608.092.003.184.005.275.005.232 0 .461-.013.688-.034 37.216 21.007 71.04 19.662 88.374 19.662 12.871 0 47.504-1.851 79.105-19.712 11.578-.546 19.728-2.122 21.678-2.529 5.738-.672 59.342-7.964 90.109-48.29 7.729-10.13 13.31-21.433 16.748-33.836.269-.136.537-.277.794-.45 16.833-11.277 29-25.171 36.161-41.298 9.431-21.247 9.851-45.788 1.245-72.941zm-485.389 4.532c13.363-42.161 39.032-62.57 68.754-86.202 32.591-25.913 69.531-55.284 93.686-119.516 1.245-3.311 4.767-5.184 8.195-4.357l.728.175c-16.815 70.847-50.786 106.975-83.681 141.943-31.145 33.107-60.562 64.379-69.815 120.735-1.818 11.073-2.496 21.612-2.054 31.599-21.359-21.748-26.687-50.066-15.813-84.377zm234.452 200.431c-.582.034-58.788 1.86-96.112-33.432-21.103-19.954-31.803-48.525-31.803-84.922 0-2.214.036-4.432.105-6.592.134-4.14-3.113-7.604-7.254-7.739-4.108-.111-7.604 3.113-7.739 7.253-.075 2.321-.113 4.702-.113 7.077 0 40.302 12.058 72.311 35.826 95.168-8.15-1.15-53.389-8.924-78.894-42.352-15.772-20.672-21.088-47.482-15.801-79.685 8.512-51.841 35.124-80.131 65.938-112.888 33.835-35.967 72.184-76.733 89.175-156.847.737-3.472 3.958-5.838 7.49-5.517l8.263.767c1.888.175 3.587 1.083 4.782 2.558 1.199 1.477 1.738 3.331 1.52 5.221-.081.697-.055 1.38.049 2.04-9.445 66.504-36.994 107.474-63.759 147.265-21.663 32.206-42.125 62.626-50.583 103.708-.835 4.057 1.777 8.023 5.834 8.858 4.055.837 8.022-1.776 8.858-5.833 7.862-38.186 27.522-67.415 48.337-98.361 30.571-45.449 65.221-96.963 69.316-187.784.169-3.737 3.238-6.665 6.989-6.665 3.75 0 6.82 2.928 6.988 6.666 4.096 90.821 38.745 142.334 69.316 187.784 27.923 41.512 52.038 77.364 52.038 135.899 0 36.396-10.7 64.968-31.803 84.922-5.638 5.331-19.142 14.056-19.614 14.412-35.179 20.024-77.064 19.004-77.349 19.019zm184.124-65.622c-22.953 30.161-62.242 39.508-75.62 41.892 23.397-22.82 35.265-54.639 35.265-94.624 0-63.111-26.517-102.534-54.591-144.271-27.759-41.269-56.361-83.805-64.735-154.783 1.18-1.318 2.779-2.135 4.551-2.299l8.263-.767c3.535-.322 6.754 2.044 7.49 5.517 16.991 80.114 55.34 120.88 89.175 156.847 30.814 32.757 57.427 61.046 65.939 112.888 5.281 32.158-.014 58.94-15.737 79.6z"/><path d="m359.998 370.078c.458-40.558-16.17-65.899-33.775-92.728-2.293-3.496-4.666-7.11-6.985-10.742-4.901-7.674-13.277-12.317-22.407-12.42-7.207-.077-14.011 2.648-19.164 7.685-5.153 5.038-8.035 11.78-8.117 18.985l-1.615 142.769c-.09 7.99 3.737 15.528 10.239 20.164 4.211 3.004 9.206 4.556 14.254 4.555 2.784 0 5.586-.473 8.279-1.435 26.759-9.558 58.768-30.649 59.291-76.833zm-73.116 61.501c-2.545-1.815-3.984-4.652-3.949-7.783l1.615-142.768c.036-3.199 1.316-6.193 3.604-8.429 2.254-2.204 5.221-3.413 8.368-3.413.046 0 .093.001.14.001 4.053.045 7.767 2.1 9.935 5.494 2.369 3.71 4.767 7.364 7.085 10.898 17.022 25.942 31.724 48.347 31.317 84.33-.341 30.149-16.941 51.305-49.339 62.878-2.997 1.071-6.197.631-8.776-1.208z"/><path d="m219.178 254.325c-.034 0-.068 0-.102 0-9.131.034-17.542 4.613-22.501 12.249-2.347 3.614-4.746 7.211-7.066 10.689-17.809 26.695-34.629 51.909-34.479 92.469.171 46.187 32.019 67.52 58.705 77.283 2.747 1.005 5.609 1.498 8.456 1.498 4.983 0 9.919-1.513 14.1-4.447 6.537-4.587 10.422-12.096 10.392-20.087l-.528-142.776c-.056-14.843-12.147-26.878-26.977-26.878zm8.497 177.462c-2.592 1.819-5.794 2.234-8.786 1.14-32.309-11.82-48.748-33.101-48.859-63.252-.133-35.985 14.738-58.277 31.957-84.089 2.346-3.516 4.771-7.152 7.168-10.843 2.193-3.378 5.923-5.403 9.977-5.418h.045c6.583 0 11.953 5.344 11.977 11.934l.528 142.776c.012 3.131-1.448 5.957-4.007 7.752z"/></g></g></svg>