<svg id="Capa_1" enable-background="new 0 0 507.867 507.867" height="512" viewBox="0 0 507.867 507.867" width="512" xmlns="http://www.w3.org/2000/svg"><g><g><g><path d="m189.42 325.494 4.178 8.146c23.868 46.534 37.22 101.166 38.551 157.405.122 5.175 4.318 9.321 9.495 9.321h29.616c5.177 0 9.372-4.146 9.495-9.321 1.331-56.239 14.683-110.871 38.551-157.405l4.178-8.146" fill="#7fbd93"/></g></g><g><g><path d="m293.482 325.494-4.178 8.146c-25.184 49.102-38.661 107.219-38.661 166.727h20.616c5.177 0 9.372-4.146 9.495-9.321 1.331-56.239 14.683-110.871 38.551-157.406l4.178-8.146z" fill="#68b181"/></g></g><g><g><path d="m313.946 90.342c0 33.402-27.078 60.48-60.48 60.48s-60.48-27.078-60.48-60.48 60.48-82.841 60.48-82.841 60.48 49.439 60.48 82.841z" fill="#abd4b9"/></g></g><g><g><path d="m253.466 7.5s-6.383 5.22-15 13.408c17.911 17.021 45.48 46.881 45.48 69.434 0 28.224-19.334 51.93-45.48 58.602 4.797 1.224 9.822 1.878 15 1.878 33.402 0 60.48-27.078 60.48-60.48s-60.48-82.842-60.48-82.842z" fill="#95c9a6"/></g></g><g><g><path d="m235.879 117.366c-2.439 23.707-23.635 40.948-47.342 38.509s-40.948-23.635-38.509-47.342 48.975-54.38 48.975-54.38 39.315 39.506 36.876 63.213z" fill="#abd4b9"/></g></g><g><g><path d="m199.003 54.153s-8.22 5.418-17.931 13.46c11.333 13.649 26.342 34.83 24.807 49.753-1.739 16.903-13.016 30.512-27.937 36.051 3.34 1.237 6.889 2.077 10.596 2.458 23.707 2.439 44.903-14.802 47.342-38.509 2.438-23.707-36.877-63.213-36.877-63.213z" fill="#95c9a6"/></g></g><g><g><path d="m102.386 182.973c5.704 27.527 32.643 45.217 60.169 39.513 27.527-5.704 45.217-32.643 39.513-60.169s-63.988-57.941-63.988-57.941-41.398 51.07-35.694 78.597z" fill="#abd4b9"/></g></g><g><g><path d="m202.068 162.317c-5.704-27.527-63.988-57.941-63.988-57.941s-3.943 4.866-9.226 12.398c17.349 11.4 39.785 28.992 43.214 45.543 5.375 25.938-10.027 51.347-34.854 58.966 7.95 2.462 16.614 3.011 25.34 1.203 27.527-5.704 45.218-32.643 39.514-60.169z" fill="#95c9a6"/></g></g><g><g><path d="m64.073 222.528c5.159 23.858 28.683 39.017 52.541 33.858s39.017-28.683 33.858-52.541-55.995-49.83-55.995-49.83-35.563 44.655-30.404 68.513z" fill="#abd4b9"/></g></g><g><g><path d="m150.472 203.845c-5.159-23.858-55.995-49.83-55.995-49.83s-3.954 4.967-9.033 12.468c14.659 9.762 32.116 23.898 35.028 37.362 4.738 21.912-7.667 43.529-28.204 50.909 7.546 2.732 15.924 3.453 24.347 1.632 23.858-5.16 39.016-28.683 33.857-52.541z" fill="#95c9a6"/></g></g><g><g><path d="m271.053 117.366c2.439 23.707 23.635 40.948 47.342 38.509s40.948-23.635 38.509-47.342-48.975-54.38-48.975-54.38-39.315 39.506-36.876 63.213z" fill="#abd4b9"/></g></g><g><g><path d="m356.904 108.533c-2.439-23.707-48.975-54.38-48.975-54.38s-5.398 5.426-12.069 13.46c13.396 11.092 29.63 27.176 31.044 40.92 2.058 20-9.892 38.213-27.913 44.884 6.006 2.23 12.6 3.158 19.405 2.458 23.706-2.439 40.947-23.635 38.508-47.342z" fill="#95c9a6"/></g></g><g><g><path d="m404.547 182.973c-5.704 27.527-32.643 45.217-60.169 39.513-27.527-5.704-45.217-32.643-39.513-60.169s63.988-57.941 63.988-57.941 41.398 51.07 35.694 78.597z" fill="#abd4b9"/></g></g><g><g><path d="m368.852 104.375s-9.269 4.839-20.774 12.398c11.839 16.88 30.412 47.166 26.468 66.199-3.896 18.8-17.7 33.006-34.829 38.31 1.52.467 3.072.874 4.66 1.203 27.526 5.704 54.465-11.987 60.169-39.513 5.705-27.526-35.694-78.597-35.694-78.597z" fill="#95c9a6"/></g></g><g><g><path d="m412.455 154.015s-53.755 27.463-59.21 52.691c-5.456 25.228 10.573 50.102 35.802 55.558 25.228 5.455 50.103-10.574 55.558-35.802s-32.15-72.447-32.15-72.447z" fill="#abd4b9"/></g></g><g><g><path d="m412.455 154.015s-9.536 4.872-20.983 12.397c10.749 15.754 26.83 42.951 23.133 60.05-3.598 16.639-15.645 29.272-30.668 34.383 1.658.559 3.359 1.04 5.11 1.419 25.228 5.455 50.103-10.574 55.558-35.802s-32.15-72.447-32.15-72.447z" fill="#95c9a6"/></g></g><g><g><path d="m313.946 184.711c0 33.402-27.078 60.48-60.48 60.48s-60.48-27.078-60.48-60.48 60.48-82.842 60.48-82.842 60.48 49.44 60.48 82.842z" fill="#abd4b9"/></g></g><g><g><path d="m253.466 101.869s-6.383 5.22-15 13.408c17.911 17.021 45.48 46.881 45.48 69.434 0 28.224-19.334 51.93-45.48 58.602 4.797 1.224 9.822 1.877 15 1.877 33.402 0 60.48-27.078 60.48-60.48s-60.48-82.841-60.48-82.841z" fill="#95c9a6"/></g></g><g><g><path d="m397.451 267.826c-1.472 33.37-29.716 59.228-63.086 57.756s-59.228-29.716-57.756-63.086 64.071-80.096 64.071-80.096 58.242 52.057 56.771 85.426z" fill="#abd4b9"/></g></g><g><g><path d="m340.68 182.4s-6.958 5.195-16.285 13.352c17.12 17.669 44.063 49.243 43.056 72.074-1.202 27.265-20.281 49.507-45.422 55.933 3.964 1.01 8.088 1.637 12.336 1.824 33.37 1.472 61.614-24.387 63.086-57.757 1.471-33.369-56.771-85.426-56.771-85.426z" fill="#95c9a6"/></g></g><g><g><path d="m116.625 267.826c1.472 33.37 29.716 59.228 63.086 57.756s59.228-29.716 57.756-63.086-64.071-80.096-64.071-80.096-58.243 52.057-56.771 85.426z" fill="#abd4b9"/></g></g><g><g><path d="m237.467 262.497c-1.472-33.37-64.071-80.096-64.071-80.096s-5.812 5.196-13.715 13.352c18.657 16.316 46.805 44.497 47.786 66.744 1.284 29.122-18.248 54.335-45.421 61.262 5.629 1.439 11.559 2.093 17.664 1.824 33.37-1.472 59.229-29.716 57.757-63.086z" fill="#95c9a6"/></g></g><g><g><path d="m313.946 280.29c0 33.402-27.078 60.48-60.48 60.48s-60.48-27.078-60.48-60.48 60.48-82.842 60.48-82.842 60.48 49.439 60.48 82.842z" fill="#abd4b9"/></g></g><g><g><path d="m253.466 197.448s-6.383 5.219-15 13.408c17.911 17.021 45.48 46.881 45.48 69.434 0 28.224-19.334 51.93-45.48 58.603 4.797 1.224 9.822 1.877 15 1.877 33.402 0 60.48-27.078 60.48-60.48s-60.48-82.842-60.48-82.842z" fill="#95c9a6"/></g></g><path d="m446.085 220.586c-4.027-.995-8.089 1.453-9.086 5.473-3.948 15.908-17.461 27.627-33.508 29.504-3.442-13.52-12.854-29.525-28.122-47.776-3.059-3.656-6.115-7.116-9.042-10.312 11.119-14.249 33.628-27.92 44.037-33.786 5.466 7.471 15.615 22.233 21.93 36.858 1.642 3.802 6.054 5.555 9.858 3.913 3.803-1.642 5.555-6.056 3.913-9.858-9.716-22.505-27.012-44.342-27.743-45.261-2.222-2.79-6.103-3.63-9.279-2.006-.28.143-1.541.792-3.522 1.874-10.677-24.534-29.948-48.455-30.843-49.558-2.245-2.771-6.135-3.577-9.296-1.926-.596.311-1.679.884-3.142 1.686-9.449-24.095-45.644-48.529-50.183-51.521-2.712-1.788-6.216-1.589-8.723.363-18.21-24.444-43.964-45.613-45.121-46.559-2.764-2.258-6.733-2.259-9.494 0-1.195.977-26.929 22.134-45.122 46.561-2.507-1.954-6.01-2.15-8.722-.363-4.54 2.993-40.746 27.433-50.188 51.532-1.744-.965-2.858-1.551-3.138-1.697-3.163-1.651-7.05-.846-9.296 1.926-.894 1.104-20.16 25.017-30.839 49.548-1.662-.902-2.886-1.537-3.526-1.864-3.175-1.622-7.056-.784-9.279 2.006-3.867 4.855-37.613 48.204-31.868 74.771 5.232 24.196 26.711 40.777 50.52 40.777.625 0 1.253-.027 1.882-.05-.053 1.126-.06 2.233-.012 3.316 1.607 36.433 31.759 64.985 67.878 64.985 1.006 0 2.017-.022 3.032-.067 1.56-.069 3.105-.208 4.643-.38l2.24 4.368c9.874 19.252 17.988 40.106 24.114 61.981.928 3.313 3.939 5.479 7.218 5.479.669 0 1.35-.09 2.026-.28 3.989-1.117 6.317-5.256 5.2-9.245-6.396-22.841-14.879-44.637-25.211-64.782l-.499-.972c1.591-.565 3.158-1.205 4.711-1.891 12.377 12.877 29.754 20.916 48.983 20.916 20.403 0 38.72-9.047 51.191-23.326 2.791 1.512 5.685 2.829 8.66 3.933l-.687 1.34c-24.397 47.567-38.014 103.119-39.375 160.652-.026 1.12-.903 1.998-1.997 1.998h-29.615c-1.093 0-1.97-.877-1.997-1.999-.526-22.228-2.913-44.416-7.091-65.947-.79-4.066-4.727-6.72-8.792-5.934-4.066.789-6.723 4.726-5.934 8.792 4.02 20.707 6.314 42.053 6.821 63.443.22 9.333 7.684 16.644 16.993 16.644h29.615c9.309 0 16.772-7.311 16.993-16.644 1.309-55.285 14.354-108.593 37.727-154.16l2.305-4.494c1.907.248 3.826.421 5.752.506 1.017.045 2.023.067 3.031.067 35.332-.003 64.941-27.334 67.716-62.63 22.385-2.429 41.283-18.701 46.776-40.841.997-4.017-1.453-8.085-5.473-9.083zm-79.258-106.551c6.226 8.323 18.602 25.895 25.647 42.821-11.605 7.252-26.721 17.957-36.582 29.72-5.848-5.849-9.898-9.484-10.214-9.767-2.658-2.377-6.626-2.552-9.484-.419-.571.426-6.619 4.969-14.852 12.063.066-1.241.104-2.488.104-3.742 0-7.623-2.535-16.197-7.555-25.656 7.936-16.796 36.922-35.911 52.936-45.02zm-77.835 106.978c-15.225-16.607-30.149-28.856-30.779-29.371-2.763-2.258-6.733-2.257-9.494 0-.579.473-13.183 10.819-27.015 25.343-6.42-7.437-13.406-14.407-19.881-20.408-.885-3.872-1.337-7.853-1.337-11.866 0-22.314 34.711-57.122 52.98-73.02 18.27 15.897 52.979 50.706 52.979 73.02 0 7.823-1.676 15.328-4.945 22.337-4.294 4.415-8.555 9.113-12.508 13.965zm19.948-157.065c15.856 11.324 36.791 29.986 40.106 43.207-14.028 8.757-33.365 22.558-44.082 37.699-4.378-6.089-9.619-12.476-15.723-19.151-3.672-4.015-7.328-7.776-10.777-11.186.479-13.587 17.226-36.208 30.476-50.569zm-55.474-46.578c8.517 7.475 26.681 24.267 39.439 42.039-9.17 10.613-22.017 27.378-27.176 43.139-4.377-3.91-7.247-6.266-7.515-6.486-2.764-2.258-6.733-2.259-9.494 0-.269.22-3.139 2.576-7.516 6.486-5.159-15.76-18.006-32.525-27.176-43.138 12.757-17.771 30.922-34.565 39.438-42.04zm-55.471 46.581c.159.173.322.352.482.528.297.402.637.777 1.019 1.12 12.98 14.398 28.511 35.841 28.973 48.919-3.449 3.41-7.106 7.17-10.777 11.186-6.107 6.679-11.35 13.069-15.729 19.16-10.68-14.987-30.127-28.873-44.091-37.644 3.263-13.203 24.241-31.916 40.123-43.269zm-57.891 50.086c15.792 8.999 44.897 28.146 52.939 45.015-4.53 8.534-7.03 16.346-7.476 23.391-4.418-3.604-7.326-5.785-7.685-6.053-2.858-2.133-6.825-1.959-9.484.419-.398.356-6.714 6.023-15.095 14.746-8.421-13.793-25.7-26.457-38.838-34.714 7.046-16.92 19.414-34.482 25.639-42.804zm-68.7 106.906c-2.903-13.423 12.625-40.315 25.154-57.305 17.489 9.769 41.103 26.539 45.953 39.697-1.262 1.448-2.533 2.933-3.805 4.453-13.048 15.596-21.812 29.55-26.236 41.717-18.881 2.715-36.974-9.638-41.066-28.562zm107.976 97.147c-29.155 1.288-53.975-21.409-55.263-50.594-.982-22.281 32.129-58.563 49.687-75.26 8.08 6.479 24.617 20.43 37.767 35.985-17.314 20.379-26.085 37.87-26.085 52.068 0 12.676 3.497 24.546 9.563 34.715-5.008 1.81-10.258 2.848-15.669 3.086zm74.086 15.179c-29.213 0-52.98-23.767-52.98-52.98 0-22.313 34.711-57.122 52.98-73.019 18.27 15.897 52.979 50.706 52.979 73.019.001 29.214-23.766 52.98-52.979 52.98zm81.229-15.179c-7.456-.329-14.77-2.252-21.393-5.566 5.192-9.598 8.144-20.578 8.144-32.235 0-13.178-7.558-29.194-22.488-47.723 13.546-17.229 32.485-33.245 41.317-40.33 3.035 2.884 6.539 6.363 10.247 10.244.446.655.998 1.247 1.655 1.746 17.455 18.544 38.569 45.385 37.78 63.27-1.287 29.185-26.078 51.876-55.262 50.594z"/></g></svg>