<svg id="Capa_1" enable-background="new 0 0 509.155 509.155" height="512" viewBox="0 0 509.155 509.155" width="512" xmlns="http://www.w3.org/2000/svg"><g><g><g><path d="m222.011 209.16s-18.445 58.462-71.493 77.26c-38.145 13.517-160.938 53.015-140.981 138.941 19.957 85.925 166.006 79.489 250.054-22.68 63.191-76.815 81.446-176.181 86.615-220.766 1.689-14.571-1.897-29.26-10.061-41.447-16.187-24.16-48.778-30.84-73.165-14.997-10.154 6.597-17.753 16.462-21.541 27.963z" fill="#8face0"/></g></g><g><g><path d="m336.145 140.468c-13.247-19.773-37.479-27.828-59.211-21.421 11.54 3.381 22.004 10.663 29.211 21.421 8.165 12.186 11.751 26.876 10.062 41.447-5.169 44.586-23.424 143.951-86.615 220.766-40.904 49.722-96.49 76.762-145.082 81.525 54.148 5.767 125.431-21.169 175.082-81.525 63.191-76.815 81.446-176.18 86.615-220.766 1.689-14.571-1.898-29.261-10.062-41.447z" fill="#688ed5"/></g></g><g><g><path d="m400.933 127.562c-8.662-2.567-12.935-15.627-20.363-19.285-8.297-4.086-21.37.183-27.68-4.823-7.563-6-5.668-19.396-9.628-25.983-5.056-8.411-16.492-15.746-14.157-23.626 2.335-7.879 15.921-7.8 24.743-12.099 6.908-3.366 12.616-15.631 22.225-16.542 8.019-.761 16.656 9.941 25.841 11.035 8.223.98 18.921-7.644 27.584-5.077 8.662 2.567 12.935 15.627 20.363 19.285 8.297 4.086 21.37-.183 27.68 4.823 7.563 6 5.669 19.396 9.628 25.983 5.056 8.411 16.492 15.746 14.157 23.626-2.335 7.879-15.921 7.8-24.743 12.099-6.908 3.366-12.616 15.631-22.225 16.542-8.019.761-16.656-9.941-25.841-11.035-8.223-.98-18.921 7.644-27.584 5.077z" fill="#c8e68f"/></g></g><g><g><path d="m487.169 81.253c-3.959-6.587-2.065-19.982-9.627-25.983-6.309-5.006-19.382-.737-27.68-4.823-7.429-3.658-11.701-16.718-20.363-19.285-8.663-2.567-19.361 6.057-27.584 5.077-9.184-1.094-17.822-11.796-25.841-11.036-7.229.686-12.251 7.797-17.236 12.711 6.647 2.342 13.684 9.444 21.077 10.324 8.223.979 18.921-7.644 27.584-5.077 8.662 2.567 12.935 15.627 20.363 19.285 8.297 4.086 21.37-.183 27.68 4.823 7.563 6 5.668 19.396 9.627 25.983 4.811 8.003 15.387 15.032 14.393 22.481 8.625-3.128 19.679-3.82 21.764-10.856 2.335-7.878-9.101-15.213-14.157-23.624z" fill="#bbdb81"/></g></g><g><g><path d="m342.933 212.413c2.367.688 4.808-.855 5.203-3.288 1.484-9.146 2.583-17.33 3.391-24.303 1.878-16.196-2.108-32.525-11.184-46.07-17.993-26.855-54.219-34.281-81.326-16.669-11.287 7.333-19.734 18.298-23.944 31.082l-7.405 21.239c-.775 2.222.472 4.639 2.732 5.296z" fill="#bbdb81"/></g></g><g><g><path d="m340.343 138.752c-14.383-21.468-40.414-30.502-64.127-24.275 13.481 3.529 25.771 11.803 34.127 24.274 9.075 13.545 13.061 29.873 11.184 46.07-.696 6.005-1.609 12.913-2.797 20.555l24.203 7.036c2.367.688 4.808-.855 5.203-3.289 1.484-9.146 2.583-17.33 3.391-24.303 1.878-16.194-2.108-32.523-11.184-46.068z" fill="#afd171"/></g></g><g><path d="m499.328 84.513c-2.154-2.398-4.381-4.878-5.73-7.124-.853-1.418-1.433-4.696-1.943-7.588-1.183-6.689-2.654-15.014-9.45-20.406-5.33-4.229-12.316-4.315-18.479-4.392-4.004-.049-8.146-.1-10.55-1.285-1.779-.876-4.134-3.99-6.21-6.738-3.865-5.113-8.245-10.908-15.337-13.009-7.091-2.103-13.921.372-19.947 2.554-3.24 1.173-6.913 2.503-8.879 2.268-2.663-.317-6.164-2.53-9.549-4.67-5.209-3.294-11.118-7.03-17.888-6.384-8.637.819-14.405 6.998-19.041 11.963-2.004 2.146-4.275 4.58-5.762 5.304-2.356 1.148-5.574 2.014-8.686 2.852-5.333 1.435-11.567 3.12-15.795 7.103-1.96-8.301-4.93-16.427-8.917-24.199-1.891-3.685-6.411-5.141-10.097-3.249-3.686 1.891-5.14 6.411-3.249 10.097 12.495 24.355 13.432 52.733 2.569 77.858l-.527 1.218c-.42-.095-.835-.203-1.259-.29-17.254-3.537-34.898-.2-49.673 9.398-12.653 8.221-22.226 20.635-26.961 34.961l-7.384 21.181c-1.043 2.993-.808 6.326.645 9.143.471.914 1.072 1.745 1.758 2.494l-8.061 23.119c-.022.064-.047.138-.067.203-.175.55-18.079 55.175-66.849 72.458-1.405.498-2.925 1.031-4.549 1.601-20.024 7.023-53.539 18.779-83.557 37.737-37.794 23.87-57.944 51.882-59.889 83.256-.257 4.134 2.887 7.694 7.022 7.95.158.01.314.015.471.015 3.93-.001 7.232-3.061 7.479-7.036 1.631-26.294 19.439-50.351 52.932-71.504 28.579-18.05 61.088-29.453 80.512-36.265 1.64-.576 3.175-1.114 4.594-1.617 55.248-19.578 74.865-78.096 76.104-81.956l7.723-22.149 96.271 27.986c-3.284 17.049-7.415 33.884-12.318 50.11-1.198 3.965 1.045 8.151 5.011 9.349.723.219 1.453.323 2.172.323 3.22 0 6.197-2.091 7.177-5.333 5.13-16.978 9.436-34.596 12.841-52.43.791-.284 1.556-.653 2.279-1.11 2.81-1.776 4.727-4.676 5.258-7.954 1.353-8.332 2.509-16.622 3.438-24.641 2.078-17.92-2.327-36.071-12.403-51.108-6.726-10.039-15.852-17.899-26.49-22.99l.073-.169c5.513-12.751 8.414-26.223 8.73-39.712.746.862 1.494 1.698 2.218 2.504 2.153 2.398 4.38 4.877 5.729 7.123.853 1.418 1.433 4.696 1.943 7.588 1.184 6.689 2.655 15.014 9.451 20.406 5.329 4.229 12.314 4.315 18.478 4.391 4.005.049 8.146.101 10.551 1.285 1.779.876 4.133 3.99 6.21 6.738 3.864 5.113 8.244 10.908 15.336 13.009 7.09 2.101 13.92-.372 19.947-2.554 3.24-1.173 6.919-2.499 8.88-2.267 2.662.317 6.163 2.53 9.549 4.67 4.811 3.042 10.213 6.457 16.345 6.456.509 0 1.023-.023 1.542-.073 8.637-.819 14.405-6.998 19.041-11.962 2.004-2.146 4.275-4.58 5.762-5.304 2.357-1.148 5.574-2.014 8.687-2.852 7.677-2.066 17.229-4.637 19.962-13.858 2.728-9.218-3.882-16.579-9.194-22.493zm-154.302 120.698h.001l-.011-.003c.005.001.007.002.01.003zm-10.914-62.284c8.093 12.078 11.632 26.65 9.964 41.032-.762 6.579-1.683 13.35-2.742 20.179l-105.407-30.643 6.228-17.862c.014-.041.028-.082.041-.123 3.664-11.122 11.089-20.76 20.908-27.139 23.533-15.289 55.388-8.759 71.008 14.556zm150.544-36.544c-3.793 1.021-7.715 2.076-11.358 3.852-3.984 1.941-7.121 5.302-10.155 8.551-3.206 3.434-6.522 6.984-9.493 7.267-1.689.162-5.593-2.32-8.456-4.13-4.572-2.891-9.756-6.168-15.79-6.886-.764-.091-1.521-.133-2.273-.133-4.673 0-9.143 1.618-13.486 3.19-3.854 1.396-8.22 2.977-10.579 2.276-2.361-.7-5.161-4.404-7.631-7.672-3.234-4.278-6.577-8.702-11.55-11.15-5.452-2.684-11.583-2.76-16.992-2.827-3.387-.042-8.025-.099-9.339-1.142-2.34-1.856-3.186-6.641-4.004-11.268-.774-4.378-1.575-8.905-3.858-12.704-1.646-2.74-3.682-5.196-5.756-7.545l76.974 22.809c.711.211 1.428.311 2.134.311 3.235 0 6.222-2.111 7.189-5.371 1.177-3.972-1.089-8.145-5.06-9.322l-76.976-22.809c3.019-.84 6.065-1.791 8.938-3.191 3.983-1.941 7.12-5.302 10.154-8.551 3.206-3.434 6.521-6.985 9.493-7.267 1.668-.166 5.593 2.32 8.456 4.13 4.573 2.891 9.756 6.167 15.79 6.886 5.504.655 10.717-1.232 15.76-3.058 3.852-1.394 8.218-2.975 10.579-2.276 2.361.7 5.162 4.404 7.632 7.672 3.233 4.278 6.577 8.702 11.55 11.15 5.451 2.684 11.582 2.76 16.991 2.827 3.387.042 8.024.099 9.341 1.143 2.339 1.856 3.185 6.64 4.002 11.267.774 4.378 1.575 8.905 3.857 12.704 2.089 3.475 4.803 6.497 7.428 9.419 1.96 2.183 6.038 6.724 5.968 8.213-.751 1.286-6.647 2.873-9.48 3.635z"/><path d="m321.252 290.407c-3.879-1.445-8.199.531-9.645 4.414-14.8 39.771-34.249 74.457-57.809 103.095-24.061 29.249-54.674 51.992-88.527 65.768-30.872 12.564-62.51 16.734-89.083 11.743-29.315-5.506-49.791-21.738-57.655-45.704-1.291-3.935-5.526-6.08-9.464-4.788-3.936 1.291-6.08 5.529-4.788 9.464 9.647 29.401 34.201 49.207 69.139 55.77 8.206 1.542 16.819 2.303 25.708 2.303 22.922 0 47.652-5.068 71.798-14.893 36.154-14.713 68.816-38.965 94.457-70.133 24.619-29.927 44.901-66.059 60.283-107.393 1.444-3.883-.531-8.201-4.414-9.646z"/></g></g></svg>