<svg id="Capa_1" enable-background="new 0 0 512 512" height="512" viewBox="0 0 512 512" width="512" xmlns="http://www.w3.org/2000/svg"><g><g><g><path d="m306.349 205.184c0-70.766-39.75-131.199-95.765-155.184-10.145-4.344-18.408-11.984-24.134-21.419-6.051-9.972-17.009-16.635-29.526-16.635-12.517 0-23.475 6.663-29.526 16.635-5.724 9.435-13.988 17.075-24.133 21.419-56.014 23.985-95.765 84.418-95.765 155.184 0 70.596 39.56 130.908 95.361 155.01 10.278 4.44 18.626 12.226 24.309 21.873 6 10.185 17.077 17.019 29.754 17.019 12.677 0 23.754-6.834 29.754-17.019 5.683-9.646 14.031-17.433 24.309-21.873 55.803-24.103 95.362-84.414 95.362-155.01z" fill="#ab7b64"/></g></g><g><g><path d="m210.584 50c-10.145-4.344-18.408-11.984-24.134-21.419-6.051-9.972-17.009-16.635-29.526-16.635-5.361 0-10.432 1.23-14.958 3.411 6.041 2.911 11.109 7.523 14.568 13.224 5.725 9.435 13.988 17.075 24.134 21.419 56.015 23.985 95.765 84.418 95.765 155.184 0 70.596-39.559 130.908-95.361 155.01-10.278 4.44-18.626 12.226-24.309 21.873-3.462 5.877-8.621 10.627-14.797 13.604 4.526 2.182 9.596 3.416 14.958 3.416 12.677 0 23.754-6.835 29.754-17.019 5.683-9.646 14.031-17.433 24.309-21.873 55.802-24.102 95.361-84.414 95.361-155.01.001-70.768-39.749-131.2-95.764-155.185z" fill="#9a6a53"/></g></g><g><g><path d="m504.5 306.152c0-70.766-39.75-131.199-95.765-155.184-10.145-4.344-18.409-11.984-24.134-21.419-6.051-9.972-17.009-16.635-29.526-16.635-12.517 0-23.475 6.663-29.526 16.635-5.725 9.435-13.988 17.075-24.134 21.419-56.015 23.985-95.765 84.418-95.765 155.184 0 70.596 39.56 130.908 95.361 155.01 10.278 4.439 18.626 12.226 24.309 21.873 6 10.185 17.077 17.019 29.754 17.019 12.677 0 23.754-6.835 29.754-17.019 5.683-9.647 14.031-17.434 24.309-21.873 55.804-24.102 95.363-84.414 95.363-155.01z" fill="#c39f8e"/></g></g><g><g><ellipse cx="355.076" cy="306.152" fill="#ab7b64" rx="116.87" ry="130.016"/></g></g><g><g><path d="m355.076 176.135c-5.068 0-10.06.36-14.958 1.056 57.482 8.17 101.913 62.792 101.913 128.96s-44.431 120.792-101.913 128.961c4.898.696 9.89 1.056 14.958 1.056 64.546 0 116.871-58.21 116.871-130.016s-52.326-130.017-116.871-130.017z" fill="#9a6a53"/></g></g><g><g><path d="m382.636 327.275c0-9.261-4.627-17.438-11.691-22.358 5.1-5.126 8.253-12.19 8.253-19.992 0-11.501-6.854-21.39-16.696-25.833.023-.464.038-.931.038-1.401 0-15.041-12.193-27.233-27.233-27.233-14.696 0-26.666 11.642-27.207 26.206-14.674 1.076-26.247 13.313-26.247 28.261 0 7.802 3.153 14.866 8.253 19.992-7.064 4.92-11.691 13.096-11.691 22.358 0 14.492 11.321 26.336 25.602 27.18 1.704 13.402 13.141 23.767 27.006 23.767 13.894 0 25.35-10.408 27.017-23.851 13.801-1.327 24.596-12.946 24.596-27.096z" fill="#edc472"/></g></g><g><g><path d="m354.494 354.371c1.667 13.443 13.123 23.851 27.017 23.851 13.865 0 25.302-10.364 27.006-23.767 14.28-.845 25.602-12.688 25.602-27.18 0-9.261-4.627-17.438-11.691-22.358 5.1-5.126 8.253-12.19 8.253-19.992 0-14.948-11.573-27.185-26.247-28.261-.541-14.564-12.512-26.206-27.207-26.206-15.041 0-27.233 12.193-27.233 27.233 0 .47.014.937.038 1.401-9.842 4.443-16.696 14.332-16.696 25.833 0 7.802 3.153 14.866 8.253 19.992-7.064 4.92-11.691 13.096-11.691 22.358-.001 14.15 10.794 25.769 24.596 27.096z" fill="#edc472"/></g></g><g><g><path d="m354.494 354.371c1.667 13.443 13.123 23.851 27.017 23.851 13.865 0 25.302-10.364 27.006-23.767 14.28-.845 25.602-12.688 25.602-27.18 0-9.261-4.627-17.438-11.691-22.358 5.1-5.126 8.253-12.19 8.253-19.992 0-14.948-11.573-27.185-26.247-28.261-.541-14.564-12.512-26.206-27.207-26.206-15.041 0-27.233 12.193-27.233 27.233 0 .47.014.937.038 1.401-9.842 4.443-16.696 14.332-16.696 25.833 0 7.802 3.153 14.866 8.253 19.992-7.064 4.92-11.691 13.096-11.691 22.358-.001 14.15 10.794 25.769 24.596 27.096z" fill="#edc472"/></g></g><g><g><path d="m422.428 304.917c5.1-5.126 8.253-12.19 8.253-19.992 0-14.948-11.573-27.185-26.247-28.261-.541-14.564-12.512-26.206-27.207-26.206-5.525 0-10.662 1.65-14.955 4.477 5.39 3.552 9.442 8.968 11.241 15.331 1.028 3.635 3.776 6.483 7.382 7.611 11.514 3.602 19.871 14.346 19.871 27.048 0 4.876-1.232 9.464-3.401 13.471-2.048 3.784-1.896 8.446.807 11.793 3.772 4.671 6.031 10.613 6.031 17.085 0 12.45-8.355 22.945-19.763 26.191-3.345.952-6.038 3.443-7.212 6.717-2.007 5.595-5.793 10.341-10.675 13.559 4.293 2.829 9.43 4.481 14.957 4.481 13.865 0 25.302-10.364 27.006-23.767 14.28-.845 25.602-12.688 25.602-27.181.001-9.26-4.626-17.437-11.69-22.357z" fill="#dbb56a"/></g></g><g><path d="m355.076 168.635c-68.578 0-124.371 61.689-124.371 137.516s55.793 137.516 124.371 137.516c26.941 0 52.573-9.361 74.127-27.071 3.2-2.63 3.663-7.356 1.033-10.556-2.629-3.2-7.355-3.663-10.556-1.033-18.837 15.479-41.177 23.661-64.603 23.661-60.307 0-109.371-54.961-109.371-122.516 0-67.556 49.064-122.516 109.371-122.516s109.371 54.961 109.371 122.516c0 28.788-9.096 56.763-25.612 78.772-2.486 3.313-1.816 8.014 1.497 10.501 3.314 2.486 8.015 1.816 10.501-1.497 18.453-24.588 28.615-55.761 28.615-87.775-.003-75.828-55.795-137.518-124.373-137.518z"/><path d="m483.973 207.026c-18.002-28.643-42.998-50.412-72.286-62.953-8.396-3.595-15.545-9.963-20.674-18.416-7.692-12.676-21.126-20.244-35.938-20.244s-28.246 7.568-35.938 20.244c-4.165 6.865-9.664 12.355-16.081 16.101-16.02-45.266-48.394-81.044-89.52-98.654-8.396-3.595-15.545-9.963-20.674-18.415-7.692-12.676-21.126-20.244-35.937-20.244s-28.246 7.568-35.938 20.244c-5.128 8.452-12.277 14.82-20.674 18.415-6.874 2.943-13.624 6.463-20.063 10.461-3.519 2.185-4.601 6.809-2.415 10.328 2.184 3.519 6.808 4.601 10.328 2.415 5.799-3.601 11.874-6.768 18.055-9.415 11.29-4.834 20.832-13.28 27.593-24.423 4.95-8.156 13.59-13.026 23.114-13.026s18.165 4.869 23.114 13.025c6.762 11.143 16.303 19.589 27.593 24.423.982.421 1.955.861 2.926 1.304l-31.371 28.216c-9.811 8.823-15.617 21.45-15.929 34.641l-.042 1.794c-.098 4.141 3.18 7.577 7.32 7.675.061.001.121.002.181.002 4.06 0 7.398-3.242 7.495-7.323l.043-1.794c.215-9.08 4.211-17.77 10.964-23.843l35.457-31.89c29.575 17.958 52.605 47.146 64.784 82.641-19.11 9.729-36.137 23.533-50.269 40.697l-13.45-23.297c-2.361-4.124-3.119-8.956-2.133-13.605l4.857-22.898c.859-4.052-1.729-8.034-5.781-8.893-4.053-.86-8.033 1.729-8.893 5.781l-4.857 22.9c-1.751 8.259-.406 16.843 3.802 24.193l16.675 28.886c-1.1 1.627-2.181 3.272-3.233 4.947-13.774 21.916-22.669 46.713-26.243 72.819l-.605.009c-5.599-.886-10.677-4.006-13.993-8.618l-22.323-31.036c-2.42-3.363-7.106-4.128-10.468-1.709-3.363 2.419-4.128 7.105-1.71 10.468l22.323 31.037c5.818 8.089 14.819 13.483 24.695 14.801.209.028.42.032.631.042-.217 3.753-.333 7.525-.333 11.314 0 16.719 2.156 33.125 6.307 48.851-9.921 5.122-18.253 13.091-24.242 23.257-4.842 8.22-13.768 13.326-23.292 13.326s-18.45-5.106-23.293-13.326c-6.692-11.359-16.304-19.987-27.797-24.951-26.375-11.392-48.929-31.16-65.225-57.167-.918-1.465-1.802-2.95-2.672-4.442 6.362-4.551 14.361-6.435 22.103-5.171l34.155 5.577c4.086.668 7.943-2.105 8.61-6.193s-2.105-7.943-6.193-8.611l-34.155-5.578c-10.945-1.786-22.231.62-31.497 6.602-10.471-22.475-15.961-47.398-15.961-73.143 0-33.443 9.366-65.523 26.375-92.157l15.897 30.594c6.854 13.793 19.229 24.28 33.96 28.778l35.73 10.91c.73.223 1.467.329 2.193.329 3.212 0 6.184-2.08 7.17-5.312 1.21-3.962-1.021-8.154-4.982-9.363l-35.73-10.91c-10.823-3.305-19.91-11.016-24.932-21.156-.022-.044-.043-.087-.066-.13l-19.443-37.419c4.475-5.586 9.324-10.857 14.538-15.756 3.019-2.836 3.167-7.582.332-10.602-2.835-3.018-7.583-3.168-10.601-.331-35.234 33.097-55.441 81.4-55.441 132.525 0 35.587 9.647 69.794 27.899 98.922 17.918 28.595 42.811 50.37 71.988 62.973 8.554 3.695 15.754 10.194 20.821 18.794 7.527 12.776 21.404 20.712 36.216 20.712 14.813 0 28.689-7.937 36.216-20.712 4.046-6.867 9.454-12.389 15.823-16.219 4.404 12.409 10.112 24.287 17.087 35.419 17.917 28.595 42.81 50.37 71.988 62.973 8.554 3.695 15.754 10.194 20.821 18.794 7.526 12.776 21.403 20.713 36.216 20.713 14.812 0 28.689-7.936 36.216-20.713 5.067-8.601 12.267-15.1 20.821-18.794 29.177-12.603 54.07-34.378 71.987-62.973 18.254-29.127 27.901-63.334 27.901-98.921 0-35.676-9.691-69.953-28.027-99.126zm-12.583 190.084c-16.296 26.007-38.85 45.775-65.224 57.167-11.493 4.964-21.105 13.592-27.797 24.951-4.843 8.22-13.768 13.327-23.292 13.327s-18.45-5.106-23.292-13.327c-6.693-11.359-16.305-19.987-27.797-24.951-26.375-11.392-48.929-31.16-65.225-57.167-16.754-26.738-25.61-58.191-25.61-90.958 0-32.848 8.896-64.365 25.727-91.144 16.372-26.05 39.019-45.81 65.49-57.146 11.289-4.834 20.831-13.279 27.593-24.423 4.95-8.156 13.59-13.026 23.114-13.026s18.164 4.869 23.114 13.025c6.762 11.144 16.304 19.589 27.594 24.423 26.472 11.335 49.118 31.096 65.49 57.146 16.829 26.78 25.725 58.297 25.725 91.145 0 32.766-8.856 64.219-25.61 90.958z"/><path d="m297.797 361.112c4.372 14.367 17.765 24.611 33.225 24.611 9.712 0 18.764-3.979 25.258-10.887 6.37 6.73 15.373 10.887 25.231 10.887 15.46 0 28.852-10.243 33.225-24.611 15.465-3.575 26.883-17.461 26.883-33.837 0-8.668-3.249-16.932-8.938-23.248 3.581-5.666 5.5-12.238 5.5-19.101 0-16.558-11.461-30.775-27.033-34.739-3.414-15.684-17.284-27.228-33.921-27.228-7.866 0-15.128 2.631-20.958 7.056-5.996-4.528-13.38-7.056-20.963-7.056-16.637 0-30.507 11.544-33.921 27.228-15.572 3.964-27.033 18.182-27.033 34.739 0 6.863 1.918 13.435 5.5 19.101-5.69 6.317-8.938 14.58-8.938 23.248 0 16.375 11.418 30.261 26.883 33.837zm79.43-123.154c10.658 0 19.317 8.339 19.713 18.984.142 3.82 3.134 6.922 6.946 7.202 10.819.793 19.295 9.921 19.295 20.781 0 5.547-2.155 10.768-6.069 14.702-1.564 1.572-2.352 3.754-2.153 5.962s1.364 4.215 3.183 5.482c5.309 3.697 8.478 9.755 8.478 16.203 0 10.428-8.146 19.078-18.544 19.694-3.602.213-6.542 2.961-6.997 6.541-1.248 9.813-9.66 17.213-19.566 17.213-9.938 0-18.353-7.426-19.574-17.273-.432-3.487-3.227-6.207-6.725-6.543-10.157-.976-17.815-9.416-17.815-19.631 0-6.449 3.169-12.506 8.477-16.203 1.819-1.267 2.984-3.274 3.183-5.482s-.589-4.391-2.153-5.962c-3.914-3.934-6.07-9.155-6.07-14.702 0-8.172 4.821-15.629 12.282-18.997 2.813-1.269 4.561-4.132 4.405-7.214-.017-.339-.028-.679-.028-1.023-.001-10.881 8.851-19.734 19.732-19.734zm-81.806 61.669c-3.914-3.934-6.069-9.155-6.069-14.702 0-10.86 8.475-19.988 19.295-20.781 3.812-.28 6.805-3.382 6.946-7.202.395-10.645 9.055-18.984 19.713-18.984 4.089 0 7.962 1.224 11.231 3.499-2.113 3.979-3.483 8.41-3.904 13.113-10.338 6.495-16.798 17.944-16.798 30.355 0 6.863 1.918 13.434 5.5 19.101-5.69 6.317-8.938 14.58-8.938 23.248 0 16.057 10.755 29.622 25.793 33.569-.17.213-.331.435-.48.671-3.644 5.766-9.882 9.208-16.688 9.208-9.907 0-18.318-7.4-19.566-17.213-.455-3.58-3.395-6.328-6.997-6.541-10.399-.615-18.544-9.266-18.544-19.694 0-6.449 3.169-12.506 8.477-16.203 1.819-1.267 2.984-3.274 3.183-5.482.198-2.208-.59-4.39-2.154-5.962z"/></g></g></svg>