<svg id="Capa_1" enable-background="new 0 0 512.001 512.001" height="512" viewBox="0 0 512.001 512.001" width="512" xmlns="http://www.w3.org/2000/svg"><g><g><g><path d="m142.029 134.432c7.806 4.535 20.227-1.316 27.981 1.574 8.66 3.228 14.522 15.657 22.487 16.809 9.547 1.381 17.983-9.182 25.485-10.822 9.581-2.094 22.754 1.187 26.879-5.913s-5.25-16.919-8.176-26.28c-2.291-7.329 2.708-19.888-3.219-27.497-4.946-6.349-18.648-5.287-25.741-11.212-6.351-5.304-7.42-18.993-15.227-23.529-7.806-4.535-20.228 1.316-27.981-1.574-8.66-3.228-14.522-15.657-22.487-16.809-9.547-1.381-17.983 9.182-25.485 10.822-9.581 2.094-22.754-1.187-26.879 5.913s5.25 16.92 8.176 26.28c2.291 7.329-2.708 19.888 3.219 27.497 4.946 6.349 18.648 5.287 25.741 11.212 6.351 5.304 7.42 18.993 15.227 23.529z" fill="#95c9a6"/></g></g><g><g><path d="m385.294 116.044c-6.244 6.52-19.801 4.338-26.45 9.263-7.427 5.5-9.617 19.067-16.951 22.38-8.791 3.972-19.823-3.841-27.486-3.339-9.786.642-21.535 7.443-27.465 1.764-5.931-5.68.358-17.712.577-27.516.171-7.676-8.111-18.36-4.523-27.313 2.994-7.471 16.453-10.246 21.628-17.904 4.633-6.856 1.869-20.306 8.114-26.826 6.244-6.52 19.801-4.338 26.45-9.263 7.426-5.5 9.617-19.067 16.951-22.38 8.791-3.972 19.823 3.841 27.486 3.339 9.786-.642 21.535-7.443 27.465-1.764 5.931 5.68-.358 17.712-.577 27.516-.171 7.676 8.111 18.36 4.523 27.313-2.994 7.471-16.453 10.246-21.629 17.903-4.632 6.857-1.868 20.306-8.113 26.827z" fill="#95c9a6"/></g></g><g><g><path d="m236.685 109.8c-2.291-7.329 2.708-19.888-3.219-27.497-4.947-6.349-18.648-5.287-25.742-11.212-6.351-5.305-7.42-18.993-15.227-23.529-7.806-4.535-20.228 1.316-27.981-1.574-8.66-3.228-14.522-15.657-22.487-16.809-6.846-.99-13.12 4.16-18.889 7.759 3.503 3.616 7.098 7.456 11.376 9.05 7.753 2.89 20.174-2.961 27.981 1.574 7.806 4.535 8.876 18.224 15.227 23.529 7.094 5.924 20.795 4.862 25.742 11.212 5.927 7.609.928 20.168 3.219 27.497 2.926 9.36 12.301 19.179 8.176 26.28-4.125 7.1-17.298 3.819-26.879 5.913-2.123.464-4.321 1.643-6.597 3.063 3.589 3.705 7.081 7.176 11.111 7.759 9.547 1.381 17.983-9.182 25.486-10.822 9.581-2.094 22.754 1.187 26.879-5.913s-5.25-16.919-8.176-26.28z" fill="#7fbd93"/></g></g><g><g><path d="m410.513 44.001c.219-9.804 6.507-21.836.577-27.516-5.931-5.68-17.68 1.122-27.465 1.763-.38.025-.77.024-1.166.011 3.426 6.161-1.748 16.864-1.946 25.742-.171 7.676 8.111 18.36 4.523 27.313-2.994 7.471-16.453 10.246-21.628 17.903-4.633 6.856-1.869 20.306-8.113 26.826s-19.801 4.338-26.45 9.263c-5.847 4.33-8.45 13.657-12.871 19.048 7.549.477 17.711 7.041 25.919 3.333 7.334-3.314 9.525-16.88 16.951-22.38 6.649-4.924 20.205-2.743 26.45-9.263s3.48-19.97 8.113-26.826c5.175-7.658 18.635-10.433 21.628-17.903 3.589-8.954-4.693-19.637-4.522-27.314z" fill="#7fbd93"/></g></g><g><g><path d="m225.937 135.808s16.378-74.135 6.471-119.938c-.835-3.859 2.033-7.525 5.978-7.665l19.743-.7c2.632-.093 5.045 1.439 6.07 3.865 7.184 17.013 33.144 84.198 14.751 126.909z" fill="#c39f8e"/></g></g><g><g><ellipse cx="415.727" cy="306.33" fill="#e69d49" rx="82.536" ry="175.843"/></g></g><g><g><path d="m415.727 130.487c-5.123 0-10.135 1.002-15 2.906 38.421 15.03 67.536 86.736 67.536 172.938 0 86.201-29.115 157.907-67.536 172.938 4.865 1.903 9.877 2.906 15 2.906 45.583 0 82.536-78.728 82.536-175.843 0-97.118-36.952-175.845-82.536-175.845z" fill="#de9746"/></g></g><g><g><ellipse cx="344.738" cy="306.33" fill="#eaa85c" rx="88.87" ry="189.338"/></g></g><g><g><path d="m344.738 116.992c-5.113 0-10.123.933-15 2.699 41.937 15.19 73.87 92.964 73.87 186.639s-31.932 171.449-73.87 186.639c4.877 1.766 9.887 2.699 15 2.699 49.081 0 88.87-84.77 88.87-189.338s-39.789-189.338-88.87-189.338z" fill="#eaa85c"/></g></g><g><g><ellipse cx="96.274" cy="306.33" fill="#e69d49" rx="82.536" ry="175.843"/></g></g><g><g><ellipse cx="167.263" cy="306.33" fill="#eaa85c" rx="88.87" ry="189.338"/></g></g><g><g><ellipse cx="256" cy="306.33" fill="#f0c267" rx="93.016" ry="198.171"/></g></g><g><g><path d="m256 108.159c-5.107 0-10.116.891-15 2.578 44.238 15.283 78.016 97.027 78.016 195.593 0 98.565-33.778 180.31-78.016 195.593 4.884 1.687 9.893 2.578 15 2.578 51.371 0 93.016-88.724 93.016-198.171s-41.644-198.171-93.016-198.171z" fill="#eaa85c"/></g></g><path d="m480.878 178.804c-16.895-35.994-40.032-55.817-65.151-55.817-9.161 0-18.113 2.649-26.671 7.876-1.702-1.77-3.43-3.432-5.182-4.987 2.478-1.073 4.817-2.536 6.836-4.644 5.114-5.339 6.043-12.54 6.863-18.892.44-3.413.939-7.281 2.048-8.922 1.5-2.219 5.067-4.315 8.517-6.342 5.312-3.121 11.33-6.658 13.86-12.97 3.225-8.049.376-16.002-1.913-22.393-.989-2.762-2.111-5.893-2.074-7.543.059-2.618.762-5.873 1.442-9.02 1.678-7.766 3.767-17.43-3.176-24.08-6.942-6.648-16.509-4.145-24.194-2.134-3.115.815-6.337 1.659-8.949 1.83-1.662.104-4.827-.878-7.628-1.747-6.483-2.011-14.551-4.514-22.455-.943-6.197 2.8-9.472 8.966-12.36 14.407-1.876 3.534-3.816 7.188-5.968 8.782-1.591 1.178-5.434 1.844-8.824 2.431-6.311 1.093-13.465 2.332-18.577 7.671-5.114 5.339-6.043 12.539-6.863 18.892-.44 3.413-.939 7.282-2.048 8.922-1.396 2.065-4.582 4.023-7.797 5.918-1.224-7.738-2.926-15.82-5.126-24.24-4.978-19.052-11.146-34.746-14.38-42.405-2.218-5.254-7.558-8.659-13.244-8.444l-19.743.7c-4.111.146-7.918 2.09-10.442 5.336-2.52 3.24-3.469 7.399-2.6 11.41 3.368 15.571 3.509 34.836 2.346 52.97-1.664-.511-3.337-.942-4.952-1.356-3.876-.992-7.885-2.019-9.94-3.735-1.52-1.27-3.071-4.848-4.439-8.006-2.548-5.877-5.436-12.538-11.827-16.251-6.391-3.714-13.608-2.922-19.975-2.225-3.421.375-7.3.799-9.153.108-2.509-.936-5.386-3.909-8.167-6.785-4.283-4.427-9.137-9.446-15.866-10.419-8.581-1.24-15.642 3.398-21.315 7.126-2.452 1.611-5.231 3.438-6.846 3.791-2.558.559-5.887.641-9.105.721-7.942.196-17.828.439-22.657 8.753-4.829 8.313-.146 17.02 3.618 24.017 1.526 2.836 3.104 5.769 3.885 8.268.492 1.576.282 4.895.097 7.823-.43 6.774-.964 15.205 4.365 22.045 4.179 5.364 10.942 7.096 16.909 8.624 3.876.992 7.885 2.019 9.94 3.736 1.521 1.269 3.071 4.848 4.44 8.005.276.638.561 1.289.85 1.941-1.471 1.34-2.924 2.756-4.358 4.248-8.556-5.219-17.511-7.867-26.654-7.867-25.119 0-48.257 19.823-65.151 55.817-16.048 34.187-24.886 79.477-24.886 127.525s8.838 93.338 24.885 127.527c16.894 35.994 40.032 55.816 65.151 55.816 9.14 0 18.113-2.654 26.677-7.881 13.51 14.026 28.653 21.376 44.313 21.376 13.916 0 27.196-5.636 39.529-16.742 14.742 16.698 31.544 25.575 49.208 25.575 17.665 0 34.468-8.877 49.211-25.577 12.331 11.105 25.609 16.745 39.527 16.745 15.816 0 30.906-7.393 44.338-21.364 8.555 5.218 17.505 7.869 26.651 7.869 25.119 0 48.257-19.823 65.151-55.816 16.047-34.189 24.885-79.479 24.885-127.527-.001-48.049-8.839-93.339-24.886-127.527zm-183.384-90.35c4.661-2.739 9.944-5.844 13.345-10.877 3.102-4.59 3.811-10.086 4.497-15.401.523-4.059 1.117-8.66 2.819-10.437 1.7-1.776 6.271-2.567 10.304-3.266 5.28-.915 10.741-1.86 15.192-5.157 4.88-3.614 7.754-9.026 10.289-13.801 1.586-2.988 3.76-7.081 5.287-7.771 2.716-1.226 7.352.21 11.836 1.601 4.244 1.316 8.636 2.681 13.052 2.387 4.043-.265 7.97-1.293 11.767-2.287 2.835-.742 8.73-2.284 10.021-1.546.796 1.259-.492 7.217-1.111 10.081-.829 3.836-1.686 7.803-1.776 11.854-.099 4.428 1.45 8.753 2.949 12.936 1.583 4.419 3.22 8.987 2.11 11.754-.623 1.556-4.618 3.903-7.536 5.618-4.661 2.739-9.944 5.844-13.345 10.877-3.102 4.59-3.812 10.086-4.497 15.401-.523 4.059-1.117 8.66-2.818 10.437-1.702 1.776-6.273 2.568-10.307 3.267l-.656.113c-.565.098-1.102.263-1.61.475-7.296-3.453-14.856-5.22-22.568-5.22-13.718 0-27.282 5.782-39.521 16.752-4.124-4.672-8.408-8.727-12.828-12.15.649-7.027.689-14.546.132-22.518 1.405-1.014 3.136-2.043 4.973-3.122zm-39.893-73.426c5.587 13.365 21.17 54.112 20.273 90.333-7.077-3.098-14.397-4.701-21.874-4.701-5.731 0-11.37.949-16.879 2.78 6.186-44.603 4.099-72.05.904-87.788zm-125.991 90.119c-4.661-3.893-10.598-5.413-15.835-6.754-3.278-.839-7.768-1.989-8.798-3.311-1.831-2.351-1.524-7.194-1.228-11.878.281-4.434.572-9.019-.75-13.247-1.208-3.867-3.131-7.442-4.99-10.898-1.388-2.58-4.275-7.947-3.86-9.377 1.037-1.069 7.13-1.22 10.058-1.292 3.924-.097 7.981-.197 11.939-1.062 4.327-.946 8.167-3.469 11.88-5.909 3.922-2.577 7.977-5.246 10.93-4.816 1.659.24 4.881 3.57 7.232 6.002 3.759 3.886 8.02 8.29 13.709 10.411 5.192 1.936 10.702 1.332 16.027.748 4.068-.446 8.68-.952 10.806.284 2.127 1.236 3.972 5.492 5.6 9.248 2.131 4.917 4.335 10.001 8.587 13.553 4.661 3.893 10.598 5.413 15.836 6.754 2.423.62 5.504 1.411 7.365 2.314-1.01 9.769-2.263 18.698-3.403 25.892-5.523 3.854-10.85 8.68-15.932 14.438-12.254-10.98-25.779-16.755-39.519-16.755-9.544 0-18.822 2.704-27.633 7.908-1.97-4.5-4.143-9.015-8.021-12.253zm35.653 383.021c-28.894 0-56.859-37.252-71.245-94.904-1.004-4.019-5.079-6.466-9.093-5.461-4.02 1.003-6.464 5.074-5.462 9.093 7.393 29.625 18.348 54.846 31.746 73.205-5.566 3.032-11.252 4.573-16.936 4.573-40.674 0-75.036-77.092-75.036-168.343s34.363-168.344 75.037-168.344c5.676 0 11.346 1.553 16.906 4.576-5.583 7.662-10.796 16.577-15.546 26.698-17.244 36.738-26.74 85.417-26.74 137.069 0 20.699 1.531 41.076 4.553 60.564.574 3.704 3.767 6.353 7.402 6.352.381 0 .769-.029 1.157-.089 4.094-.635 6.897-4.467 6.263-8.56-2.903-18.73-4.375-38.334-4.375-58.267 0-49.495 8.992-95.911 25.319-130.696 15.255-32.502 35.686-51.143 56.051-51.143 10.397 0 20.568 4.579 30.302 13.617-5.036 7.31-9.767 15.62-14.126 24.907-18.026 38.406-27.954 89.303-27.954 143.315s9.928 104.909 27.954 143.315c4.358 9.285 9.088 17.593 14.123 24.902-9.751 9.036-19.935 13.621-30.3 13.621zm88.737 8.833c-21.457 0-42.955-19.583-58.982-53.73-17.11-36.453-26.533-85.086-26.533-136.941s9.423-100.488 26.533-136.941c16.027-34.146 37.525-53.729 58.982-53.729s42.955 19.583 58.982 53.729c17.11 36.453 26.533 85.086 26.533 136.941s-9.423 100.488-26.533 136.941c-16.026 34.146-37.525 53.73-58.982 53.73zm159.727-22.328c-5.677 0-11.345-1.555-16.905-4.578 5.583-7.662 10.795-16.576 15.545-26.696 17.244-36.738 26.74-85.416 26.74-137.069 0-14.923-.804-29.796-2.39-44.205-.453-4.117-4.155-7.095-8.275-6.635-4.117.453-7.088 4.158-6.635 8.275 1.526 13.867 2.3 28.188 2.3 42.565 0 49.496-8.992 95.911-25.319 130.696-15.255 32.502-35.685 51.143-56.051 51.143-10.369 0-20.551-4.581-30.301-13.619 5.036-7.309 9.766-15.618 14.125-24.905 18.026-38.406 27.954-89.303 27.954-143.315s-9.928-104.908-27.954-143.315c-4.357-9.283-9.086-17.59-14.12-24.898 9.744-9.036 19.919-13.626 30.296-13.626 31.412 0 61.306 43.759 74.387 108.889.716 3.563 3.846 6.025 7.346 6.024.489 0 .986-.048 1.484-.148 4.062-.815 6.692-4.769 5.877-8.83-6.963-34.665-18.515-64.269-33.407-85.609-.536-.767-1.075-1.521-1.617-2.264 5.566-3.029 11.236-4.566 16.92-4.566 40.674 0 75.036 77.092 75.036 168.343s-34.362 168.343-75.036 168.343z"/></g></svg>