<svg id="Capa_1" enable-background="new 0 0 512.197 512.197" height="512" viewBox="0 0 512.197 512.197" width="512" xmlns="http://www.w3.org/2000/svg"><g><g><g><path d="m228.914 172.286-33.587-76.789c-2.267-5.182-3.437-10.777-3.437-16.434v-41.862h-89.173v41.862c0 5.656-1.17 11.251-3.437 16.434l-33.587 76.789c-9.547 21.827-14.547 45.365-14.694 69.189-.389 63.319-1.071 192.46-.519 243.705.106 9.884 8.148 17.833 18.032 17.833h157.583c9.884 0 17.926-7.95 18.032-17.833.552-51.245-.13-180.386-.519-243.705-.147-23.824-5.147-47.362-14.694-69.189z" fill="#c5d5f0"/></g></g><g><g><path d="m243.608 241.475c-.146-23.824-5.146-47.361-14.694-69.189l-33.587-76.789c-2.267-5.182-3.437-10.777-3.437-16.434v-41.862h-30v41.862c0 5.656 1.17 11.251 3.437 16.434l33.587 76.789c9.547 21.827 14.547 45.365 14.694 69.189.389 63.319 1.071 192.46.519 243.705-.106 9.884-8.148 17.833-18.032 17.833h30c9.885 0 17.926-7.95 18.032-17.833.552-51.245-.13-180.386-.519-243.705z" fill="#b8c9ea"/></g></g><g><g><path d="m204.265 50.319h-113.463c-1.102 0-1.995-.893-1.995-1.995v-31.58c0-5.105 4.139-9.244 9.244-9.244h98.965c5.105 0 9.244 4.139 9.244 9.244v31.581c0 1.101-.893 1.994-1.995 1.994z" fill="#8face0"/></g></g><g><g><path d="m196.786 7.5h-29.77c5.105 0 9.244 4.139 9.244 9.244v31.581c0 1.102-.893 1.995-1.995 1.995h29.77c1.102 0 1.995-.893 1.995-1.995v-31.581c0-5.105-4.139-9.244-9.244-9.244z" fill="#688ed5"/></g></g><g><g><path d="m428.724 504.697h-95.37c-6.365 0-11.628-4.958-12.008-11.311l-21.146-215.56c-.559-5.699 3.919-10.637 9.645-10.637h142.389c5.726 0 10.204 4.939 9.645 10.637l-21.146 215.56c-.381 6.353-5.644 11.311-12.009 11.311z" fill="#c5d5f0"/></g></g><g><g><path d="m452.233 267.189h-30c5.726 0 10.204 4.938 9.645 10.637l-21.146 215.56c-.38 6.354-5.643 11.312-12.008 11.312h30c6.365 0 11.628-4.958 12.008-11.312l21.146-215.56c.559-5.699-3.919-10.637-9.645-10.637z" fill="#b8c9ea"/></g></g><g><g><path d="m443.021 470.046 16.23-165.444h-156.425l16.23 165.444z" fill="#fafafa"/></g></g><g><g><path d="m429.251 304.602-16.229 165.444h30l16.229-165.444z" fill="#f0f0f0"/></g></g><g><g><path d="m244.288 460.116c.209-60.313-.344-163.99-.68-218.641-.146-23.824-5.146-47.361-14.693-69.189l-21.318-48.737h-120.587l-21.318 48.737c-9.547 21.827-14.547 45.365-14.694 69.189-.336 54.651-.89 158.328-.68 218.641z" fill="#fafafa"/></g></g><g><g><path d="m243.608 241.475c-.146-23.824-5.146-47.361-14.694-69.189l-21.318-48.737h-30l21.318 48.737c9.547 21.827 14.547 45.365 14.694 69.189.336 54.651.89 158.328.68 218.641h30c.209-60.313-.345-163.99-.68-218.641z" fill="#f0f0f0"/></g></g><g><g><path d="m182.425 320.425c0 19.397-15.724 35.121-35.121 35.121s-35.121-15.724-35.121-35.121c0-13.361 16.664-42.076 27.035-58.654 3.739-5.976 12.435-5.976 16.173 0 10.37 16.578 27.034 45.293 27.034 58.654z" fill="#c5d5f0"/></g></g><g><g><path d="m155.39 261.771c-3.739-5.976-12.435-5.976-16.173 0-2.108 3.37-4.478 7.247-6.913 11.389 9.545 16.234 20.121 36.62 20.121 47.265 0 14.03-8.229 26.134-20.121 31.76 4.549 2.152 9.633 3.361 15 3.361 19.397 0 35.121-15.724 35.121-35.121 0-13.361-16.664-42.076-27.035-58.654z" fill="#b8c9ea"/></g></g><g><path d="m464.969 265.332c-3.252-3.586-7.894-5.644-12.736-5.644h-74.49c-4.142 0-7.5 3.358-7.5 7.5s3.358 7.5 7.5 7.5h74.49c.845 0 1.38.451 1.624.719s.64.845.557 1.686l-1.963 20.008h-142.824l-1.963-20.008c-.082-.841.314-1.417.557-1.686.244-.269.778-.719 1.623-.719h37.898c4.142 0 7.5-3.358 7.5-7.5s-3.358-7.5-7.5-7.5h-37.898c-4.841 0-9.483 2.057-12.735 5.644s-4.846 8.408-4.374 13.227l21.134 215.435c.694 10.221 9.222 18.204 19.484 18.204h95.371c10.262 0 18.79-7.983 19.484-18.204l21.134-215.435c.473-4.819-1.121-9.64-4.373-13.227zm-13.99 46.77-14.758 150.443h-110.364l-14.758-150.443zm-17.734 180.836c-.143 2.389-2.128 4.259-4.521 4.259h-95.371c-2.393 0-4.378-1.871-4.521-4.259-.006-.095-.013-.19-.023-.285l-1.482-15.108h107.423l-1.482 15.108c-.01.095-.017.19-.023.285z"/><path d="m235.786 169.281-33.587-76.789c-1.864-4.261-2.809-8.779-2.809-13.428v-21.245h4.875c5.236 0 9.495-4.259 9.495-9.495v-31.58c0-9.233-7.511-16.744-16.744-16.744h-98.965c-9.232 0-16.744 7.511-16.744 16.744v31.58c0 5.236 4.259 9.495 9.495 9.495h4.415v21.244c0 4.649-.945 9.168-2.809 13.428l-33.587 76.789c-10.013 22.892-15.168 47.166-15.322 72.148-.246 39.983-.563 98.643-.68 151.037-.009 4.142 3.341 7.507 7.483 7.517h.017c4.134 0 7.49-3.347 7.5-7.483.117-52.369.435-111.008.68-150.978.141-22.932 4.873-45.215 14.065-66.229l19.352-44.243h110.775l19.352 44.243c9.192 21.015 13.924 43.297 14.065 66.229.352 57.246.845 151.595.703 211.095h-179.038c-.002-7.227.015-16.481.046-30.116.009-4.142-3.341-7.508-7.483-7.517-.006 0-.012 0-.018 0-4.134 0-7.49 3.347-7.5 7.483-.086 38.059-.061 42.159.161 62.796.15 13.924 11.604 25.252 25.532 25.252h157.583c13.929 0 25.382-11.329 25.531-25.253.543-50.379-.092-174.393-.519-243.832-.152-24.982-5.307-49.256-15.32-72.148zm-139.479-152.537c0-.962.782-1.744 1.744-1.744h98.965c.961 0 1.744.782 1.744 1.744v26.075h-102.453zm2.17 99.305 7.675-17.546c2.698-6.168 4.065-12.708 4.065-19.439v-21.245h74.173v21.244c0 6.731 1.368 13.271 4.065 19.439l7.675 17.546h-97.653zm127.618 379.465h-157.583c-5.746 0-10.471-4.672-10.533-10.414-.076-7.102-.129-12.237-.162-17.484h178.94c-.032 6.495-.075 12.376-.13 17.484-.061 5.742-4.786 10.414-10.532 10.414z"/><path d="m189.924 320.425c0-11.673-9.48-32.746-28.176-62.632-3.136-5.012-8.536-8.004-14.445-8.004s-11.31 2.992-14.445 8.004c-18.696 29.886-28.176 50.958-28.176 62.631 0 23.501 19.12 42.622 42.621 42.622s42.621-19.12 42.621-42.621zm-70.242 0c0-3.117 1.867-16.272 25.893-54.676.496-.793 1.214-.96 1.729-.96s1.232.167 1.729.96c24.025 38.404 25.893 51.559 25.893 54.676 0 15.23-12.391 27.622-27.621 27.622s-27.623-12.392-27.623-27.622z"/></g></g></svg>