<svg id="Capa_1" enable-background="new 0 0 512 512" height="512" viewBox="0 0 512 512" width="512" xmlns="http://www.w3.org/2000/svg"><g><g><g><path d="m484.563 336.615h-457.127c-11.011 0-19.937-8.926-19.937-19.937v-7.724c0-4.251 3.446-7.698 7.698-7.698h481.605c4.251 0 7.698 3.446 7.698 7.698v7.724c0 11.011-8.926 19.937-19.937 19.937z" fill="#c5d5f0"/></g></g><g><g><path d="m450.259 367.631h-378.98c-8.81 0-15.951-7.142-15.951-15.951v-15.065h410.882v15.065c0 8.81-7.142 15.951-15.951 15.951z" fill="#b8c9ea"/></g></g><g><g><path d="m446.634 301.257h-381.269c-15.252 0-27.617-12.364-27.617-27.617 0-71.394 57.877-129.271 129.271-129.271h177.96c71.395 0 129.271 57.877 129.271 129.271.001 15.253-12.363 27.617-27.616 27.617z" fill="#f5deb2"/></g></g><g><g><path d="m344.98 144.369h-30c71.395 0 129.271 57.877 129.271 129.271 0 15.252-12.364 27.617-27.617 27.617h30c15.252 0 27.617-12.365 27.617-27.617 0-71.394-57.877-129.271-129.271-129.271z" fill="#f3d69e"/></g></g><g><g><path d="m149.192 217.045c8.409 0 15.227-6.817 15.227-15.227v-57.416c-10.507.207-20.704 1.668-30.453 4.239v53.177c0 8.41 6.817 15.227 15.226 15.227z" fill="#edc472"/></g></g><g><g><path d="m220.397 217.045c8.409 0 15.226-6.817 15.226-15.227v-57.449h-30.453v57.449c.001 8.41 6.818 15.227 15.227 15.227z" fill="#edc472"/></g></g><g><g><path d="m362.807 217.045c8.409 0 15.227-6.817 15.227-15.227v-53.177c-9.749-2.571-19.947-4.032-30.453-4.239v57.416c0 8.41 6.817 15.227 15.226 15.227z" fill="#edc472"/></g></g><g><g><path d="m291.602 217.045c8.409 0 15.226-6.817 15.226-15.227v-57.449h-30.453v57.449c.001 8.41 6.818 15.227 15.227 15.227z" fill="#edc472"/></g></g><path d="m496.802 293.757h-21.409c4.001-5.702 6.359-12.638 6.359-20.117 0-25.123-6.873-49.689-19.876-71.041-2.154-3.538-6.77-4.658-10.306-2.505-3.538 2.154-4.66 6.769-2.505 10.307 11.57 19.001 17.687 40.869 17.687 63.24 0 11.092-9.024 20.117-20.116 20.117h-381.271c-11.092 0-20.117-9.024-20.117-20.117 0-52.931 33.951-98.075 81.217-114.819v42.997c0 12.531 10.195 22.727 22.726 22.727s22.727-10.195 22.727-22.727v-49.949h25.753v49.949c0 12.531 10.195 22.727 22.726 22.727s22.727-10.195 22.727-22.727v-49.949h25.753v49.949c0 12.531 10.195 22.727 22.727 22.727 12.531 0 22.727-10.195 22.727-22.727v-49.949h25.752v49.949c0 12.531 10.195 22.727 22.727 22.727 12.531 0 22.727-10.195 22.727-22.727v-43.058c16.826 5.927 32.262 15.567 45.281 28.506 2.938 2.919 7.686 2.906 10.607-.033 2.92-2.938 2.905-7.687-.032-10.607-25.798-25.638-60.036-39.758-96.41-39.758h-177.963c-75.416 0-136.771 61.355-136.771 136.771 0 7.479 2.358 14.415 6.359 20.117h-21.41c-8.381 0-15.198 6.818-15.198 15.198v7.724c0 15.128 12.308 27.436 27.437 27.436h20.392v7.565c0 12.931 10.52 23.451 23.451 23.451h45.991c4.142 0 7.5-3.358 7.5-7.5s-3.358-7.5-7.5-7.5h-45.992c-4.66 0-8.451-3.791-8.451-8.451v-7.565h395.882v7.565c0 4.66-3.791 8.451-8.451 8.451h-302.989c-4.142 0-7.5 3.358-7.5 7.5s3.358 7.5 7.5 7.5h302.989c12.931 0 23.451-10.52 23.451-23.451v-7.565h10.854c15.129 0 27.436-12.308 27.436-27.436v-7.724c0-8.38-6.818-15.198-15.198-15.198zm-347.61-84.212c-4.26 0-7.726-3.466-7.726-7.727v-47.243c5.043-1.081 10.201-1.851 15.453-2.284v49.527c-.001 4.261-3.467 7.727-7.727 7.727zm78.932-7.727c0 4.26-3.466 7.727-7.727 7.727-4.26 0-7.726-3.466-7.726-7.727v-49.949h15.453zm71.205 0c0 4.26-3.466 7.727-7.727 7.727s-7.727-3.466-7.727-7.727v-49.949h15.453v49.949zm71.205 0c0 4.26-3.466 7.727-7.727 7.727s-7.727-3.466-7.727-7.727v-49.53c5.226.427 10.385 1.184 15.453 2.262v47.268zm126.466 114.861c0 6.857-5.579 12.436-12.436 12.436h-457.127c-6.857 0-12.437-5.579-12.437-12.436v-7.724c0-.109.088-.198.197-.198h481.604c.109 0 .198.089.198.198v7.724z"/></g></svg>