<svg id="Capa_1" enable-background="new 0 0 512 512" height="512" viewBox="0 0 512 512" width="512" xmlns="http://www.w3.org/2000/svg"><g><g><g><ellipse cx="101.015" cy="225.768" fill="#f7e5c1" rx="58.928" ry="97.488"/></g></g><g><g><ellipse cx="255.606" cy="225.768" fill="#f7e5c1" rx="58.928" ry="97.488"/></g></g><g><g><ellipse cx="411.23" cy="225.768" fill="#f7e5c1" rx="58.928" ry="97.488"/></g></g><g><g><path d="m101.014 128.279c-5.184 0-10.21 1.112-15 3.191 25.279 10.976 43.928 49.032 43.928 94.297s-18.649 83.32-43.928 94.297c4.79 2.08 9.816 3.191 15 3.191 32.545 0 58.928-43.647 58.928-97.488s-26.382-97.488-58.928-97.488z" fill="#f5deb2"/></g></g><g><g><path d="m255.606 128.279c-5.184 0-10.21 1.112-15 3.191 25.279 10.976 43.928 49.032 43.928 94.297s-18.649 83.32-43.928 94.297c4.79 2.08 9.816 3.191 15 3.191 32.545 0 58.928-43.647 58.928-97.488s-26.383-97.488-58.928-97.488z" fill="#f5deb2"/></g></g><g><g><path d="m411.23 128.279c-5.184 0-10.21 1.112-15 3.191 25.279 10.976 43.928 49.032 43.928 94.297s-18.649 83.32-43.928 94.297c4.79 2.08 9.816 3.191 15 3.191 32.545 0 58.928-43.647 58.928-97.488s-26.383-97.488-58.928-97.488z" fill="#f5deb2"/></g></g><g><g><path d="m103.267 278.232h305.465v51.55h-305.465z" fill="#ebe1dc"/></g></g><g><g><path d="m485.014 278.232h-458.028c-10.762 0-19.486-8.724-19.486-19.486 0-10.762 8.724-19.486 19.486-19.486h458.027c10.762 0 19.486 8.724 19.486 19.486.001 10.762-8.723 19.486-19.485 19.486z" fill="#ebe1dc"/></g></g><g><g><path d="m118.392 383.72h-30.25c-14.862 0-27.536-10.764-29.943-25.43l-16.358-79.677h122.851l-16.358 79.677c-2.406 14.667-15.08 25.43-29.942 25.43z" fill="#ebe1dc"/></g></g><g><g><path d="m271.125 383.72h-30.25c-14.862 0-27.536-10.764-29.943-25.43l-16.358-79.677h122.851l-16.358 79.677c-2.406 14.667-15.08 25.43-29.942 25.43z" fill="#ebe1dc"/></g></g><g><g><path d="m423.858 383.72h-30.25c-14.862 0-27.536-10.764-29.943-25.43l-16.358-79.677h122.851l-16.358 79.678c-2.406 14.666-15.081 25.429-29.942 25.429z" fill="#ebe1dc"/></g></g><g><g><path d="m134.693 278.614-16.358 79.676c-2.407 14.666-15.081 25.43-29.943 25.43h30c14.862 0 27.536-10.764 29.943-25.43l16.358-79.676z" fill="#dcd2cd"/></g></g><g><g><path d="m287.426 278.614-16.358 79.676c-2.407 14.666-15.081 25.43-29.943 25.43h30c14.862 0 27.536-10.764 29.943-25.43l16.358-79.676z" fill="#dcd2cd"/></g></g><g><g><path d="m440.158 278.614-16.358 79.677c-2.407 14.666-15.081 25.43-29.943 25.43h30c14.862 0 27.536-10.764 29.943-25.43l16.358-79.676h-30z" fill="#dcd2cd"/></g></g><path d="m485.014 231.759h-7.47c.07-1.994.115-3.995.115-5.992 0-27.388-6.514-53.248-18.341-72.814-12.541-20.747-29.619-32.174-48.087-32.174s-35.546 11.426-48.087 32.174c-11.827 19.567-18.341 45.426-18.341 72.814 0 1.997.045 3.997.115 5.992h-22.998c.07-1.994.115-3.995.115-5.992 0-28.562-7.002-55.205-19.715-75.02-2.237-3.487-6.879-4.498-10.362-2.262-3.486 2.237-4.499 6.876-2.263 10.363 11.02 17.175 17.34 41.566 17.34 66.919 0 1.999-.052 3.999-.129 5.992h-102.598c-.077-1.993-.129-3.993-.129-5.992 0-24.692 5.745-47.795 16.178-65.055 9.719-16.079 22.237-24.934 35.25-24.934 5.47 0 10.88 1.565 16.08 4.653 3.563 2.116 8.163.943 10.278-2.62 2.114-3.562.941-8.163-2.62-10.278-7.55-4.483-15.537-6.756-23.738-6.756-18.468 0-35.546 11.426-48.087 32.174-11.827 19.567-18.341 45.426-18.341 72.814 0 1.997.045 3.997.115 5.992h-21.968c.07-1.997.117-3.998.117-5.992 0-27.388-6.514-53.248-18.341-72.814-12.541-20.747-29.619-32.174-48.087-32.174s-35.546 11.426-48.087 32.174c-11.827 19.567-18.341 45.426-18.341 72.814 0 1.999.045 3.999.115 5.992h-7.715c-14.881.002-26.987 12.108-26.987 26.989s12.106 26.986 26.986 26.986h8.661l8.013 39.032c.729 3.549 3.853 5.993 7.339 5.993.5 0 1.008-.05 1.516-.155 4.058-.833 6.672-4.797 5.839-8.855l-7.394-36.016h104.615l-14.587 71.051c-.02.098-.038.196-.055.294-1.819 11.093-11.3 19.144-22.541 19.144h-30.25c-11.241 0-20.722-8.051-22.542-19.145-.017-.098-.034-.195-.055-.292l-.739-3.605c-.832-4.058-4.799-6.674-8.854-5.84-4.058.833-6.673 4.796-5.84 8.854l.711 3.466c3.078 18.297 18.748 31.561 37.318 31.561h30.25c18.57 0 34.24-13.263 37.317-31.56l4.594-22.379h37.724c.313 0 .619-.025.922-.063l4.607 22.441c3.077 18.297 18.747 31.56 37.317 31.56h30.25c18.57 0 34.24-13.262 37.317-31.56l4.595-22.379h38.659l4.594 22.379c3.077 18.297 18.747 31.56 37.317 31.56h30.25c18.57 0 34.239-13.262 37.318-31.56l15.177-73.929h8.661c14.88 0 26.986-12.106 26.986-26.986s-12.102-26.984-26.982-26.984zm-125.211-5.991c0-24.692 5.745-47.795 16.178-65.055 9.719-16.079 22.237-24.934 35.25-24.934s25.531 8.855 35.25 24.934c10.433 17.259 16.178 40.363 16.178 65.055 0 1.999-.052 3.999-.129 5.992h-102.598c-.077-1.993-.129-3.994-.129-5.992zm-310.216 0c0-24.692 5.745-47.795 16.178-65.055 9.719-16.079 22.237-24.934 35.25-24.934s25.531 8.855 35.25 24.934c10.433 17.259 16.178 40.363 16.178 65.055 0 1.994-.053 3.996-.13 5.992h-102.598c-.076-1.991-.128-3.991-.128-5.992zm113.797 96.514 7.504-36.55h17.492l7.504 36.55zm130.337 34.501c-.021.098-.038.196-.055.294-1.819 11.093-11.3 19.144-22.541 19.144h-30.25c-11.241 0-20.722-8.051-22.541-19.144-.017-.098-.034-.196-.055-.294l-14.587-71.051h104.615zm22.396-34.501 7.504-36.55h17.492l7.504 36.55zm130.337 34.501c-.021.098-.038.195-.055.293-1.82 11.093-11.301 19.145-22.542 19.145h-30.25c-11.241 0-20.722-8.051-22.541-19.144-.017-.098-.034-.196-.055-.294l-14.587-71.051h104.616zm38.56-86.051h-458.028c-6.609 0-11.986-5.377-11.986-11.986s5.377-11.986 11.986-11.986h458.027c6.609 0 11.986 5.377 11.986 11.986s-5.376 11.986-11.985 11.986z"/></g></svg>