<svg id="Capa_1" enable-background="new 0 0 511.37 511.37" height="512" viewBox="0 0 511.37 511.37" width="512" xmlns="http://www.w3.org/2000/svg"><g><g><g><path d="m101.75 102.177s36.848-91.451 75.82-94.616c21.094-1.714 62.689 33.894 118.476 18.901 21.388-5.748 89.359-36.676 107.199 75.715 0 0-64.58 28.544-150.479 28.544s-151.016-28.544-151.016-28.544z" fill="#ebe1dc"/></g></g><g><g><path d="m320.329 19.865c4.977 1.206 9.937 3.164 14.739 6.12 38.583 23.754 28.254 82.762-15.832 93.22-22.246 5.277-50.172 10.031-81.474 11.225 4.923.188 9.925.29 15.003.29 85.899 0 150.479-28.544 150.479-28.544-13.224-83.313-53.992-87.869-82.915-82.311z" fill="#dcd2cd"/></g></g><g><g><path d="m471.56 489.435c-3.394-13.512-10.49-32.479-25.11-47.098-.494-.494-.998-.96-1.496-1.442 13.828-117.386 5.283-196.437-25.32-310.815l-9.198-34.376c-99.471 38.6-209.777 38.632-309.27.089l-.231-.09-9.198 34.376c-30.603 114.378-39.148 193.429-25.32 310.815-.499.481-1.002.948-1.496 1.442-14.62 14.62-21.717 33.586-25.11 47.098-2.138 8.512 5.532 16.209 14.045 14.072 13.439-3.373 32.279-10.417 46.873-24.88 102.833 13.961 207.08 13.961 309.913 0 14.595 14.464 33.435 21.508 46.874 24.881 8.512 2.137 16.181-5.56 14.044-14.072z" fill="#f5deb2"/></g></g><g><g><path d="m471.56 489.435c-3.394-13.512-10.49-32.479-25.11-47.098-.494-.494-.998-.96-1.496-1.442 13.828-117.386 5.283-196.437-25.32-310.815l-9.198-34.376c-9.06 3.516-18.213 6.703-27.437 9.579l6.635 24.797c29.686 110.952 38.602 188.687 26.487 300.395-.289 2.661-.116 5.358.524 7.957.008.031.016.063.023.095.823 3.342 2.38 6.464 4.583 9.108 11.409 13.689 17.312 29.868 20.309 41.801.771 3.068.262 6.028-1.096 8.462 6.109 2.53 11.967 4.335 17.052 5.611 8.512 2.135 16.182-5.562 14.044-14.074z" fill="#f3d69e"/></g></g><g><g><path d="m415.92 78.17c-14.192 7.287-33.407 13.159-53.604 17.829-70.215 16.235-143.313 16.235-213.527 0-20.197-4.67-39.411-10.542-53.604-17.829-4.47-2.295-9.928-1.084-12.921 2.951-7.373 9.94-19.366 29.587-20.661 53.583-.141 2.605 1.341 5.024 3.696 6.146 15.446 7.364 78.001 33.404 190.254 33.404s174.808-26.04 190.254-33.404c2.355-1.123 3.836-3.542 3.696-6.146-1.295-23.997-13.288-43.643-20.661-53.583-2.994-4.035-8.452-5.246-12.922-2.951z" fill="#f3d69e"/></g></g><g><g><path d="m428.841 81.122c-2.993-4.036-8.451-5.247-12.921-2.952-4.424 2.272-9.337 4.406-14.616 6.409 7.316 10.669 17.039 28.653 18.198 50.126.141 2.605-1.341 5.024-3.695 6.146-14.744 7.03-72.414 31.074-175.254 33.246 4.898.103 9.896.159 15 .159 112.253 0 174.808-26.04 190.254-33.405 2.355-1.122 3.836-3.542 3.695-6.146-1.295-23.997-13.287-43.643-20.661-53.583z" fill="#efcb83"/></g></g><g><g><path d="m274.265 350.79c-17.532 11.713-18.579 40.914-18.579 40.914s27.378 10.211 44.91-1.502 18.579-40.914 18.579-40.914-27.378-10.211-44.91 1.502z" fill="#efcb83"/></g></g><g><g><path d="m237.106 350.79c17.532 11.713 18.579 40.914 18.579 40.914s-27.378 10.211-44.91-1.502-18.579-40.914-18.579-40.914 27.378-10.211 44.91 1.502z" fill="#efcb83"/></g></g><g><g><path d="m274.265 300.584c-17.532 11.713-18.579 40.914-18.579 40.914s27.378 10.211 44.91-1.502 18.579-40.914 18.579-40.914-27.378-10.211-44.91 1.502z" fill="#efcb83"/></g></g><g><g><path d="m237.106 300.584c17.532 11.713 18.579 40.914 18.579 40.914s-27.378 10.211-44.91-1.502-18.579-40.914-18.579-40.914 27.378-10.211 44.91 1.502z" fill="#efcb83"/></g></g><g><g><path d="m274.265 249.921c-17.532 11.713-18.579 40.914-18.579 40.914s27.378 10.211 44.91-1.502 18.579-40.914 18.579-40.914-27.378-10.211-44.91 1.502z" fill="#efcb83"/></g></g><g><g><path d="m237.106 249.921c17.532 11.713 18.579 40.914 18.579 40.914s-27.378 10.211-44.91-1.502-18.579-40.914-18.579-40.914 27.378-10.211 44.91 1.502z" fill="#efcb83"/></g></g><g><path d="m478.834 487.608c-3.513-13.986-10.866-33.778-26.008-49.482 7.883-68.807 8.014-125.491.452-183.306-.537-4.108-4.304-7.001-8.409-6.464-4.107.537-7.001 4.302-6.464 8.409 7.527 57.556 7.25 114.073-.899 183.252-.274 2.326.554 4.646 2.238 6.273l.569.544c.278.265.558.53.833.806 13.447 13.447 20.005 31.144 23.139 43.622.515 2.05-.575 3.417-1.067 3.91-.489.489-1.844 1.572-3.877 1.061-12.389-3.109-29.978-9.612-43.42-22.934-1.655-1.64-3.975-2.418-6.288-2.104-102.151 13.869-205.742 13.869-307.896 0-2.312-.314-4.633.465-6.288 2.104-13.441 13.321-31.03 19.824-43.418 22.933-2.034.512-3.389-.573-3.878-1.062-.493-.493-1.583-1.86-1.067-3.909 3.134-12.478 9.691-30.175 23.139-43.622.275-.275.555-.541.834-.806l.568-.544c1.685-1.627 2.513-3.947 2.238-6.273-2.648-22.483-4.422-43.04-5.423-62.846-.208-4.136-3.69-7.33-7.869-7.112-4.137.209-7.32 3.732-7.111 7.869.963 19.064 2.628 38.793 5.083 60.197-15.142 15.704-22.495 35.496-26.008 49.481-1.654 6.585.218 13.377 5.008 18.169 3.639 3.64 8.434 5.594 13.414 5.594 1.566 0 3.15-.193 4.724-.588 13.405-3.365 32.203-10.276 47.601-24.245 101.15 13.413 203.655 13.413 304.804 0 15.398 13.969 34.197 20.881 47.603 24.245 6.574 1.649 13.352-.222 18.135-5.005 4.789-4.789 6.661-11.581 5.008-18.167z"/><path d="m52.526 346.997c.038 4.119 3.388 7.432 7.499 7.432h.069c4.142-.038 7.469-3.426 7.432-7.567-.55-60.536 6.575-115.436 24.452-187.657 31.885 10.296 86.116 22.551 163.574 22.551 77.66 0 131.974-12.319 163.826-22.632 6.075 24.542 10.818 46.75 14.448 67.652.634 3.647 3.802 6.218 7.381 6.218.426 0 .858-.037 1.292-.112 4.081-.708 6.815-4.591 6.106-8.672-3.76-21.646-8.683-44.633-15.008-70.07 6.979-2.651 12.123-4.938 15.437-6.518 5.139-2.45 8.263-7.679 7.958-13.321-1.41-26.104-14.468-47.323-22.127-57.648-5.181-6.982-14.588-9.15-22.37-5.155-.001.001-.001.001-.001.001-2.307 1.184-4.8 2.351-7.475 3.499-7.868-27.611-20.501-46.559-37.631-56.363-24.919-14.263-52.775-5.677-67.74-1.065-2.152.663-4.012 1.237-5.548 1.649-34.296 9.217-62.499-1.882-85.16-10.801-12.862-5.063-23.014-9.059-31.977-8.332-15.983 1.299-41.06 15.527-70.92 74.893-2.658-1.142-5.136-2.303-7.43-3.48-7.784-3.997-17.192-1.827-22.371 5.155-7.659 10.325-20.717 31.543-22.126 57.647-.305 5.642 2.818 10.871 7.957 13.321 3.354 1.599 8.579 3.921 15.686 6.613-18.214 73.326-25.79 131.337-25.233 192.762zm125.65-331.96c5.476-.446 14.653 3.161 25.27 7.339 23.407 9.212 55.468 21.831 94.546 11.329 1.801-.484 3.781-1.095 6.074-1.801 13.688-4.219 36.6-11.281 55.871-.251 13.861 7.933 24.272 24.29 31 48.654-8.818 2.952-18.937 5.754-30.311 8.384-68.739 15.895-141.407 15.895-210.148 0-11.371-2.629-21.489-5.432-30.306-8.383 20.251-39.711 41.674-63.945 58.004-65.271zm-89.889 70.553c.788-1.063 2.25-1.377 3.473-.749 13.327 6.843 31.946 13.055 55.34 18.464 70.951 16.405 145.955 16.405 216.906 0 23.396-5.409 42.015-11.622 55.34-18.464 1.223-.627 2.685-.314 3.473.748 6.58 8.872 17.746 26.927 19.151 48.78-16.965 7.983-77.811 32.386-186.417 32.386s-169.452-24.401-186.417-32.384c1.405-21.854 12.57-39.909 19.151-48.781z"/><path d="m321.796 241.391c-1.266-.471-31.211-11.394-51.697 2.293-6.585 4.399-11.187 10.675-14.413 17.21-3.226-6.535-7.829-12.811-14.413-17.21-20.488-13.688-50.433-2.765-51.697-2.293-3.026 1.129-4.99 4.068-4.874 7.296.042 1.17 1.09 25.303 14.755 40.609-5.64 1.206-9.447 2.596-9.881 2.758-3.026 1.129-4.99 4.068-4.874 7.296.041 1.161 1.076 24.903 14.422 40.226-5.453 1.188-9.123 2.526-9.548 2.684-3.026 1.129-4.99 4.068-4.874 7.296.048 1.349 1.421 33.193 21.909 46.881 7.827 5.229 17.035 6.867 25.497 6.867 10.17 0 19.258-2.364 23.578-3.698 4.32 1.334 13.406 3.698 23.578 3.698 8.461 0 17.671-1.638 25.497-6.867 20.488-13.688 21.861-45.532 21.909-46.881.116-3.228-1.848-6.167-4.874-7.296-.425-.158-4.096-1.496-9.549-2.684 13.346-15.322 14.381-39.065 14.423-40.226.116-3.228-1.848-6.168-4.874-7.296-.434-.162-4.241-1.552-9.881-2.758 13.665-15.306 14.714-39.439 14.755-40.609.116-3.228-1.848-6.167-4.874-7.296zm-56.087 35.096c1.901-6.667 5.652-15.607 12.722-20.33s16.767-4.765 23.652-3.971c3.429.396 6.537 1.037 8.987 1.646-.375 2.498-.973 5.615-1.919 8.933-1.902 6.667-5.653 15.607-12.724 20.33-7.068 4.724-16.763 4.768-23.65 3.971-3.429-.396-6.538-1.037-8.987-1.646.375-2.497.972-5.615 1.919-8.933zm-10.024 22.25c1.732.535 4.231 1.235 7.259 1.882-2.98 3.337-5.36 7.09-7.259 10.938-1.9-3.848-4.28-7.601-7.26-10.938 3.029-.648 5.528-1.347 7.26-1.882zm-46.397 4.113c6.888-.796 16.582-.752 23.652 3.971 7.069 4.723 10.82 13.662 12.722 20.33.946 3.319 1.544 6.437 1.919 8.933-2.45.61-5.559 1.251-8.987 1.647-6.887.795-16.581.752-23.651-3.971-7.069-4.723-10.82-13.663-12.723-20.33-.946-3.319-1.544-6.436-1.919-8.933 2.45-.611 5.559-1.251 8.987-1.647zm46.398 46.55c1.668.515 4.047 1.183 6.925 1.81-2.823 3.241-5.098 6.852-6.925 10.553-1.827-3.701-4.103-7.312-6.925-10.553 2.877-.627 5.256-1.295 6.925-1.81zm17.091-11.67c-3.42-.395-6.522-1.034-8.969-1.642 1.23-8.092 4.768-22.684 14.622-29.268 7.071-4.723 16.767-4.767 23.652-3.971 3.42.395 6.522 1.034 8.969 1.642-1.231 8.092-4.77 22.685-14.624 29.268-7.068 4.723-16.76 4.766-23.65 3.971zm-63.489-85.544c6.89-.793 16.582-.753 23.652 3.971 7.069 4.723 10.82 13.663 12.722 20.33.946 3.319 1.544 6.437 1.919 8.933-2.45.609-5.56 1.25-8.987 1.646-6.884.796-16.58.754-23.651-3.971-7.069-4.723-10.82-13.663-12.723-20.33-.946-3.319-1.544-6.437-1.919-8.933 2.45-.609 5.559-1.25 8.987-1.646zm29.305 135.75c-6.884.797-16.58.753-23.651-3.971-7.069-4.723-10.82-13.663-12.723-20.33-.946-3.319-1.544-6.436-1.919-8.933 2.45-.61 5.56-1.251 8.987-1.647 6.89-.794 16.582-.752 23.652 3.971 7.069 4.723 10.82 13.663 12.722 20.33.946 3.319 1.544 6.436 1.919 8.933-2.449.609-5.559 1.251-8.987 1.647zm70.558-24.301c-1.902 6.668-5.653 15.607-12.724 20.33-7.068 4.724-16.763 4.768-23.65 3.971-3.429-.396-6.538-1.037-8.987-1.647.375-2.497.973-5.615 1.919-8.933 1.901-6.668 5.652-15.607 12.722-20.33 7.07-4.724 16.767-4.764 23.652-3.971 3.429.396 6.537 1.037 8.987 1.647-.375 2.497-.973 5.614-1.919 8.933z"/></g></g></svg>