<svg id="Capa_1" enable-background="new 0 0 512.056 512.056" height="512" viewBox="0 0 512.056 512.056" width="512" xmlns="http://www.w3.org/2000/svg"><g><g><g><path d="m476.742 214.369c-29.446-32.089-90.895-51.007-158.326-49.967 9.71-24.718 23.404-82.024-11.415-86.911-30.198-4.238-56.59 31.622-55.115 94.434-30.103 6.449-59.736 17.168-86.696 32.738-20.236 11.687-38.555 25.908-54.933 41.188-4.469-19.056-15.789-38.943 8.797-70.08 31.173-39.477 5.568-107.478-46.161-84.964-47.185 20.535-65.433 105.827 5.81 190.121-39.692 49.803-68.898 105.576-68.898 105.576-12.696 34.345 29.871 61.34 52.171 41.817 10.737-9.4 28.871-34.006 58.142-63.192 44.587 46.499 113.169 57.587 132.699 35.188 23.106-26.502.931-54.163-43.531-56.075-18.709-.804-39.43-4.777-55.24-10.418 23.867-19.794 51.315-37.728 81.583-48.188 87.859-30.36 133.15 8.574 168.47 34.124 57.449 41.557 145.852-25.61 72.643-105.391z" fill="#f7e5c1"/></g></g><g><g><path d="m89.053 175.772c-24.586 31.136-.141 43.695 15.812 49.22 7.766-7.245-8.636 6.612 0 0-2.595-13.571-1.756-29.029 14.188-49.22 30.371-38.463 6.842-103.987-42.229-86.509 27.152 11.831 35.462 57.087 12.229 86.509z" fill="#f3d69e"/></g></g><g><g><path d="m476.742 214.369c-29.446-32.089-90.895-51.007-158.326-49.966 9.71-24.718 23.404-82.024-11.415-86.911-7.04-.988-13.872.205-20.194 3.409 10.876 6.761 13.169 26.238 12.702 44.238-.493 18.98 13.735 34.998 32.589 37.24 50.434 5.996 90.719 25.919 114.644 51.991 51.74 56.385 22.755 106.466-18.974 116.321 54.119 12.859 112.62-46.963 48.974-116.322z" fill="#f3d69e"/></g></g><g><g><path d="m209.286 344.242c-5.661-.243-11.504-.783-17.34-1.565v2.891c35.786 6.118 51.664 30.901 30.872 54.749-4.231 4.852-10.767 8.131-18.859 9.82 21.716 3.486 40.158.16 48.859-9.82 23.106-26.502.931-54.163-43.532-56.075z" fill="#f3d69e"/></g></g><path d="m482.269 209.298c-29.092-31.703-87.157-51.401-153.249-52.397 3.068-9.637 5.482-19.984 6.751-29.17 2.539-18.388.88-32.757-4.931-42.709-4.893-8.379-12.775-13.551-22.795-14.957-12.625-1.771-24.742 2.14-35.043 11.312-18.159 16.166-28.477 46.766-28.67 84.554-30.123 7.02-57.982 17.853-82.892 32.239-16.051 9.27-31.867 20.662-47.147 33.952-4.149-14.965-6.721-29.706 10.648-51.701 21.32-27 18.076-63.883 2.622-83.942-13.6-17.652-35.154-22.342-57.663-12.547-21.177 9.215-36.9 29.832-43.14 56.565-4.855 20.803-3.775 44.347 3.126 68.088 7.213 24.816 20.384 49.167 39.181 72.457-7.218 9.273-14.543 19.303-21.83 29.892-2.348 3.412-1.486 8.082 1.926 10.43 3.413 2.349 8.082 1.485 10.43-1.926 8.361-12.15 16.763-23.533 24.974-33.834 2.23-2.798 2.173-6.783-.137-9.516-52.276-61.853-47.53-113.044-43.062-132.182 1.423-6.096 3.431-11.774 5.919-16.982 3.861 4.083 9.332 8.896 16.483 12.889 10.612 5.926 21.385 8.182 31.641 8.182 10.522 0 20.492-2.381 29.189-5.607-1.324 10.876-5.499 21.221-11.433 28.736-10.877 13.774-15.372 25.789-16.58 36.442-6.799.74-13.869-.595-17.955-1.615-4.023-1.001-8.091 1.441-9.094 5.46s1.441 8.09 5.46 9.094c4.794 1.197 10.943 2.287 17.44 2.287 1.461 0 2.941-.062 4.426-.183.858 6.105 2.451 11.719 3.938 16.944.795 2.791 1.545 5.427 2.152 8.012.611 2.604 2.563 4.687 5.122 5.464 2.558.777 5.339.132 7.296-1.692 6.389-5.961 12.885-11.566 19.461-16.802-.117 6.554.488 14.576 2.771 23.371.877 3.377 3.919 5.618 7.254 5.618.624 0 1.258-.079 1.89-.243 4.009-1.041 6.416-5.134 5.375-9.144-4.092-15.766-1.625-28.57-.873-31.779 5.857-4.033 11.759-7.774 17.69-11.199 9.074-5.241 18.575-9.977 28.453-14.213-.838 6.618-1.285 15.064-.284 24.417 1.836 17.153 9.003 40.18 31.453 58.852-12.833 4.792-25.801 11.125-38.827 18.934-10.15-5.422-18.514-12.062-24.837-19.791-2.622-3.206-7.348-3.678-10.554-1.056-3.206 2.623-3.679 7.348-1.056 10.554 6.012 7.348 13.464 13.837 22.224 19.381-8.747 5.951-17.506 12.559-26.254 19.815-2.075 1.721-3.067 4.423-2.598 7.078.469 2.654 2.326 4.853 4.865 5.759 7.969 2.844 17.023 5.246 26.398 7.079-11.055 11.075-14.811 23.009-15.823 32.037-.3 2.677-.375 5.2-.311 7.54-12.649-6.874-25.135-16.005-36.258-27.605-1.395-1.454-3.315-2.286-5.33-2.309-1.988-.03-3.953.766-5.379 2.189-16.384 16.336-29.12 31.025-39.354 42.828-7.834 9.035-14.023 16.172-18.433 20.033-8.584 7.516-20.845 5.086-29.188-.658-8.842-6.087-16.362-17.788-11.168-32.473 1.612-3.036 11.56-21.574 26.662-45.458 2.214-3.501 1.17-8.134-2.331-10.347-3.501-2.214-8.134-1.17-10.347 2.331-16.778 26.535-27.073 46.131-27.503 46.952-.149.285-.279.578-.391.879-6.993 18.917-.488 38.729 16.572 50.473 7.783 5.357 16.379 8.031 24.616 8.031 8.456 0 16.533-2.818 22.958-8.443 5.186-4.54 11.673-12.021 19.885-21.492 8.947-10.318 19.835-22.875 33.365-36.729 32.461 30.695 73.92 43.893 101.889 43.215 16.339-.387 28.931-5.128 36.415-13.712 10.907-12.51 13.935-26.339 8.528-38.94-7.306-17.023-29.296-28.349-57.391-29.557-13.016-.56-27.094-2.7-39.732-5.949 23.019-17.587 45.909-30.371 68.202-38.075 14.452-4.994 28.437-8.272 41.565-9.741 4.116-.461 7.08-4.171 6.619-8.288s-4.175-7.08-8.288-6.619c-10.257 1.148-20.957 3.315-31.935 6.434-19.92-13.093-31.355-31.305-33.956-54.208-1.491-13.124.422-24.382 1.648-29.779 12.71-4.551 25.972-8.318 39.725-11.265 3.523-.754 6.011-3.908 5.927-7.51-.838-35.677 7.981-65.273 23.591-79.17 7.008-6.24 14.74-8.818 22.984-7.66 5.536.777 9.326 3.213 11.926 7.666 3.93 6.73 4.661 16.98 3.616 28-17.136 6.042-31.091-.612-31.779-.95-3.685-1.85-8.178-.375-10.049 3.306-1.876 3.693-.404 8.207 3.288 10.084.596.303 10.207 5.068 23.955 5.068 3.717 0 7.744-.366 11.97-1.245-2.008 9.161-4.752 17.945-7.45 24.813-.914 2.328-.609 4.958.816 7.014 1.424 2.056 3.779 3.26 6.28 3.227 32.465-.501 63.949 3.724 91.048 12.217 1.928.604 3.819 1.234 5.689 1.877-20.353 6.681-37.373 20.504-50.025 40.86-2.187 3.518-1.107 8.142 2.411 10.329 1.232.766 2.6 1.131 3.952 1.131 2.507 0 4.957-1.256 6.377-3.542 14.847-23.886 35.722-36.746 62.062-38.258 12.746 6.624 23.3 14.347 31.171 22.924 5.118 5.578 9.495 11.229 13.13 16.885-27.551 1.384-50.852 14.645-67.939 38.876-8.372 11.872-13.527 23.938-16.443 32.25-11.468-8.392-24.36-17.603-39.548-25.108.762-4.57 2.452-13.009 5.728-22.415 1.363-3.912-.704-8.188-4.615-9.55-3.915-1.365-8.187.704-9.55 4.615-2.887 8.289-4.66 15.836-5.7 21.198-10.831-4.086-22.739-7.136-35.977-8.438-4.125-.416-7.793 2.608-8.198 6.73s2.608 7.793 6.73 8.198c36.933 3.631 62.304 22.233 84.689 38.645 2.096 1.537 4.154 3.046 6.179 4.511 12.758 9.229 27.797 14.106 43.109 14.106 2.925 0 5.861-.178 8.792-.538 17.365-2.131 33.113-10.253 44.343-22.871 20.171-22.661 27.167-62.731-13.675-107.24zm-426.737-95.639c5.664-7.092 12.545-12.576 20.352-15.974 16.26-7.077 30.393-4.255 39.794 7.948 4.721 6.128 7.496 13.265 8.686 20.678-39.618 17.412-61.845-3.948-68.832-12.652zm197.683 258.562c3.858 8.988-1.161 17.559-6.05 23.167-4.576 5.249-13.619 8.293-25.463 8.574-12.417.295-27.874-2.539-43.89-8.905-.702-2.983-1.492-8.064-.73-13.992 1.544-12.008 8.618-22.13 21.003-30.115 3.673.367 7.315.632 10.88.785 21.945.944 39.314 8.985 44.25 20.486zm231.529-65.66c-8.677 9.749-21.421 16.293-34.966 17.955-12.834 1.577-25.787-1.263-36.995-8.009 2.153-6.951 7.064-20.278 16.146-33.033 15.901-22.332 37.169-33.152 63.255-32.221 2.589 6.4 4.154 12.729 4.638 18.883 1.08 13.739-3.097 26.334-12.078 36.425z"/></g></svg>