<svg id="Capa_1" enable-background="new 0 0 509.369 509.369" height="512" viewBox="0 0 509.369 509.369" width="512" xmlns="http://www.w3.org/2000/svg"><g><g><g><path d="m357.109 100.537h-254.556v6.436c0 58.268 47.235 105.503 105.503 105.503h117.795c33.559 0 60.764 27.205 60.764 60.764 0 33.559-27.205 60.764-60.764 60.764h-72.914v56.053h104.171c79.949 0 144.76-64.811 144.76-144.76v-.001c0-79.948-64.811-144.759-144.759-144.759z" fill="#f0c267"/></g></g><g><g><path d="m357.109 100.537h-254.556v6.436c0 58.268 47.235 105.503 105.503 105.503h116.85c33.418 0 61.293 26.584 61.704 60 .237 19.284-8.523 36.515-22.333 47.805.495.675.875 1.465 1.152 2.349 6.947 22.137 20.511 41.428 39.733 54.421 1.64 1.109 2.933 2.256 3.769 3.435 54.348-20.845 92.936-73.505 92.936-135.189.001-79.949-64.81-144.76-144.758-144.76z" fill="#eaa85c"/></g></g><g><g><path d="m357.109 100.537h-30c79.949 0 144.76 64.811 144.76 144.76v.001c0 54.244-29.847 101.499-74.005 126.288 2.335 1.924 4.765 3.753 7.299 5.467 1.64 1.109 2.934 2.256 3.769 3.434 54.348-20.845 92.936-73.505 92.936-135.189v-.001c0-79.949-64.811-144.76-144.759-144.76z" fill="#e39f52"/></g></g><g><g><path d="m325.851 212.477c23.89 0 44.549 13.793 54.477 33.844 37.579 18.91 81.821 19.241 119.68.895l1.848-.896c.003-.341.013-.681.013-1.023 0-79.949-64.811-144.76-144.76-144.76h-254.556v6.436c0 58.268 47.235 105.503 105.503 105.503h117.795z" fill="#f0c267"/></g></g><g><g><path d="m357.109 100.537h-30c79.949 0 144.76 64.811 144.76 144.76v.001c0 .342-.148 11.585-.151 11.926 0 0 2.478-.602 28.29-10.008l1.848-.895c.002-.341.013-.681.013-1.023v-.001c-.001-79.949-64.812-144.76-144.76-144.76z" fill="#eaa85c"/></g></g><g><g><path d="m324.816 100.537h-222.263v6.436c0 58.268 47.235 105.503 105.503 105.503h116.76c23.926-33.477 23.926-78.461 0-111.939z" fill="#eaa85c"/></g></g><g><g><circle cx="275.381" cy="146.649" fill="#ab7b64" r="15"/></g></g><g><g><path d="m252.937 364.362v68.61c0 22.585-18.309 40.894-40.894 40.894h-16.459c-2.586 0-4.682-2.096-4.682-4.682v-68.61c0-19.999 16.212-36.211 36.211-36.211h25.824z" fill="#f0c267"/></g></g><g><g><path d="m252.937 364.362v-68.61c0-22.585-18.309-40.894-40.894-40.894h-16.459c-2.586 0-4.682 2.096-4.682 4.682v68.61c0 19.999 16.212 36.211 36.211 36.211h25.824z" fill="#f0c267"/></g></g><g><g><path d="m227.112 364.362c-1.413 0-2.805.089-4.176.247v68.363c0 19.026-12.994 35.015-30.591 39.583.841.808 1.979 1.311 3.238 1.311h16.459c22.585 0 40.894-18.309 40.894-40.893v-68.61h-25.824z" fill="#eaa85c"/></g></g><g><g><path d="m212.043 254.859h-16.459c-1.259 0-2.396.503-3.238 1.311 17.597 4.567 30.591 20.557 30.591 39.583v68.363c1.371.157 2.763.247 4.176.247h25.824v-68.61c0-22.585-18.309-40.894-40.894-40.894z" fill="#eaa85c"/></g></g><g><g><path d="" style="fill:none;stroke:#000;stroke-width:15;stroke-linecap:round;stroke-linejoin:round;stroke-miterlimit:10"/></g></g><g><path d="m297.881 146.649c0-12.407-10.093-22.5-22.5-22.5s-22.5 10.093-22.5 22.5 10.093 22.5 22.5 22.5 22.5-10.093 22.5-22.5zm-30 0c0-4.136 3.364-7.5 7.5-7.5s7.5 3.364 7.5 7.5-3.364 7.5-7.5 7.5c-4.135 0-7.5-3.364-7.5-7.5z"/><path d="m357.109 93.037h-147.558c-4.142 0-7.5 3.358-7.5 7.5s3.358 7.5 7.5 7.5h110.633c20.304 30.097 20.688 67.606.997 96.939h-113.125c-53.683 0-97.423-43.39-97.997-96.939h69.492c4.142 0 7.5-3.358 7.5-7.5s-3.358-7.5-7.5-7.5h-67.905c-13.794 0-25.017-11.223-25.017-25.017s11.223-25.017 25.017-25.017c4.142 0 7.5-3.358 7.5-7.5s-3.358-7.5-7.5-7.5c-22.065 0-40.017 17.952-40.017 40.017 0 9.461 3.307 18.16 8.817 25.017h-40.429c-13.794 0-25.017-11.222-25.017-25.017 0-13.794 11.223-25.017 25.017-25.017 4.142 0 7.5-3.358 7.5-7.5s-3.358-7.5-7.5-7.5c-22.065 0-40.017 17.952-40.017 40.017 0 22.066 17.952 40.017 40.017 40.017h55.049c.574 61.821 51.035 111.939 112.989 111.939h117.795c29.37 0 53.264 23.894 53.264 53.264s-23.894 53.264-53.264 53.264h-65.415v-30.752c0-26.684-21.709-48.394-48.393-48.394h-16.46c-6.717 0-12.183 5.465-12.183 12.182v68.61c0 15.049 7.645 28.345 19.254 36.211-11.609 7.866-19.254 21.162-19.254 36.211v68.61c0 6.718 5.465 12.183 12.183 12.183h16.46c26.684 0 48.393-21.709 48.393-48.393v-35.415h96.672c34.082 0 66.304-11.008 93.182-31.834 3.274-2.537 3.872-7.248 1.335-10.522-2.538-3.274-7.249-3.872-10.522-1.335-9.511 7.369-19.767 13.368-30.574 17.944-.348-.356-.737-.682-1.166-.972-16.859-11.397-29.308-28.152-36.131-48.525 12.861-12.422 20.883-29.823 20.883-49.073 0-4.603-.465-9.099-1.337-13.449 15.551 5.564 31.927 8.354 48.311 8.354 17.913 0 35.83-3.344 52.67-10.012-2.609 27.722-13.61 54.166-31.64 75.561-2.669 3.168-2.265 7.899.902 10.568 1.407 1.186 3.123 1.765 4.829 1.765 2.135 0 4.256-.907 5.739-2.667 23.072-27.379 35.779-62.206 35.779-98.063.002-83.957-68.302-152.26-152.258-152.26zm-158.708 235.114v-65.792h13.642c18.413 0 33.393 14.98 33.393 33.394v61.11h-18.324c-15.831-.001-28.711-12.881-28.711-28.712zm47.035 104.821c0 18.413-14.98 33.393-33.393 33.393h-13.642v-65.792c0-15.831 12.88-28.711 28.711-28.711h18.324zm148.063-55.252c-11.713 3.201-23.913 4.837-36.391 4.837h-96.672v-18.195-22.858h65.415c12.739 0 24.669-3.517 34.885-9.617 7.02 18.345 18.177 33.97 32.763 45.833zm-7.681-137.072c-9.715-17.802-27.131-30.808-47.736-34.552 16.989-30.454 16.852-66.929-.321-98.058h19.348c74.447 0 135.239 59.577 137.209 133.558-34.298 15.723-74.478 15.376-108.5-.948z"/></g></g></svg>