<svg id="Capa_1" enable-background="new 0 0 512 512" height="512" viewBox="0 0 512 512" width="512" xmlns="http://www.w3.org/2000/svg"><g><g><g><path d="m238.592 245.293c0-108.466-12.317-192.197-115.546-192.197-97.58 0-115.546 83.731-115.546 192.197 0 81.777 71.448 173.4 100.91 207.705 6.65 7.743 18.588 7.903 25.406.307 30.581-34.063 104.776-125.99 104.776-208.012z" fill="#696362"/></g></g><g><g><path d="m123.046 53.096c-5.146 0-10.058.247-14.771.704 88.908 8.211 99.974 88.747 99.974 191.493 0 79.741-70.12 168.838-102.12 205.031.783.923 1.548 1.821 2.281 2.674 6.65 7.744 18.588 7.903 25.406.308 30.58-34.062 104.775-125.99 104.775-208.012.001-108.467-12.316-192.198-115.545-192.198z" fill="#5c5756"/></g></g><g><g><path d="m123.046 133.306c84.058 0 107.833 55.521 113.766 134.705 1.153-7.621 1.78-15.211 1.78-22.718 0-108.466-12.317-192.196-115.546-192.196-97.58-.001-115.546 83.73-115.546 192.196 0 8.229.734 16.558 2.066 24.918 6.871-80.352 33.289-136.905 113.48-136.905z" fill="#827b79"/></g></g><g><g><path d="m123.046 53.096c-5.146 0-10.058.247-14.771.704 63.726 5.885 87.465 48.925 95.793 110.674 20.901 23.939 29.496 60.192 32.743 103.536 1.153-7.621 1.78-15.211 1.78-22.718.001-108.465-12.316-192.196-115.545-192.196z" fill="#6e6866"/></g></g><g><g><path d="m504.5 245.293c0-108.466-12.317-192.197-115.546-192.197-97.58 0-115.546 83.731-115.546 192.197 0 81.777 71.448 173.4 100.91 207.705 6.65 7.743 18.588 7.903 25.406.307 30.582-34.063 104.776-125.99 104.776-208.012z" fill="#99908f"/></g></g><g><g><path d="m388.955 53.096c-5.146 0-10.058.247-14.771.704 88.908 8.211 99.975 88.747 99.975 191.493 0 79.741-70.12 168.838-102.12 205.031.783.923 1.548 1.821 2.281 2.674 6.65 7.744 18.588 7.903 25.406.308 30.58-34.062 104.775-125.99 104.775-208.012-.001-108.467-12.318-192.198-115.546-192.198z" fill="#8a8281"/></g></g><g><g><path d="m445.746 304.56c0-53.177-6.038-94.228-56.648-94.228-47.84 0-56.648 41.05-56.648 94.228 0 26.582 15.398 55.286 29.986 76.515 12.482 18.164 39.195 18.358 52.006.425 15.196-21.27 31.304-50.18 31.304-76.94z" fill="#f0c267"/></g></g><g><g><path d="m389.098 210.332c-5.422 0-10.338.533-14.801 1.545 36.354 7.921 41.107 45.533 41.107 92.683 0 26.76-16.108 55.67-31.304 76.941-2.944 4.121-6.627 7.272-10.698 9.48 13.457 7.309 31.28 4.181 41.04-9.48 15.196-21.27 31.304-50.181 31.304-76.941 0-53.178-6.039-94.228-56.648-94.228z" fill="#eaa85c"/></g></g><g><g><path d="m388.954 133.306c84.058 0 107.833 55.521 113.766 134.705 1.153-7.621 1.78-15.211 1.78-22.718 0-108.466-12.317-192.196-115.546-192.196-97.58 0-115.546 83.73-115.546 192.196 0 8.229.734 16.558 2.066 24.918 6.872-80.352 33.29-136.905 113.48-136.905z" fill="#827b79"/></g></g><g><g><path d="m388.955 53.096c-5.146 0-10.059.247-14.771.704 63.726 5.885 87.465 48.925 95.793 110.674 20.901 23.939 29.496 60.192 32.743 103.536 1.153-7.621 1.78-15.211 1.78-22.718 0-108.465-12.316-192.196-115.545-192.196z" fill="#6e6866"/></g></g><g><path d="m203.594 83.65c-3.175 2.552-3.58 7.276-1.146 10.542 11.882 15.94 23.031 39.699 27.057 98.817-3.953-10.028-8.667-18.783-14.202-26.439-19.833-27.43-50.011-40.764-92.258-40.764-40.049 0-70.434 13.938-90.312 41.426-6.411 8.865-11.831 19.271-16.305 31.303 2.575-37.837 8.71-65.475 19.003-86.749 8.137-16.816 18.716-29.095 32.343-37.537 14.83-9.187 32.909-13.653 55.271-13.653 24.308 0 43.556 4.708 58.845 14.393 3.756 2.378 8.819 1.006 10.797-3.131 1.65-3.452.27-7.626-2.968-9.666-17.727-11.167-39.539-16.596-66.674-16.596-24.884 0-46.138 5.35-63.17 15.902-15.896 9.848-28.663 24.569-37.946 43.755-15.166 31.343-21.929 74.533-21.929 140.039 0 23.614 5.687 47.923 14.549 71.467.099.33.227.649.37.962 22.732 59.759 65.725 114.457 87.802 140.163 4.583 5.336 11.244 8.441 18.273 8.518.077.001.154.001.23.002 6.969.011 13.597-2.989 18.252-8.176 14.154-15.773 41.297-47.985 64.637-87.101 27.855-46.684 41.979-89.021 41.979-125.835 0-70.738-5.406-125.068-31.79-160.297-2.536-3.384-7.383-4.017-10.708-1.345zm-75.358 364.644c-1.827 2.035-4.338 3.134-7.078 3.109-2.754-.03-5.261-1.2-7.059-3.292-13.377-15.576-39.049-47.318-60.693-84.907-9.676-16.803-17.536-32.944-23.57-48.365 9.294-20.605 23.348-34.615 42.91-42.73 3.778-1.568 5.897-5.814 4.48-9.651-1.48-4.005-5.97-5.952-9.887-4.344-18.951 7.784-33.524 20.112-44.215 37.406-2.239-7.409-4.015-14.629-5.329-21.655-.456-2.437-.593-4.926-.356-7.394 3.91-40.711 12.902-70.333 27.45-90.45 17.136-23.696 42.701-35.215 78.157-35.215 37.089 0 63.291 11.302 80.102 34.553 13.411 18.548 21.52 45.025 25.276 82.784.683 6.869.25 13.808-1.25 20.546-1.053 4.729-2.299 9.463-3.716 14.187-19.188-29.746-52.098-44.305-100.064-44.375-4.124-.006-7.731 3.164-7.845 7.287-.118 4.239 3.284 7.713 7.497 7.713 63.558 0 84.118 27.214 93.792 48.458-23.833 60.758-70.904 116.622-88.602 136.335z"/><path d="m389.097 202.832c-56.527 0-64.148 51.424-64.148 101.728 0 12.217 2.972 25.716 8.832 40.124 1.561 3.836 5.934 5.684 9.773 4.121 3.837-1.561 5.682-5.936 4.121-9.773-5.127-12.604-7.727-24.202-7.727-34.472 0-30.344 2.972-50.017 9.636-63.789 7.572-15.65 20.128-22.939 39.513-22.939 20.693 0 33.184 7.04 40.498 22.826 7.603 16.406 8.65 40.408 8.65 63.902 0 25.389-16.264 53.483-29.906 72.58-4.631 6.482-11.822 10.185-19.763 10.185-.077 0-.156 0-.233-.001-8.003-.073-15.193-3.899-19.727-10.496-2.268-3.3-4.443-6.626-6.468-9.885-2.188-3.519-6.811-4.6-10.328-2.414-3.518 2.186-4.6 6.81-2.414 10.329 2.146 3.454 4.449 6.975 6.847 10.465 7.344 10.686 18.99 16.882 31.952 17 .12.001.239.002.358.002 12.668 0 24.602-6.137 31.98-16.465 14.918-20.882 32.701-51.938 32.701-81.3 0-25.211-1.217-51.166-10.04-70.209-9.827-21.209-27.526-31.519-54.107-31.519z"/><path d="m492.243 105.366c-18.637-40.219-52.423-59.77-103.288-59.77-24.885 0-46.138 5.35-63.171 15.902-15.895 9.848-28.662 24.569-37.946 43.755-15.165 31.343-21.929 74.533-21.929 140.04 0 83.924 71.835 176.629 102.721 212.592 4.583 5.336 11.244 8.441 18.273 8.518.089.001.178.002.268.002 6.915 0 13.512-2.939 18.136-8.089 14.132-15.74 41.331-47.999 64.715-87.188 27.854-46.685 41.978-89.022 41.978-125.836 0-50.53-2.393-102.455-19.757-139.926zm-190.903 6.42c8.137-16.816 18.717-29.095 32.344-37.537 14.829-9.187 32.909-13.653 55.27-13.653 45.035 0 73.531 16.23 89.679 51.077 10.412 22.469 15.029 51.239 16.999 81.93-3.998-10.272-8.778-19.23-14.419-27.033-19.833-27.43-50.011-40.764-92.258-40.764-40.049 0-70.435 13.938-90.313 41.426-6.409 8.863-11.83 19.263-16.304 31.292 2.576-37.832 8.71-65.467 19.002-86.738zm92.804 336.508c-1.803 2.008-4.273 3.11-6.969 3.11-.035 0-.072 0-.108-.001-2.754-.03-5.261-1.2-7.059-3.292-13.376-15.576-39.049-47.318-60.693-84.907-17.538-30.457-29.118-58.739-34.639-84.492-1.219-5.685-1.439-11.538-.809-17.318 4.155-38.108 12.994-66.101 26.93-85.373 17.136-23.696 42.701-35.215 78.157-35.215 37.089 0 63.291 11.302 80.102 34.553 13.386 18.513 21.489 44.925 25.254 82.571.703 7.028.259 14.13-1.287 21.022-16.27 72.549-78.004 146.091-98.879 169.342z"/></g><g><g><path d="" style="fill:none;stroke:#000;stroke-width:15;stroke-linecap:round;stroke-linejoin:round;stroke-miterlimit:10"/></g></g></g></svg>