<svg id="Capa_1" enable-background="new 0 0 511.948 511.948" height="512" viewBox="0 0 511.948 511.948" width="512" xmlns="http://www.w3.org/2000/svg"><g><g><g><path d="m255.974 7.5c73.684 0 221.052 47.111 221.052 183.267 0 83.21-15.244 199.486-57.991 286.646-22.762 46.411-92.852 29.389-91.867-22.294.051-2.677.076-5.293.076-7.836 0-1.625-.055-3.268-.161-4.925-5.682-88.269-136.535-88.269-142.217 0-.107 1.657-.161 3.299-.161 4.925 0 2.543.025 5.159.076 7.836.985 51.683-69.105 68.705-91.867 22.294-42.747-87.159-57.991-203.436-57.991-286.646-.001-136.156 147.367-183.267 221.051-183.267z" fill="#c5d5f0"/></g></g><g><g><path d="m384.516 463.861c-5.185 10.327-20.75 6.314-20.469-5.238.092-3.792.139-7.576.139-11.341 0-2.395-.08-4.854-.239-7.31-1.952-30.298-15.102-57.049-37.032-75.314-19.35-16.117-44.545-24.993-70.941-24.993s-51.591 8.876-70.941 24.993c-21.93 18.265-35.081 45.016-37.032 75.323-.159 2.446-.239 4.906-.239 7.3 0 3.766.047 7.55.139 11.342.281 11.552-15.283 15.564-20.469 5.237-9.745-19.408-18.45-41.512-25.983-66.113-18.802-61.398-29.586-136.84-29.586-206.982 0-46.706 22.05-84.176 65.539-111.37 41.261-25.801 89.661-34.955 118.572-34.955s77.311 9.155 118.572 34.955c43.489 27.194 65.539 64.664 65.539 111.37 0 70.142-10.783 145.584-29.586 206.982-7.533 24.602-16.238 46.706-25.983 66.114z" fill="#e4a4ad"/></g></g><g><g><path d="m374.546 79.397c-41.261-25.8-89.661-34.955-118.572-34.955-4.551 0-9.587.228-15 .711 28.974 2.585 68.806 12.505 103.572 34.244 43.488 27.194 65.539 64.664 65.539 111.37 0 70.142-10.783 145.584-29.586 206.982-4.968 16.225-10.449 31.356-16.399 45.352.053 1.406.087 2.806.087 4.182 0 3.766-.047 7.549-.139 11.341-.281 11.552 15.284 15.564 20.469 5.238 9.745-19.408 18.45-41.512 25.983-66.113 18.802-61.398 29.586-136.84 29.586-206.982-.001-46.706-22.052-84.176-65.54-111.37z" fill="#dc8995"/></g></g><g><g><path d="m334.2 369.371c4.441-9.692 8.47-20.411 12.048-32.094 10.984-35.869 17.284-79.943 17.284-120.92 0-27.286-12.882-49.176-38.288-65.063-24.105-15.073-52.381-20.421-69.27-20.421s-45.165 5.348-69.27 20.421c-25.406 15.887-38.288 37.777-38.288 65.063 0 40.977 6.3 85.051 17.284 120.92 3.578 11.683 7.607 22.402 12.048 32.094l50.399-26.324 60.527 1.324z" fill="#dc8995"/></g></g><g><g><path d="m325.244 151.295c-24.105-15.073-52.38-20.421-69.27-20.421-4.336 0-9.426.356-15 1.135 16.137 2.255 36.354 8.083 54.27 19.286 25.406 15.887 38.288 37.777 38.288 65.063 0 40.977-6.3 85.051-17.284 120.92-2.004 6.544-4.155 12.774-6.435 18.702l24.387 13.392c4.441-9.692 8.47-20.411 12.048-32.094 10.984-35.869 17.284-79.943 17.284-120.92 0-27.286-12.882-49.176-38.288-65.063z" fill="#d5717f"/></g></g><g><g><ellipse cx="255.974" cy="248.843" fill="#fff" rx="38.918" ry="38.918" transform="matrix(.924 -.383 .383 .924 -75.743 116.899)"/></g></g><g><g><path d="m255.974 209.926c-5.317 0-10.383 1.07-15 3 14.046 5.873 23.917 19.741 23.917 35.918 0 16.176-9.871 30.045-23.917 35.917 4.617 1.93 9.683 3 15 3 21.494 0 38.917-17.424 38.917-38.917 0-21.494-17.423-38.918-38.917-38.918z" fill="#f0f0f0"/></g></g><g><path d="m437.839 73.622c-2.87-2.986-7.618-3.077-10.605-.205-2.984 2.872-3.076 7.62-.204 10.605 28.197 29.309 42.495 65.223 42.495 106.746 0 45.032-4.562 94.93-12.845 140.5-10.032 55.194-24.964 103.253-44.38 142.843-10.636 21.686-31.596 25.22-46.309 21.659-14.739-3.568-31.787-16.318-31.325-40.508.051-2.712.018-11.55-.101-13.385-3.238-50.307-43.01-73.22-78.593-73.22s-75.355 22.913-78.593 73.221c-.118 1.833-.151 10.672-.101 13.385.462 24.19-16.586 36.939-31.325 40.507-14.714 3.56-35.672.028-46.309-21.659-19.416-39.589-34.348-87.649-44.38-142.843-8.283-45.57-12.845-95.468-12.845-140.5 0-30.412 7.741-58.019 23.009-82.055 13.308-20.951 32.271-39.213 56.361-54.278 46.551-29.107 101.377-39.435 134.185-39.435 41.564 0 103.942 15.475 149.604 50.045 3.303 2.501 8.007 1.85 10.507-1.452 2.5-3.303 1.85-8.007-1.452-10.507-51.755-39.183-117.814-53.086-158.659-53.086-34.793 0-92.894 10.925-142.134 41.716-39.424 24.652-86.418 70.522-86.418 149.051 0 45.904 4.647 96.754 13.086 143.183 10.28 56.555 25.646 105.934 45.672 146.766 13.614 27.759 41.602 34.886 63.305 29.632 21.726-5.259 43.384-24.421 42.794-55.371-.05-2.618-.025-10.623.071-12.137 1.187-18.426 8.501-33.774 21.154-44.387 11.377-9.542 26.46-14.797 42.47-14.797s31.093 5.255 42.47 14.797c12.653 10.613 19.968 25.962 21.154 44.386.097 1.515.121 9.52.071 12.137-.59 30.951 21.068 50.113 42.794 55.372 4.319 1.045 8.884 1.601 13.538 1.601 18.732-.001 38.862-8.998 49.767-31.233 20.026-40.832 35.392-90.211 45.672-146.766 8.439-46.428 13.086-97.278 13.086-143.183 0-45.534-15.707-84.947-46.687-117.145z"/><path d="m370.485 476.741c8.483 2.119 16.813-1.705 20.733-9.514 9.946-19.808 18.846-42.444 26.452-67.281 19.011-62.081 29.914-138.323 29.914-209.179 0-49.463-23.235-89.073-69.062-117.729-42.608-26.643-92.647-36.096-122.549-36.096s-79.94 9.454-122.549 36.097c-45.826 28.655-69.062 68.265-69.062 117.729 0 70.855 10.903 147.098 29.914 209.179 7.606 24.837 16.506 47.474 26.452 67.283 3.2 6.374 9.339 10.092 16.098 10.092 1.523 0 3.076-.189 4.636-.578 8.55-2.137 14.149-9.491 13.936-18.301-.091-3.7-.061-15.69.086-17.977 1.818-28.234 14.017-53.109 34.348-70.043 18.006-14.997 41.495-23.256 66.142-23.256 24.646 0 48.136 8.259 66.142 23.256 20.33 16.934 32.528 41.805 34.348 70.033.147 2.295.177 14.286.086 17.987-.215 8.807 5.385 16.161 13.935 18.298zm-229.969-37.243c-.169 2.605-.206 15.488-.113 19.309.058 2.368-1.589 3.136-2.576 3.382-1.15.288-2.727.228-3.692-1.692-9.569-19.059-18.153-40.909-25.515-64.944-18.593-60.716-29.256-135.358-29.256-204.787 0-43.948 20.864-79.279 62.015-105.011 39.915-24.958 86.679-33.814 114.596-33.814s74.681 8.856 114.596 33.814c41.15 25.732 62.015 61.063 62.015 105.011 0 69.429-10.663 144.07-29.256 204.786-7.361 24.035-15.945 45.885-25.515 64.943-.965 1.92-2.542 1.979-3.692 1.692-.987-.247-2.634-1.014-2.576-3.381.093-3.822.056-16.703-.113-19.317-.387-6.012-1.191-11.893-2.39-17.612 7.968-16.902 14.418-33.301 19.151-48.758 15.425-50.368 24.271-112.219 24.271-169.695 0-40.554-19.029-73.016-56.561-96.484-34.737-21.722-75.542-29.429-99.93-29.429s-65.192 7.707-99.93 29.429c-37.531 23.468-56.561 55.93-56.561 96.484 0 57.476 8.847 119.327 24.271 169.694 4.928 16.096 11.802 34.012 18.858 49.154.047.101.108.19.159.287-1.122 5.508-1.884 11.162-2.256 16.939zm201.969-70.283c4.005-9.126 7.678-19.109 10.935-29.741 11.193-36.551 17.613-81.426 17.613-123.117 0-30.043-14.067-54.072-41.811-71.422-25.452-15.915-55.365-21.562-73.247-21.562s-47.795 5.647-73.247 21.562c-27.744 17.349-41.812 41.379-41.812 71.421 0 13.493.671 27.447 1.995 41.472.389 4.125 4.046 7.15 8.172 6.762 4.123-.389 7.151-4.048 6.762-8.171-1.28-13.559-1.929-27.038-1.929-40.062 0-24.528 11.696-44.278 34.765-58.703 22.759-14.231 49.397-19.28 65.294-19.28 15.896 0 42.535 5.049 65.294 19.28 23.068 14.425 34.765 34.176 34.765 58.704 0 40.264-6.18 83.538-16.955 118.724-2.503 8.171-5.258 15.915-8.221 23.132-20.58-16.796-47.118-26.049-74.883-26.049s-54.304 9.253-74.883 26.049c-2.963-7.217-5.718-14.961-8.22-23.132-4.554-14.871-8.304-31.2-11.146-48.534-.671-4.087-4.525-6.854-8.615-6.188-4.087.67-6.857 4.527-6.188 8.615 2.951 17.997 6.855 34.987 11.606 50.499 3.256 10.632 6.93 20.615 10.934 29.741-8.366 9.201-15.07 19.778-19.936 31.368-4.303-10.528-8.281-21.573-11.43-31.856-15.007-49.003-23.613-109.253-23.613-165.302 0-35.039 16.659-63.222 49.514-83.766 32.043-20.037 69.574-27.146 91.977-27.146 22.402 0 59.934 7.11 91.977 27.146 32.854 20.544 49.514 48.727 49.514 83.766 0 56.049-8.606 116.299-23.613 165.302-3.096 10.11-6.972 20.666-11.564 31.531-4.857-11.463-11.516-21.928-19.804-31.043z"/><path d="m255.974 295.261c25.595 0 46.418-20.823 46.418-46.417 0-25.595-20.823-46.418-46.418-46.418s-46.418 20.823-46.418 46.418c0 25.594 20.823 46.417 46.418 46.417zm0-77.835c17.324 0 31.418 14.094 31.418 31.418s-14.094 31.417-31.418 31.417-31.418-14.094-31.418-31.417c0-17.324 14.094-31.418 31.418-31.418z"/></g></g></svg>