<svg id="Capa_1" enable-background="new 0 0 512.001 512.001" height="512" viewBox="0 0 512.001 512.001" width="512" xmlns="http://www.w3.org/2000/svg"><g><g><g><path d="m414.407 307.282c-.003-18.944 5.43-37.491 15.653-53.439l.003-.004c6.799-10.606 15.513-19.882 25.814-27.133 20.379-14.346 36.249-35.396 43.891-61.12 17.84-60.044-16.342-123.956-76.204-142.397-61.309-18.889-126.023 16.061-143.997 77.424-7.491 25.574-5.67 51.663 3.475 74.641 4.784 12.021 7.47 24.774 7.472 37.712.003 18.944-5.43 37.491-15.653 53.439l-.003.004c-6.799 10.606-15.513 19.882-25.814 27.134-20.379 14.346-36.249 35.397-43.891 61.121-17.839 60.044 16.343 123.956 76.205 142.397 61.309 18.887 126.022-16.063 143.996-77.426 7.491-25.573 5.67-51.663-3.475-74.641-4.785-12.021-7.47-24.774-7.472-37.712z" fill="#f3d69e"/></g></g><g><g><path d="m290.532 467.28c-43.611-13.435-68.511-59.972-55.507-103.74 5.411-18.213 16.462-33.605 31.958-44.515 13.366-9.41 24.75-21.31 33.84-35.378l.273-.424c13.468-21.01 20.585-45.306 20.581-70.262-.003-16.535-3.26-33.099-9.681-49.232-6.951-17.465-7.823-36.262-2.523-54.358 12.963-44.255 59.513-69.712 103.768-56.749.382.112.767.228 1.149.345 43.609 13.435 68.509 59.973 55.506 103.741-5.411 18.212-16.462 33.605-31.957 44.514-13.499 9.503-24.976 21.546-34.111 35.797l-.598.932-.037.069c-13.058 20.779-19.953 44.704-19.948 69.265.002 16.531 3.259 33.095 9.68 49.23 6.952 17.466 7.824 36.262 2.523 54.359-6.28 21.438-20.531 39.148-40.131 49.866-19.597 10.718-42.198 13.163-63.634 6.884-.003.001-.768-.226-1.151-.344z" fill="#efcb83"/></g></g><g><g><path d="m414.39 52.969c-.383-.118-.767-.233-1.15-.345-12.91-3.782-26.01-4.272-38.42-2.002 2.81.518 5.619 1.181 8.42 2.002.383.112.767.228 1.15.345 43.609 13.435 68.509 59.972 55.506 103.74-5.411 18.212-16.462 33.605-31.957 44.514-13.499 9.503-24.976 21.546-34.111 35.797l-.598.932-.037.069c-13.058 20.78-19.953 44.704-19.948 69.266.002 16.531 3.259 33.095 9.68 49.23 6.952 17.466 7.824 36.262 2.523 54.359-6.28 21.438-20.531 39.148-40.131 49.866-7.956 4.351-16.41 7.314-25.077 8.908 18.806 3.453 38.072.393 55.077-8.908 19.6-10.719 33.851-28.428 40.131-49.866 5.301-18.096 4.429-36.893-2.523-54.359-6.421-16.135-9.678-32.699-9.68-49.23-.005-24.562 6.89-48.486 19.948-69.266l.037-.069.598-.932c9.135-14.251 20.612-26.294 34.111-35.797 15.495-10.909 26.546-26.302 31.957-44.514 13.003-43.767-11.897-90.305-55.506-103.74z" fill="#edc472"/></g></g><g><g><path d="m436.018 143.298c-7.351 25.095-39.177 58.337-64.272 50.987-25.095-7.351-33.956-52.511-26.606-77.606 7.351-25.095 33.653-39.48 58.749-32.129 25.095 7.35 39.48 33.653 32.129 58.748z" fill="#ab7b64"/></g></g><g><g><path d="m356.34 402.661c7.351-25.095-1.51-70.255-26.606-77.606-25.095-7.351-56.921 25.891-64.272 50.987-7.351 25.095 7.034 51.398 32.129 58.749 25.095 7.35 51.398-7.035 58.749-32.13z" fill="#ab7b64"/></g></g><g><g><path d="m403.889 84.549c-9.643-2.825-19.461-2.429-28.317.54 24.047 8.014 37.63 33.682 30.446 58.209-5.157 17.604-22.357 39.214-40.829 48.012 2.047 1.284 4.231 2.293 6.556 2.975 25.095 7.351 56.921-25.891 64.272-50.987 7.352-25.095-7.033-51.398-32.128-58.749z" fill="#9a6a53"/></g></g><g><g><path d="m329.734 325.055c-7.491-2.194-15.583-.769-23.444 2.974 20.04 12.576 26.719 51.862 20.049 74.632-4.526 15.452-16.241 26.833-30.432 31.59.558.186 1.115.373 1.683.54 25.095 7.351 51.398-7.034 58.748-32.129 7.352-25.097-1.509-70.257-26.604-77.607z" fill="#9a6a53"/></g></g><g><g><path d="m210.49 276.528c-7.097-17.564-9.005-36.796-5.498-55.412l.001-.005c2.332-12.38 6.939-24.244 13.775-34.826 13.523-20.934 20.355-46.395 17.809-73.109-5.945-62.356-61.573-108.816-123.985-103.499-63.921 5.447-110.838 62.087-104.524 125.717 2.631 26.518 14.09 50.027 31.174 67.909 8.938 9.355 16.204 20.174 21.051 32.17 7.097 17.564 9.005 36.796 5.498 55.413l-.001.004c-2.332 12.38-6.939 24.244-13.775 34.826-13.524 20.934-20.356 46.396-17.809 73.11 5.944 62.356 61.573 108.816 123.986 103.497 63.921-5.447 110.836-62.087 104.523-125.716-2.631-26.518-14.09-50.027-31.175-67.909-8.937-9.355-16.203-20.174-21.05-32.17z" fill="#f3d69e"/></g></g><g><g><path d="m262.715 376.607c-2.631-26.518-14.09-50.027-31.174-67.909-8.938-9.355-16.204-20.174-21.051-32.17-7.097-17.564-9.005-36.796-5.498-55.413l.001-.005c2.332-12.38 6.939-24.244 13.775-34.826 13.523-20.934 20.355-46.395 17.809-73.109-5.945-62.355-61.573-108.815-123.985-103.498-1.787.152-3.558.35-5.317.582 51.778 6.88 94.156 48.939 99.301 102.916 2.547 26.714-4.285 52.175-17.809 73.109-6.836 10.582-11.443 22.446-13.775 34.826l-.001.005c-3.507 18.617-1.599 37.848 5.498 55.413 4.847 11.996 12.113 22.815 21.051 32.17 17.085 17.881 28.543 41.391 31.174 67.909 6.137 61.851-38.024 117.092-99.207 125.135 8.037 1.068 16.298 1.296 24.684.582 63.922-5.448 110.838-62.088 104.524-125.717z" fill="#efcb83"/></g></g><g><path d="m425.772 16.02c-31.549-9.72-64.922-6.466-93.97 9.159-29.054 15.628-50.16 41.669-59.433 73.326-7.751 26.46-6.471 53.959 3.703 79.523 4.603 11.567 6.938 23.322 6.94 34.941.004 17.522-4.986 34.581-14.433 49.338-.013.019-.024.038-.037.056-6.42 10.015-14.433 18.442-23.817 25.049-4.496 3.165-8.78 6.647-12.81 10.386-6.15-7.467-11.019-15.533-14.472-24.079-6.568-16.256-8.328-33.954-5.087-51.185.002-.012.004-.023.007-.034 2.202-11.689 6.476-22.504 12.704-32.145 15.05-23.298 21.612-50.232 18.975-77.89-6.335-66.464-65.585-115.925-132.087-110.261-47.311 4.032-88.378 35.468-104.622 80.087-1.417 3.892.589 8.196 4.482 9.613 3.889 1.417 8.196-.59 9.613-4.482 9.529-26.173 28.799-47.163 52.925-59.268-14.895 24.091-21.576 62.036-17.57 102.406 2.648 26.69 9.59 51.516 20.075 71.794 1.333 2.578 3.953 4.057 6.668 4.057 1.16 0 2.337-.27 3.438-.839 3.679-1.902 5.12-6.427 3.217-10.107-9.622-18.609-16.01-41.564-18.473-66.385-4.088-41.202 3.943-80.492 20.46-100.095 5.704-6.771 11.975-10.659 18.658-11.585.526-.057 1.051-.115 1.579-.164 21.47-1.46 44.767 28.905 55.445 72.265.842 3.42 3.905 5.708 7.276 5.708.594 0 1.197-.071 1.799-.219 4.022-.991 6.479-5.054 5.489-9.076-6.911-28.065-18.384-50.757-32.139-65.403 41.863 11.428 74.494 47.856 78.832 93.377 2.314 24.265-3.441 47.892-16.642 68.328-7.282 11.272-12.274 23.88-14.839 37.475-.002.012-.005.025-.007.037-3.781 20.066-1.735 40.679 5.915 59.611 5.067 12.541 12.665 24.162 22.582 34.542 16.672 17.449 26.746 39.396 29.135 63.468 2.857 28.799-5.758 56.919-24.259 79.178-9.734 11.712-21.571 21.026-34.807 27.585 5.65-9.013 10.266-20.157 13.526-33.115 1.01-4.017-1.427-8.092-5.444-9.103-4.016-1.01-8.092 1.427-9.103 5.444-7.17 28.499-20.848 46.21-36.603 47.417-.041.004-.082.008-.123.012-12.291.871-25.782-8.887-37.041-26.778-12.364-19.645-20.727-46.444-23.549-75.46-.401-4.123-4.07-7.138-8.191-6.739-4.122.401-7.14 4.068-6.739 8.191 4.068 41.828 18.535 77.238 37.605 97.52-41.869-11.421-74.512-47.856-78.852-93.384-2.313-24.266 3.442-47.894 16.643-68.328 7.287-11.28 12.282-23.899 14.845-37.507.005-.024.009-.048.013-.072 3.764-20.045 1.714-40.633-5.927-59.544-5.067-12.54-12.664-24.162-22.581-34.542-16.671-17.449-26.746-39.395-29.134-63.468-.649-6.539-.704-13.145-.164-19.632.344-4.128-2.724-7.753-6.851-8.097-4.128-.346-7.753 2.723-8.097 6.852-.616 7.392-.554 14.915.185 22.358 2.722 27.437 14.208 52.455 33.215 72.349 8.6 9.001 15.167 19.026 19.52 29.799 6.572 16.265 8.329 33.975 5.082 51.214-.004.021-.008.042-.012.064-2.206 11.667-6.477 22.462-12.693 32.086-15.05 23.298-21.612 50.232-18.976 77.891 6.005 62.987 59.53 110.704 121.713 110.7 3.432 0 6.898-.146 10.376-.442 27.84-2.372 53.409-13.853 73.391-32.704 13.367 12.419 29.478 21.761 46.928 27.137 11.98 3.69 24.183 5.48 36.249 5.48 35.917 0 70.589-15.863 94.287-44.667 2.632-3.199 2.172-7.925-1.027-10.557-3.196-2.631-7.924-2.172-10.557 1.027-27.777 33.763-72.735 47.259-114.536 34.382-15.27-4.704-29.37-12.874-41.076-23.734.013-.016.027-.031.04-.047 3.489-4.197 6.662-8.581 9.525-13.117 10.223 9.886 22.62 17.247 36.269 21.452.341.105.909.271 1.252.371l-.002.005c8.487 2.486 17.139 3.717 25.743 3.717 15.076-.001 30.002-3.782 43.599-11.218 21.356-11.68 36.887-30.978 43.73-54.339 5.775-19.719 4.823-40.204-2.752-59.24-6.069-15.248-9.147-30.879-9.149-46.458-.005-23.124 6.496-45.696 18.799-65.274.032-.051.068-.112.105-.175l.492-.769c8.609-13.429 19.414-24.771 32.115-33.712 16.891-11.891 28.934-28.666 34.829-48.51 14.17-47.692-12.964-98.404-60.486-113.044-.415-.128-.832-.253-1.249-.375-23.325-6.833-47.946-4.156-69.326 7.536-21.379 11.692-36.915 30.977-43.747 54.303-5.776 19.719-4.825 40.204 2.751 59.24 6.068 15.247 9.147 30.878 9.149 46.459.004 23.518-6.703 46.414-19.389 66.203l-.264.41c-8.565 13.255-19.284 24.464-31.858 33.315-3.951 2.781-7.66 5.87-11.096 9.2-2.915-4.542-6.149-8.907-9.689-13.079 3.606-3.366 7.445-6.496 11.48-9.337 10.962-7.716 20.306-17.527 27.772-29.159.014-.021.028-.043.042-.064 11.02-17.191 16.842-37.07 16.838-57.488-.002-13.525-2.694-27.146-8.003-40.484-8.924-22.423-10.046-46.545-3.246-69.76 8.136-27.774 26.653-50.621 52.145-64.332 25.485-13.709 54.767-16.562 82.447-8.034 55.954 17.238 87.904 76.943 71.223 133.094-6.943 23.367-21.127 43.12-41.02 57.123-10.968 7.721-20.314 17.537-27.782 29.174-.011.016-.021.032-.032.049-11.02 17.192-16.842 37.071-16.838 57.488.002 13.527 2.694 27.148 8.003 40.485 8.924 22.422 10.046 46.545 3.245 69.76-1.552 5.302-3.518 10.506-5.84 15.467-1.757 3.751-.14 8.216 3.611 9.973 1.028.481 2.11.709 3.176.709 2.82 0 5.522-1.598 6.797-4.321 2.647-5.652 4.885-11.577 6.651-17.612 7.751-26.46 6.471-53.958-3.703-79.523-4.603-11.564-6.939-23.32-6.94-34.94-.004-17.523 4.989-34.585 14.438-49.345.011-.016.022-.033.032-.049 6.419-10.013 14.433-18.441 23.817-25.048 22.679-15.966 38.85-38.483 46.764-65.117 19.016-64.004-17.403-132.056-81.183-151.705zm-154.471 309.138c14.154-9.965 26.207-22.561 35.83-37.453l.278-.433c14.245-22.22 21.772-47.916 21.768-74.311-.003-17.489-3.439-34.985-10.212-52.004-6.326-15.894-7.119-33.002-2.294-49.476 5.706-19.481 18.686-35.59 36.551-45.359 17.862-9.77 38.433-12.007 57.907-6.302.351.103.703.208 1.054.316 39.696 12.23 62.361 54.594 50.523 94.437-4.925 16.577-14.982 30.588-29.085 40.517-14.297 10.064-26.445 22.81-36.108 37.882l-.598.932c-.049.077-.105.171-.161.266-13.75 21.94-21.015 47.221-21.01 73.117.002 17.486 3.438 34.982 10.212 52.002 6.326 15.894 7.119 33.003 2.295 49.477-5.718 19.516-18.691 35.638-36.532 45.395s-38.415 11.982-57.927 6.267c-.112-.033-.729-.217-1.052-.316-12.72-3.919-24.144-11.117-33.187-20.878 2.717-5.854 4.96-11.897 6.703-18.087 6.891 9.698 16.949 17.244 29.226 20.84 5.108 1.496 10.315 2.237 15.495 2.237 9.074 0 18.058-2.276 26.241-6.752 12.854-7.03 22.2-18.644 26.318-32.704 8.237-28.123-1.661-78.115-31.694-86.912-23.837-6.983-50.991 14.724-65.302 38.039-1.865-6.943-4.345-13.659-7.386-20.113 3.628-3.919 7.705-7.497 12.147-10.624zm1.358 52.992c3.297-11.254 12.414-24.65 23.229-34.129 9.278-8.132 18.636-12.491 26.492-12.491 1.838 0 3.593.238 5.246.722 20.368 5.966 27.817 46.789 21.517 68.301-2.992 10.215-9.783 18.653-19.121 23.76s-20.106 6.272-30.322 3.28c-21.087-6.177-33.217-28.357-27.041-49.443z"/><path d="m369.637 201.482c3.077.901 6.265 1.346 9.536 1.346 11.56 0 24.138-5.564 36.306-16.23 13.005-11.398 23.633-27.182 27.736-41.193 4.118-14.06 2.515-28.882-4.515-41.735-7.029-12.854-18.645-22.201-32.704-26.319-14.061-4.119-28.882-2.515-41.735 4.515s-22.2 18.644-26.318 32.704c-8.237 28.123 1.661 78.115 31.694 86.912zm-17.299-82.696c2.992-10.214 9.783-18.652 19.121-23.759 5.946-3.252 12.472-4.905 19.064-4.905 3.762 0 7.546.538 11.257 1.625 10.215 2.992 18.653 9.783 23.761 19.121 5.107 9.338 6.272 20.107 3.28 30.322-3.297 11.254-12.414 24.65-23.229 34.128-11.449 10.035-23.022 14.322-31.738 11.769-20.368-5.966-27.817-46.789-21.516-68.301z"/><path d="m181.484 133.597c-4.149-.049-7.511 3.334-7.524 7.476-.054 17.062-2.253 33.473-6.361 47.461-3.128 10.652-5.039 22.677-5.679 35.74-.006.122-.009.245-.009.367v.005c0 4.142 3.358 7.498 7.5 7.498 4.034 0 7.324-3.187 7.493-7.18.584-11.864 2.296-22.699 5.087-32.203 4.501-15.326 6.91-33.183 6.969-51.64.013-4.142-3.334-7.511-7.476-7.524z"/><path d="m173.077 272.786c-4.017 1.012-6.453 5.088-5.441 9.105 3.121 12.387 7.482 24.044 12.964 34.646 9.623 18.61 16.01 41.565 18.473 66.385.384 3.87 3.645 6.76 7.455 6.76.247 0 .497-.012.749-.037 4.122-.409 7.132-4.082 6.723-8.204-2.648-26.689-9.59-51.515-20.075-71.793-4.953-9.579-8.904-20.151-11.743-31.421-1.011-4.017-5.088-6.454-9.105-5.441z"/><path d="m93.876 328.549c.705.207 1.416.306 2.116.306 3.243 0 6.233-2.12 7.193-5.389 3.122-10.632 5.03-22.629 5.674-35.662.241-3.963-2.669-7.458-6.659-7.901-4.13-.459-7.825 2.512-8.283 6.628-.017.153-.029.307-.037.461-.582 11.881-2.294 22.731-5.088 32.248-1.167 3.975 1.109 8.142 5.084 9.309z"/></g></g></svg>