<svg id="Capa_1" enable-background="new 0 0 512.023 512.023" height="512" viewBox="0 0 512.023 512.023" width="512" xmlns="http://www.w3.org/2000/svg"><g><g><g><path d="m155.635 503.121c74.132-9.987 35.248-127.406 112.984-178.539 77.735-51.133 204.171-31.099 204.171-182.22s-224.684-171.723-317.155-79.252c-104.326 104.326-198.936 466.811 0 440.011z" fill="#b04a59"/></g></g><g><g><path d="m135.57 472.533c-27.344-.006-44.077-10.972-54.257-35.554-16.077-38.828-12.641-106.629 9.193-181.369 20.588-70.471 55.034-137.15 87.756-169.872 28.933-28.932 76.627-46.205 127.585-46.205 37.928 0 72.288 9.669 96.753 27.227 25.341 18.187 38.189 43.623 38.189 75.602 0 51.229-16.647 71.966-29.17 83.108-19.06 16.958-47.318 26.321-77.236 36.234-28.139 9.323-57.234 18.964-83.351 36.143-48.351 31.805-60.699 81.237-70.622 120.956-4.176 16.714-8.119 32.501-13.834 42.289-3.965 6.792-7.662 9.298-15.214 10.316-5.541.746-10.847 1.125-15.771 1.125-.007 0-.013 0-.021 0z" fill="#d57b82"/></g></g><g><g><path d="m402.6 66.76c-24.465-17.558-58.825-27.227-96.753-27.227-5.065 0-10.096.178-15.081.514 31.967 2.202 60.621 11.49 81.834 26.714 25.341 18.187 38.189 43.623 38.189 75.602 0 51.229-16.647 71.966-29.17 83.108-19.06 16.958-47.318 20.321-77.236 30.234-28.139 9.323-57.234 24.964-83.351 42.143-48.351 31.805-60.699 81.237-70.622 120.956-4.176 16.714-8.119 32.501-13.834 42.289-3.943 6.754-7.624 9.268-15.09 10.297 4.351.765 9.035 1.143 14.083 1.144h.021c4.925 0 10.23-.379 15.771-1.125 7.552-1.018 11.249-3.524 15.214-10.316 5.715-9.788 9.658-25.575 13.834-42.289 9.923-39.719 22.271-89.151 70.622-120.956 26.116-17.179 55.212-26.819 83.351-36.143 29.918-9.913 58.177-19.276 77.236-36.234 12.523-11.142 29.17-31.879 29.17-83.108.002-31.98-12.847-57.416-38.188-75.603z" fill="#bf6069"/></g></g><g><g><ellipse cx="298.298" cy="162.998" fill="#fff" rx="45.447" ry="45.447" transform="matrix(.707 -.707 .707 .707 -27.887 258.67)"/></g></g><g><g><path d="m315.656 120.997c-10.734-4.436-22.188-4.45-32.351-.893.787.276 1.571.571 2.351.893 23.197 9.587 34.229 36.163 24.643 59.359-5.151 12.463-15.208 21.407-27.009 25.536 22.614 7.934 47.744-3.12 57.009-25.536 9.587-23.197-1.446-49.773-24.643-59.359z" fill="#f0f0f0"/></g></g><g><path d="m455.153 63.336c-15.125-20.205-36.316-36.05-62.985-47.096-37.523-15.543-82.832-20.124-127.578-12.899-45.982 7.424-86.56 26.767-114.259 54.465-1.103 1.103-2.204 2.232-3.305 3.39-2.854 3.002-2.734 7.749.268 10.604 3.001 2.853 7.748 2.735 10.604-.268 1.013-1.065 2.026-2.105 3.041-3.12 25.486-25.487 63.146-43.338 106.042-50.264 42.042-6.787 84.461-2.543 119.446 11.948 50.855 21.065 78.862 60.934 78.862 112.264 0 46.494-11.879 78.718-37.384 101.412-22.838 20.32-53.43 30.457-85.816 41.188-26.633 8.824-54.172 17.949-77.593 33.354-3.46 2.276-4.42 6.927-2.144 10.388 1.44 2.191 3.833 3.379 6.273 3.379 1.414 0 2.845-.4 4.115-1.235 21.77-14.32 48.355-23.129 74.066-31.648 32.407-10.738 65.918-21.841 91.069-44.22 28.54-25.394 42.413-62.231 42.413-112.618.002-30.156-8.455-56.744-25.135-79.024z"/><path d="m248.788 341.103c-3.243-2.574-7.961-2.033-10.537 1.211-19.667 24.771-27.319 55.402-34.07 82.427-10.302 41.237-18.206 66.726-49.546 70.948-41.763 5.625-71.857-6.552-89.448-36.195-11.348-19.121-17.514-45.12-18.328-77.274-.749-29.543 3.234-64.292 11.519-100.488 15.907-69.501 46.96-141.497 81.04-187.894 2.452-3.338 1.733-8.032-1.604-10.484-3.338-2.453-8.032-1.734-10.485 1.604-35.215 47.941-67.237 122.058-83.571 193.427-18.578 81.156-15.548 148.193 8.529 188.763 10.028 16.898 23.65 29.215 40.49 36.607 12.537 5.504 26.895 8.267 42.863 8.267 6.719 0 13.723-.489 20.996-1.469 19.575-2.637 33.985-12.302 44.053-29.547 8.558-14.658 13.166-33.103 18.044-52.63 6.694-26.797 13.616-54.507 31.266-76.736 2.575-3.244 2.033-7.961-1.211-10.537z"/><path d="m416.605 231.073c13.602-12.102 31.685-34.465 31.685-88.711 0-34.533-13.9-62.019-41.316-81.695-25.729-18.465-61.643-28.634-101.126-28.634-52.902 0-102.58 18.094-132.889 48.401-33.546 33.547-68.736 101.482-89.651 173.073-22.297 76.326-25.633 145.986-8.924 186.341 11.351 27.409 30.792 40.178 61.185 40.185h.023c5.255 0 10.897-.401 16.773-1.192 9.791-1.319 15.592-5.235 20.688-13.967 6.254-10.71 10.322-26.996 14.635-44.255 9.606-38.453 21.562-86.31 67.467-116.505 25.291-16.637 53.91-26.119 81.588-35.29 30.674-10.164 59.646-19.764 79.862-37.751zm-169.694 60.508c-50.795 33.413-63.537 84.419-73.779 125.418-4.041 16.174-7.858 31.451-13.032 40.312-2.788 4.778-4.518 5.961-9.737 6.664-5.213.702-10.183 1.058-14.771 1.058h-.02c-24.201-.006-38.355-9.254-47.329-30.923-15.445-37.301-11.907-103.244 9.463-176.397 20.261-69.352 53.963-134.775 85.86-166.672 27.557-27.556 73.27-44.008 122.281-44.008 36.371 0 69.18 9.17 92.38 25.821 23.266 16.698 35.063 40.084 35.063 69.508 0 48.212-15.213 67.324-26.655 77.505-17.902 15.929-45.447 25.055-74.61 34.718-28.6 9.476-58.172 19.274-85.114 36.996z"/><path d="m318.52 114.065c-26.982-11.15-58.005 1.728-69.155 28.711-11.149 26.981 1.729 58.004 28.711 69.155 6.594 2.725 13.426 4.014 20.153 4.014 20.801 0 40.576-12.337 49.002-32.725 5.401-13.07 5.39-27.462-.032-40.523-5.423-13.062-15.608-23.23-28.679-28.632zm14.848 63.426c-7.992 19.338-30.226 28.566-49.564 20.577-19.337-7.992-28.567-30.227-20.576-49.563 6.039-14.613 20.21-23.454 35.119-23.454 4.82 0 9.72.925 14.444 2.877 9.367 3.871 16.667 11.159 20.554 20.52 3.886 9.361 3.895 19.676.023 29.043z"/></g></g></svg>