<svg id="Capa_1" enable-background="new 0 0 512 512" height="512" viewBox="0 0 512 512" width="512" xmlns="http://www.w3.org/2000/svg"><g><g><g><path d="m126.172 504.5h-17.475c-5.517 0-9.99-4.473-9.99-9.99v-381.442h37.455v381.442c0 5.517-4.473 9.99-9.99 9.99z" fill="#7fbd93"/></g></g><g><g><path d="m166.731 93.228c0 34.566-22.071 62.587-49.296 62.587-27.226 0-49.297-28.021-49.297-62.587s49.297-85.728 49.297-85.728 49.296 51.162 49.296 85.728z" fill="#68b181"/></g></g><g><g><path d="m68.267 325.623c4.063 10.724 16.05 16.123 26.774 12.06s16.123-16.05 12.06-26.774-29.494-19.239-29.494-19.239-13.403 23.23-9.34 33.953z" fill="#68b181"/></g></g><g><g><path d="m126.326 211.657c-3.084 11.045 3.369 22.499 14.414 25.584 11.045 3.084 22.499-3.369 25.584-14.414 3.084-11.045-12.349-32.978-12.349-32.978s-24.565 10.763-27.649 21.808z" fill="#68b181"/></g></g><g><g><path d="m126.326 414.4c-3.084 11.045 3.369 22.499 14.414 25.583s22.499-3.369 25.584-14.414c3.084-11.045-12.349-32.978-12.349-32.978s-24.565 10.764-27.649 21.809z" fill="#68b181"/></g></g><g><g><path d="m119.083 99.426c-2.951-16.903-19.901-35.949-34.606-49.701-9.007 14.379-16.339 30.174-16.339 43.503 0 28.53 15.042 52.585 35.602 60.121 12.644-11.713 19.132-32.217 15.343-53.923z" fill="#95c9a6"/></g></g><g><g><path d="m100.786 100.993c-8.12 17.295-8.544 35.748-2.572 49.886 5.907 3.178 12.402 4.937 19.221 4.937 27.226 0 49.296-28.021 49.296-62.588 0-10.794-4.807-23.207-11.419-35.174-18.804 9.153-46.086 24.963-54.526 42.939z" fill="#abd4b9"/></g></g><g><g><path d="m155.312 58.054c-7.161 3.486-15.551 7.939-23.662 13.108 3.126 7.657 5.082 15.19 5.082 22.066 0 27.924-14.407 51.568-34.296 59.627 4.73 1.917 9.768 2.96 15 2.96 27.226 0 49.296-28.021 49.296-62.587-.001-10.794-4.808-23.207-11.42-35.174z" fill="#95c9a6"/></g></g><g><g><path d="m265.032 504.5h-17.475c-5.517 0-9.99-4.473-9.99-9.99v-381.442h37.455v381.442c0 5.517-4.472 9.99-9.99 9.99z" fill="#7fbd93"/></g></g><g><g><path d="m305.591 93.228c0 34.566-22.071 62.587-49.297 62.587s-49.296-28.021-49.296-62.587 49.296-85.728 49.296-85.728 49.297 51.162 49.297 85.728z" fill="#68b181"/></g></g><g><g><path d="m207.127 325.623c4.063 10.724 16.05 16.123 26.774 12.06s16.123-16.05 12.06-26.774-29.494-19.239-29.494-19.239-13.403 23.23-9.34 33.953z" fill="#68b181"/></g></g><g><g><path d="m265.186 211.657c-3.084 11.045 3.369 22.499 14.414 25.584 11.045 3.084 22.499-3.369 25.584-14.414 3.084-11.045-12.349-32.978-12.349-32.978s-24.564 10.763-27.649 21.808z" fill="#68b181"/></g></g><g><g><path d="m265.186 414.4c-3.084 11.045 3.369 22.499 14.414 25.583s22.499-3.369 25.584-14.414c3.084-11.045-12.349-32.978-12.349-32.978s-24.564 10.764-27.649 21.809z" fill="#68b181"/></g></g><g><g><path d="m257.943 99.426c-2.951-16.903-19.901-35.949-34.606-49.701-9.007 14.379-16.339 30.174-16.339 43.504 0 28.53 15.042 52.585 35.602 60.121 12.645-11.714 19.133-32.218 15.343-53.924z" fill="#95c9a6"/></g></g><g><g><path d="m239.646 100.993c-8.12 17.295-8.544 35.748-2.572 49.886 5.906 3.178 12.402 4.937 19.221 4.937 27.226 0 49.297-28.021 49.297-62.588 0-10.794-4.807-23.207-11.419-35.174-18.805 9.153-46.087 24.963-54.527 42.939z" fill="#abd4b9"/></g></g><g><g><path d="m294.172 58.054c-7.161 3.486-15.551 7.939-23.662 13.108 3.126 7.657 5.082 15.19 5.082 22.066 0 27.924-14.407 51.568-34.296 59.627 4.73 1.917 9.768 2.96 14.999 2.96 27.226 0 49.297-28.021 49.297-62.587-.001-10.794-4.808-23.207-11.42-35.174z" fill="#95c9a6"/></g></g><g><g><path d="m403.893 504.5h-17.475c-5.517 0-9.99-4.473-9.99-9.99v-381.442h37.455v381.442c0 5.517-4.473 9.99-9.99 9.99z" fill="#7fbd93"/></g></g><g><g><path d="m444.452 93.228c0 34.566-22.071 62.587-49.297 62.587s-49.296-28.021-49.296-62.587 49.296-85.728 49.296-85.728 49.297 51.162 49.297 85.728z" fill="#68b181"/></g></g><g><g><path d="m345.988 325.623c4.063 10.724 16.05 16.123 26.774 12.06s16.123-16.05 12.06-26.774-29.494-19.239-29.494-19.239-13.403 23.23-9.34 33.953z" fill="#68b181"/></g></g><g><g><path d="m404.047 211.657c-3.084 11.045 3.369 22.499 14.414 25.584 11.045 3.084 22.499-3.369 25.584-14.414 3.084-11.045-12.349-32.978-12.349-32.978s-24.565 10.763-27.649 21.808z" fill="#68b181"/></g></g><g><g><path d="m404.047 414.4c-3.084 11.045 3.369 22.499 14.414 25.583s22.499-3.369 25.584-14.414c3.084-11.045-12.349-32.978-12.349-32.978s-24.565 10.764-27.649 21.809z" fill="#68b181"/></g></g><g><g><path d="m396.804 99.426c-2.951-16.903-19.901-35.949-34.606-49.701-9.007 14.379-16.339 30.174-16.339 43.504 0 28.53 15.042 52.585 35.602 60.121 12.644-11.714 19.132-32.218 15.343-53.924z" fill="#95c9a6"/></g></g><g><g><path d="m378.507 100.993c-8.12 17.295-8.544 35.748-2.572 49.886 5.906 3.178 12.402 4.937 19.221 4.937 27.226 0 49.297-28.021 49.297-62.588 0-10.794-4.807-23.207-11.419-35.174-18.806 9.153-46.088 24.963-54.527 42.939z" fill="#abd4b9"/></g></g><g><g><path d="m433.032 58.054c-7.161 3.486-15.551 7.939-23.662 13.108 3.126 7.657 5.082 15.19 5.082 22.066 0 27.924-14.407 51.568-34.296 59.627 4.73 1.917 9.768 2.96 14.999 2.96 27.226 0 49.297-28.021 49.297-62.587 0-10.794-4.808-23.207-11.42-35.174z" fill="#95c9a6"/></g></g><g><path d="m174.231 93.228c0-15.941-8.769-36.198-26.063-60.209-12.494-17.347-24.814-30.185-25.333-30.723-1.413-1.467-3.363-2.296-5.401-2.296s-3.987.829-5.401 2.296c-.519.538-12.839 13.376-25.333 30.723-17.293 24.011-26.062 44.268-26.062 60.209 0 26.975 12.421 50.424 30.569 62.136v133.707c-5.082-2.376-9.456-3.923-11.218-4.513-3.383-1.134-7.095.274-8.877 3.363-2.535 4.393-14.924 26.987-9.858 40.358 4.277 11.289 15.049 18.251 26.462 18.251 1.159 0 2.325-.077 3.492-.223v64.445c0 4.142 3.358 7.5 7.5 7.5s7.5-3.358 7.5-7.5v-71.046c0-.03-.004-.058-.005-.088 8.684-7.546 12.22-19.997 7.912-31.367-1.417-3.74-4.335-7.114-7.908-10.071v-136.246c3.631.902 7.384 1.381 11.227 1.381s7.597-.479 11.228-1.381v34.587c-4.482 3.849-8.215 8.304-9.56 13.119-3.135 11.225.998 22.791 9.56 29.664v159.96c-4.482 3.849-8.215 8.304-9.56 13.119-2.031 7.272-1.108 14.898 2.598 21.476 1.807 3.206 4.173 5.972 6.962 8.204v52.448c0 1.373-1.117 2.49-2.49 2.49h-17.475c-1.373 0-2.49-1.117-2.49-2.49v-53.757c0-4.142-3.358-7.5-7.5-7.5s-7.5 3.358-7.5 7.5v53.757c0 9.644 7.846 17.49 17.49 17.49h17.475c9.644 0 17.49-7.846 17.49-17.49v-46.397c.902.087 1.805.147 2.706.147 4.797 0 9.537-1.233 13.831-3.652 6.577-3.706 11.318-9.751 13.349-17.022 3.846-13.773-10.52-35.163-13.439-39.311-2.053-2.918-5.877-3.983-9.143-2.554-1.279.56-3.982 1.793-7.303 3.567v-143.917c.902.087 1.805.147 2.706.147 4.796 0 9.537-1.233 13.831-3.652 6.577-3.706 11.318-9.751 13.349-17.023 3.846-13.772-10.52-35.163-13.439-39.311-2.053-2.917-5.877-3.985-9.144-2.554-1.279.561-3.982 1.793-7.302 3.568v-31.183c18.146-11.712 30.567-35.161 30.567-62.136zm-98.951 229.737c-1.341-3.541 1.728-13.297 5.888-21.954 10.152 4.226 17.803 9.608 18.919 12.555 2.591 6.839-.864 14.512-7.704 17.103-6.838 2.591-14.512-.864-17.103-7.704zm76.001 79.273c4.914 8.245 8.837 17.67 7.819 21.314-.953 3.412-3.178 6.249-6.264 7.988-3.087 1.738-6.666 2.172-10.079 1.219-3.412-.953-6.25-3.177-7.988-6.264-1.739-3.087-2.172-6.666-1.219-10.079 1.017-3.643 9.257-9.673 17.731-14.178zm0-202.742c4.914 8.245 8.837 17.67 7.819 21.314-.953 3.412-3.178 6.249-6.265 7.988s-6.666 2.172-10.078 1.219-6.249-3.178-7.988-6.265c-1.739-3.086-2.172-6.665-1.219-10.078 1.017-3.644 9.257-9.673 17.731-14.178zm-33.847-180.924c7.846 8.845 18.67 22.309 27.34 36.4-9.694 5.068-20.203 11.315-29.35 18.456-5.315-7.824-12.437-16.14-21.261-24.808 7.811-11.715 16.614-22.543 23.271-30.048zm-41.796 74.656c0-9.196 4.32-20.32 10.473-31.45 7.621 7.723 13.667 15.021 18.032 21.773-4.29 4.521-7.814 9.288-10.146 14.254-4.945 10.532-7.391 21.852-7.297 32.707-6.862-9.817-11.062-22.914-11.062-37.284zm28.525 52.224c-4.264-12.309-3.047-27.517 3.412-41.272 5.216-11.11 20.931-23.836 44.463-36.082 4.348 8.961 7.193 17.679 7.193 25.13 0 30.376-18.75 55.087-41.796 55.087-4.639 0-9.099-1.016-13.272-2.863z"/><path d="m313.091 93.228c0-15.941-8.768-36.198-26.063-60.209-12.494-17.347-24.814-30.185-25.333-30.723-1.413-1.467-3.363-2.296-5.4-2.296-2.038 0-3.987.829-5.401 2.296-.519.538-12.839 13.376-25.333 30.723-17.294 24.011-26.063 44.269-26.063 60.209 0 26.975 12.421 50.424 30.569 62.136v133.707c-5.081-2.376-9.456-3.923-11.218-4.513-3.383-1.134-7.095.274-8.877 3.363-2.535 4.393-14.924 26.987-9.858 40.358h.001c4.277 11.289 15.049 18.251 26.461 18.251 1.159 0 2.325-.077 3.492-.223v64.445c0 4.142 3.358 7.5 7.5 7.5s7.5-3.358 7.5-7.5v-71.046c0-.03-.004-.058-.004-.088 8.683-7.546 12.22-19.997 7.912-31.367-1.417-3.74-4.335-7.114-7.908-10.071v-136.246c3.631.902 7.385 1.381 11.228 1.381s7.597-.479 11.228-1.381v34.587c-4.482 3.849-8.215 8.304-9.56 13.119-2.031 7.271-1.108 14.898 2.598 21.476 1.806 3.206 4.172 5.972 6.962 8.204v159.944c-4.482 3.849-8.215 8.304-9.56 13.119-2.031 7.272-1.108 14.898 2.598 21.476 1.807 3.207 4.173 5.972 6.962 8.204v52.448c0 1.373-1.117 2.49-2.49 2.49h-17.475c-1.373 0-2.49-1.117-2.49-2.49v-53.757c0-4.142-3.358-7.5-7.5-7.5s-7.5 3.358-7.5 7.5v53.757c0 9.644 7.846 17.49 17.49 17.49h17.475c9.644 0 17.49-7.846 17.49-17.49v-46.397c.902.087 1.805.147 2.706.147 4.797 0 9.537-1.233 13.831-3.652 6.577-3.706 11.318-9.751 13.349-17.022 3.846-13.773-10.52-35.163-13.439-39.311-2.053-2.918-5.878-3.983-9.144-2.554-1.279.56-3.982 1.793-7.303 3.567v-143.917c.902.087 1.805.147 2.706.147 4.796 0 9.537-1.233 13.831-3.652 6.577-3.706 11.318-9.751 13.349-17.023 3.846-13.772-10.52-35.163-13.439-39.311-2.053-2.917-5.876-3.985-9.144-2.554-1.279.561-3.982 1.793-7.302 3.568v-31.183c18.145-11.712 30.566-35.161 30.566-62.136zm-98.95 229.737c-1.341-3.541 1.728-13.297 5.888-21.954 10.152 4.226 17.803 9.608 18.919 12.555 2.591 6.839-.864 14.512-7.704 17.103s-14.512-.864-17.103-7.704zm76.005 79.27c4.915 8.232 8.836 17.656 7.814 21.317-.953 3.412-3.178 6.249-6.264 7.988-3.087 1.738-6.667 2.172-10.079 1.219-3.413-.953-6.249-3.177-7.989-6.264-1.739-3.086-2.172-6.666-1.219-10.079 1.019-3.644 9.262-9.676 17.737-14.181zm.019-202.753c5.671 9.421 8.643 18.291 7.795 21.327-.953 3.412-3.178 6.249-6.265 7.988-3.086 1.739-6.666 2.172-10.078 1.219-3.413-.953-6.249-3.178-7.989-6.264-1.739-3.087-2.172-6.666-1.219-10.079 1.02-3.646 9.274-9.684 17.756-14.191zm-33.87-180.91c7.846 8.845 18.67 22.309 27.34 36.4-9.694 5.068-20.203 11.315-29.35 18.456-5.314-7.824-12.437-16.14-21.261-24.808 7.81-11.715 16.614-22.543 23.271-30.048zm-41.797 74.656c0-9.196 4.32-20.32 10.473-31.45 7.621 7.723 13.667 15.021 18.032 21.773-4.29 4.521-7.814 9.288-10.146 14.254-4.945 10.532-7.391 21.852-7.297 32.707-6.861-9.817-11.062-22.914-11.062-37.284zm28.526 52.224c-4.264-12.309-3.046-27.517 3.412-41.272 5.216-11.11 20.931-23.836 44.463-36.082 4.349 8.961 7.193 17.679 7.193 25.13 0 30.376-18.75 55.087-41.796 55.087-4.64 0-9.1-1.016-13.272-2.863z"/><path d="m424.089 245.519c4.796 0 9.537-1.233 13.831-3.652 6.577-3.706 11.318-9.751 13.349-17.023 3.846-13.772-10.52-35.163-13.439-39.311-2.054-2.917-5.877-3.985-9.144-2.554-1.279.561-3.982 1.793-7.302 3.568v-31.183c18.148-11.712 30.569-35.161 30.569-62.136 0-15.941-8.769-36.198-26.063-60.209-12.494-17.347-24.815-30.185-25.333-30.723-1.415-1.467-3.364-2.296-5.402-2.296s-3.987.829-5.401 2.296c-.519.538-12.839 13.376-25.333 30.723-17.294 24.011-26.063 44.269-26.063 60.209 0 26.975 12.421 50.424 30.569 62.136v133.707c-5.082-2.376-9.456-3.923-11.218-4.513-3.382-1.134-7.095.274-8.877 3.363-2.535 4.393-14.924 26.987-9.858 40.358 4.277 11.289 15.049 18.251 26.461 18.251 1.159 0 2.326-.077 3.492-.223v64.445c0 4.142 3.358 7.5 7.5 7.5s7.5-3.358 7.5-7.5v-71.046c0-.03-.004-.058-.005-.088 8.684-7.546 12.22-19.997 7.912-31.367-1.417-3.74-4.335-7.114-7.908-10.071v-136.246c3.631.902 7.384 1.381 11.227 1.381s7.597-.479 11.228-1.381v34.587c-4.482 3.849-8.215 8.304-9.56 13.119-2.031 7.271-1.108 14.898 2.598 21.476 1.806 3.206 4.172 5.972 6.962 8.204v159.944c-4.482 3.849-8.215 8.304-9.56 13.119-2.031 7.272-1.108 14.898 2.598 21.476 1.807 3.207 4.173 5.972 6.962 8.204v52.448c0 1.373-1.117 2.49-2.49 2.49h-17.476c-1.373 0-2.49-1.117-2.49-2.49v-53.757c0-4.142-3.358-7.5-7.5-7.5s-7.5 3.358-7.5 7.5v53.757c0 9.644 7.846 17.49 17.49 17.49h17.476c9.644 0 17.49-7.846 17.49-17.49v-46.397c.902.087 1.805.147 2.706.147 4.797 0 9.537-1.233 13.831-3.652 6.577-3.706 11.318-9.751 13.349-17.022 3.846-13.773-10.52-35.163-13.439-39.311-2.054-2.918-5.877-3.983-9.144-2.554-1.279.56-3.982 1.793-7.303 3.567v-143.917c.904.087 1.807.147 2.708.147zm-71.088 77.447c-1.342-3.542 1.727-13.297 5.887-21.955 10.152 4.226 17.803 9.608 18.919 12.555 2.591 6.839-.864 14.512-7.704 17.103-6.839 2.593-14.511-.864-17.102-7.703zm42.154-304.394c7.846 8.845 18.67 22.309 27.34 36.4-9.694 5.068-20.203 11.315-29.35 18.456-5.314-7.824-12.437-16.14-21.261-24.808 7.81-11.715 16.614-22.543 23.271-30.048zm-41.796 74.656c0-9.196 4.32-20.32 10.473-31.45 7.621 7.723 13.667 15.021 18.031 21.773-4.29 4.521-7.814 9.288-10.146 14.254-4.945 10.532-7.391 21.852-7.297 32.707-6.861-9.817-11.061-22.914-11.061-37.284zm28.525 52.224c-4.264-12.309-3.047-27.517 3.412-41.272 5.216-11.11 20.931-23.836 44.463-36.082 4.349 8.961 7.193 17.679 7.193 25.13 0 30.376-18.75 55.087-41.796 55.087-4.64 0-9.099-1.016-13.272-2.863zm47.123 256.783c4.915 8.232 8.836 17.656 7.814 21.317-.953 3.412-3.178 6.249-6.264 7.988-3.087 1.738-6.667 2.172-10.079 1.219-3.413-.953-6.25-3.177-7.989-6.264-1.739-3.086-2.172-6.666-1.219-10.079 1.018-3.644 9.262-9.676 17.737-14.181zm.019-202.753c5.671 9.421 8.643 18.291 7.795 21.327-.953 3.412-3.178 6.249-6.265 7.988-3.086 1.739-6.666 2.172-10.078 1.219-3.413-.953-6.25-3.178-7.989-6.264-1.739-3.087-2.172-6.666-1.219-10.079 1.019-3.646 9.274-9.684 17.756-14.191z"/></g></g></svg>