<svg id="Capa_1" enable-background="new 0 0 512 512" height="512" viewBox="0 0 512 512" width="512" xmlns="http://www.w3.org/2000/svg"><g><g><g><path d="m292.707 376.62h-73.413c-85.196 0-154.261-69.065-154.261-154.261v-146.719c0-7.192 5.83-13.023 13.023-13.023h355.89c7.192 0 13.023 5.831 13.023 13.023v146.719c-.001 85.196-69.066 154.261-154.262 154.261z" fill="#f7e07b"/></g></g><g><g><path d="m433.945 62.617h-30c7.192 0 13.023 5.83 13.023 13.022v146.719c0 85.196-69.065 154.261-154.261 154.261h30c85.196 0 154.261-69.065 154.261-154.261v-146.718c0-7.192-5.83-13.023-13.023-13.023z" fill="#f2d062"/></g></g><g><g><path d="m241.056 265.156h-72.841c-7.16 0-12.964-5.804-12.964-12.964v-78.254c0-4.333 2.165-8.38 5.769-10.784l36.421-24.297c4.356-2.906 10.033-2.906 14.389 0l36.421 24.297c3.605 2.405 5.77 6.451 5.77 10.784v78.254c-.001 7.16-5.805 12.964-12.965 12.964z" fill="#95c9a6"/></g></g><g><g><path d="m248.251 163.154-36.421-24.297c-4.356-2.906-10.033-2.906-14.389 0l-7.806 5.208 28.615 19.089c3.605 2.405 5.77 6.451 5.77 10.784v78.254c0 7.16-5.804 12.964-12.964 12.964h30c7.16 0 12.964-5.804 12.964-12.964v-78.254c0-4.333-2.165-8.379-5.769-10.784z" fill="#7fbd93"/></g></g><g><g><path d="m204.636 136.678v-88.9" fill="#faf0b0"/></g></g><g><g><path d="m476.753 420.803h-441.505c-15.325 0-27.748-12.423-27.748-27.748v-6.113c0-5.701 4.622-10.323 10.323-10.323h476.355c5.701 0 10.323 4.622 10.323 10.323v6.113c-.001 15.325-12.424 27.748-27.748 27.748z" fill="#c5d5f0"/></g></g><g><g><path d="m400.507 464.222h-289.014c-15.215 0-27.55-12.335-27.55-27.55v-15.869h344.114v15.869c0 15.216-12.334 27.55-27.55 27.55z" fill="#8face0"/></g></g><g><g><path d="m474.5 376.62v16.436c0 15.325-12.423 27.748-27.748 27.748h30c15.325 0 27.748-12.423 27.748-27.748v-6.113c0-5.701-4.622-10.323-10.323-10.323z" fill="#b8c9ea"/></g></g><g><g><path d="m398.057 420.803v15.869c0 15.215-12.335 27.55-27.55 27.55h30c15.215 0 27.55-12.335 27.55-27.55v-15.869z" fill="#688ed5"/></g></g><path d="m494.178 369.121h-133.49c55.325-25.73 93.78-81.835 93.78-146.762v-146.719c0-11.316-9.207-20.523-20.523-20.523h-103.891c-4.142 0-7.5 3.358-7.5 7.5s3.358 7.5 7.5 7.5h103.892c3.045 0 5.523 2.478 5.523 5.523v146.719c0 80.925-65.837 146.762-146.761 146.762h-73.414c-80.924 0-146.761-65.837-146.761-146.762v-146.719c0-3.045 2.478-5.523 5.523-5.523h119.081v60.487c-1.334.528-2.628 1.194-3.857 2.014l-36.421 24.297c-5.702 3.804-9.107 10.169-9.107 17.024v78.253c0 11.284 9.18 20.464 20.464 20.464h72.841c11.284 0 20.464-9.18 20.464-20.464v-78.253c0-6.856-3.405-13.22-9.107-17.024l-36.42-24.296c-1.229-.82-2.523-1.486-3.857-2.014v-60.488h87.918c4.142 0 7.5-3.358 7.5-7.5s-3.358-7.5-7.5-7.5h-87.918v-7.339c0-4.142-3.358-7.5-7.5-7.5s-7.5 3.358-7.5 7.5v7.339h-119.082c-11.316 0-20.523 9.207-20.523 20.523v146.719c0 64.927 38.455 121.032 93.78 146.762h-133.489c-9.828 0-17.823 7.995-17.823 17.822v6.113c0 19.436 15.812 35.248 35.248 35.248h41.195v8.369c0 19.327 15.723 35.05 35.05 35.05h112.759c4.142 0 7.5-3.358 7.5-7.5s-3.358-7.5-7.5-7.5h-112.759c-11.056 0-20.05-8.994-20.05-20.05v-8.369h329.114v8.369c0 11.056-8.994 20.05-20.05 20.05h-146.255c-4.142 0-7.5 3.358-7.5 7.5s3.358 7.5 7.5 7.5h146.255c19.327 0 35.05-15.723 35.05-35.05v-8.369h41.195c19.436 0 35.248-15.812 35.248-35.248v-6.113c0-9.827-7.995-17.822-17.822-17.822zm-250.09-199.728c1.522 1.016 2.432 2.715 2.432 4.545v78.253c0 3.013-2.451 5.464-5.464 5.464h-72.841c-3.013 0-5.464-2.451-5.464-5.464v-78.253c0-1.831.909-3.53 2.432-4.545l36.421-24.297c.921-.614 1.976-.921 3.032-.921s2.111.307 3.032.922zm252.912 223.663c0 11.165-9.083 20.248-20.248 20.248h-441.504c-11.165 0-20.248-9.083-20.248-20.248v-6.113c0-1.556 1.266-2.822 2.823-2.822h201.471 73.414 201.471c1.556 0 2.822 1.266 2.822 2.822v6.113z"/></g></svg>