<svg id="Capa_1" enable-background="new 0 0 512 512" height="512" viewBox="0 0 512 512" width="512" xmlns="http://www.w3.org/2000/svg"><g><g><g><path d="m396.61 504.5h-281.223c-20.927 0-37.893-16.965-37.893-37.892v-305.78c0-52.828 42.826-95.653 95.653-95.653h165.701c52.828 0 95.653 42.826 95.653 95.653v305.779c.002 20.928-16.963 37.893-37.891 37.893z" fill="#fff"/></g></g><g><g><path d="m338.849 65.175h-30c52.828 0 95.653 42.826 95.653 95.653v305.779c0 20.928-16.965 37.893-37.892 37.893h30c20.927 0 37.892-16.965 37.892-37.893v-305.779c.001-52.827-42.825-95.653-95.653-95.653z" fill="#f0f0f0"/></g></g><g><g><path d="m338.849 65.175h-165.701c-52.828 0-95.653 42.826-95.653 95.653v293.428h357.008v-293.428c0-52.827-42.826-95.653-95.654-95.653z" fill="#f7e07b"/></g></g><g><g><path d="m338.849 65.175h-30c52.828 0 95.653 42.826 95.653 95.653v293.428h30v-293.428c.001-52.827-42.825-95.653-95.653-95.653z" fill="#f2d062"/></g></g><g><g><path d="m443.469 88.597-33.18-23.422h-319.056l-23.053 24.013c-1.131 1.178-.784 3.116.686 3.828l38.729 18.777c16.301 7.903 35.28 8.109 51.748.562l11.815-5.416c17.362-7.958 37.457-7.276 54.24 1.841 17.82 9.68 39.299 9.817 57.241.363l6.51-3.43c17.617-9.282 38.668-9.329 56.326-.124l8.092 4.218c17.411 9.076 38.138 9.165 55.627.239l33.982-17.345c1.611-.821 1.771-3.061.293-4.104z" fill="#8face0"/></g></g><g><g><path d="m443.469 88.597-33.18-23.422h-30l2.012 1.42c15.641 11.041 13.946 34.748-3.106 43.452-4.051 2.068-8.281 3.63-12.598 4.73 14.153 3.616 29.309 2.052 42.598-4.73l33.982-17.345c1.61-.822 1.77-3.062.292-4.105z" fill="#688ed5"/></g></g><g><g><path d="m391.247 7.5h-280.664c-10.492 0-18.997 8.505-18.997 18.997v38.678h318.658v-38.678c0-10.492-8.505-18.997-18.997-18.997z" fill="#b8c9ea"/></g></g><g><g><path d="m391.247 7.5h-30c10.492 0 18.997 8.505 18.997 18.997v38.678h30v-38.678c0-10.492-8.505-18.997-18.997-18.997z" fill="#8face0"/></g></g><g><g><path d="m300.458 241.609v-38.773c0-3.887-2.074-7.48-5.44-9.423l-33.579-19.387c-3.366-1.944-7.514-1.944-10.881 0l-33.579 19.387c-3.367 1.944-5.441 5.536-5.441 9.423v38.773c0 3.887 2.074 7.48 5.441 9.423l33.579 19.387c3.367 1.944 7.514 1.944 10.881 0l33.579-19.387c3.366-1.943 5.44-5.535 5.44-9.423z" fill="#f7eaad"/></g></g><g><g><path d="m344.918 318.614v-38.773c0-3.887-2.074-7.48-5.44-9.423l-33.579-19.387c-3.367-1.944-7.514-1.944-10.881 0l-33.579 19.387c-3.366 1.944-5.44 5.536-5.44 9.423v38.773c0 3.887 2.074 7.479 5.44 9.423l33.579 19.387c3.367 1.944 7.514 1.944 10.881 0l33.579-19.387c3.366-1.944 5.44-5.536 5.44-9.423z" fill="#f7eaad"/></g></g><g><g><path d="m255.999 318.614v-38.773c0-3.887-2.074-7.48-5.441-9.423l-33.579-19.387c-3.367-1.944-7.514-1.944-10.881 0l-33.579 19.387c-3.367 1.944-5.441 5.536-5.441 9.423v38.773c0 3.887 2.074 7.479 5.441 9.423l33.579 19.387c3.367 1.944 7.514 1.944 10.881 0l33.579-19.387c3.367-1.944 5.441-5.536 5.441-9.423z" fill="#f7eaad"/></g></g><g><g><path d="" style="fill:none;stroke:#000;stroke-width:15;stroke-linecap:round;stroke-linejoin:round;stroke-miterlimit:10"/></g></g><g><path d="m447.795 82.469-30.051-21.212v-34.76c0-14.61-11.886-26.497-26.496-26.497h-187.946c-4.142 0-7.5 3.358-7.5 7.5s3.358 7.5 7.5 7.5h187.946c6.339 0 11.496 5.158 11.496 11.497v31.178h-303.658v-31.178c0-6.339 5.158-11.497 11.497-11.497h62.719c4.142 0 7.5-3.358 7.5-7.5s-3.358-7.5-7.5-7.5h-62.719c-14.61 0-26.497 11.887-26.497 26.497v35.293l-21.315 22.204c-2.188 2.278-3.162 5.496-2.605 8.605.557 3.11 2.586 5.789 5.428 7.166l18.51 8.974c-9.249 15.758-14.109 33.597-14.109 52.089v305.779c0 25.03 20.363 45.393 45.393 45.393h281.222c25.029 0 45.393-20.363 45.393-45.393v-305.779c0-18.429-4.83-36.224-14.023-51.949l18.607-9.497c3.116-1.591 5.125-4.625 5.375-8.115s-1.308-6.778-4.167-8.798zm-20.792 78.359v285.976h-185.464c-4.142 0-7.5 3.358-7.5 7.5s3.358 7.5 7.5 7.5h185.464v4.803c0 16.759-13.634 30.393-30.393 30.393h-281.223c-16.758 0-30.393-13.634-30.393-30.393v-4.803h126.544c4.142 0 7.5-3.358 7.5-7.5s-3.358-7.5-7.5-7.5h-126.543v-285.976c0-16.203 4.364-31.814 12.656-45.521l6.672 3.235c9.419 4.567 19.573 6.854 29.737 6.854 9.672-.001 19.354-2.072 28.409-6.223l11.815-5.416c15.135-6.937 32.905-6.334 47.535 1.613 20.068 10.902 44.112 11.055 64.318.408l6.51-3.43c15.437-8.133 33.892-8.173 49.363-.109l8.092 4.218c19.524 10.179 42.892 10.278 62.503.269l1.989-1.015c8.132 13.611 12.409 29.081 12.409 45.117zm-21.218-57.461c-15.299 7.808-33.522 7.729-48.751-.209l-8.092-4.219c-19.837-10.34-43.497-10.289-63.289.14l-6.51 3.43c-15.759 8.302-34.512 8.184-50.165-.318-18.758-10.19-41.54-10.962-60.945-2.068l-11.815 5.416c-14.483 6.639-31.014 6.46-45.352-.492l-32.421-15.721 15.985-16.651h313.479l24.343 17.183z"/><path d="m343.227 263.922-33.578-19.387c-.589-.34-1.197-.637-1.813-.906.075-.667.121-1.34.121-2.02v-38.773c0-6.547-3.521-12.646-9.19-15.918l-33.578-19.387c-5.671-3.273-12.713-3.273-18.381 0l-33.579 19.387c-5.669 3.272-9.191 9.372-9.191 15.918v38.773c0 .68.047 1.353.121 2.02-.616.27-1.223.566-1.812.906l-33.578 19.386c-5.669 3.272-9.191 9.372-9.191 15.918v38.773c0 6.546 3.521 12.646 9.19 15.918l33.579 19.386c2.835 1.637 6.013 2.455 9.191 2.455s6.356-.818 9.19-2.455l33.579-19.386c.589-.34 1.149-.718 1.691-1.116.541.399 1.101.776 1.691 1.116l33.578 19.387c2.835 1.636 6.013 2.455 9.191 2.455s6.355-.818 9.189-2.455l33.58-19.386c5.668-3.273 9.189-9.373 9.189-15.918v-38.773c.002-6.546-3.52-12.645-9.189-15.918zm-124.188-61.086c0-1.204.648-2.326 1.691-2.928l33.579-19.387c1.04-.601 2.337-.602 3.381 0l33.579 19.387c1.042.602 1.689 1.723 1.689 2.927v38.773c0 1.2-.643 2.317-1.68 2.92-.004.002-.007.004-.011.006l-33.577 19.386c-.59.34-1.15.718-1.692 1.117-.541-.398-1.101-.776-1.691-1.116l-33.578-19.387c-.005-.003-.01-.005-.014-.008-1.034-.604-1.676-1.72-1.676-2.918zm27.769 118.706-33.579 19.386c-1.042.603-2.337.602-3.38 0l-33.579-19.386c-1.042-.602-1.69-1.724-1.69-2.928v-38.774c0-1.204.647-2.326 1.69-2.928l33.579-19.387c.521-.301 1.106-.452 1.69-.452.582 0 1.163.15 1.682.448.003.001.005.003.008.005.007.004.014.006.021.01l33.559 19.375c1.042.602 1.69 1.724 1.69 2.927v38.773c0 1.207-.648 2.329-1.691 2.931zm90.61-2.928c0 1.204-.647 2.326-1.69 2.928l-33.58 19.386c-1.04.602-2.336.602-3.38 0l-33.578-19.387c-1.043-.602-1.69-1.724-1.69-2.928v-38.773c0-1.204.647-2.326 1.69-2.928l33.548-19.37c.01-.005.02-.009.03-.015.003-.002.006-.004.009-.006 1.042-.596 2.332-.596 3.372.004l33.579 19.387c1.043.602 1.69 1.724 1.69 2.928z"/><path d="m344.918 383.727h-177.838c-4.142 0-7.5 3.358-7.5 7.5s3.358 7.5 7.5 7.5h177.838c4.143 0 7.5-3.358 7.5-7.5s-3.358-7.5-7.5-7.5z"/></g></g></svg>