<svg id="Capa_1" enable-background="new 0 0 512 512" height="512" viewBox="0 0 512 512" width="512" xmlns="http://www.w3.org/2000/svg"><g><g><g><path d="m331.072 504.5h-130.91c-11.333 0-20.704-8.828-21.38-20.14l-37.651-383.807c-.995-10.147 6.977-18.94 17.173-18.94h214.626c10.196 0 18.168 8.793 17.173 18.94l-37.651 383.807c-.676 11.312-10.047 20.14-21.38 20.14z" fill="#fafafa"/></g></g><g><g><path d="m372.93 81.613h-30c10.196 0 18.168 8.793 17.173 18.94l-37.651 383.807c-.676 11.313-10.048 20.14-21.38 20.14h30c11.333 0 20.704-8.828 21.38-20.14l37.651-383.807c.996-10.147-6.977-18.94-17.173-18.94z" fill="#f0f0f0"/></g></g><g><g><path d="m146.618 156.488 30.278 308.642h177.443l30.277-308.642z" fill="#7fbd93"/></g></g><g><g><path d="m354.616 156.488-30.277 308.642h30l30.277-308.642z" fill="#68b181"/></g></g><g><g><path d="m270.389 214.02c23.187 22.652 22.698 43.584 9.498 57.096-13.201 13.512-34.115 14.489-57.302-8.163s-18.081-65.482-18.081-65.482 42.698-6.104 65.885 16.549z" fill="#abd4b9"/></g></g><g><g><path d="m257.746 396.472c-28.062-16.226-32.757-36.63-23.301-52.983 9.456-16.354 29.481-22.464 57.543-6.238s33.69 58.99 33.69 58.99-39.87 16.457-67.932.231z" fill="#abd4b9"/></g></g><g><path d="m391.27 82.24c-4.683-5.165-11.367-8.127-18.339-8.127h-77.422c-4.143 0-7.5 3.358-7.5 7.5s3.357 7.5 7.5 7.5h77.422c2.787 0 5.354 1.137 7.227 3.203 1.873 2.065 2.754 4.731 2.482 7.505l-4.823 49.168h-138.374l-14.028-59.875h40.094c4.143 0 7.5-3.358 7.5-7.5s-3.357-7.5-7.5-7.5h-43.608l-11.793-50.336c-3.211-14.001-15.484-23.778-29.847-23.778h-58.446c-4.143 0-7.5 3.358-7.5 7.5s3.357 7.5 7.5 7.5h58.446c7.327 0 13.588 4.988 15.233 12.164l10.999 46.949h-48.19c-6.972 0-13.656 2.962-18.339 8.127-4.683 5.164-6.979 12.106-6.298 19.045l37.638 383.675c.987 15.175 13.633 27.04 28.857 27.04h130.91c15.224 0 27.869-11.864 28.856-27.039l37.639-383.677c.682-6.938-1.614-13.88-6.296-19.044zm-240.193 10.075c1.872-2.065 4.439-3.203 7.227-3.203h51.704l14.028 59.875h-70.618l-4.823-49.167c-.271-2.774.609-5.439 2.482-7.505zm196.462 365.315h-84.042c-4.143 0-7.5 3.358-7.5 7.5s3.357 7.5 7.5 7.5h82.57l-1.079 10.997c-.01.095-.018.189-.022.285-.439 7.339-6.542 13.088-13.893 13.088h-130.91c-7.352 0-13.455-5.749-13.893-13.087-.005-.095-.013-.19-.023-.285l-1.079-10.997h48.33c4.143 0 7.5-3.358 7.5-7.5s-3.357-7.5-7.5-7.5h-49.801l-28.807-293.643h221.455z"/><path d="m285.251 276.357c14.088-14.421 18.96-39.78-9.621-67.702-25.536-24.947-70.295-18.879-72.189-18.609-3.363.48-5.983 3.163-6.386 6.537-.227 1.898-5.249 46.786 20.287 71.734 14.729 14.391 28.57 19.914 40.456 19.914 11.178-.001 20.625-4.885 27.453-11.874zm-73.666-71.981c11.786-.635 38.074-.122 53.563 15.009 14.998 14.652 19.789 28.978 13.856 40.385l-13.815-13.497c-2.964-2.896-7.713-2.839-10.606.123-2.895 2.963-2.839 7.711.124 10.606l13.815 13.496c-11.267 6.198-25.699 1.741-40.696-12.911-15.427-15.07-16.58-41.409-16.241-53.211z"/><path d="m333.114 395.263c-.249-1.896-6.465-46.634-37.371-64.504-34.583-19.996-57.691-8.48-67.786 8.969-.001.002-.003.005-.005.007s-.002.005-.004.007c-10.086 17.454-8.542 43.226 26.045 63.223 10.599 6.129 22.483 8.164 33.603 8.164 21.303-.001 39.783-7.475 40.944-7.955 3.14-1.297 5.017-4.543 4.574-7.911zm-71.614-5.284c-18.151-10.496-26.331-23.194-23.399-35.713l16.72 9.668c1.182.684 2.473 1.009 3.747 1.009 2.59 0 5.11-1.344 6.5-3.747 2.073-3.586.847-8.174-2.739-10.247l-16.711-9.663c4.3-4.024 9.791-6.056 16.231-6.056 7.616 0 16.552 2.828 26.386 8.514 18.67 10.795 26.29 36.034 28.875 47.555-11.259 3.522-36.865 9.52-55.61-1.32z"/></g></g></svg>