<svg id="Capa_1" enable-background="new 0 0 512 512" height="512" viewBox="0 0 512 512" width="512" xmlns="http://www.w3.org/2000/svg"><g><g><g><path d="m504.5 185.076-273.577-104.838c-5.737-2.199-11.821-3.356-17.965-3.419l-19.957-.203c-105.64 0-158.955 65.144-177.598 94.459-5.201 8.177-7.903 17.695-7.903 27.386v34.371z" fill="#f7e07b"/></g></g><g><g><path d="m163.001 96.615 19.957.203c6.144.063 12.228 1.221 17.965 3.419l237.864 91.152 65.713-6.314-273.577-104.837c-5.737-2.199-11.821-3.356-17.965-3.419l-19.957-.203c-60.431 0-103.732 21.319-133.222 45.052 26.71-14.509 60.73-25.053 103.222-25.053z" fill="#f2d062"/></g></g><g><g><path d="m498.527 320.632c-26.438 0-47.871-21.432-47.871-47.871s21.433-47.871 47.871-47.871h.19c3.193.002 5.783-2.586 5.783-5.779v-34.035h-477.645c-10.69 0-19.356 8.666-19.356 19.356v82.896c0 2.21 1.723 3.993 3.926 4.172 24.602 1.997 43.945 22.596 43.945 47.712s-19.343 45.715-43.945 47.712c-2.203.179-3.926 1.962-3.926 4.172v35.041c0 5.107 4.14 9.248 9.248 9.248h478.505c5.107 0 9.248-4.14 9.248-9.248v-99.597c0-3.252-2.66-5.91-5.912-5.908z" fill="#f7eaad"/></g></g><g><g><path d="m498.527 224.89h.19c3.194 0 5.783-2.589 5.783-5.783v-34.031h-30v33.974c0 3.225-2.615 5.84-5.84 5.84h-.133c-26.438 0-47.871 21.432-47.871 47.871 0 26.438 21.433 47.871 47.871 47.871 3.285 0 5.973 2.688 5.973 5.973v99.533c0 5.107-4.14 9.248-9.248 9.248h30c5.107 0 9.248-4.14 9.248-9.248v-99.598c0-3.25-2.659-5.908-5.908-5.908h-.065c-26.438 0-47.871-21.432-47.871-47.871s21.432-47.871 47.871-47.871z" fill="#f7e07b"/></g></g><g><g><ellipse cx="340.577" cy="283.395" fill="#f7e07b" rx="41.263" ry="41.263" transform="matrix(.23 -.973 .973 .23 -13.485 549.75)"/></g></g><g><g><ellipse cx="184.434" cy="357.286" fill="#f7e07b" rx="29.177" ry="29.177" transform="matrix(.707 -.707 .707 .707 -198.62 235.061)"/></g></g><g><g><path d="m397.749 427.726c0-22.47-18.216-40.686-40.686-40.686s-40.686 18.216-40.686 40.686c0 2.619.257 5.178.73 7.659h79.911c.474-2.481.731-5.04.731-7.659z" fill="#f7e07b"/></g></g><g><g><path d="m86.286 205.585c0 33.717 27.333 61.05 61.049 61.05 33.717 0 61.049-27.333 61.049-61.05 0-7.197-1.255-14.098-3.542-20.509h-115.014c-2.287 6.411-3.542 13.312-3.542 20.509z" fill="#f7e07b"/></g></g><g><g><path d="m340.577 242.132c-5.294 0-10.349 1.008-15 2.824 15.369 6.003 26.263 20.944 26.263 38.438 0 17.495-10.893 32.436-26.263 38.439 4.651 1.816 9.706 2.824 15 2.824 22.789 0 41.263-18.474 41.263-41.263 0-22.788-18.474-41.262-41.263-41.262z" fill="#f2d062"/></g></g><g><g><path d="m357.063 387.04c-5.299 0-10.357 1.024-15 2.867 15.044 5.972 25.686 20.648 25.686 37.818 0 2.619-.257 5.178-.73 7.659h30c.473-2.482.73-5.04.73-7.659 0-22.47-18.216-40.685-40.686-40.685z" fill="#f2d062"/></g></g><g><g><path d="m204.844 185.076h-30c2.287 6.412 3.542 13.313 3.542 20.509 0 28.541-19.587 52.501-46.049 59.187 4.8 1.213 9.824 1.863 15 1.863 33.717 0 61.049-27.333 61.049-61.05-.001-7.197-1.256-14.098-3.542-20.509z" fill="#f2d062"/></g></g><g><path d="m498.526 232.39h.185.009c3.546 0 6.879-1.38 9.387-3.886 2.511-2.509 3.894-5.845 3.894-9.394v-34.035c0-3.18-1.982-5.89-4.775-6.982-.016-.006-.026-.016-.042-.022l-273.578-104.837c-6.591-2.526-13.513-3.843-20.572-3.916l-20.033-.204c-109.79 0-165.2 68.488-183.927 97.934-5.936 9.335-9.074 20.197-9.074 31.413v88.866c0 6.14 4.651 11.147 10.819 11.647 20.777 1.686 37.052 19.36 37.052 40.237 0 20.876-16.275 38.55-37.052 40.237-6.168.501-10.819 5.509-10.819 11.649v35.04c0 9.234 7.513 16.748 16.748 16.748h196.864c4.142 0 7.5-3.358 7.5-7.5s-3.358-7.5-7.5-7.5h-196.864c-.964 0-1.748-.784-1.748-1.748v-32.06c27.075-3.692 47.871-27.234 47.871-54.865s-20.796-51.173-47.871-54.865v-79.915c0-6.538 5.318-11.856 11.855-11.856h53.172c-.824 4.277-1.242 8.635-1.242 13.009 0 37.799 30.751 68.55 68.55 68.55 37.798 0 68.549-30.752 68.549-68.55 0-4.379-.426-8.733-1.251-13.009h54.681c4.143 0 7.5-3.358 7.5-7.5s-3.357-7.5-7.5-7.5h-242.459c-2.444 0-4.809.335-7.061.949.598-1.166 1.231-2.315 1.937-3.425 17.398-27.356 68.914-90.984 171.193-90.984l19.956.203c5.27.054 10.438 1.038 15.358 2.923l235.73 90.334h-164.654c-4.142 0-7.5 3.358-7.5 7.5s3.358 7.5 7.5 7.5h197.686v24.835c-29.828.812-53.845 25.329-53.845 55.35 0 30 23.981 54.505 53.845 55.348v98.028c0 .963-.784 1.748-1.748 1.748h-90.006c0-.053.003-.107.003-.159 0-26.57-21.616-48.186-48.185-48.186s-48.186 21.616-48.186 48.186c0 .053.004.106.004.159h-65.27c-4.142 0-7.5 3.358-7.5 7.5s3.358 7.5 7.5 7.5h251.641c9.235 0 16.748-7.513 16.748-16.748v-99.597c0-3.577-1.397-6.943-3.936-9.48-2.535-2.533-5.898-3.928-9.528-3.928-.003 0-.007 0-.01 0-22.261 0-40.371-18.11-40.371-40.371-.001-22.261 18.11-40.371 40.37-40.371zm-297.641-26.805c0 29.528-24.022 53.55-53.549 53.55s-53.55-24.023-53.55-53.55c0-4.397.552-8.769 1.613-13.009h103.886c1.061 4.242 1.6 8.608 1.6 13.009zm122.993 222.141c0-18.298 14.887-33.186 33.186-33.186s33.185 14.887 33.185 33.186c0 .053-.003.106-.003.159h-66.364c-.001-.053-.004-.107-.004-.159z"/><path d="m389.34 283.395c0-26.888-21.875-48.762-48.763-48.762s-48.763 21.875-48.763 48.762 21.875 48.763 48.763 48.763c26.888-.001 48.763-21.876 48.763-48.763zm-82.526 0c0-18.617 15.146-33.762 33.763-33.762s33.763 15.146 33.763 33.762-15.146 33.763-33.763 33.763c-18.617-.001-33.763-15.147-33.763-33.763z"/><path d="m184.434 320.609c-20.224 0-36.677 16.453-36.677 36.677s16.453 36.677 36.677 36.677 36.677-16.453 36.677-36.677-16.453-36.677-36.677-36.677zm0 58.354c-11.953 0-21.677-9.725-21.677-21.677 0-11.953 9.725-21.677 21.677-21.677 11.953 0 21.677 9.725 21.677 21.677 0 11.953-9.724 21.677-21.677 21.677z"/></g></g></svg>