<svg id="Capa_1" enable-background="new 0 0 511.965 511.965" height="512" viewBox="0 0 511.965 511.965" width="512" xmlns="http://www.w3.org/2000/svg"><g><g><g><path d="m88.898 22.409v467.147c0 11.942 13.372 19.052 23.241 12.328 48.983-33.376 114.437-130.843 114.437-245.901s-65.454-212.526-114.437-245.902c-9.868-6.724-23.241.386-23.241 12.328z" fill="#abd4b9"/></g></g><g><g><circle cx="139.324" cy="122.62" fill="#c8e68f" r="21.852"/></g></g><g><g><circle cx="139.324" cy="389.344" fill="#c8e68f" r="21.852"/></g></g><g><g><circle cx="155.743" cy="209.009" fill="#c8e68f" r="29.008"/></g></g><g><g><circle cx="155.743" cy="301.553" fill="#c8e68f" r="29.008"/></g></g><g><g><path d="m285.389 22.409v467.147c0 11.942 13.372 19.052 23.241 12.328 48.983-33.376 114.437-130.843 114.437-245.901s-65.454-212.526-114.438-245.902c-9.868-6.724-23.24.386-23.24 12.328z" fill="#abd4b9"/></g></g><g><g><path d="m112.139 10.081c-7.965-5.427-18.208-1.839-21.865 6.024 47.783 38.027 106.302 131.083 106.302 239.877s-58.519 201.851-106.302 239.877c3.657 7.864 13.9 11.452 21.865 6.024 48.983-33.376 114.437-130.843 114.437-245.901 0-115.057-65.454-212.525-114.437-245.901z" fill="#95c9a6"/></g></g><g><g><path d="m308.629 10.081c-7.965-5.427-18.208-1.839-21.865 6.024 47.783 38.027 106.302 131.083 106.302 239.877s-58.519 201.851-106.302 239.877c3.657 7.864 13.9 11.452 21.865 6.024 48.983-33.376 114.437-130.843 114.437-245.901 0-115.057-65.454-212.525-114.437-245.901z" fill="#95c9a6"/></g></g><g><g><circle cx="335.814" cy="122.62" fill="#bbdb81" r="21.852"/></g></g><g><g><circle cx="335.814" cy="389.344" fill="#bbdb81" r="21.852"/></g></g><g><g><circle cx="352.233" cy="209.009" fill="#bbdb81" r="29.008"/></g></g><g><g><circle cx="352.233" cy="301.553" fill="#bbdb81" r="29.008"/></g></g><g><path d="m116.362 3.883c-6.857-4.673-15.684-5.163-23.026-1.28-7.363 3.893-11.938 11.482-11.938 19.806v168.964c0 4.142 3.357 7.5 7.5 7.5s7.5-3.358 7.5-7.5v-168.964c0-2.792 1.476-5.238 3.948-6.545 1.179-.623 4.274-1.83 7.569.415 25.537 17.4 52.889 50.896 73.167 89.603 17.332 33.084 37.993 85.98 37.993 150.101 0 113.092-65.003 208.252-111.161 239.703-3.292 2.243-6.389 1.038-7.568.415-2.473-1.307-3.948-3.754-3.948-6.545v-268.184c0-4.142-3.357-7.5-7.5-7.5s-7.5 3.358-7.5 7.5v268.184c0 8.324 4.574 15.913 11.938 19.806 3.293 1.741 6.882 2.602 10.459 2.602 4.401 0 8.784-1.305 12.566-3.883 27.479-18.722 56.64-54.25 78.009-95.037 18.113-34.575 39.706-89.89 39.706-157.062s-21.593-122.487-39.706-157.061c-21.368-40.787-50.53-76.315-78.008-95.038z"/><path d="m139.324 93.269c-16.185 0-29.352 13.167-29.352 29.352s13.167 29.351 29.352 29.351 29.352-13.167 29.352-29.351-13.167-29.352-29.352-29.352zm0 43.703c-7.913 0-14.352-6.438-14.352-14.351s6.439-14.352 14.352-14.352 14.352 6.438 14.352 14.352-6.439 14.351-14.352 14.351z"/><path d="m139.324 418.696c16.185 0 29.352-13.167 29.352-29.352s-13.167-29.352-29.352-29.352-29.352 13.167-29.352 29.352 13.168 29.352 29.352 29.352zm0-43.703c7.913 0 14.352 6.438 14.352 14.352s-6.438 14.352-14.352 14.352-14.352-6.438-14.352-14.352c.001-7.914 6.439-14.352 14.352-14.352z"/><path d="m155.743 172.501c-20.131 0-36.508 16.377-36.508 36.507s16.377 36.508 36.508 36.508c20.13 0 36.507-16.378 36.507-36.508s-16.377-36.507-36.507-36.507zm0 58.016c-11.859 0-21.508-9.648-21.508-21.508 0-11.859 9.649-21.507 21.508-21.507s21.507 9.648 21.507 21.507-9.648 21.508-21.507 21.508z"/><path d="m155.743 265.046c-20.131 0-36.508 16.377-36.508 36.507s16.377 36.508 36.508 36.508c20.13 0 36.507-16.377 36.507-36.508s-16.377-36.507-36.507-36.507zm0 58.015c-11.859 0-21.508-9.648-21.508-21.508s9.649-21.507 21.508-21.507 21.507 9.648 21.507 21.507-9.648 21.508-21.507 21.508z"/><path d="m390.86 98.921c-21.369-40.787-50.53-76.316-78.008-95.038-6.858-4.672-15.681-5.164-23.026-1.281-7.363 3.893-11.938 11.482-11.938 19.806v351.222c0 4.142 3.357 7.5 7.5 7.5s7.5-3.358 7.5-7.5v-351.221c0-2.792 1.476-5.238 3.948-6.545 1.179-.623 4.271-1.83 7.569.415 25.536 17.4 52.889 50.896 73.167 89.603 17.332 33.084 37.993 85.98 37.993 150.101 0 113.092-65.003 208.252-111.161 239.703-3.291 2.243-6.39 1.038-7.568.415-2.473-1.307-3.948-3.754-3.948-6.545v-85.925c0-4.142-3.357-7.5-7.5-7.5s-7.5 3.358-7.5 7.5v85.925c0 8.324 4.574 15.913 11.938 19.806 3.293 1.741 6.882 2.602 10.459 2.602 4.401 0 8.784-1.305 12.566-3.883 27.479-18.722 56.64-54.25 78.009-95.037 18.113-34.575 39.706-89.89 39.706-157.062s-21.592-122.487-39.706-157.061z"/><path d="m335.814 93.269c-16.185 0-29.352 13.167-29.352 29.352s13.167 29.351 29.352 29.351 29.352-13.167 29.352-29.351-13.167-29.352-29.352-29.352zm0 43.703c-7.913 0-14.352-6.438-14.352-14.351s6.438-14.352 14.352-14.352c7.913 0 14.352 6.438 14.352 14.352s-6.439 14.351-14.352 14.351z"/><path d="m335.814 418.696c16.185 0 29.352-13.167 29.352-29.352s-13.167-29.352-29.352-29.352-29.352 13.167-29.352 29.352 13.168 29.352 29.352 29.352zm0-43.703c7.913 0 14.352 6.438 14.352 14.352s-6.439 14.352-14.352 14.352-14.352-6.438-14.352-14.352c.001-7.914 6.439-14.352 14.352-14.352z"/><path d="m352.233 172.501c-20.131 0-36.508 16.377-36.508 36.507s16.377 36.508 36.508 36.508c20.13 0 36.507-16.378 36.507-36.508s-16.377-36.507-36.507-36.507zm0 58.016c-11.859 0-21.508-9.648-21.508-21.508 0-11.859 9.648-21.507 21.508-21.507 11.859 0 21.507 9.648 21.507 21.507s-9.647 21.508-21.507 21.508z"/><path d="m352.233 265.046c-20.131 0-36.508 16.377-36.508 36.507s16.377 36.508 36.508 36.508c20.13 0 36.507-16.377 36.507-36.508s-16.377-36.507-36.507-36.507zm0 58.015c-11.859 0-21.508-9.648-21.508-21.508s9.648-21.507 21.508-21.507c11.859 0 21.507 9.648 21.507 21.507s-9.647 21.508-21.507 21.508z"/></g></g></svg>