<svg id="Capa_1" enable-background="new 0 0 512 512" height="512" viewBox="0 0 512 512" width="512" xmlns="http://www.w3.org/2000/svg"><g><g><g><path d="m398.286 198.63c-17.422-62.086-49.724-191.13-142.286-191.13-95.884 0-124.864 129.044-142.286 191.13-18.977 67.631-101.935 305.87 142.286 305.87s161.263-238.239 142.286-305.87z" fill="#a5cb81"/></g></g><g><g><path d="m255.997 466.366c-.11.003-.221.005-.331.007-37.53.818-81.403-5.002-108.052-34.407-25.748-28.411-26.519-71.147-22.137-109.238 7.907-68.738 27.773-135.674 53.198-200.025 7.769-19.665 16.348-39.569 30.796-55.006 14.449-15.437 36.04-25.783 56.75-21.518 17.449 3.593 31.423 16.703 42.084 30.976 24.238 32.448 35.822 72.337 47.334 111.168 14.556 49.1 29.835 98.563 33.118 149.671 2.047 31.87-1.531 66.331-22.021 90.828-26.774 32.009-71.747 36.674-110.739 37.544z" fill="#e3f18c"/></g></g><g><g><path d="m388.757 337.992c-3.283-51.107-18.561-100.57-33.118-149.671-11.512-38.831-23.095-78.72-47.334-111.168-10.661-14.273-24.635-27.382-42.084-30.976-8.356-1.721-16.854-1.06-24.97 1.351 15.122 4.853 27.44 16.754 37.054 29.625 24.238 32.448 35.822 72.337 47.334 111.168 14.556 49.101 29.835 98.563 33.118 149.671 2.047 31.87-1.531 66.331-22.021 90.828-24.694 29.524-64.865 35.782-101.549 37.26 6.938.369 13.809.439 20.479.294.11-.002.221-.005.331-.007 38.991-.87 83.964-5.536 110.739-37.547 20.491-24.497 24.069-58.958 22.021-90.828z" fill="#d5e37d"/></g></g><g><g><ellipse cx="259.694" cy="320.35" fill="#dfa267" rx="72.96" ry="88.258"/></g></g><g><g><path d="m259.694 232.092c-5.142 0-10.159.647-15 1.871 33.098 8.368 57.96 43.864 57.96 86.387s-24.862 78.02-57.96 86.387c4.841 1.224 9.858 1.871 15 1.871 40.295 0 72.96-39.515 72.96-88.258s-32.665-88.258-72.96-88.258z" fill="#d49559"/></g></g><g><g><path d="m256 512c-70.229 0-120.521-19.579-149.483-58.192-53.995-71.99-19.856-189.058-3.45-245.318 1.279-4.388 5.626-19.822 6.805-24.128 5.583-20.389 12.53-45.765 22.185-70.942 1.483-3.867 5.819-5.801 9.689-4.317 3.867 1.483 5.801 5.821 4.317 9.688-9.39 24.484-16.229 49.462-21.724 69.532-1.188 4.339-5.577 19.925-6.873 24.367-15.725 53.923-48.444 166.128 1.051 232.118 25.975 34.632 72.231 52.192 137.483 52.192s111.508-17.56 137.483-52.192c49.495-65.99 16.775-178.195 1.051-232.118-1.296-4.442-4.803-16.803-5.503-19.319-17.349-62.337-49.644-178.371-133.031-178.371-40.712 0-72.753 24.899-97.954 76.121-1.829 3.716-6.325 5.248-10.04 3.419-3.717-1.829-5.248-6.324-3.419-10.041 12.612-25.635 26.705-44.905 43.083-58.911 19.854-16.979 42.844-25.588 68.33-25.588 94.782 0 129.065 123.175 147.481 189.349.698 2.505 4.173 14.753 5.452 19.141 16.406 56.26 50.545 173.328-3.45 245.318-28.961 38.613-79.255 58.192-149.483 58.192z"/></g></g><g><g><path d="m249.306 473.944c-48.963.001-85.02-12.414-107.249-36.941-29.646-32.714-27.913-81.375-24.03-115.132 7.214-62.719 24.771-128.769 53.674-201.924 7.91-20.024 16.92-40.948 32.296-57.375 17.845-19.064 42.267-28.16 63.738-23.739 16.709 3.441 32.381 14.824 46.58 33.833 24.652 33.002 36.503 72.989 47.964 111.66l2.608 8.79c13.851 46.63 28.173 94.847 31.355 144.396 2.72 42.32-5.05 73.761-23.752 96.12-28.268 33.796-74.666 39.303-116.325 40.233h-.001l-.33.008c-2.2.047-4.379.071-6.528.071zm6.691-7.578h.01zm.862-413.608c-12.293 0-28.004 5.205-41.912 20.064-13.575 14.504-21.916 33.956-29.296 52.637-28.415 71.919-45.661 136.727-52.723 198.126-5.642 49.042.791 81.881 20.243 103.345 20.153 22.238 54.563 32.988 102.332 31.946l.326-.007c68.24-1.523 91.45-18.477 105.153-34.86 15.889-18.996 22.715-47.774 20.289-85.535-3.074-47.86-17.151-95.253-30.766-141.086l-2.61-8.799c-11.087-37.408-22.551-76.091-45.6-106.946-11.936-15.98-24.583-25.44-37.588-28.118-2.392-.494-5.031-.767-7.848-.767z"/></g></g><g><g><path d="m259.694 416.108c-44.366 0-80.46-42.957-80.46-95.758s36.094-95.758 80.46-95.758 80.46 42.957 80.46 95.758c0 4.931-.317 9.883-.943 14.717-.531 4.108-4.294 7.005-8.4 6.475-4.107-.532-7.007-4.293-6.475-8.401.543-4.198.818-8.501.818-12.791 0-44.53-29.365-80.758-65.46-80.758s-65.46 36.228-65.46 80.758 29.365 80.758 65.46 80.758c23.704 0 45.629-15.923 57.219-41.555 1.707-3.775 6.152-5.449 9.924-3.744 3.774 1.707 5.45 6.15 3.744 9.924-14.05 31.073-41.212 50.375-70.887 50.375z"/></g></g></g></svg>