<svg id="Capa_1" enable-background="new 0 0 511.972 511.972" height="512" viewBox="0 0 511.972 511.972" width="512" xmlns="http://www.w3.org/2000/svg"><g><g><g><path d="m342.051 62.829c-2.083.928-4.547 2.053-7.294 3.355-8.983 4.259-19.627.672-24.358-8.071-8.135-15.035-21.862-30.422-33.492-41.999-11.555-11.502-30.253-11.532-41.809-.031-10.166 10.117-21.939 23.149-30.181 36.314-7.279 11.626-21.876 16.287-34.402 10.697l-.59-.263c-4.117-1.835-8.952-.32-11.282 3.539-10.625 17.589-37.555 76.873-29.334 103.069 7.681 24.476 29.249 40.737 53.308 42.849 13.88 1.219 27.002 6.498 38.465 14.418 9.916 6.851 21.941 10.864 34.906 10.864s24.99-4.013 34.906-10.864c11.463-7.92 24.585-13.2 38.465-14.418 24.058-2.112 45.626-18.373 53.307-42.849 8.219-26.189-18.695-85.455-29.325-103.055-2.335-3.863-7.169-5.392-11.29-3.555z" fill="#95c9a6"/></g></g><g><g><path d="m65.879 261.011c.282 1.54.633 3.368 1.057 5.412 1.387 6.686-2.732 13.209-9.334 14.949-11.353 2.993-23.847 9.661-33.459 15.547-9.55 5.848-12.6 18.323-6.797 27.9 5.105 8.424 11.894 18.394 19.346 26.029 6.58 6.742 7.325 17.24 1.564 24.694l-.271.351c-1.892 2.451-1.664 5.923.533 8.104 10.017 9.942 45.221 37.523 64.037 36.282 17.581-1.16 31.929-12.92 37.238-28.635 3.063-9.066 8.713-16.969 15.857-23.336 6.179-5.507 10.807-12.883 12.908-21.536s1.372-17.33-1.594-25.058c-3.428-8.934-4.826-18.548-3.389-28.009 2.489-16.4-4.868-33.43-19.959-42.523-16.148-9.73-60.064-1.372-73.534 2.871-2.957.931-4.761 3.91-4.203 6.958z" fill="#95c9a6"/></g></g><g><g><path d="m446.093 261.011c-.282 1.54-.633 3.368-1.057 5.412-1.387 6.686 2.732 13.209 9.334 14.949 11.353 2.993 23.847 9.661 33.459 15.547 9.55 5.848 12.6 18.323 6.797 27.9-5.105 8.424-11.895 18.394-19.346 26.029-6.58 6.742-7.325 17.24-1.564 24.694l.271.351c1.892 2.451 1.664 5.923-.533 8.104-10.017 9.942-45.221 37.523-64.037 36.282-17.581-1.16-31.929-12.92-37.238-28.635-3.063-9.066-8.713-16.969-15.857-23.336-6.179-5.507-10.807-12.883-12.908-21.536s-1.372-17.33 1.594-25.058c3.428-8.934 4.826-18.548 3.389-28.009-2.489-16.4 4.868-33.43 19.959-42.523 16.148-9.73 60.064-1.372 73.534 2.871 2.957.931 4.761 3.91 4.203 6.958z" fill="#95c9a6"/></g></g><g><g><path d="m164.271 62.289c-1.117.259-2.176.735-3.122 1.4 1.066-.401 2.11-.866 3.122-1.4z" fill="#5ea570"/></g></g><g><g><path d="m353.339 66.383c-2.332-3.862-7.167-5.391-11.288-3.554-2.083.928-4.547 2.053-7.294 3.355-3.431 1.627-7.103 2.101-10.596 1.588 11.123 19.132 36.52 76.124 28.504 101.666-7.681 24.476-29.249 27.737-53.308 29.849-13.879 1.219-27.002 19.499-38.465 27.419-5.957 4.116-12.679 7.198-19.906 9.01 4.802 1.205 9.824 1.854 15 1.854 12.965 0 24.99-4.013 34.906-10.864 11.463-7.92 24.585-13.2 38.465-14.419 24.059-2.112 45.626-18.373 53.308-42.849 8.218-26.189-18.696-85.455-29.326-103.055z" fill="#7fbd93"/></g></g><g><g><path d="m166.963 321.715c-3.428-8.934-4.825-18.548-3.389-28.009 2.489-16.4-4.868-33.43-19.96-42.524-8.58-5.17-25.001-5.233-40.528-3.52 4.13.716 7.747 1.845 10.528 3.52 15.091 9.093 22.449 26.124 19.96 42.524-1.436 9.461-.039 19.075 3.389 28.009 2.966 7.728 3.695 16.405 1.594 25.058s-6.729 16.029-12.908 21.537c-7.144 6.367-12.794 14.27-15.857 23.335-3.787 11.209-12.175 20.403-23.053 25.176 5.831 2.382 11.298 3.756 15.815 3.458 17.581-1.16 31.929-12.92 37.238-28.635 3.063-9.066 8.713-16.969 15.857-23.335 6.18-5.508 10.807-12.883 12.908-21.537 2.101-8.652 1.372-17.329-1.594-25.057z" fill="#7fbd93"/></g></g><g><g><path d="m487.83 296.919c-9.612-5.886-22.106-12.553-33.459-15.546-6.602-1.741-10.721-8.264-9.335-14.949.424-2.044.775-3.872 1.057-5.413.558-3.048-1.246-6.027-4.201-6.958-11.15-3.512-43.152-9.834-63.007-6.391 13.695 1.511 26.694 4.403 33.007 6.391 2.956.931 4.759 3.91 4.201 6.958-.282 1.541-.633 3.368-1.057 5.413-1.386 6.686 2.732 13.209 9.335 14.949 11.353 2.993 23.847 9.661 33.459 15.546 9.549 5.848 12.6 18.323 6.796 27.9-5.104 8.424-11.894 18.394-19.345 26.029-6.58 6.743-7.325 17.24-1.564 24.694l.271.351c1.892 2.451 1.664 5.923-.533 8.103-7.612 7.555-29.765 25.285-48.222 32.824 4.372 1.918 9.145 3.126 14.185 3.458 18.816 1.241 54.02-26.34 64.037-36.282 2.198-2.181 2.425-5.653.533-8.103l-.271-.351c-5.761-7.454-5.016-17.952 1.564-24.694 7.451-7.635 14.241-17.604 19.345-26.029 5.803-9.577 2.753-22.052-6.796-27.9z" fill="#7fbd93"/></g></g><path d="m501.041 328.706c7.918-13.067 3.748-30.196-9.295-38.183-13.421-8.218-25.353-13.737-35.463-16.402-2.756-.727-4.471-3.439-3.903-6.175.438-2.109.8-3.994 1.091-5.583 0-.001.001-.001.001-.002 1.234-6.751-2.775-13.398-9.326-15.461-8.988-2.832-58.995-14.592-79.659-2.142-17.311 10.431-26.537 30.086-23.503 50.073 1.17 7.706.141 16.073-2.977 24.196-3.015 7.856-3.964 16.237-2.823 24.51-1.252.502-2.507 1.015-3.765 1.546-31.33 13.218-54.23 31.396-67.932 53.596v-154.017c11.363-1.227 22.19-5.236 31.67-11.785 10.908-7.537 22.962-12.073 34.857-13.118 20.868-1.832 40.178-13.36 51.652-30.839 2.273-3.463 1.31-8.113-2.153-10.386-3.464-2.273-8.112-1.309-10.386 2.153-8.978 13.675-24.09 22.695-40.426 24.129-14.479 1.271-29.028 6.707-42.072 15.719-6.957 4.807-14.847 7.859-23.143 9.01v-115.475c0-4.142-3.357-7.5-7.5-7.5s-7.5 3.358-7.5 7.5v115.476c-8.295-1.151-16.186-4.203-23.143-9.01-13.043-9.012-27.591-14.448-42.072-15.719-21.864-1.919-40.237-16.688-46.807-37.624-7.095-22.604 17.899-79.236 28.596-96.945.373-.618 1.149-.861 1.812-.566l.586.261c15.735 7.023 34.574 1.193 43.815-13.565 6.521-10.418 16.59-22.514 29.115-34.978 8.6-8.561 22.61-8.547 31.226.03 14.756 14.689 25.887 28.608 32.186 40.253 6.637 12.263 21.645 17.216 34.168 11.279 2.384-1.13 4.785-2.235 7.134-3.282.659-.292 1.439-.043 1.815.582 4.46 7.384 11.769 22.181 18.041 38.591 7.435 19.453 11.491 36.001 11.732 47.857.083 4.142 3.483 7.409 7.649 7.347 4.142-.084 7.431-3.509 7.347-7.65-.654-32.398-23.633-80.167-31.928-93.9-4.282-7.089-13.209-9.896-20.763-6.528-2.456 1.095-4.964 2.249-7.453 3.429-5.318 2.523-11.709.385-14.549-4.863-7.087-13.098-18.794-27.816-34.798-43.746-14.45-14.386-37.953-14.399-52.39-.032-13.514 13.448-24.027 26.115-31.248 37.65-5.382 8.595-15.891 11.888-24.993 7.826l-.59-.263c-7.557-3.368-16.479-.568-20.755 6.512-5.838 9.665-15.338 29.35-22.4 49.728-9.169 26.457-11.749 46.464-7.669 59.464 8.395 26.752 31.871 45.623 59.807 48.075 11.896 1.044 23.95 5.581 34.857 13.118 9.48 6.549 20.307 10.558 31.67 11.785v153.749c-13.398-21.444-35.427-39.118-65.459-52.216-2.088-.911-4.171-1.776-6.245-2.608 1.152-8.289.205-16.688-2.816-24.56-3.117-8.123-4.146-16.49-2.977-24.196 3.034-19.987-6.191-39.642-23.503-50.073-20.663-12.451-70.67-.689-79.659 2.141-6.552 2.064-10.56 8.71-9.325 15.463.291 1.589.653 3.474 1.091 5.584.567 2.735-1.147 5.447-3.903 6.173-2.764.729-5.711 1.688-8.759 2.851-3.87 1.477-5.811 5.811-4.333 9.681 1.476 3.87 5.811 5.811 9.681 4.333 2.551-.974 4.985-1.768 7.235-2.361 10.468-2.759 16.953-13.181 14.767-23.724-.306-1.474-.572-2.831-.801-4.043 15.295-4.521 53.909-10.696 66.265-3.251 12.091 7.286 18.534 21.014 16.415 34.974-1.56 10.272-.245 21.276 3.803 31.822 1.71 4.457 2.447 9.16 2.242 13.869-28.599-9.438-52.26-11.768-53.478-11.883-4.108-.386-7.782 2.639-8.171 6.763s2.639 7.782 6.763 8.171c.282.027 23.492 2.313 51.023 11.485-1.926 3.721-4.507 7.075-7.681 9.904-8.432 7.515-14.646 16.69-17.972 26.534-4.52 13.378-16.542 22.622-30.626 23.552-14.422.952-45.889-22.256-57.405-33.289 7.444-10.256 6.385-24.693-2.598-33.897-5.771-5.913-12.099-14.447-18.299-24.677-3.651-6.026-1.723-13.929 4.3-17.617 3.532-2.163 4.642-6.78 2.479-10.313-2.163-3.532-6.78-4.642-10.313-2.479-13.042 7.987-17.212 25.115-9.294 38.183 6.881 11.353 13.741 20.565 20.393 27.38 4.038 4.138 4.458 10.392.999 14.868l-.274.355c-4.196 5.433-3.687 13.176 1.186 18.011 6.535 6.486 43.945 38.5 68.117 38.498.572 0 1.14-.018 1.697-.055 20.167-1.331 37.379-14.566 43.85-33.718 2.495-7.385 7.246-14.349 13.741-20.137 5.025-4.479 9.028-9.865 11.854-15.871 1.51.617 3.023 1.247 4.537 1.907 44.552 19.431 68.571 48.189 71.456 85.49v59.038c0 4.142 3.357 7.5 7.5 7.5s7.5-3.358 7.5-7.5c0 0 .248-59.418.621-62.693v-.001c4.117-36.165 28.617-64.001 72.82-82.739.844-.358 1.687-.703 2.53-1.047 2.827 6.024 6.838 11.426 11.876 15.917 6.495 5.788 11.246 12.751 13.741 20.137 6.471 19.152 23.683 32.387 43.851 33.718.558.037 1.123.055 1.697.055 24.171 0 61.581-32.012 68.116-38.498 4.872-4.835 5.382-12.578 1.183-18.015l-.27-.35c-3.461-4.478-3.041-10.732.997-14.87 6.651-6.815 13.511-16.027 20.392-27.381zm-31.127 16.904c-8.982 9.204-10.042 23.64-2.598 33.897-11.516 11.033-43.011 34.263-57.404 33.289-14.085-.929-26.107-10.174-30.627-23.551-3.325-9.844-9.54-19.019-17.972-26.534-3.186-2.839-5.775-6.206-7.703-9.943 27.474-9.136 50.76-11.419 51.038-11.445 4.122-.385 7.153-4.038 6.771-8.161-.384-4.124-4.056-7.161-8.161-6.774-1.193.111-24.878 2.411-53.491 11.841-.199-4.694.538-9.382 2.244-13.826 4.048-10.546 5.362-21.55 3.803-31.821-2.119-13.96 4.324-27.689 16.415-34.974 4.164-2.509 11.309-3.471 19.539-3.471 16.192 0 36.585 3.725 46.725 6.723-.228 1.213-.495 2.57-.801 4.042-2.187 10.544 4.299 20.965 14.767 23.725 8.574 2.261 19.451 7.341 31.454 14.69 6.022 3.688 7.951 11.591 4.3 17.617-6.201 10.229-12.529 18.763-18.299 24.676z"/></g></svg>