<svg id="Capa_1" enable-background="new 0 0 512 512" height="512" viewBox="0 0 512 512" width="512" xmlns="http://www.w3.org/2000/svg"><g><g><g><path d="m468.255 214.03c-33.792-39.86-139.778-135.354-187.969-178.249-3.27-2.911-7.491-4.515-11.87-4.515h-24.834c-4.378 0-8.599 1.604-11.869 4.515-48.19 42.895-154.176 138.389-187.967 178.249-44.244 52.189-106.127 266.704 212.254 266.704s256.498-214.515 212.255-266.704z" fill="#ebe1dc"/></g></g><g><g><path d="m256 442.734c-108.827 0-178.532-26.298-201.579-76.049-12.101-26.123-9.696-54.428-5.549-73.573 5.301-24.465 15.803-45.005 23.858-54.508 31.227-36.833 131.119-127.05 178.524-169.336h9.49c47.406 42.284 147.299 132.502 178.526 169.335 8.056 9.503 18.558 30.043 23.858 54.508 4.148 19.145 6.552 47.45-5.549 73.573-23.047 49.752-92.752 76.05-201.579 76.05z" fill="#dc8995"/></g></g><g><g><path d="m463.128 293.111c-5.301-24.465-15.803-45.005-23.858-54.508-31.227-36.833-131.12-127.051-178.525-169.337h-9.49c-3.19 2.846-6.626 5.915-10.255 9.165 50.292 45.029 139.144 125.818 168.269 160.172 8.056 9.503 18.558 30.043 23.858 54.508 4.148 19.145 6.552 47.45-5.549 73.573-21.97 47.427-86.339 73.54-186.579 75.877 4.914.115 9.914.172 15 .172 108.827 0 178.532-26.298 201.579-76.049 12.102-26.123 9.698-54.428 5.55-73.573z" fill="#dc8995"/></g></g><g><path d="m509.764 295.124c-6.146-39.527-23.12-71.001-35.788-85.944-34.415-40.595-143.43-138.704-188.703-179.001-4.646-4.135-10.632-6.413-16.855-6.413h-24.834c-6.224 0-12.21 2.278-16.855 6.413-26.719 23.781-78.008 69.806-121.319 110.855-3.007 2.849-3.134 7.596-.284 10.603s7.598 3.133 10.603.284c43.162-40.909 94.319-86.815 120.972-110.538 1.896-1.688 4.341-2.617 6.883-2.617h24.834c2.542 0 4.986.93 6.883 2.617 45.035 40.087 153.434 137.628 187.233 177.497 26.16 30.859 57.142 118.611 10.21 181.625-2.475 3.322-1.787 8.021 1.535 10.495 1.345 1.002 2.916 1.485 4.474 1.485 2.289 0 4.549-1.044 6.021-3.021 29.244-39.264 29.731-83.851 24.99-114.34z"/><path d="m454.115 420.515c-40.157 34.982-106.812 52.719-198.115 52.719-66.431 0-120.255-9.51-159.978-28.267-33.082-15.62-56.39-37.645-69.275-65.463-28.328-61.154.819-134.79 22.72-160.624 9.05-10.674 24.228-26.38 45.114-46.68 2.97-2.887 3.038-7.635.15-10.605-2.885-2.97-7.634-3.038-10.605-.151-21.229 20.635-36.74 36.695-46.101 47.736-11.38 13.423-26.188 39.99-33.62 74.296-5.622 25.948-8.671 64.766 8.732 102.332 14.403 31.093 40.135 55.56 76.481 72.722 41.741 19.709 97.721 29.703 166.383 29.703 95.03 0 165-18.978 207.969-56.408 3.123-2.721 3.449-7.458.728-10.582-2.722-3.122-7.46-3.449-10.583-.728z"/><path d="m41.542 291.523c-4.391 20.267-6.9 50.305 6.073 78.314 24.365 52.596 96.423 80.397 208.385 80.397s184.02-27.801 208.385-80.397c12.974-28.009 10.464-58.047 6.073-78.314-4.018-18.54-13.449-43.593-25.468-57.77-30.827-36.362-125.539-122.17-179.253-170.083-1.374-1.226-3.15-1.903-4.992-1.903h-9.49c-1.842 0-3.618.677-4.992 1.903-53.712 47.911-148.423 133.717-179.253 170.083-12.019 14.178-21.451 39.231-25.468 57.77zm212.573-214.756h3.771c44.201 39.461 144.803 130.286 175.663 166.686 7.211 8.507 17.25 28.172 22.249 51.246 3.904 18.024 6.202 44.597-5.025 68.833-21.729 46.908-89.08 71.702-194.773 71.702s-173.044-24.794-194.773-71.702c-11.227-24.236-8.929-50.809-5.024-68.833 4.999-23.074 15.038-42.739 22.249-51.246 30.863-36.405 131.462-127.227 175.663-166.686z"/><path d="m249.119 135.3c.567 3.711 3.764 6.367 7.404 6.367.378 0 .76-.028 1.144-.087 4.095-.626 6.906-4.453 6.28-8.548l-1.066-6.974c-.626-4.095-4.467-6.907-8.548-6.28-4.095.626-6.906 4.453-6.28 8.548z"/><path d="m91.342 319.354h7.055c4.143 0 7.5-3.358 7.5-7.5s-3.357-7.5-7.5-7.5h-7.055c-4.143 0-7.5 3.358-7.5 7.5s3.357 7.5 7.5 7.5z"/><path d="m203.738 167.156 5.553 4.35c1.372 1.075 3.002 1.596 4.62 1.596 2.226 0 4.43-.987 5.909-2.875 2.554-3.261 1.981-7.975-1.279-10.529l-5.553-4.35c-3.26-2.555-7.975-1.982-10.529 1.278-2.554 3.261-1.981 7.975 1.279 10.53z"/><path d="m184.98 221.719c.568.131 1.136.194 1.694.194 3.413 0 6.5-2.346 7.301-5.814l1.587-6.873c.932-4.036-1.584-8.063-5.62-8.995-4.044-.932-8.063 1.585-8.995 5.621l-1.587 6.873c-.932 4.035 1.584 8.062 5.62 8.994z"/><path d="m129.765 245.101 6.525 2.681c.933.383 1.898.564 2.847.564 2.951 0 5.749-1.753 6.941-4.652 1.574-3.831-.256-8.213-4.088-9.787l-6.525-2.681c-3.832-1.573-8.212.256-9.787 4.088-1.575 3.831.255 8.213 4.087 9.787z"/><path d="m151.596 369.366-4.988 4.988c-2.93 2.929-2.93 7.678-.001 10.607 1.465 1.465 3.384 2.197 5.304 2.197 1.919 0 3.839-.732 5.303-2.197l4.988-4.988c2.93-2.929 2.93-7.678.001-10.607-2.929-2.928-7.678-2.929-10.607 0z"/><path d="m209.707 278.126c4.125-.37 7.17-4.015 6.799-8.141l-.631-7.026c-.369-4.126-3.996-7.168-8.141-6.799-4.125.37-7.17 4.015-6.799 8.141l.631 7.026c.35 3.898 3.622 6.83 7.461 6.83.225 0 .452-.01.68-.031z"/><path d="m154.917 313.5c1.181.682 2.471 1.006 3.743 1.006 2.592 0 5.112-1.345 6.502-3.751l3.527-6.109c2.071-3.587.842-8.174-2.745-10.245s-8.173-.843-10.245 2.745l-3.527 6.109c-2.071 3.587-.842 8.174 2.745 10.245z"/><path d="m414.67 319.354h7.054c4.143 0 7.5-3.358 7.5-7.5s-3.357-7.5-7.5-7.5h-7.054c-4.143 0-7.5 3.358-7.5 7.5s3.358 7.5 7.5 7.5z"/><path d="m300.249 348.012c0-4.142-3.357-7.5-7.5-7.5h-7.055c-4.142 0-7.5 3.358-7.5 7.5s3.358 7.5 7.5 7.5h7.055c4.143 0 7.5-3.358 7.5-7.5z"/><path d="m299.154 173.102c1.618 0 3.248-.521 4.62-1.596l5.554-4.35c3.261-2.554 3.834-7.268 1.279-10.529s-7.269-3.833-10.529-1.279l-5.554 4.35c-3.261 2.554-3.834 7.268-1.279 10.529 1.48 1.889 3.683 2.875 5.909 2.875z"/><path d="m251.901 210.829h7.054c4.143 0 7.5-3.358 7.5-7.5s-3.357-7.5-7.5-7.5h-7.054c-4.143 0-7.5 3.358-7.5 7.5s3.357 7.5 7.5 7.5z"/><path d="m355.403 232.438c.949 0 1.915-.181 2.848-.565l6.524-2.681c3.831-1.574 5.661-5.956 4.087-9.788-1.574-3.831-5.957-5.662-9.788-4.087l-6.525 2.681c-3.831 1.574-5.661 5.956-4.087 9.788 1.191 2.899 3.989 4.652 6.941 4.652z"/><path d="m265.567 298.459c1.191 2.899 3.989 4.652 6.94 4.652.949 0 1.915-.181 2.848-.565l6.525-2.681c3.831-1.574 5.661-5.956 4.087-9.787-1.575-3.831-5.956-5.662-9.788-4.087l-6.525 2.681c-3.832 1.574-5.662 5.956-4.087 9.787z"/><path d="m361.47 369.366c-2.928-2.929-7.677-2.928-10.606 0-2.929 2.929-2.929 7.678.001 10.607l4.988 4.988c1.464 1.464 3.384 2.197 5.303 2.197s3.839-.732 5.304-2.197c2.929-2.929 2.929-7.678-.001-10.607z"/><path d="m205.986 315.741c-2.929 2.929-2.929 7.677 0 10.606l4.988 4.988c1.465 1.465 3.385 2.197 5.304 2.197s3.839-.732 5.304-2.197c2.929-2.929 2.929-7.678 0-10.606l-4.988-4.988c-2.931-2.93-7.679-2.93-10.608 0z"/><path d="m297.657 255.302c1.465 1.465 3.385 2.197 5.304 2.197s3.839-.732 5.304-2.197c2.929-2.929 2.929-7.678 0-10.606l-4.988-4.988c-2.93-2.929-7.678-2.929-10.607 0s-2.929 7.678 0 10.606z"/><path d="m358.466 277.735c-3.587 2.071-4.816 6.658-2.745 10.245l3.527 6.109c1.39 2.406 3.91 3.751 6.502 3.751 1.273 0 2.563-.324 3.743-1.006 3.587-2.071 4.816-6.658 2.745-10.245l-3.527-6.109c-2.072-3.587-6.659-4.816-10.245-2.745z"/><path d="m302.076 389.978-6.771-1.981c-3.976-1.162-8.142 1.117-9.304 5.093-1.163 3.976 1.117 8.141 5.093 9.304l6.771 1.981c.703.206 1.411.303 2.108.303 3.246 0 6.238-2.124 7.195-5.396 1.164-3.975-1.116-8.141-5.092-9.304z"/><path d="m221.948 392.161 3.526 6.109c1.389 2.406 3.91 3.752 6.502 3.752 1.272 0 2.561-.324 3.742-1.006 3.588-2.071 4.817-6.658 2.746-10.245l-3.526-6.109c-2.07-3.588-6.659-4.816-10.244-2.746-3.587 2.07-4.817 6.657-2.746 10.245z"/></g></g></svg>