<svg id="Capa_1" enable-background="new 0 0 512.027 512.027" height="512" viewBox="0 0 512.027 512.027" width="512" xmlns="http://www.w3.org/2000/svg"><g><g><g><path d="m260.689 88.128s-59.243 37.396-116.026 22.286-89.604-77.005-89.604-77.005 59.243-37.396 116.026-22.286 89.604 77.005 89.604 77.005z" fill="#c8e68f"/></g></g><g><g><path d="m251.338 88.128s59.243 37.396 116.026 22.286 89.604-77.005 89.604-77.005-59.242-37.397-116.026-22.286c-56.783 15.11-89.604 77.005-89.604 77.005z" fill="#c8e68f"/></g></g><g><g><path d="m409.033 13.161c12.346 5.458 19.936 10.248 19.936 10.248s-32.821 61.895-89.604 77.005c-23.777 6.327-47.982 3.446-68.091-2.038 22.154 9.794 59.628 21.741 96.091 12.038 56.783-15.11 89.604-77.005 89.604-77.005s-20.02-12.634-47.936-20.248z" fill="#bbdb81"/></g></g><g><g><path d="m229.28 67.9v15.453c-78.745 13.866-139.121 93.422-139.121 189.494s60.376 175.628 139.121 189.494v15.453c0 14.764 11.969 26.733 26.733 26.733 14.764 0 26.733-11.969 26.733-26.733v-16.292c76.593-15.993 134.739-94.373 134.739-188.655s-58.146-172.662-134.739-188.655v-16.292c0-14.764-11.969-26.733-26.733-26.733-14.764 0-26.733 11.969-26.733 26.733z" fill="#f7e07b"/></g></g><g><g><path d="m282.746 84.192v-16.292c0-14.764-11.969-26.733-26.733-26.733-12.548 0-23.071 8.647-25.95 20.305 12.842 1.952 22.683 13.04 22.683 26.428 0 9.242 5.996 17.373 14.789 20.22 69.165 22.391 119.95 96.614 119.95 184.727 0 64.147-26.922 120.924-68.251 155.708 57.829-29.559 98.251-97.102 98.251-175.708 0-94.283-58.146-172.662-134.739-188.655z" fill="#f2d062"/></g></g><g><circle cx="194.37" cy="157.098" r="7.5"/><circle cx="150.292" cy="201.668" r="7.5"/><circle cx="201.87" cy="213.301" r="7.5"/><circle cx="329.548" cy="386.042" r="7.5"/><circle cx="354.153" cy="344.717" r="7.5"/><path d="m460.972 27.067c-2.533-1.599-62.692-38.963-121.958-23.192-21.686 5.771-42.31 18.389-61.381 37.506-5.899-4.818-13.426-7.714-21.619-7.714-8.189 0-15.713 2.893-21.611 7.708-19.078-19.12-39.709-31.73-61.389-37.5-59.265-15.771-119.428 21.593-121.96 23.192-3.317 2.094-4.46 6.39-2.623 9.856 1.403 2.645 35.036 64.969 94.302 80.74.997.265 2.015.497 3.027.735-7.751 7.343-14.987 15.496-21.596 24.409-26.766 36.097-41.506 82.28-41.506 130.041 0 42.136 11.162 82.403 32.278 116.446 1.42 2.289 3.872 3.548 6.381 3.548 1.349 0 2.715-.364 3.946-1.128 3.52-2.183 4.604-6.807 2.42-10.327-19.643-31.667-30.025-69.199-30.025-108.539 0-44.566 13.692-87.576 38.556-121.107 24.409-32.919 57.923-54.583 94.367-61.001 3.585-.631 6.199-3.746 6.199-7.386v-15.454c0-10.605 8.628-19.233 19.233-19.233s19.233 8.628 19.233 19.233v16.292c0 3.551 2.491 6.616 5.967 7.341 23.11 4.826 44.528 15.5 63.66 31.726 18.672 15.836 34.431 36.711 45.574 60.367 1.766 3.748 6.235 5.354 9.981 3.589 3.747-1.765 5.354-6.233 3.589-9.981-10.405-22.091-24.58-41.965-41.322-58.064 2.228-.447 4.437-.934 6.598-1.509 59.266-15.771 92.899-78.094 94.302-80.74 1.838-3.464.694-7.761-2.623-9.854zm-239.192 50.129c-21.876 4.823-42.627 14.6-61.141 28.59-4.82-.554-9.539-1.419-14.048-2.619-42.495-11.308-71.34-51.415-81.179-67.01 16.269-8.657 61.141-29.123 103.743-17.787 19.563 5.206 38.359 16.959 55.91 34.913-2.104 4.436-3.285 9.39-3.285 14.617zm143.656 25.97c-5.703 1.518-11.727 2.517-17.906 2.997-17.427-13.257-36.986-22.803-57.284-27.936v-10.327c0-5.227-1.182-10.183-3.286-14.619 17.547-17.953 36.341-29.703 55.911-34.91 42.49-11.307 87.444 9.151 103.737 17.795-9.846 15.605-38.687 55.695-81.172 67z"/><path d="m406.073 201.985c-3.967 1.193-6.215 5.376-5.022 9.342 5.929 19.71 8.935 40.409 8.935 61.52 0 43.694-13.221 86.06-37.227 119.294-23.534 32.581-56.045 54.606-91.545 62.019-3.476.726-5.967 3.79-5.967 7.342v16.292c0 10.605-8.628 19.233-19.233 19.233s-19.233-8.628-19.233-19.233v-15.453c0-3.64-2.614-6.755-6.199-7.386-32.398-5.705-62.007-23.041-85.627-50.133-2.722-3.123-7.459-3.447-10.582-.724-3.122 2.722-3.446 7.46-.725 10.582 24.398 27.984 54.756 46.498 88.133 53.823v9.292c0 18.876 15.357 34.233 34.233 34.233s34.233-15.357 34.233-34.233v-10.326c36.822-9.294 70.256-32.741 94.672-66.544 25.838-35.771 40.067-81.256 40.067-128.078 0-22.575-3.22-44.727-9.57-65.84-1.194-3.967-5.376-6.215-9.343-5.022z"/></g></g></svg>