<svg id="Capa_1" enable-background="new 0 0 512 512" height="512" viewBox="0 0 512 512" width="512" xmlns="http://www.w3.org/2000/svg"><g><g><g><g><circle cx="256.482" cy="256" fill="#afd171" r="239.574"/></g></g><g><g><path d="m256.482 16.426c-5.04 0-10.038.174-15 .481 125.323 7.745 224.574 111.82 224.574 239.093s-99.251 231.348-224.574 239.093c4.962.307 9.96.481 15 .481 132.313 0 239.574-107.261 239.574-239.574s-107.261-239.574-239.574-239.574z" fill="#a4c46a"/></g></g><g><g><path d="m448.615 256c0 20.289-11.129 38.574-17.073 56.881-6.161 18.974-8.116 40.266-19.61 56.06-11.609 15.951-31.333 24.339-47.284 35.948-15.793 11.494-29.804 27.729-48.778 33.889-18.307 5.944-39.099 1.24-59.388 1.24s-41.08 4.704-59.387-1.24c-18.974-6.161-32.985-22.396-48.779-33.889-15.951-11.609-35.675-19.997-47.284-35.948-11.494-15.793-13.449-37.085-19.61-56.059-5.944-18.308-17.074-36.593-17.074-56.882s11.129-38.574 17.073-56.881c6.161-18.974 8.116-40.266 19.61-56.06 11.609-15.951 31.333-24.339 47.284-35.948 15.793-11.494 29.804-27.729 48.778-33.89 18.307-5.944 39.099-1.24 59.388-1.24s41.08-4.704 59.387 1.24c18.974 6.161 32.985 22.396 48.778 33.89 15.951 11.609 35.675 19.997 47.284 35.948 11.494 15.793 13.449 37.085 19.61 56.059 5.946 18.308 17.075 36.593 17.075 56.882z" fill="#c8e68f"/></g></g><g><g><path d="m390.475 256c0 14.017-10.136 26.262-14.243 38.91-4.256 13.109-3.4 28.944-11.341 39.855-8.02 11.02-23.399 15.063-34.419 23.083-10.911 7.941-19.465 21.364-32.573 25.62-12.648 4.107-27.4-1.59-41.417-1.59s-28.768 5.697-41.416 1.59c-13.109-4.256-21.663-17.679-32.574-25.62-11.02-8.02-26.399-12.063-34.419-23.083-7.941-10.911-7.084-26.746-11.341-39.855-4.107-12.648-14.243-24.894-14.243-38.911s10.136-26.262 14.243-38.91c4.256-13.109 3.4-28.944 11.341-39.855 8.02-11.02 23.399-15.063 34.419-23.083 10.911-7.941 19.465-21.364 32.573-25.62 12.648-4.107 27.4 1.59 41.417 1.59s28.768-5.697 41.416-1.59c13.109 4.256 21.663 17.68 32.574 25.62 11.02 8.02 26.399 12.063 34.419 23.083 7.941 10.911 7.084 26.746 11.341 39.855 4.107 12.648 14.243 24.894 14.243 38.911z" fill="#d6f49f"/></g></g><g><g><path d="m77.211 97.719c-6.319-.028-12.575.22-18.764.704-31.611 41.363-50.493 92.991-50.738 149.064-.547 125.583 92.534 229.716 213.665 246.279 48.364-40.989 79.182-102.078 79.48-170.445.541-124.056-99.587-225.062-223.643-225.602z" fill="#9bc474"/></g></g><g><g><path d="m201.49 482.311c0 2.257.033 4.506.085 6.75 18.139 4.254 37.047 6.513 56.483 6.513 136.106 0 246.442-110.336 246.442-246.442 0-18.199-1.99-35.93-5.733-53.005-3.608-.135-7.227-.226-10.867-.226-158.18.001-286.41 128.231-286.41 286.41z" fill="#a5cb81"/></g></g><g><g><path d="m498.767 196.128c-3.608-.135-7.227-.226-10.867-.226-6.402 0-21.137.885-27.434 1.299 10.91 19.889 10.035 33.881 10.035 51.931 0 131.093-98.362 238.261-227.516 245.979 4.987.302 10.011.463 15.074.463 136.106 0 246.442-110.336 246.442-246.442-.001-18.198-1.991-35.929-5.734-53.004z" fill="#96c46e"/></g></g><g><g><path d="" style="fill:none;stroke:#000;stroke-width:15;stroke-linecap:round;stroke-linejoin:round;stroke-miterlimit:10"/></g></g></g><path d="m506.093 194.521c-.732-3.34-3.63-5.761-7.047-5.889-1.713-.064-3.311-.113-4.834-.15-.007-.025-.01-.049-.017-.074-9.901-34.888-27.837-67.817-51.87-95.226-2.73-3.115-7.47-3.426-10.583-.695-3.115 2.731-3.426 7.469-.695 10.584 21.666 24.71 38.035 54.196 47.539 85.492-13.914.43-27.664 1.809-41.169 4.133-1.234-4.243-2.317-8.605-3.445-13.158-3.501-14.123-7.122-28.728-15.975-40.893-8.916-12.251-21.676-20.174-34.016-27.837-5.274-3.275-10.256-6.369-14.919-9.762-4.583-3.335-9.002-7.084-13.681-11.054-11.106-9.421-22.59-19.163-37.194-23.905-14.051-4.563-28.978-3.504-43.411-2.48-6.048.429-12.303.873-18.293.873s-12.245-.444-18.293-.873c-14.434-1.024-29.359-2.083-43.411 2.48-14.604 4.742-26.087 14.483-37.193 23.904-4.549 3.859-8.854 7.502-13.301 10.767-16.586-5.078-33.753-8.305-51.15-9.577 43.324-42.909 102.017-67.256 163.348-67.256 56.647 0 111.197 20.634 153.6 58.101 3.104 2.743 7.843 2.449 10.586-.654 2.743-3.104 2.45-7.844-.654-10.586-45.147-39.891-103.224-61.86-163.533-61.86-69.949 0-136.676 29.743-183.511 81.666-5.272.079-10.636.332-16.001.776-2.125.176-4.074 1.247-5.361 2.947-33.763 44.58-51.609 97.767-51.609 153.811 0 28.922 4.898 57.315 14.559 84.39 1.095 3.068 3.983 4.982 7.064 4.981.836 0 1.688-.141 2.521-.438 3.901-1.392 5.936-5.683 4.543-9.584-1.474-4.132-2.818-8.299-4.055-12.493 12.561 2.109 24.683 3.028 36.043 3.028 26.528 0 48.898-4.902 63.118-10.712 8.38 15.306 17.011 28.948 25.879 40.922-15.459 9.035-48.474 24.098-98.466 25.666-3.791-6.066-7.343-12.317-10.615-18.758-1.876-3.693-6.391-5.165-10.083-3.29-3.693 1.876-5.166 6.391-3.29 10.084 16.702 32.877 40.98 62.433 70.211 85.473 29.489 23.243 65.652 40.311 101.986 48.849.031.007.402.109.448.12 18.987 4.453 38.567 6.71 58.196 6.71 67.83 0 131.601-26.415 179.564-74.378 47.962-47.963 74.377-111.733 74.377-179.564 0-18.356-1.988-36.729-5.907-54.611zm-38.436 169.236c-30.51 11.791-57.302 13.444-79.783 4.924 14.261-13.847 27.656-28.184 40.117-42.931 8.762 3.344 18.056 5.018 27.73 5.018 9.208 0 18.758-1.517 28.512-4.538-4.462 13.052-10.025 25.597-16.576 37.527zm-360.479-128.135c.368-.172.728-.37 1.074-.606 23.328-15.953 55.808-52.266 72.419-103.01 14.698 8.011 28.395 17.685 40.817 28.823-17.251 81.244-63.709 114.442-90.836 127.195-8.679-17.027-16.505-34.819-23.474-52.402zm-53.134-118.741c5.435 22.404 16.691 64.863 33.692 110.215-17.558 3.927-43.899 4.428-71.359-4.869 4.014-37.725 16.801-73.54 37.667-105.346zm22.304-11.325c32.226 0 63.001 6.98 90.738 19.657-14.778 46.899-43.879 80.608-65.416 96.095-18.882-50.523-30.525-97.014-34.838-115.532 3.202-.141 6.384-.22 9.516-.22zm411.551 97.846h.052c-6.551 15.763-22.574 49.556-53.686 90.559-2.848 3.754-5.874 7.628-9.072 11.602-26.289-29.604-15.519-79.608-12.336-91.895 23.887-6.681 49.053-10.266 75.042-10.266zm-72.368 113.832c-11.228 13.18-24.307 27.27-39.416 41.83-41.515-36.746-31.786-106.881-30.176-116.739 15.828-9.398 32.656-17.275 50.289-23.429-4.468 22.086-9.285 68.307 19.303 98.338zm-116.474-60.14c-13.347-45.253-40.621-85.991-77.724-115.701-2.058-1.648-4.15-3.248-6.26-4.821.774-.352 1.543-.658 2.308-.907 6.289-2.042 14.049-.895 22.264.318 5.453.806 11.091 1.639 16.836 1.639s11.384-.833 16.837-1.639c8.215-1.214 15.975-2.36 22.263-.318 6.651 2.159 12.318 7.759 18.317 13.688 3.803 3.758 7.735 7.643 12.16 10.864 4.49 3.268 9.446 5.846 14.239 8.339 7.449 3.875 14.485 7.535 18.53 13.093 3.992 5.485 5.309 13.289 6.704 21.551.6 3.554 1.219 7.188 2.071 10.79-24.544 11.016-47.588 25.471-68.545 43.104zm-107.678 2.333c19.913-23.388 34.227-52.419 42.669-86.383 11.684 12.327 21.951 26.087 30.536 41.049-32.957 86.673-70.576 109.72-98.117 126.585-.848.519-1.68 1.03-2.506 1.537-9.428-12.384-18.19-26.251-26.281-40.926 14.33-6.833 34.645-19.484 53.699-41.862zm-17.079 94.044c26.438-16.189 65.637-40.205 99.39-121.668 5.287 11.563 9.623 23.721 12.889 36.393-2.192 2.064-4.367 4.152-6.505 6.291-31.787 31.787-55.378 69.579-69.753 110.81-2.465-1.4-4.899-2.919-7.302-4.546-.165-.122-.333-.237-.505-.343-10.234-7.005-19.904-15.999-29.007-26.451.266-.163.525-.322.793-.486zm31.379 46.37c-7.434 25.574-11.398 52.313-11.654 79.646-28.408-7.622-54.823-20.195-78.209-36.886 29.673-6.516 58.237-22.287 83.686-46.281 2.049 1.254 4.109 2.419 6.177 3.521zm56.952-81.778c.397 27.433 6.079 74.742 37.547 103.72-26.61 18.876-56.856 37.534-91.119 55.111 1.136-59.282 20.859-114.086 53.572-158.831zm49.986 94.691c-41.246-34.965-34.733-109.787-34.299-114.255 15.122-17.22 32.326-32.563 51.217-45.641-.781 8.929-1.262 21.265-.088 35.045 2.964 34.777 15.288 62.831 35.71 81.472-15.517 14.246-32.973 28.836-52.54 43.379zm184.383-163.622c0 20.416-2.579 40.241-7.419 59.17-18.656 7.875-35.893 9.561-51.407 5.044 2.897-3.635 5.75-7.288 8.533-10.968 24.649-32.587 39.997-60.482 48.875-79.159.932 8.602 1.418 17.259 1.418 25.913zm-329.711-147.701c10.456-8.87 20.332-17.248 32.122-21.076 11.272-3.66 24.118-2.749 37.717-1.784 6.309.448 12.833.91 19.354.91s13.045-.463 19.354-.91c13.598-.965 26.444-1.877 37.716 1.784 11.791 3.828 21.667 12.207 32.124 21.077 4.683 3.972 9.524 8.08 14.559 11.744 5.108 3.717 10.56 7.103 15.833 10.377 11.627 7.22 22.61 14.039 29.801 23.92 7.127 9.794 10.244 22.366 13.543 35.676 1.018 4.108 2.071 8.309 3.253 12.481-13.997 3.156-27.694 7.328-41.003 12.479-.489-2.381-.909-4.857-1.339-7.407-1.622-9.608-3.299-19.544-9.367-27.88-6.121-8.411-15.075-13.069-23.735-17.574-4.501-2.342-8.752-4.553-12.335-7.16-3.511-2.556-6.878-5.883-10.443-9.405-6.979-6.896-14.196-14.027-24.228-17.284-9.635-3.129-19.524-1.667-29.088-.254-5.144.76-10.001 1.478-14.645 1.478s-9.501-.718-14.644-1.478c-9.564-1.413-19.454-2.874-29.089.254-3.795 1.232-7.483 3.137-11.231 5.792-12.783-8.173-26.335-15.05-40.418-20.566 2.092-1.727 4.158-3.471 6.189-5.194zm-146.782 197.545c-3.657-16.624-5.507-33.636-5.507-50.85 0-3.516.081-7.019.23-10.509 16.405 5.091 32.431 7.085 46.701 7.085 11.912 0 22.591-1.386 31.252-3.494 7.607 19.177 15.472 36.766 23.581 52.753-19.749 7.682-55.667 13.234-96.257 5.015zm40.529 89.456c49.857-3.262 82.876-19.213 97.979-28.318 9.064 10.842 18.363 19.997 27.887 27.44-26.57 24.302-56.482 38.934-87.115 42.555-14.444-12.265-27.466-26.229-38.751-41.677zm163.549 97.288c30.847-16.291 59.966-34.212 87.091-53.607 17.55 10.697 37.563 14.375 56.75 14.375 9.504 0 18.793-.907 27.485-2.294-38.975 27.625-86.55 43.881-137.852 43.881-11.216-.001-22.41-.803-33.474-2.355zm197.548-63.05c-23.777 7.339-64.935 15.71-97.153-.334 10.215-7.675 20.147-15.551 29.742-23.646 7.274-6.137 14.36-12.401 21.271-18.771 12.974 6.091 27.115 9.144 42.343 9.144 11.74 0 24.127-1.817 37.112-5.436-9.695 14.183-20.873 27.273-33.315 39.043z"/></g></svg>