<svg id="Capa_1" enable-background="new 0 0 509.205 509.205" height="512" viewBox="0 0 509.205 509.205" width="512" xmlns="http://www.w3.org/2000/svg"><g><g><g><path d="m289.599 390.93c-16.241-42.947-42.043-101.505-60.283-141.898l-45.731 19.625s15.453 33.382 30.758 83.791c8.692 28.63 34.44 48.709 64.331 50.041l2.461.11c4.763.212 8.796-3.476 9.008-8.239.052-1.172-.129-2.333-.544-3.43z" fill="#a4c46a"/></g></g><g><g><path d="m294.254 494.093c8.175-110.831 61.202-213.153 61.202-213.153l-37.264-17.997c-21.859 36.508-45.847 94.152-56.135 119.802-1.887 4.705-8.517 4.781-10.51.12-15.467-36.186-40.189-86.144-57.545-120.422l-38.3 18.497s53.027 102.321 61.201 213.153c.316 4.292 3.887 7.612 8.191 7.612h60.968c4.304 0 7.875-3.32 8.192-7.612z" fill="#afd171"/></g></g><g><g><path d="m318.191 262.943c-2.151 3.593-4.324 7.397-6.501 11.349l13.765 6.648s-53.027 102.322-61.202 213.153c-.317 4.292-3.888 7.612-8.191 7.612h30c4.304 0 7.875-3.32 8.191-7.612 8.174-110.831 61.202-213.153 61.202-213.153z" fill="#a4c46a"/></g></g><g><g><path d="m475.62 194.138c0-23.424-17.665-42.712-40.398-45.294.001-.102.008-.202.008-.304 0-20.704-16.784-37.487-37.487-37.487-2.423 0-4.789.238-7.083.677.012-.417.032-.832.032-1.252 0-24.562-19.911-44.473-44.473-44.473-12.781 0-24.295 5.4-32.407 14.033-3.5-4.834-8.203-8.902-13.944-11.695-.092-.045-.185-.082-.276-.126 7.803-22.075-2.448-47.033-24.547-56.839-21.166-9.392-46.403-1.186-57.943 18.89-6.59 11.464-7.644 24.399-4.172 35.935-10.209 2.186-19.414 8.588-24.851 18.27-7.695-6.369-17.568-10.197-28.337-10.197-24.562 0-44.473 19.911-44.473 44.473 0 .064.005.127.005.191-1.252-.126-2.521-.191-3.806-.191-20.704 0-37.487 16.784-37.487 37.487 0 .102.007.202.008.304-22.733 2.582-40.399 21.87-40.399 45.294 0 18.845 11.433 35.018 27.741 41.965-.412 2.708-.549 5.506-.378 8.365 1.214 20.373 18.177 36.605 38.583 36.97 8.972.161 17.269-2.686 23.963-7.591 7.707 14.423 22.277 24.822 39.779 26.436 21.03 1.939 40.218-9.363 49.345-27.042 8.244 10.44 20.575 17.62 34.866 18.938 14.852 1.37 28.784-3.867 38.907-13.285 8.098 12.515 21.64 21.331 37.635 22.806 25.551 2.356 48.384-14.829 53.749-39.26 6.052 5.36 13.798 8.916 22.465 9.715 21.654 1.997 40.828-13.939 42.824-35.593.201-2.178.212-4.329.062-6.442 18.789-5.633 32.489-23.052 32.489-43.678z" fill="#e3f18c"/></g></g><g><g><path d="m435.221 148.844c.001-.102.008-.202.008-.304 0-20.703-16.784-37.487-37.487-37.487-2.423 0-4.789.238-7.083.677.012-.417.032-.832.032-1.252 0-24.562-19.911-44.473-44.473-44.473-7.777 0-15.081 2.002-21.437 5.514-3.446 1.904-3.328 6.99.239 8.657 13.679 6.39 23.566 19.533 25.37 35.143.165 1.426.811 2.753 1.82 3.774l.037.038c1.251 1.265 2.963 1.969 4.742 1.931.25-.005.502-.008.754-.008 19.124 0 34.894 14.324 37.189 32.827.171 1.376.798 2.646 1.724 3.677.01.011.02.023.03.034.928 1.033 2.127 1.798 3.481 2.105 20.297 4.613 35.453 22.748 35.453 44.442 0 19.452-12.183 36.051-29.334 42.601-1.814.693-3.038 2.443-3.06 4.384-.012 1.037-.064 2.082-.161 3.133-.618 6.708-2.888 12.866-6.368 18.113-2.021 3.047-.097 7.141 3.543 7.48 21.654 1.997 40.828-13.939 42.825-35.593.097-1.051.15-2.096.161-3.133.022-1.942 1.246-3.691 3.06-4.384 17.15-6.55 29.334-23.149 29.334-42.601 0-23.425-17.666-42.713-40.399-45.295z" fill="#d5e37d"/></g></g><g><path d="m442.323 142.481c-2.969-21.951-21.829-38.927-44.581-38.927-.004 0-.008 0-.012 0-3.395-25.396-25.202-45.048-51.513-45.048-11.534 0-22.758 3.9-31.809 10.892-1.855-1.756-3.86-3.355-5.989-4.775 2.633-11.676 1.235-23.825-4.099-34.799-1.812-3.725-6.298-5.278-10.023-3.467-3.726 1.811-5.278 6.299-3.467 10.024 4.502 9.262 5.101 19.68 1.688 29.336-1.279 3.62.381 7.621 3.848 9.271l.269.123c4.466 2.183 8.201 5.32 11.102 9.325 1.311 1.812 3.363 2.943 5.596 3.086 2.235.142 4.413-.718 5.944-2.349 7.07-7.524 16.639-11.668 26.941-11.668 20.387 0 36.973 16.586 36.973 36.973 0 .216-.009.429-.016.643l-.013.398c-.063 2.272.906 4.45 2.637 5.923 1.732 1.473 4.035 2.082 6.27 1.654 1.886-.361 3.795-.544 5.674-.544 16.513 0 29.951 13.416 29.987 29.92l-.008.298c-.036 3.842 2.836 7.091 6.653 7.524 19.238 2.185 33.745 18.453 33.745 37.842 0 16.697-11.163 31.703-27.146 36.492-3.362 1.007-5.576 4.212-5.329 7.713.125 1.762.108 3.52-.05 5.225-.781 8.478-4.817 16.144-11.365 21.586s-14.817 8.01-23.302 7.227c-6.794-.626-13.081-3.345-18.181-7.861-1.99-1.763-4.768-2.342-7.296-1.517-2.528.824-4.432 2.925-5.002 5.523-4.615 21.02-24.262 35.376-45.735 33.4-13.155-1.213-24.828-8.289-32.026-19.412-1.205-1.862-3.172-3.095-5.373-3.368-2.205-.273-4.409.442-6.033 1.952-8.924 8.304-20.998 12.424-33.108 11.308-11.783-1.087-22.319-6.811-29.669-16.118-1.579-2.001-4.066-3.059-6.604-2.818-2.537.244-4.777 1.76-5.946 4.025-8.048 15.591-24.534 24.625-41.992 23.014-14.376-1.326-27.032-9.738-33.853-22.502-1.024-1.917-2.83-3.295-4.95-3.778-2.119-.483-4.345-.022-6.098 1.263-5.657 4.145-12.365 6.262-19.396 6.142-16.53-.296-30.248-13.438-31.23-29.918-.136-2.277-.033-4.562.307-6.792.514-3.383-1.327-6.686-4.476-8.027-14.082-5.999-23.18-19.763-23.18-35.065 0-19.388 14.507-35.657 33.745-37.842 3.818-.434 6.69-3.682 6.653-7.524l-.007-.291c.031-16.509 13.471-29.928 29.987-29.928 1.016 0 2.043.052 3.054.153 2.118.215 4.229-.484 5.804-1.918 1.575-1.435 2.465-3.471 2.449-5.601-.001-.045-.003-.137-.005-.215.044-20.35 16.614-36.893 36.974-36.893 8.587 0 16.952 3.01 23.555 8.475 1.712 1.418 3.964 2.002 6.153 1.596 2.187-.406 4.08-1.762 5.169-3.701 4.199-7.478 11.446-12.803 19.882-14.609 2.049-.438 3.82-1.714 4.886-3.518s1.329-3.971.725-5.977c-3.052-10.141-1.812-20.808 3.493-30.035 9.566-16.641 30.824-23.57 48.399-15.772 3.786 1.68 8.218-.027 9.897-3.813 1.68-3.786-.027-8.218-3.814-9.898-11.936-5.296-25.413-5.964-37.946-1.881-12.543 4.086-23.035 12.57-29.542 23.889-6.122 10.651-8.352 22.687-6.509 34.548-6.949 2.77-13.097 7.224-17.877 12.946-7.969-4.712-17.128-7.248-26.472-7.248-26.15 0-47.852 19.413-51.45 44.584-21.311 1.493-38.577 17.895-41.406 38.816-23.653 5.584-40.797 26.778-40.797 51.657 0 19.46 10.558 37.133 27.315 46.429-.046 1.448-.026 2.9.06 4.348 1.446 24.25 21.622 43.587 45.936 44.023 7.629.136 14.988-1.527 21.668-4.854 9.717 13.44 24.75 22.122 41.519 23.668.238.022.475.03.713.049.056.165.11.33.179.493 9.357 22.245 17.584 45.106 24.454 67.948.976 3.247 3.955 5.342 7.179 5.342.715 0 1.443-.103 2.163-.32 3.966-1.193 6.215-5.375 5.022-9.342-6.568-21.839-14.362-43.685-23.166-65.022 9.729-1.907 18.747-6.277 26.237-12.667 16.932 34.311 30.096 62.409 39.163 83.598 2.106 4.921 6.898 8.079 12.241 8.079.051 0 .102 0 .153-.001 5.405-.061 10.2-3.343 12.213-8.36 6.32-15.748 18.731-45.827 32.551-74.787 6.622 3.487 13.945 5.696 21.652 6.406 1.788.165 3.563.246 5.328.246.784 0 1.565-.019 2.344-.051-15.72 38.585-39.032 105.939-44.234 176.482-.028.379-.334.665-.712.665h-60.968c-.378 0-.684-.285-.712-.663-2.036-27.612-7.008-57.088-14.777-87.609-1.021-4.014-5.105-6.439-9.118-5.418-4.014 1.022-6.44 5.104-5.418 9.118 7.553 29.672 12.383 58.274 14.354 85.012.603 8.164 7.486 14.56 15.671 14.56h60.968c8.183 0 15.067-6.395 15.671-14.56 5.467-74.129 31.643-144.957 46.761-180.579.08-.189.145-.379.209-.57 14.679-5.454 26.814-16.738 33.107-31.47 5.452 2.913 11.449 4.713 17.741 5.293 12.466 1.15 24.637-2.624 34.267-10.628 9.629-8.003 15.565-19.277 16.714-31.744.059-.626.103-1.257.136-1.891 19.36-8.21 32.452-27.573 32.452-48.918-.004-24.877-17.148-46.07-40.8-51.654zm-185.602 233.438c-8.838-20.376-21.127-46.553-36.587-77.95 7.863 5.239 16.945 8.478 26.662 9.374.065.006.13.008.196.014 7.064 16.239 13.512 31.386 19.163 45.022.05.12.118.227.174.343-3.783 8.927-7.056 16.888-9.608 23.197zm17.855-42.281c-3.621-8.59-7.49-17.642-11.589-27.105 7.889-1.518 15.418-4.656 22.068-9.266 1.335 1.539 2.75 2.99 4.225 4.367-5.157 10.725-10.135 21.646-14.704 32.004z"/><path d="m162.845 155.08c-18.235-.283-33.251 14.311-33.528 32.521-.063 4.142 3.243 7.55 7.385 7.613 4.105.072 7.55-3.243 7.613-7.385.15-9.847 8.208-17.754 18.022-17.754.093 0 .186.001.279.002 9.94.152 17.903 8.362 17.752 18.302-.063 4.142 3.243 7.55 7.385 7.613.039.001.078.001.117.001 4.088-.001 7.434-3.283 7.497-7.386.277-18.208-14.312-33.249-32.522-33.527z"/><path d="m283.639 113.37c-7.088-.119-13.788 2.549-18.874 7.483-5.086 4.933-7.947 11.552-8.055 18.637-.064 4.142 3.243 7.55 7.385 7.613 4.104.065 7.55-3.243 7.613-7.385.047-3.079 1.29-5.955 3.5-8.099s5.07-3.29 8.202-3.252c3.079.047 5.955 1.29 8.099 3.5s3.299 5.123 3.252 8.202c-.064 4.142 3.243 7.55 7.385 7.613.039.001.077.001.116.001 4.089-.001 7.435-3.283 7.497-7.386.108-7.085-2.549-13.788-7.482-18.874-4.934-5.085-11.553-7.945-18.638-8.053z"/><path d="m351.115 242.761c.107.004.214.007.32.007 3.997-.001 7.318-3.155 7.487-7.186.445-10.624-3.273-20.785-10.471-28.613-7.197-7.827-17.013-12.383-27.637-12.828-10.625-.447-20.786 3.274-28.612 10.471-7.827 7.198-12.383 17.013-12.827 27.637-.174 4.139 3.041 7.634 7.18 7.807 4.111.173 7.635-3.041 7.807-7.18.277-6.621 3.116-12.737 7.994-17.223s11.205-6.803 17.832-6.526c6.62.277 12.737 3.116 17.223 7.994 4.485 4.878 6.803 11.21 6.525 17.831-.174 4.14 3.041 7.636 7.179 7.809z"/></g></g></svg>