<svg id="Capa_1" enable-background="new 0 0 505.001 505.001" height="512" viewBox="0 0 505.001 505.001" width="512" xmlns="http://www.w3.org/2000/svg"><g><g><g><ellipse cx="59.132" cy="397.695" fill="#dc8995" rx="44.311" ry="44.311" transform="matrix(.352 -.936 .936 .352 -333.948 313.16)"/></g></g><g><g><path d="m103.27 393.784c-2.16-24.377-23.672-42.387-48.049-40.227-3.174.281-6.237.898-9.165 1.799 16.68 5.159 29.425 19.962 31.061 38.428 1.879 21.202-11.505 40.231-31.062 46.25 5.339 1.651 11.077 2.322 16.988 1.799 24.376-2.16 42.387-23.672 40.227-48.049z" fill="#e4a4ad"/></g></g><g><g><ellipse cx="63.029" cy="452.494" fill="#e4a4ad" rx="44.311" ry="44.311" transform="matrix(.352 -.936 .936 .352 -382.719 352.332)"/></g></g><g><g><path d="m107.167 448.584c-2.16-24.377-23.672-42.387-48.049-40.227-3.174.281-6.237.898-9.165 1.799 16.679 5.159 29.425 19.962 31.061 38.428 1.879 21.202-11.505 40.231-31.062 46.25 5.339 1.651 11.077 2.323 16.988 1.799 24.376-2.16 42.386-23.673 40.227-48.049z" fill="#dc8995"/></g></g><g><g><ellipse cx="119.941" cy="415.093" fill="#e4a4ad" rx="44.311" ry="44.311" transform="matrix(.153 -.988 .988 .153 -308.598 470.252)"/></g></g><g><g><path d="m164.079 411.183c-2.16-24.377-23.672-42.387-48.049-40.227-3.174.281-6.237.898-9.165 1.799 16.679 5.159 29.425 19.962 31.061 38.429 1.878 21.202-11.506 40.231-31.062 46.25 5.339 1.651 11.077 2.322 16.988 1.799 24.376-2.162 42.387-23.674 40.227-48.05z" fill="#dc8995"/></g></g><g><g><circle cx="266.454" cy="248.676" fill="#dc8995" r="45.102"/></g></g><g><g><ellipse cx="208.214" cy="304.039" fill="#e4a4ad" rx="45.102" ry="45.102" transform="matrix(.707 -.707 .707 .707 -154.003 236.28)"/></g></g><g><g><path d="m253.441 300.359c-2.198-24.812-24.094-43.144-48.906-40.945-3.747.332-7.344 1.12-10.747 2.293 15.857 5.846 27.762 20.399 29.352 38.351 1.866 21.064-11.068 40.021-30.199 46.613 6.06 2.234 12.694 3.202 19.554 2.594 24.812-2.198 43.144-24.094 40.946-48.906z" fill="#dc8995"/></g></g><g><g><ellipse cx="181.455" cy="151.636" fill="#dc8995" rx="50.829" ry="50.829" transform="matrix(.707 -.707 .707 .707 -54.076 172.721)"/></g></g><g><g><ellipse cx="105.122" cy="133.929" fill="#e4a4ad" rx="48.413" ry="48.413" transform="matrix(.894 -.447 .447 .894 -48.802 61.163)"/></g></g><g><g><circle cx="153.02" cy="359.233" fill="#e4a4ad" r="50.829"/></g></g><g><g><path d="m203.65 354.747c-2.478-27.962-27.154-48.622-55.116-46.144-3.641.323-7.155 1.03-10.513 2.063 19.133 5.917 33.753 22.899 35.63 44.081 2.155 24.321-13.198 46.149-35.631 53.053 6.124 1.894 12.707 2.664 19.487 2.063 27.961-2.477 48.621-27.154 46.143-55.116z" fill="#dc8995"/></g></g><g><g><path d="m117.511 87.127c-9.366-2.479-18.812-2.025-27.383.777 24.257 7.886 38.403 33.452 31.795 58.414-4.363 16.482-16.724 28.706-31.807 33.636.861.28 1.731.542 2.617.777 25.848 6.842 52.348-8.565 59.19-34.412s-8.564-52.349-34.412-59.192z" fill="#dc8995"/></g></g><g><g><circle cx="58.347" cy="184.107" fill="#e4a4ad" r="50.829"/></g></g><g><g><path d="m71.354 134.97c-9.566-2.532-19.213-2.151-28.016.579 25.932 7.987 41.151 35.097 34.145 61.564-4.651 17.571-17.96 30.535-34.128 35.55.657.202 1.314.402 1.984.579 27.137 7.184 54.96-8.992 62.143-36.129 7.185-27.136-8.991-54.959-36.128-62.143z" fill="#dc8995"/></g></g><g><g><ellipse cx="258.745" cy="171.523" fill="#e4a4ad" rx="50.829" ry="50.829" transform="matrix(.248 -.969 .969 .248 28.466 379.707)"/></g></g><g><g><path d="m271.753 122.386c-9.566-2.532-19.213-2.151-28.016.579 25.932 7.988 41.151 35.097 34.145 61.564-4.651 17.571-17.959 30.535-34.128 35.55.656.202 1.314.402 1.984.579 27.137 7.184 54.96-8.992 62.143-36.129 7.184-27.136-8.991-54.959-36.128-62.143z" fill="#dc8995"/></g></g><g><g><ellipse cx="77.526" cy="260.201" fill="#dc8995" rx="50.829" ry="50.829" transform="matrix(.707 -.707 .707 .707 -161.283 131.031)"/></g></g><g><g><ellipse cx="128.986" cy="202.806" fill="#e4a4ad" rx="50.829" ry="50.829" transform="matrix(.865 -.503 .503 .865 -84.457 92.308)"/></g></g><g><g><path d="m141.993 153.67c-9.566-2.532-19.214-2.151-28.016.579 25.932 7.987 41.151 35.097 34.145 61.564-4.651 17.571-17.959 30.535-34.128 35.55.656.202 1.314.402 1.984.579 27.137 7.184 54.96-8.992 62.144-36.129s-8.992-54.96-36.129-62.143z" fill="#dc8995"/></g></g><g><g><ellipse cx="201.232" cy="225.238" fill="#e4a4ad" rx="50.829" ry="50.829" transform="matrix(.352 -.936 .936 .352 -80.405 334.359)"/></g></g><g><g><circle cx="141.928" cy="281.445" fill="#e4a4ad" r="50.829"/></g></g><g><g><path d="m214.239 176.102c-9.566-2.532-19.213-2.151-28.016.579 25.932 7.988 41.151 35.097 34.145 61.564-4.651 17.571-17.96 30.535-34.128 35.55.656.202 1.314.402 1.984.579 27.137 7.184 54.96-8.992 62.144-36.129s-8.992-54.959-36.129-62.143z" fill="#dc8995"/></g></g><g><g><path d="m192.559 276.959c-2.477-27.962-27.154-48.622-55.116-46.144-3.641.323-7.155 1.03-10.513 2.063 19.133 5.918 33.753 22.899 35.629 44.081 2.155 24.321-13.198 46.149-35.631 53.053 6.124 1.894 12.707 2.664 19.487 2.063 27.962-2.478 48.621-27.154 46.144-55.116z" fill="#dc8995"/></g></g><g><g><circle cx="84.1" cy="334.389" fill="#e4a4ad" r="50.829"/></g></g><g><g><path d="m134.73 329.903c-2.477-27.962-27.154-48.622-55.116-46.144-3.641.323-7.155 1.03-10.513 2.063 19.133 5.918 33.753 22.899 35.63 44.081 2.155 24.321-13.198 46.149-35.631 53.053 6.124 1.894 12.707 2.664 19.487 2.063 27.961-2.477 48.621-27.153 46.143-55.116z" fill="#dc8995"/></g></g><g><g><path d="m381.941 127.432c-9.901-3.01-14.689-18.004-23.169-22.254-9.471-4.747-24.479.037-31.666-5.748-8.614-6.934-6.336-22.262-10.817-29.839-5.723-9.676-18.763-18.17-16.025-27.176s18.299-8.805 28.439-13.658c7.939-3.8 14.577-17.802 25.591-18.768 9.191-.807 18.998 11.522 29.509 12.849 9.411 1.188 21.734-8.603 31.636-5.593 9.901 3.01 14.689 18.004 23.169 22.254 9.471 4.747 24.479-.037 31.666 5.748 8.614 6.934 6.336 22.262 10.818 29.839 5.723 9.676 18.763 18.17 16.025 27.176s-18.299 8.805-28.439 13.658c-7.939 3.8-14.577 17.802-25.591 18.768-9.191.807-18.998-11.522-29.509-12.849-9.411-1.188-21.735 8.603-31.637 5.593z" fill="#a6d4a1"/></g></g><path d="m494.174 79.641c-2.48-2.802-5.047-5.7-6.628-8.373-1.067-1.805-1.694-5.503-2.301-9.08-1.27-7.49-2.85-16.811-10.268-22.783-5.78-4.653-13.583-4.805-20.467-4.938-4.707-.091-9.575-.186-12.541-1.672-2.262-1.134-4.896-4.671-7.444-8.092-4.285-5.753-9.142-12.273-16.903-14.633-7.764-2.36-15.427.354-22.189 2.748-4.021 1.424-8.181 2.896-10.689 2.579-3.292-.416-7.39-3.047-11.352-5.591-5.794-3.721-12.38-7.935-19.753-7.289-9.486.833-15.986 7.696-21.209 13.212-2.494 2.634-5.073 5.358-6.965 6.263-2.801 1.341-6.546 2.32-10.167 3.268-6.984 1.827-15.359 4.023-19.841 10.198-5.07-.84-10.027-.806-14.787-.077-2.314-5.252-5.563-9.934-9.831-13.581-8.529-7.289-18.098-10.23-27.669-8.507-8.408 1.514-15.717 6.435-21.51 11.868-.081-10.221-.885-17.083-.984-17.886-.506-4.109-4.237-7.028-8.354-6.526-4.109.502-7.034 4.242-6.534 8.352.064.521 5.899 50.954-14.456 85.07-14.029-2.438-28.264.297-40.375 7.756-7.558-10.861-18.592-18.624-31.528-22.048-29.795-7.888-60.469 9.938-68.36 39.744-.596 2.253-1.051 4.549-1.364 6.851-13.741 2.085-26.623 9.013-35.882 19.934-2.679 3.159-2.289 7.892.871 10.571 3.158 2.679 7.892 2.289 10.57-.871 10.76-12.69 28.1-18.139 44.17-13.886 9.208 2.438 17.219 7.755 23.008 15.161-9.383 7.529-16.535 18.001-19.843 30.498-1.268 4.788-1.903 9.617-1.958 14.392-13.924 1.648-26.562 8.253-35.833 18.222-13.872-8.944-21.479-24.952-19.497-41.483.493-4.113-2.441-7.847-6.554-8.34-4.111-.493-7.847 2.441-8.339 6.553-2.643 22.035 7.358 43.38 25.67 55.494-2.095 3.92-3.774 8.119-4.949 12.557-5.366 20.271.359 41.313 14.951 55.991-7.737 11.172-11.307 24.567-10.092 38.271.48 5.419 1.703 10.653 3.579 15.604-15.133 10.535-23.699 28.56-22.053 47.125.836 9.444 4.192 18.348 9.734 25.936-4.681 8.777-6.736 18.724-5.838 28.864 1.221 13.785 7.737 26.27 18.349 35.154 9.411 7.879 21.042 12.089 33.17 12.089 1.546 0 3.103-.069 4.662-.207 21.76-1.928 39.571-16.89 45.331-37.659 2.28.307 4.59.465 6.919.465 1.547 0 3.104-.069 4.663-.207 13.785-1.221 26.269-7.738 35.153-18.349 8.028-9.589 12.232-21.487 12.068-33.862 10.057-3.386 19.023-9.471 26.008-17.814 9.473-11.315 14.226-25.484 13.534-40.137.527-.031 1.054-.058 1.579-.104 28.372-2.514 49.523-27.237 47.852-55.486 1.885.206 3.78.332 5.684.332 1.565 0 3.133-.07 4.704-.209 28.892-2.56 50.314-28.148 47.754-57.039-1.15-12.969-7.094-25.025-16.531-33.832 5.941-6.661 10.422-14.724 12.812-23.752 3.728-14.082 2.077-28.948-4.648-41.859-1.913-3.674-6.443-5.101-10.116-3.187-3.674 1.913-5.101 6.443-3.186 10.116 4.994 9.589 6.22 20.631 3.451 31.092-5.024 18.978-22.427 32.255-41.865 32.253-.037 0-.074-.003-.111-.003-1.194-6.585-3.535-12.982-6.999-18.94-7.831-13.469-20.438-23.083-35.5-27.07-.218-.058-.438-.102-.657-.157.186-2.776.639-5.544 1.358-8.26 2.962-11.188 10.104-20.553 20.109-26.37 10.005-5.818 21.677-7.389 32.865-4.428 3.019.799 5.943 1.917 8.691 3.324 3.688 1.887 8.206.426 10.093-3.261 1.887-3.688.427-8.206-3.261-10.093-3.701-1.893-7.632-3.397-11.686-4.47-14.595-3.864-29.795-1.978-42.98 5.267-6.003-9.446-14.615-16.965-24.705-21.658 8.328-15.243 12.399-32.485 14.263-47.865.054-.088.113-.17.164-.261 3.123-5.572 13.78-20.49 25.445-22.569 5.124-.914 10.109.772 15.237 5.153 1.945 1.662 3.658 3.962 5.063 6.702-15.244 7.271-26.489 21.068-29.252 32.762-2.952 12.496 3.153 22.659 15.555 25.89 1.842.48 3.664.715 5.452.715 8.516-.001 16.224-5.344 21.288-15.047 4.93-9.446 6.98-22.169 5.436-34.199 2.836-.292 5.74-.199 8.652.304 1.843 5.583 6.171 10.476 9.917 14.707 2.48 2.802 5.047 5.7 6.628 8.373 1.067 1.805 1.694 5.503 2.301 9.08 1.27 7.49 2.85 16.811 10.269 22.783 5.78 4.653 13.583 4.804 20.467 4.938 4.708.091 9.576.186 12.542 1.672 2.262 1.134 4.897 4.672 7.445 8.093 4.284 5.753 9.141 12.273 16.901 14.632 7.765 2.36 15.427-.354 22.189-2.748 4.02-1.424 8.161-2.9 10.69-2.579 3.291.416 7.389 3.047 11.351 5.591 5.393 3.463 11.454 7.355 18.228 7.355.505 0 1.014-.021 1.525-.066 9.486-.832 15.986-7.696 21.209-13.212 2.494-2.634 5.073-5.358 6.965-6.263 2.801-1.341 6.546-2.32 10.167-3.268 8.546-2.235 19.183-5.017 22.21-14.975 3.028-9.958-4.26-18.189-10.117-24.803zm-420.901 48.079c-2.751-.728-5.529-1.243-8.313-1.556.176-.907.375-1.811.611-2.705 5.775-21.81 28.219-34.852 50.021-29.081 10.564 2.797 19.407 9.54 24.9 18.987 5.492 9.448 6.978 20.469 4.181 31.034-.184.694-.39 1.382-.61 2.065-.051-.014-.1-.031-.151-.044-13.353-3.534-26.865-2.109-38.596 3.117-7.86-10.707-19.07-18.383-32.043-21.817zm13.827 63.998c6.114-23.096 29.872-36.912 52.975-30.798 10.57 2.798 19.421 9.26 25.271 18.338-10.022 7.789-17.198 18.574-20.501 31.054-1.114 4.208-1.75 8.503-1.91 12.813-2.041-.032-4.094.035-6.155.218-12.499 1.107-24.162 6.167-33.455 14.387-14.328-10.496-20.829-28.618-16.225-46.012zm58.652 132.886c-1.376.122-2.759.172-4.137.164-2.275-13.733-9.286-26.073-20.072-35.103-6.749-5.651-14.517-9.622-22.794-11.763 1.701-20.674 18.362-37.757 39.356-39.618 11.529-1.02 22.765 2.508 31.638 9.937 8.874 7.43 14.324 17.87 15.346 29.399 2.108 23.799-15.538 44.876-39.337 46.984zm-57.829 52.945c-11.532 1.02-22.765-2.508-31.638-9.937-8.875-7.429-14.324-17.87-15.346-29.398-1.021-11.529 2.508-22.765 9.938-31.639 7.429-8.874 17.87-14.324 29.398-15.345 1.305-.116 2.604-.173 3.898-.173 10.142 0 19.87 3.521 27.739 10.11 8.875 7.429 14.324 17.87 15.346 29.398 1.021 11.529-2.508 22.765-9.938 31.639-7.427 8.874-17.868 14.324-29.397 15.345zm-52.283-128.435c4.588-17.331 19.319-29.882 36.765-31.948 3.15 12.474 10.414 23.764 21.02 31.891-5.398 8.067-8.701 17.332-9.586 27.016-1.623.01-3.253.071-4.888.216-12.275 1.087-23.624 5.917-32.786 13.795-10.396-10.875-14.437-26.193-10.525-40.97zm1.106 119.367c2.814 3.894 6.129 7.467 9.909 10.632 7.884 6.6 17.153 10.909 27.005 12.684-1.521 3.008-2.737 6.146-3.636 9.378-3.819-.517-7.698-.633-11.568-.289-12.03 1.066-23.069 6.166-31.589 14.5-2.431-4.429-3.948-9.318-4.401-14.442-1.118-12.611 4.399-24.866 14.28-32.463zm29.531 120.681c-9.793.866-19.339-2.13-26.879-8.442-7.539-6.312-12.169-15.182-13.036-24.976-.868-9.794 2.13-19.34 8.441-26.879 6.313-7.539 15.182-12.169 24.977-13.037 2.804-.248 5.612-.16 8.372.225.024 1.202.074 2.406.181 3.614 1.221 13.785 7.737 26.27 18.349 35.154 3.645 3.051 7.625 5.546 11.836 7.465-4.047 14.609-16.988 25.524-32.241 26.876zm81.888-50.438c-6.312 7.539-15.182 12.169-24.976 13.037-9.796.866-19.34-2.131-26.88-8.442-7.539-6.312-12.169-15.182-13.036-24.976-.836-9.435 1.932-18.652 7.787-26.057 4.17-.498 8.228-1.416 12.117-2.754 10.554 17.293 29.647 28.027 49.922 28.027 1.19 0 2.385-.051 3.582-.126-.478 7.788-3.412 15.196-8.516 21.291zm38.077-51.677c-7.429 8.874-17.87 14.324-29.398 15.345-16.007 1.416-31.544-6.326-40.185-19.592 4.492-3.03 8.591-6.699 12.166-10.968 7.719-9.22 12.294-20.337 13.356-32.064 1.634-.009 3.269-.079 4.897-.223 12.71-1.126 24.106-6.282 33.066-14.08 9.109 7.343 14.995 18.177 16.037 29.943 1.02 11.529-2.51 22.765-9.939 31.639zm25.292-45.553c-.976.086-1.955.128-2.933.139-3.4-10.658-9.825-20.198-18.489-27.365 6.057-8.874 9.694-19.453 10.094-30.718.35.006.703.03 1.053.03 11.047 0 21.588-3.179 30.602-8.764 7.918 6.394 12.9 15.649 13.809 25.904 1.829 20.653-13.484 38.944-34.136 40.774zm58.239-55.363c-4.208.372-8.393.041-12.445-.972-2.913-7.605-7.579-14.421-13.664-19.957 6.51-6.89 11.406-15.413 13.953-25.037.904-3.416 1.478-6.865 1.759-10.314 11.441-.124 22.332-3.656 31.511-9.744 7.441 6.372 12.152 15.443 13.021 25.251 1.832 20.652-13.482 38.943-34.135 40.773zm-31.083-82.67c5.817 10.005 7.39 21.677 4.428 32.865-5.244 19.813-23.875 33.351-44.3 32.184-.006 0-.011 0-.017 0-2.793-12.399-9.518-23.491-19.429-31.789-6.39-5.35-13.695-9.18-21.478-11.391-.004-3.753.48-7.508 1.451-11.179 2.962-11.188 10.104-20.554 20.109-26.37 10.005-5.817 21.678-7.389 32.865-4.428 11.189 2.961 20.554 10.102 26.371 20.108zm-20.145-74.214c-7.771 7.362-13.379 16.742-16.187 27.35-.897 3.388-1.481 6.84-1.76 10.307-7.657.071-15.224 1.663-22.337 4.727-5.106-8.054-12.109-14.725-20.31-19.43.451-1.307.867-2.627 1.221-3.964 2.918-11.022 2.414-22.406-1.322-32.921 10.268-6.689 22.721-8.734 34.692-5.566 10.86 2.875 20.215 9.922 26.003 19.497zm47.358-51.963c-2.827 5.417-6.076 7.692-9.661 6.757-3.844-1.001-5.977-2.677-4.737-7.925 1.758-7.443 9.004-16.147 18.641-21.429.609 7.478-.582 15.581-4.243 22.597zm224.038 22.796c-.587 1.931-7.247 3.673-11.654 4.826-4.303 1.126-8.753 2.289-12.847 4.249-4.397 2.104-7.948 5.854-11.381 9.479-3.84 4.055-7.811 8.248-11.628 8.583-2.302.197-6.565-2.546-10.338-4.968-5.116-3.286-10.916-7.009-17.576-7.851-.877-.111-1.75-.162-2.62-.162-5.12 0-10.108 1.766-14.956 3.483-4.807 1.702-9.775 3.461-12.818 2.536-3.041-.924-6.19-5.152-9.235-9.24-3.593-4.825-7.309-9.813-12.754-12.542-6.001-3.008-12.892-3.142-18.972-3.26-4.483-.087-9.564-.186-11.352-1.626-2.987-2.404-3.952-8.098-4.886-13.605-.835-4.923-1.698-10.013-4.18-14.209-2.311-3.906-5.359-7.35-8.308-10.68-.207-.233-.422-.476-.641-.725l91.656 27.865c.728.221 1.462.326 2.185.326 3.215 0 6.19-2.085 7.173-5.32 1.205-3.963-1.031-8.153-4.994-9.357l-91.656-27.865c.32-.084.633-.166.935-.245 4.303-1.125 8.753-2.289 12.847-4.249 4.397-2.104 7.948-5.853 11.381-9.479 3.84-4.055 7.811-8.248 11.628-8.583 2.281-.195 6.564 2.544 10.337 4.968 5.117 3.286 10.917 7.01 17.578 7.851 6.041.763 11.905-1.314 17.575-3.321 4.807-1.702 9.782-3.46 12.818-2.537 3.042.925 6.191 5.153 9.236 9.241 3.594 4.824 7.309 9.813 12.753 12.542 6.001 3.008 12.893 3.142 18.972 3.26 4.482.087 9.564.186 11.352 1.625 2.987 2.404 3.952 8.098 4.886 13.605.835 4.923 1.698 10.014 4.18 14.21 2.31 3.907 5.359 7.35 8.308 10.679 3.019 3.411 7.583 8.566 6.996 10.496z"/></g></svg>